<svg width="657" height="449" viewBox="0 0 657 449" fill="none" xmlns="http://www.w3.org/2000/svg">
<g filter="url(#filter0_d_481_1587)">
<path fill-rule="evenodd" clip-rule="evenodd" d="M136.757 367.556V403H98.2925V367.556H4V335.858C28.3077 292.389 54.4852 249.59 80.262 210H136.757V335.189H162V367.556H136.757ZM40.1944 336.259H99.2274V240.629H97.0904C78.2587 269.385 57.6906 302.956 40.1944 334.119V336.259Z" fill="#32D490"/>
<path fill-rule="evenodd" clip-rule="evenodd" d="M627.757 367.556V403H589.292V367.556H495V335.858C519.308 292.389 545.485 249.59 571.262 210H627.757V335.189H653V367.556H627.757ZM531.194 336.259H590.227V240.629H588.09C569.259 269.385 548.691 302.956 531.194 334.119V336.259Z" fill="#32D490"/>
<g filter="url(#filter1_d_481_1587)">
<path fill-rule="evenodd" clip-rule="evenodd" d="M226 383.5C226 419.325 263.736 441 327.701 441C391.799 441 429 419.024 429 383.5C429 347.876 391.799 326 327.835 326C263.736 326 226 347.675 226 383.5ZM257.822 383.5C257.822 366.918 281.428 356.667 327.835 356.667C373.84 356.667 397.178 367.018 397.178 383.5C397.178 400.082 373.975 410.333 327.835 410.333C281.428 410.333 257.822 400.183 257.822 383.5Z" fill="#FF9637"/>
</g>
<ellipse cx="181.774" cy="286.859" rx="5.78824" ry="5.78825" fill="#00B2C6"/>
<circle cx="465.326" cy="164.577" r="3.86684" fill="#00B2C6"/>
<path d="M401.559 169.013C399.958 169.709 397.412 170.902 398.077 173.144C398.442 174.082 399.148 174.848 400.054 175.289C401.689 176.127 403.449 176.692 405.266 176.963C408.644 177.619 411.438 177.027 414.024 174.625C416.305 172.447 418.288 169.979 419.925 167.284C420.564 166.335 421.015 165.272 421.254 164.153C421.495 163.003 421.16 161.808 420.357 160.951C419.345 160.128 418.003 159.831 416.738 160.15C413.728 160.719 412.359 162.352 410.005 164.097C407.396 166.067 404.561 167.717 401.559 169.013Z" fill="#00B2C6"/>
<path d="M209.931 222.3C207.761 222.548 205.552 222.396 203.406 222.764C201.26 223.132 199.051 224.157 198.01 226.078C196.673 228.544 197.754 231.803 199.891 233.62C202.029 235.437 204.951 236.022 207.753 236.11C217.725 236.198 226.834 230.465 231.066 221.435C232.091 219.161 232.595 216.079 230.658 214.502C228.721 212.925 225.678 213.157 223.453 214.238C220.835 215.511 220.05 218.241 217.721 219.714C215.353 221.154 212.69 222.039 209.931 222.3Z" fill="#00B2C6"/>
<path d="M267.189 229.681C257.405 230.482 247.374 237.927 239.584 243.291C228.88 250.673 207.753 265.035 215.022 280.751C218.049 287.276 225.566 290.31 232.555 291.959C245.084 294.974 258.067 295.613 270.831 293.84C279.726 292.599 289.373 290.326 297.251 294.641C305.256 299.084 308.763 309.156 316.529 314.063C324.294 318.971 334.374 318.162 343.1 316.929C357.759 314.864 372.858 312.734 386.788 307.49C406.995 299.885 418.644 284.594 431.533 268.166C444.879 251.209 456.912 233.172 465.438 213.181C468.2 206.705 470.722 199.651 469.265 192.774C467.391 183.968 459.097 177.563 450.291 175.706C441.484 173.848 432.302 175.858 423.831 178.908C415.361 181.958 407.291 186.073 398.677 188.699C392.649 190.541 385.868 191.573 380.191 188.859C375.324 186.546 371.689 181.654 366.397 180.605C361.274 179.573 356.222 182.415 351.931 185.409C339.658 193.903 329.859 204.343 320.396 215.767C316.577 220.387 311.013 222.412 305.297 223.373C296.01 224.926 287.243 227.832 277.772 228.809C274.434 229.129 270.895 229.377 267.189 229.681Z" fill="#00B2C6"/>
<path d="M448.978 197.818C449.49 202.157 444.006 201.957 444.006 201.957C444.521 202.081 445.02 202.26 445.495 202.493C445.862 202.675 446.067 203.076 445.998 203.48C445.93 203.884 445.606 204.195 445.199 204.247L439.147 205.047L438.546 194.399C444.623 194.744 448.626 195.768 448.978 197.818Z" fill="#FFB6AD"/>
<path d="M438.546 194.439L439.147 205.087L435.944 205.527L436.441 194.367C437.169 194.367 437.866 194.367 438.546 194.439Z" fill="#FF9C90"/>
<path d="M436.449 194.367L435.953 205.527L431.197 207.361V194.367C433.055 194.367 434.808 194.367 436.449 194.367Z" fill="#F6D3C8"/>
<path d="M388.822 234.885C389.165 238.139 389.803 241.354 390.727 244.492C378.871 239.36 364.308 242.243 357.167 240.281C355.863 239.898 354.649 239.259 353.596 238.4C353.596 238.4 353.956 236.734 354.773 234.101C354.773 233.964 361.434 235.373 361.882 235.454C364.371 235.982 366.904 236.277 369.448 236.334C371.729 236.334 373.891 235.646 376.125 235.253C380.2 234.517 384.755 233.82 388.822 234.885Z" fill="#F6D3C8"/>
<path d="M381.088 207.585C381.152 207.417 381.208 207.249 381.256 207.073C382.88 205.077 383.864 202.639 384.082 200.075C397.404 197.369 417.019 194.736 431.197 194.383V207.369C419.468 211.908 390.007 223.317 389.07 223.885C388.334 224.341 388.173 229.257 388.822 234.893C384.755 233.828 380.2 234.525 376.125 235.245C373.891 235.638 371.729 236.294 369.448 236.326C366.904 236.269 364.371 235.974 361.882 235.445C361.434 235.365 354.813 233.956 354.773 234.092C356.626 227.959 359.252 222.086 362.587 216.616L372.274 215.054C376.368 214.387 379.759 211.514 381.088 207.585Z" fill="#FFE7E0"/>
<path d="M392.233 212.141L389.03 223.893L390.671 223.197L393.546 212.525C393.559 212.201 393.351 211.91 393.04 211.818C392.729 211.727 392.395 211.86 392.233 212.141Z" fill="#F6D3C8"/>
<path d="M376.325 210.043C376.325 210.043 383.826 216.183 386.324 225.534C388.822 234.885 395.747 231.138 399.758 236.334C403.769 241.53 400.839 254.219 400.839 254.219" stroke="#DE370B" stroke-width="6"/>
<path d="M350.546 215.351C350.546 215.351 356.102 220.034 356.598 226.271C357.095 232.507 352.403 239.032 352.403 239.032" stroke="#DE370B" stroke-width="6"/>
<path d="M390.727 244.476C398.597 247.878 405.29 254.819 407.908 269.038C404.628 271.387 401.223 273.558 397.708 275.539C400.566 269.134 395.186 263.009 395.186 263.009C394.524 261.743 393.627 260.613 392.544 259.679C388.998 256.629 383.914 255.9 379.303 256.653C377.856 256.904 376.43 257.263 375.036 257.726C379.157 252.326 384.241 247.733 390.031 244.18L390.727 244.468V244.476Z" fill="#FFE7E0"/>
<path d="M386.132 242.883C386.884 243.091 387.629 243.315 388.373 243.563C382.216 247.51 376.882 252.614 372.666 258.59C371.129 259.199 369.608 259.903 368.103 260.616C372.753 253.465 378.905 247.414 386.132 242.883Z" fill="#FFE7E0"/>
<path d="M381.761 241.962C382.561 242.09 383.418 242.251 384.242 242.427C376.699 247.403 370.373 254.014 365.733 261.769L363.067 263.074C367.575 254.681 373.975 247.453 381.761 241.962Z" fill="#FFE7E0"/>
<path d="M379.775 241.69C371.833 247.579 365.392 255.259 360.978 264.107L351.435 268.75L340.09 274.282C340.987 263.922 342.492 253.267 344.141 242.819C346.66 240.78 349.092 238.629 351.435 236.366C352.1 237.1 352.823 237.78 353.596 238.4C354.65 239.256 355.864 239.893 357.167 240.273C362.219 241.642 370.913 240.617 379.775 241.69Z" fill="#FFE7E0"/>
<path d="M390.031 244.18C384.241 247.734 379.158 252.326 375.036 257.726C374.235 257.99 373.435 258.278 372.634 258.59C376.85 252.614 382.184 247.511 388.342 243.563C388.926 243.748 389.479 243.956 390.031 244.18Z" fill="#2E3257"/>
<path d="M365.733 261.769C370.37 254.005 376.696 247.385 384.242 242.402C384.875 242.538 385.507 242.691 386.132 242.859C378.905 247.39 372.753 253.441 368.103 260.592L366.205 261.512L365.733 261.769Z" fill="#2E3257"/>
<path d="M381.761 241.962C373.976 247.453 367.575 254.681 363.067 263.074L360.954 264.106C365.368 255.259 371.809 247.579 379.751 241.69C380.424 241.762 381.088 241.858 381.761 241.962Z" fill="#2E3257"/>
<path d="M350.482 235.317C350.794 235.686 351.098 236.038 351.411 236.366C349.073 238.634 346.642 240.785 344.117 242.819C344.229 242.122 344.333 241.418 344.445 240.721C346.522 239.003 348.534 237.201 350.482 235.317Z" fill="#2E3257"/>
<path d="M348.4 232.54C349.046 233.5 349.741 234.428 350.482 235.318C348.534 237.202 346.522 239.003 344.445 240.722C344.581 239.921 344.71 239.04 344.846 238.2C344.982 237.359 345.15 236.342 345.294 235.414C346.351 234.477 347.375 233.524 348.4 232.54Z" fill="#FFE7E0"/>
<path d="M346.214 227.591C346.196 227.559 346.183 227.524 346.174 227.487C346.009 227.09 345.868 226.684 345.75 226.271C340.676 231.523 335.065 236.23 329.01 240.313L328.866 240.809C328.866 240.809 328.498 241.506 327.873 242.731C334.56 238.435 340.737 233.394 346.287 227.704C346.255 227.672 346.23 227.633 346.214 227.591Z" fill="#2E3257"/>
<path d="M343.429 221.499L343.26 221.131C339.667 225.062 335.761 228.696 331.58 231.995C331.308 232.795 331.043 233.596 330.779 234.397C335.459 230.864 339.818 226.926 343.805 222.628C343.701 222.22 343.573 221.851 343.429 221.499Z" fill="#2E3257"/>
<path d="M347.616 231.347C347.872 231.755 348.136 232.147 348.416 232.54C347.392 233.524 346.367 234.477 345.31 235.414L345.646 233.324C345.646 233.284 345.646 233.244 345.646 233.196C346.327 232.588 346.951 231.995 347.616 231.347Z" fill="#2E3257"/>
<path d="M347.455 231.09L347.616 231.347C346.975 231.971 346.327 232.587 345.662 233.196C346.148 232.406 346.753 231.695 347.455 231.09Z" fill="#FFE7E0"/>
<path d="M345.662 233.196C345.662 233.244 345.662 233.284 345.662 233.324L345.326 235.413C338.85 241.202 331.713 246.206 324.062 250.32L325.167 248.111C332.556 243.953 339.434 238.948 345.662 233.196V233.196Z" fill="#2E3257"/>
<path d="M344.445 240.721C344.333 241.418 344.229 242.122 344.117 242.819C336.884 248.688 328.964 253.656 320.532 257.614L321.492 255.596C329.717 251.584 337.424 246.589 344.445 240.721Z" fill="#2E3257"/>
<path d="M339.041 212.845C339.321 213.646 339.618 214.446 339.93 215.247C339.59 215.637 339.272 216.046 338.977 216.472C338.905 216.568 338.833 216.664 338.769 216.768C336.91 219.448 335.337 222.317 334.078 225.326C333.621 226.415 333.197 227.512 332.781 228.616C332.364 229.721 331.98 230.834 331.58 231.963C317.188 243.302 299.967 250.484 281.783 252.73C277.63 247.093 274.301 240.893 271.896 234.317C271.674 233.66 271.753 232.94 272.112 232.347C272.442 231.795 272.988 231.406 273.617 231.274C286.858 228.237 299.7 223.669 311.885 217.664L313.799 216.816L314.775 216.223C321.201 212.962 327.428 209.321 333.421 205.319C333.738 205.105 334.105 204.972 334.486 204.935C335.446 204.83 336.37 205.331 336.808 206.192C336.872 206.376 336.92 206.488 336.936 206.536C337.456 208.202 338.145 210.379 339.041 212.845Z" fill="#FFE7E0"/>
<path d="M330.795 234.396C330.699 234.677 330.611 234.957 330.523 235.237C329.989 236.934 329.482 238.64 329.002 240.353C315.846 249.22 300.842 254.97 285.13 257.165C284.281 256.098 283.481 255.068 282.728 254.075C300.18 251.773 316.739 244.993 330.795 234.396V234.396Z" fill="#FFE7E0"/>
<path d="M327.865 242.731C327.201 244.02 326.264 245.877 325.135 248.111C313.735 254.533 301.276 258.858 288.348 260.88C287.548 260.04 286.867 259.207 286.171 258.382C301.019 256.169 315.229 250.834 327.865 242.731Z" fill="#FFE7E0"/>
<path d="M325.135 248.111L324.03 250.32C313.249 256.145 301.57 260.128 289.477 262.105C289.085 261.697 288.676 261.305 288.348 260.88C301.275 258.858 313.735 254.533 325.135 248.111Z" fill="#2E3257"/>
<path d="M289.477 262.105C301.57 260.127 313.249 256.144 324.03 250.32C323.23 251.962 322.365 253.739 321.493 255.58C312.291 260.084 302.52 263.316 292.447 265.187C291.406 264.146 290.414 263.122 289.477 262.105Z" fill="#FFE7E0"/>
<path d="M321.493 255.58L320.532 257.614C311.976 261.641 302.95 264.583 293.664 266.372C293.248 265.98 292.864 265.571 292.447 265.179C302.519 263.311 312.291 260.081 321.493 255.58Z" fill="#2E3257"/>
<path d="M320.532 257.614C316.409 266.42 312.222 276.219 311.885 280.535C305.357 276.429 299.253 271.685 293.664 266.372C302.95 264.583 311.976 261.641 320.532 257.614Z" fill="#FFE7E0"/>
<path d="M327.865 242.731C315.231 250.846 301.021 256.191 286.171 258.414C285.81 257.982 285.466 257.614 285.13 257.158C300.842 254.962 315.847 249.212 329.002 240.345L328.858 240.842C328.858 240.842 328.49 241.506 327.865 242.731Z" fill="#2E3257"/>
<path d="M330.796 234.397C316.749 244.989 300.201 251.768 282.76 254.075C282.44 253.635 282.12 253.203 281.824 252.778C299.995 250.52 317.202 243.333 331.58 231.995C331.308 232.796 331.044 233.596 330.796 234.397Z" fill="#2E3257"/>
<path d="M423.655 235.366C423.015 235.117 418.852 233.324 415.93 233.684C413.976 233.925 415.265 239.032 415.265 239.032L423.655 235.366Z" fill="#FF8178"/>
<path d="M406.507 253.163L398.101 255.5C398.101 255.5 396.235 268.102 407.908 269.038L418.644 264.235L406.507 253.163Z" fill="#FFB6AD"/>
<path d="M407.908 269.038L418.644 264.235L406.507 253.146L403.081 254.099C404.546 256.133 407.236 261.256 403.249 267.757C404.698 268.498 406.284 268.934 407.908 269.038Z" fill="#FF9C90"/>
<ellipse cx="421.078" cy="250.063" rx="16.1799" ry="14.0983" transform="rotate(-34.21 421.078 250.063)" fill="#FFB6AD"/>
<ellipse cx="417.403" cy="247.51" rx="6.70092" ry="6.70091" fill="#FF8178"/>
<ellipse cx="422.28" cy="241.134" rx="1.84936" ry="1.40417" transform="rotate(-34.21 422.28 241.134)" fill="#211E21"/>
<path d="M422.014 234.621C423.486 236.715 426.032 237.774 428.555 237.343C428.403 237.263 428.027 237.751 427.955 237.903C426.155 241.903 426.775 246.577 429.556 249.968C424.12 252.434 418.82 257.037 416.186 262.393C414.825 265.171 413.952 268.326 414.489 271.384C415.127 274.366 416.773 277.037 419.148 278.949C424.264 283.337 431.437 285.554 437.834 287.316C445.447 289.413 454.566 289.717 460.747 295.209C463.949 298.107 466.311 300.469 470.626 301.71C475.742 303.183 482.202 303.471 486.085 299.156C491.257 293.4 489.504 283.257 486.55 276.9C484.884 273.329 482.403 269.967 482.09 266.036C481.922 263.826 482.459 261.577 482.026 259.407C481.183 255.899 479.272 252.738 476.558 250.36C470.026 245.293 463.253 245.989 455.079 244.756C452.285 244.34 448.314 241.802 445.696 240.753C442.613 239.472 440.156 237.055 437.217 235.47C432.493 233.069 426.977 232.761 422.014 234.621Z" fill="#6A3445"/>
<path d="M395.186 263.01C395.186 263.01 400.566 269.118 397.708 275.539C395.947 276.548 393.994 277.62 391.872 278.741C393.36 277.497 394.587 275.97 395.483 274.25C397.177 270.669 397.067 266.496 395.186 263.01Z" fill="#F6D3C8"/>
<path d="M389.006 112.267C393.009 119.825 393.85 127.943 389.382 136.757C384.014 135.186 380.285 130.312 380.173 124.719C380.062 119.126 383.592 114.108 388.894 112.323L389.006 112.267Z" fill="#E09C06"/>
<path d="M395.187 263.01C394.524 261.743 393.628 260.613 392.545 259.679C388.998 256.629 383.915 255.9 379.303 256.653C374.692 257.406 370.409 259.487 366.206 261.537L351.411 268.742L340.066 274.274C341.099 262.377 342.941 250.096 344.87 238.191L330.523 235.197C329.939 237.063 329.387 238.928 328.858 240.801C327.537 245.501 326.376 250.248 325.2 254.924C322.734 264.771 320.724 274.738 319.099 284.754C319.027 285.21 318.947 285.658 318.883 286.107C318.643 287.572 318.419 289.061 318.314 290.542C321.759 289.35 325.548 289.682 328.733 291.455C331.918 293.227 334.197 296.273 334.999 299.829C340.603 298.54 346.063 296.778 351.507 294.977L356.31 293.376C363.014 291.129 369.685 288.813 376.325 286.427C380.248 285.149 384.057 283.542 387.709 281.623C389.198 280.807 390.599 279.838 391.888 278.733C393.376 277.488 394.603 275.962 395.499 274.242C397.185 270.661 397.069 266.492 395.187 263.01Z" fill="#FFF1ED"/>
<path d="M340.098 274.266L339.37 281.719C339.282 282.616 340.683 282.608 340.771 281.719L341.571 273.529L340.098 274.266Z" fill="#F6D3C8"/>
<path d="M384.082 200.067C383.864 202.631 382.88 205.069 381.256 207.065C381.71 205.48 381.808 203.816 381.545 202.189L381.304 200.732C382.001 200.524 382.721 200.34 383.458 200.187L384.082 200.067Z" fill="#F6D3C8"/>
<path d="M381.545 202.197L381.304 200.74L381.04 199.083C380.049 192.994 374.324 188.851 368.231 189.812L343.941 193.735C340.97 194.213 338.315 195.866 336.576 198.322C336.261 199.973 336.162 201.657 336.279 203.334C336.342 204.315 336.533 205.284 336.848 206.216C336.902 206.326 336.945 206.441 336.976 206.56C337.48 208.161 338.185 210.355 339.066 212.821C343.453 208.986 354.149 199.875 357.303 199.363C359.705 198.987 367.646 201.949 373.715 204.423C377.254 205.864 380.12 207.137 380.92 207.473L381.28 207.049C381.722 205.47 381.812 203.814 381.545 202.197Z" fill="#DE370B"/>
<path d="M380.896 207.497C380.096 207.161 377.229 205.896 373.691 204.447C367.622 201.973 359.657 199.011 357.279 199.387C354.125 199.899 343.429 208.994 339.042 212.845C339.322 213.645 339.618 214.446 339.93 215.247C340.779 214.15 342.029 213.435 343.405 213.261C345.574 213.133 347.408 215.111 347.928 217.224C348.06 217.786 348.13 218.36 348.136 218.937L362.587 216.6L372.274 215.038C376.363 214.37 379.75 211.501 381.08 207.577L380.896 207.497Z" fill="#FF3D0A"/>
<path d="M332.781 228.625L345.59 233.324C345.334 234.925 345.067 236.55 344.79 238.2L330.523 235.197C331.22 232.98 331.964 230.786 332.781 228.625Z" fill="#F6D3C8"/>
<path d="M352.379 222.164C351.579 220.843 347.728 222.484 347.44 223.693C347.869 222.146 348.103 220.551 348.136 218.945C348.13 218.368 348.06 217.794 347.928 217.232C347.424 215.118 345.574 213.141 343.405 213.269C342.252 214.334 341.305 215.601 340.611 217.008C340.523 217.168 340.442 217.32 340.37 217.48C339.14 220.097 338.239 222.856 337.688 225.694L347.055 230.442L347.736 230.786C348.48 229.881 349.217 228.985 349.969 228.088C351.066 226.767 352.267 225.414 352.563 223.653C352.678 223.15 352.612 222.623 352.379 222.164Z" fill="#FFB6AD"/>
<path d="M337.688 225.694C338.239 222.856 339.14 220.097 340.37 217.48C340.442 217.32 340.522 217.168 340.611 217.008C341.305 215.601 342.252 214.334 343.405 213.269C342.029 213.443 340.778 214.157 339.93 215.255C339.59 215.645 339.272 216.054 338.977 216.479C338.905 216.575 338.833 216.672 338.769 216.776C336.91 219.456 335.337 222.325 334.078 225.334C333.621 226.423 333.197 227.52 332.781 228.624L345.59 233.324C345.686 232.723 347.079 231.418 347.696 230.786C347.6 230.57 337.688 225.694 337.688 225.694Z" fill="#FF9C90"/>
<path d="M380.576 127.39C379.058 120.98 382.648 114.464 388.878 112.323L388.99 112.267C383.274 101.499 370.969 91.8924 358.088 83.0219C358.088 83.0219 336.056 71.8937 324.327 60.013C314.127 56.0741 306.042 66.2736 306.042 66.2736C315.729 83.182 333.702 110.65 350.154 116.254C369.624 122.891 332.981 136.973 318.274 153.842C312.166 188.427 322.053 208.434 322.053 208.434L334.518 203.975L336.24 203.358C336.126 201.689 336.229 200.013 336.544 198.37C338.025 190.204 344.926 176.202 370.217 157.396C379.992 150.119 386.116 143.274 389.391 136.805C384.972 135.483 381.605 131.887 380.576 127.39Z" fill="#FFAF03"/>
<path d="M333.469 296.042C334.177 297.215 334.693 298.493 334.999 299.829C332.893 300.325 330.763 300.741 328.594 301.07C326.288 301.43 323.79 301.63 321.773 300.413C320.399 299.482 319.384 298.109 318.899 296.522C318.297 294.59 318.088 292.557 318.282 290.542C324.008 288.55 330.346 290.846 333.469 296.042Z" fill="#F6D3C8"/>
<path d="M328.858 240.801C327.537 245.501 326.376 250.248 325.2 254.924C322.734 264.771 320.724 274.738 319.099 284.753C318.699 284.545 318.298 284.329 317.906 284.105C315.809 282.925 313.802 281.727 311.886 280.51C312.566 271.816 328.858 240.801 328.858 240.801Z" fill="#F6D3C8"/>
<path d="M318.226 19.0388C323.382 19.1269 323.518 22.9537 321.973 29.1742C321.973 29.1742 320.588 21.3685 309.604 26.18C311.846 22.1931 314.728 18.9828 318.226 19.0388Z" fill="#FF3D0A"/>
<path d="M318.258 51.799C318.917 53.2133 319.722 54.5549 320.66 55.802C311.757 50.1498 303.447 61.6703 303.447 61.6703C302.703 60.3013 302.038 59.0443 301.47 57.9555C314.103 44.4817 317.794 50.8223 318.226 51.727C318.226 51.727 318.226 51.783 318.266 51.807L318.258 51.799Z" fill="#FF9C90"/>
<path d="M321.973 29.1743C320.892 33.5455 318.979 39.0936 317.41 45.3622C311.085 36.2515 300.902 56.8666 300.902 56.8666C300.237 55.5777 299.741 54.5609 299.413 53.8804C295.906 46.4109 302.919 39.5339 302.919 39.5339L303.8 41.023C304.24 40.0303 306.201 32.2165 309.596 26.1801C320.588 21.3686 321.973 29.1743 321.973 29.1743Z" fill="#2E3257"/>
<path d="M317.409 45.3622C316.958 47.5031 317.24 49.7335 318.21 51.6948C317.778 50.7901 314.087 44.4895 301.454 57.9234C301.256 57.5551 301.072 57.2028 300.901 56.8666C300.901 56.8666 311.085 36.2515 317.409 45.3622Z" fill="#FFB6AD"/>
<path d="M314.776 130.321C314.593 128.182 314.147 126.073 313.447 124.044C308.915 129.491 300.825 130.233 295.378 125.701C289.93 121.169 289.188 113.079 293.72 107.632C279.382 104.061 259.687 107.776 240.882 120.537C223.445 132.37 211.852 139.207 203.935 143.178L208.738 161.279C254.372 158.077 261.417 129.696 270.696 134.468C281.832 140.192 277.501 169.277 271 192.79C270.639 194.119 270.311 195.424 270.031 196.705C270.031 196.705 272.961 200.588 274.034 201.781C274.266 202.042 274.416 202.364 274.466 202.71L276.644 216.568C276.795 217.537 276.174 218.458 275.219 218.681L268.814 220.146C269.086 222.471 269.506 224.776 270.071 227.047L311.117 212.341L313.143 211.612C309.676 198.755 312.15 179.196 313.871 160.375C314.832 149.663 315.56 139.167 314.776 130.321Z" fill="#FAC942"/>
<path d="M362.619 114.781C357.719 110.922 351.771 108.376 346.607 104.829C341.585 101.357 336.847 97.4914 332.436 93.269C323.228 84.4413 315.529 74.1644 309.644 62.8467C312.958 60.3008 318.266 57.6509 324.31 59.9886C322.988 58.6592 321.758 57.2415 320.628 55.7455C311.733 50.0933 303.415 61.6138 303.415 61.6138C304.216 63.0468 305.072 64.608 306.025 66.2812C306.785 65.3769 307.621 64.5386 308.523 63.7754C318.885 83.5704 334.669 100.007 354.028 111.162C359.312 114.188 367.27 117.895 366.766 125.204C366.365 131.057 360.041 134.203 355.437 136.501C345.526 141.456 336.696 147.765 329.362 156.139C323.971 162.305 319.552 169.256 316.257 176.754C316.215 169.069 316.88 161.397 318.242 153.833C316.464 155.799 314.985 158.017 313.855 160.414C312.134 179.196 309.66 198.754 313.126 211.652L311.101 212.38L270.095 227.055C270.521 228.884 271.093 230.675 271.808 232.411L272.152 232.347C272.482 231.794 273.028 231.405 273.657 231.274C286.898 228.236 299.74 223.669 311.925 217.664C312.878 217.192 313.847 216.72 314.816 216.223C321.241 212.962 327.468 209.32 333.461 205.319C333.779 205.104 334.145 204.972 334.526 204.935C335.486 204.83 336.41 205.331 336.848 206.192C336.533 205.26 336.341 204.291 336.279 203.31L334.558 203.926L322.061 208.401C322.061 208.401 317.089 198.338 316.377 180.157C321.844 166.281 331.122 154.234 343.14 145.403C347.816 141.985 352.859 139.471 357.959 136.781C361.962 134.659 366.597 131.833 367.902 127.174C369.215 122.314 366.317 117.695 362.619 114.781Z" fill="#E09C06"/>
<path d="M313.447 124.052C308.914 129.499 300.825 130.241 295.377 125.709C289.93 121.177 289.188 113.087 293.72 107.64C303.311 110.025 310.516 115.678 313.447 124.052Z" fill="#FFAF03"/>
<path d="M276.628 216.575C276.779 217.544 276.158 218.466 275.203 218.689L268.798 220.154C267.895 212.323 268.333 204.396 270.095 196.713C270.095 196.713 273.025 200.596 274.098 201.789C274.33 202.049 274.48 202.372 274.53 202.717L276.628 216.575Z" fill="#FFAF03"/>
<path d="M281.103 223.1L282.416 222.628C273.738 196.673 294.032 170.99 292.023 144.763C291.31 135.372 286.923 122.803 276.179 121.026C270.679 120.121 265.604 122.843 261.328 126.013C256.013 129.936 251.057 134.323 245.637 138.118C234.109 146.212 220.459 152.593 206.152 151.504L203.926 143.186C202.181 144.058 200.62 144.787 199.211 145.403C199.211 145.403 199.851 157.084 202.149 161.551C204.439 161.511 206.648 161.423 208.762 161.271L206.528 152.921C217.2 153.585 227.736 150.311 237.095 145.155C242.535 142.078 247.728 138.582 252.626 134.7C257.518 130.905 262.233 126.189 267.917 123.644C274.09 120.889 280.262 122.619 284.538 127.71C288.54 132.458 290.19 138.679 290.646 144.763C291.671 158.501 286.739 171.727 283.08 184.728C279.598 197.113 276.988 210.627 281.103 223.1Z" fill="#FFAF03"/>
<path d="M202.149 161.543C200.852 161.543 199.523 161.543 198.146 161.543C194.295 153.057 196.441 146.548 196.441 146.548C197.241 146.22 198.202 145.844 199.187 145.403C199.187 145.403 199.851 157.092 202.149 161.543Z" fill="#FF9C90"/>
<path d="M198.17 161.543C194.64 161.487 190.909 161.303 186.962 160.951C179.869 150.471 186.962 147.981 186.962 147.981C187.638 148.421 188.439 148.629 189.244 148.574C191.715 148.164 194.132 147.477 196.449 146.524C196.449 146.524 194.295 153.057 198.17 161.543Z" fill="#FFB6AD"/>
<path d="M186.97 148.005C186.97 148.005 179.877 150.495 186.97 160.975C183.533 160.67 179.935 160.244 176.178 159.694L170.71 151.135L171.847 149.174C169.723 146.82 167.808 144.286 166.123 141.601C169.669 132.29 173.544 134.763 174.673 135.764L174.961 136.052C179.268 140.312 183.631 146.124 186.97 148.005Z" fill="#2E3257"/>
<path d="M174.673 135.748C173.544 134.748 169.669 132.274 166.123 141.585C163.721 137.582 162.168 133.242 165.666 131.633C168.276 130.432 171.439 132.602 174.673 135.748Z" fill="#FF3D0A"/>
<path d="M179.549 135.124C179.461 136.376 178.876 137.54 177.923 138.357C176.971 139.174 175.731 139.575 174.481 139.471" stroke="#FFAF03" stroke-width="3" stroke-linecap="round"/>
<path d="M181.23 138.479C180.34 140.931 177.985 142.542 175.377 142.481" stroke="#FFAF03" stroke-width="3" stroke-linecap="round"/>
<path d="M182.775 141.256C182.847 141.256 182.823 141.12 182.775 141.128C182.727 141.136 182.663 141.224 182.639 141.304C181.861 144.01 179.216 145.735 176.426 145.355" stroke="#FFAF03" stroke-width="3" stroke-linecap="round"/>
<path fill-rule="evenodd" clip-rule="evenodd" d="M181.286 149.534C181.102 149.967 180.741 150.407 180.277 150.335C179.813 150.263 179.517 149.702 179.477 149.206C179.255 147.642 179.794 146.065 180.926 144.963C180.677 145.547 181.414 146.348 181.558 147.012C181.729 147.861 181.634 148.742 181.286 149.534V149.534Z" stroke="#FFAF03" stroke-width="3" stroke-linecap="round"/>
<path fill-rule="evenodd" clip-rule="evenodd" d="M183.984 146.252C184.426 146.384 184.895 146.4 185.345 146.3C185.801 146.188 186.149 145.818 186.234 145.355C186.242 145.047 186.159 144.743 185.993 144.483C185.742 143.952 185.311 143.527 184.777 143.282C183.976 142.978 181.726 143.426 181.35 144.323C180.878 145.428 183.151 146.044 183.984 146.252Z" stroke="#FFAF03" stroke-width="3" stroke-linecap="round"/>
<path d="M318.738 33.2971C317.763 34.0853 316.513 34.451 315.266 34.3126C314.02 34.1743 312.88 33.5435 312.102 32.5605" stroke="#FFAF03" stroke-width="3" stroke-linecap="round"/>
<path d="M317.41 36.7957C315.008 37.8308 312.213 37.2151 310.469 35.2666" stroke="#FFAF03" stroke-width="3" stroke-linecap="round"/>
<path d="M316.457 39.8542C316.457 39.9183 316.585 39.7982 316.529 39.7502C316.473 39.7021 316.377 39.7502 316.313 39.7502C313.802 41.0329 310.729 40.2717 309.107 37.9648" stroke="#FFAF03" stroke-width="3" stroke-linecap="round"/>
<path fill-rule="evenodd" clip-rule="evenodd" d="M309.371 44.4175C308.946 44.6335 308.431 44.5668 308.075 44.2494C307.762 43.8491 308.018 43.2567 308.331 42.8644C309.327 41.6393 310.845 40.9591 312.422 41.0311C311.821 41.2472 311.749 42.336 311.357 42.8884C310.865 43.5875 310.173 44.1207 309.371 44.4175V44.4175Z" stroke="#FFAF03" stroke-width="3" stroke-linecap="round"/>
<path fill-rule="evenodd" clip-rule="evenodd" d="M313.631 44.1292C313.834 44.5435 314.14 44.8989 314.519 45.162C314.915 45.4135 315.421 45.4135 315.816 45.162C316.049 44.9477 316.214 44.6691 316.289 44.3614C316.504 43.8162 316.521 43.2126 316.337 42.6562C316.016 41.8556 314.151 40.5266 313.238 40.8548C312.11 41.3032 313.214 43.3847 313.631 44.1292Z" stroke="#FFAF03" stroke-width="3" stroke-linecap="round"/>
</g>
<defs>
<filter id="filter0_d_481_1587" x="0" y="0" width="657" height="449" filterUnits="userSpaceOnUse" color-interpolation-filters="sRGB">
<feFlood flood-opacity="0" result="BackgroundImageFix"/>
<feColorMatrix in="SourceAlpha" type="matrix" values="0 0 0 0 0 0 0 0 0 0 0 0 0 0 0 0 0 0 127 0" result="hardAlpha"/>
<feOffset dy="4"/>
<feGaussianBlur stdDeviation="2"/>
<feComposite in2="hardAlpha" operator="out"/>
<feColorMatrix type="matrix" values="0 0 0 0 0 0 0 0 0 0 0 0 0 0 0 0 0 0 0.25 0"/>
<feBlend mode="normal" in2="BackgroundImageFix" result="effect1_dropShadow_481_1587"/>
<feBlend mode="normal" in="SourceGraphic" in2="effect1_dropShadow_481_1587" result="shape"/>
</filter>
<filter id="filter1_d_481_1587" x="222" y="326" width="211" height="123" filterUnits="userSpaceOnUse" color-interpolation-filters="sRGB">
<feFlood flood-opacity="0" result="BackgroundImageFix"/>
<feColorMatrix in="SourceAlpha" type="matrix" values="0 0 0 0 0 0 0 0 0 0 0 0 0 0 0 0 0 0 127 0" result="hardAlpha"/>
<feOffset dy="4"/>
<feGaussianBlur stdDeviation="2"/>
<feComposite in2="hardAlpha" operator="out"/>
<feColorMatrix type="matrix" values="0 0 0 0 0 0 0 0 0 0 0 0 0 0 0 0 0 0 0.25 0"/>
<feBlend mode="normal" in2="BackgroundImageFix" result="effect1_dropShadow_481_1587"/>
<feBlend mode="normal" in="SourceGraphic" in2="effect1_dropShadow_481_1587" result="shape"/>
</filter>
</defs>
</svg>
