<svg width="657" height="449" viewBox="0 0 657 449" fill="none" xmlns="http://www.w3.org/2000/svg">
<g filter="url(#filter0_d_698_1556)">
<path fill-rule="evenodd" clip-rule="evenodd" d="M136.757 367.556V403H98.2925V367.556H4V335.858C28.3077 292.389 54.4852 249.59 80.262 210H136.757V335.189H162V367.556H136.757ZM40.1944 336.259H99.2274V240.629H97.0904C78.2587 269.385 57.6906 302.956 40.1944 334.119V336.259Z" fill="#32D490"/>
<path fill-rule="evenodd" clip-rule="evenodd" d="M627.757 367.556V403H589.292V367.556H495V335.858C519.308 292.389 545.485 249.59 571.262 210H627.757V335.189H653V367.556H627.757ZM531.194 336.259H590.227V240.629H588.09C569.259 269.385 548.691 302.956 531.194 334.119V336.259Z" fill="#32D490"/>
<g filter="url(#filter1_d_698_1556)">
<path fill-rule="evenodd" clip-rule="evenodd" d="M226 383.5C226 419.325 263.736 441 327.701 441C391.799 441 429 419.024 429 383.5C429 347.876 391.799 326 327.835 326C263.736 326 226 347.675 226 383.5ZM257.822 383.5C257.822 366.918 281.428 356.667 327.835 356.667C373.84 356.667 397.178 367.018 397.178 383.5C397.178 400.082 373.975 410.333 327.835 410.333C281.428 410.333 257.822 400.183 257.822 383.5Z" fill="#FF9637"/>
</g>
<ellipse cx="181.773" cy="286.859" rx="5.78824" ry="5.78825" fill="#00B2C6"/>
<circle cx="465.326" cy="164.577" r="3.86684" fill="#00B2C6"/>
<path d="M401.558 169.013C399.956 169.709 397.411 170.902 398.075 173.144C398.441 174.082 399.147 174.848 400.053 175.289C401.687 176.127 403.448 176.692 405.264 176.963C408.643 177.619 411.437 177.027 414.023 174.625C416.303 172.447 418.287 169.979 419.923 167.284C420.562 166.335 421.014 165.272 421.252 164.153C421.493 163.003 421.159 161.808 420.355 160.951C419.343 160.128 418.002 159.831 416.737 160.15C413.727 160.719 412.358 162.352 410.004 164.097C407.395 166.067 404.559 167.717 401.558 169.013Z" fill="#00B2C6"/>
<path d="M209.93 222.3C207.76 222.548 205.551 222.396 203.405 222.764C201.26 223.132 199.05 224.157 198.009 226.078C196.672 228.544 197.753 231.803 199.891 233.62C202.028 235.437 204.95 236.022 207.752 236.11C217.724 236.198 226.833 230.465 231.065 221.435C232.09 219.161 232.594 216.079 230.657 214.502C228.72 212.925 225.677 213.157 223.452 214.238C220.834 215.511 220.049 218.241 217.72 219.714C215.352 221.154 212.689 222.039 209.93 222.3Z" fill="#00B2C6"/>
<path d="M267.188 229.681C257.404 230.482 247.373 237.927 239.583 243.291C228.88 250.673 207.752 265.035 215.021 280.751C218.048 287.276 225.565 290.31 232.554 291.959C245.083 294.974 258.066 295.613 270.83 293.84C279.725 292.599 289.372 290.326 297.25 294.641C305.256 299.084 308.762 309.156 316.528 314.063C324.293 318.971 334.373 318.162 343.099 316.929C357.758 314.864 372.857 312.734 386.787 307.49C406.994 299.885 418.643 284.594 431.532 268.166C444.878 251.209 456.911 233.172 465.437 213.181C468.199 206.705 470.721 199.651 469.264 192.774C467.39 183.968 459.096 177.563 450.29 175.706C441.483 173.848 432.301 175.858 423.83 178.908C415.36 181.958 407.29 186.073 398.676 188.699C392.648 190.541 385.867 191.573 380.19 188.859C375.323 186.546 371.688 181.654 366.396 180.605C361.273 179.573 356.221 182.415 351.93 185.409C339.657 193.903 329.858 204.343 320.395 215.767C316.576 220.387 311.012 222.412 305.296 223.373C296.009 224.926 287.242 227.832 277.771 228.809C274.433 229.129 270.894 229.377 267.188 229.681Z" fill="#00B2C6"/>
<path d="M448.977 197.818C449.489 202.157 444.005 201.957 444.005 201.957C444.519 202.081 445.019 202.26 445.494 202.493C445.861 202.675 446.065 203.076 445.997 203.48C445.929 203.884 445.604 204.195 445.198 204.247L439.145 205.047L438.545 194.399C444.621 194.744 448.624 195.768 448.977 197.818Z" fill="#FFB6AD"/>
<path d="M438.545 194.439L439.146 205.087L435.943 205.527L436.44 194.367C437.168 194.367 437.865 194.367 438.545 194.439Z" fill="#FF9C90"/>
<path d="M436.447 194.367L435.951 205.527L431.195 207.361V194.367C433.053 194.367 434.806 194.367 436.447 194.367Z" fill="#F6D3C8"/>
<path d="M388.822 234.885C389.164 238.139 389.802 241.354 390.727 244.492C378.87 239.36 364.308 242.243 357.166 240.281C355.863 239.898 354.648 239.259 353.596 238.4C353.596 238.4 353.956 236.734 354.773 234.101C354.773 233.964 361.433 235.373 361.882 235.454C364.371 235.982 366.904 236.277 369.447 236.334C371.729 236.334 373.891 235.646 376.124 235.253C380.199 234.517 384.755 233.82 388.822 234.885Z" fill="#F6D3C8"/>
<path d="M381.087 207.585C381.151 207.417 381.207 207.249 381.255 207.073C382.878 205.077 383.863 202.639 384.081 200.075C397.403 197.369 417.017 194.736 431.196 194.383V207.369C419.467 211.908 390.005 223.317 389.069 223.885C388.332 224.341 388.172 229.257 388.82 234.893C384.753 233.828 380.198 234.525 376.123 235.245C373.889 235.638 371.728 236.294 369.446 236.326C366.902 236.269 364.37 235.974 361.881 235.445C361.432 235.365 354.812 233.956 354.771 234.092C356.625 227.959 359.25 222.086 362.585 216.616L372.272 215.054C376.366 214.387 379.757 211.514 381.087 207.585Z" fill="#FFE7E0"/>
<path d="M392.232 212.141L389.029 223.893L390.67 223.197L393.545 212.525C393.559 212.201 393.35 211.91 393.039 211.818C392.728 211.727 392.395 211.86 392.232 212.141Z" fill="#F6D3C8"/>
<path d="M376.324 210.043C376.324 210.043 383.826 216.183 386.324 225.534C388.821 234.885 395.746 231.138 399.757 236.334C403.768 241.53 400.838 254.219 400.838 254.219" stroke="#DE370B" stroke-width="6"/>
<path d="M350.545 215.351C350.545 215.351 356.101 220.034 356.597 226.271C357.094 232.507 352.402 239.032 352.402 239.032" stroke="#DE370B" stroke-width="6"/>
<path d="M390.727 244.476C398.596 247.878 405.289 254.819 407.907 269.038C404.627 271.387 401.223 273.558 397.708 275.539C400.566 269.134 395.186 263.009 395.186 263.009C394.523 261.743 393.627 260.613 392.544 259.679C388.997 256.629 383.914 255.9 379.302 256.653C377.855 256.904 376.429 257.263 375.035 257.726C379.157 252.326 384.241 247.733 390.03 244.18L390.727 244.468V244.476Z" fill="#FFE7E0"/>
<path d="M386.131 242.883C386.883 243.091 387.628 243.315 388.372 243.563C382.215 247.51 376.881 252.614 372.665 258.59C371.128 259.199 369.607 259.903 368.102 260.616C372.752 253.465 378.904 247.414 386.131 242.883Z" fill="#FFE7E0"/>
<path d="M381.76 241.962C382.561 242.09 383.417 242.251 384.242 242.427C376.698 247.403 370.372 254.014 365.732 261.769L363.066 263.074C367.575 254.681 373.975 247.453 381.76 241.962Z" fill="#FFE7E0"/>
<path d="M379.775 241.69C371.832 247.579 365.392 255.259 360.977 264.107L351.434 268.75L340.09 274.282C340.987 263.922 342.492 253.267 344.141 242.819C346.66 240.78 349.091 238.629 351.434 236.366C352.1 237.1 352.823 237.78 353.596 238.4C354.649 239.256 355.863 239.893 357.166 240.273C362.218 241.642 370.912 240.617 379.775 241.69Z" fill="#FFE7E0"/>
<path d="M390.03 244.18C384.24 247.734 379.156 252.326 375.035 257.726C374.234 257.99 373.433 258.278 372.633 258.59C376.849 252.614 382.183 247.511 388.34 243.563C388.925 243.748 389.477 243.956 390.03 244.18Z" fill="#2E3257"/>
<path d="M365.732 261.769C370.369 254.005 376.696 247.385 384.242 242.402C384.874 242.538 385.507 242.691 386.131 242.859C378.905 247.39 372.752 253.441 368.102 260.592L366.205 261.512L365.732 261.769Z" fill="#2E3257"/>
<path d="M381.76 241.962C373.975 247.453 367.575 254.681 363.067 263.074L360.953 264.106C365.368 255.259 371.808 247.579 379.751 241.69C380.423 241.762 381.088 241.858 381.76 241.962Z" fill="#2E3257"/>
<path d="M350.482 235.317C350.794 235.686 351.098 236.038 351.411 236.366C349.073 238.634 346.642 240.785 344.117 242.819C344.229 242.122 344.333 241.418 344.445 240.721C346.522 239.003 348.534 237.201 350.482 235.317Z" fill="#2E3257"/>
<path d="M348.4 232.54C349.046 233.5 349.741 234.428 350.482 235.318C348.534 237.202 346.522 239.003 344.445 240.722C344.581 239.921 344.71 239.04 344.846 238.2C344.982 237.359 345.15 236.342 345.294 235.414C346.351 234.477 347.375 233.524 348.4 232.54Z" fill="#FFE7E0"/>
<path d="M346.214 227.591C346.196 227.559 346.183 227.524 346.174 227.487C346.009 227.09 345.868 226.684 345.75 226.271C340.676 231.523 335.065 236.23 329.01 240.313L328.866 240.809C328.866 240.809 328.498 241.506 327.873 242.731C334.56 238.435 340.737 233.394 346.287 227.704C346.255 227.672 346.23 227.633 346.214 227.591Z" fill="#2E3257"/>
<path d="M343.429 221.499L343.26 221.131C339.667 225.062 335.761 228.696 331.58 231.995C331.308 232.795 331.043 233.596 330.779 234.397C335.459 230.864 339.818 226.926 343.805 222.628C343.701 222.22 343.573 221.851 343.429 221.499Z" fill="#2E3257"/>
<path d="M347.614 231.347C347.87 231.755 348.135 232.147 348.415 232.54C347.39 233.524 346.365 234.477 345.309 235.414L345.645 233.324C345.645 233.284 345.645 233.244 345.645 233.196C346.325 232.588 346.95 231.995 347.614 231.347Z" fill="#2E3257"/>
<path d="M347.455 231.09L347.616 231.347C346.975 231.971 346.327 232.587 345.662 233.196C346.148 232.406 346.753 231.695 347.455 231.09Z" fill="#FFE7E0"/>
<path d="M345.66 233.196C345.66 233.244 345.66 233.284 345.66 233.324L345.324 235.413C338.848 241.202 331.711 246.206 324.061 250.32L325.165 248.111C332.554 243.953 339.432 238.948 345.66 233.196V233.196Z" fill="#2E3257"/>
<path d="M344.445 240.721C344.333 241.418 344.229 242.122 344.117 242.819C336.883 248.688 328.963 253.656 320.531 257.614L321.492 255.596C329.716 251.584 337.423 246.589 344.445 240.721Z" fill="#2E3257"/>
<path d="M339.041 212.845C339.321 213.646 339.617 214.446 339.929 215.247C339.589 215.637 339.271 216.046 338.977 216.472C338.905 216.568 338.833 216.664 338.769 216.768C336.909 219.448 335.337 222.317 334.077 225.326C333.621 226.415 333.197 227.512 332.78 228.616C332.364 229.721 331.98 230.834 331.579 231.963C317.188 243.302 299.966 250.484 281.783 252.73C277.63 247.093 274.301 240.893 271.896 234.317C271.673 233.66 271.752 232.94 272.112 232.347C272.441 231.795 272.987 231.406 273.617 231.274C286.857 228.237 299.7 223.669 311.885 217.664L313.798 216.816L314.775 216.223C321.201 212.962 327.427 209.321 333.421 205.319C333.738 205.105 334.104 204.972 334.485 204.935C335.445 204.83 336.37 205.331 336.807 206.192C336.871 206.376 336.919 206.488 336.935 206.536C337.456 208.202 338.144 210.379 339.041 212.845Z" fill="#FFE7E0"/>
<path d="M330.794 234.396C330.698 234.677 330.61 234.957 330.522 235.237C329.988 236.934 329.481 238.64 329 240.353C315.845 249.22 300.84 254.97 285.128 257.165C284.28 256.098 283.479 255.068 282.727 254.075C300.178 251.773 316.738 244.993 330.794 234.396V234.396Z" fill="#FFE7E0"/>
<path d="M327.864 242.731C327.2 244.02 326.263 245.877 325.134 248.111C313.734 254.533 301.275 258.858 288.348 260.88C287.547 260.04 286.866 259.207 286.17 258.382C301.018 256.169 315.228 250.834 327.864 242.731Z" fill="#FFE7E0"/>
<path d="M325.135 248.111L324.03 250.32C313.248 256.145 301.57 260.128 289.476 262.105C289.084 261.697 288.676 261.305 288.348 260.88C301.275 258.858 313.735 254.533 325.135 248.111Z" fill="#2E3257"/>
<path d="M289.477 262.105C301.57 260.127 313.248 256.144 324.03 250.32C323.229 251.962 322.365 253.739 321.492 255.58C312.291 260.084 302.519 263.316 292.447 265.187C291.406 264.146 290.413 263.122 289.477 262.105Z" fill="#FFE7E0"/>
<path d="M321.493 255.58L320.532 257.614C311.976 261.641 302.95 264.583 293.664 266.372C293.248 265.98 292.864 265.571 292.447 265.179C302.519 263.311 312.291 260.081 321.493 255.58Z" fill="#2E3257"/>
<path d="M320.532 257.614C316.409 266.42 312.222 276.219 311.885 280.535C305.357 276.429 299.253 271.685 293.664 266.372C302.95 264.583 311.976 261.641 320.532 257.614Z" fill="#FFE7E0"/>
<path d="M327.864 242.731C315.23 250.846 301.02 256.191 286.17 258.414C285.809 257.982 285.465 257.614 285.129 257.158C300.841 254.962 315.846 249.212 329.001 240.345L328.857 240.842C328.857 240.842 328.489 241.506 327.864 242.731Z" fill="#2E3257"/>
<path d="M330.794 234.397C316.747 244.989 300.2 251.768 282.759 254.075C282.439 253.635 282.118 253.203 281.822 252.778C299.993 250.52 317.2 243.333 331.579 231.995C331.307 232.796 331.042 233.596 330.794 234.397Z" fill="#2E3257"/>
<path d="M423.655 235.366C423.014 235.117 418.851 233.324 415.929 233.684C413.976 233.925 415.265 239.032 415.265 239.032L423.655 235.366Z" fill="#FF8178"/>
<path d="M406.506 253.163L398.1 255.5C398.1 255.5 396.234 268.102 407.907 269.038L418.643 264.235L406.506 253.163Z" fill="#FFB6AD"/>
<path d="M407.908 269.038L418.643 264.235L406.507 253.146L403.08 254.099C404.545 256.133 407.235 261.256 403.248 267.757C404.698 268.498 406.283 268.934 407.908 269.038Z" fill="#FF9C90"/>
<ellipse cx="421.076" cy="250.063" rx="16.1799" ry="14.0983" transform="rotate(-34.21 421.076 250.063)" fill="#FFB6AD"/>
<ellipse cx="417.402" cy="247.51" rx="6.70092" ry="6.70091" fill="#FF8178"/>
<ellipse cx="422.28" cy="241.134" rx="1.84936" ry="1.40417" transform="rotate(-34.21 422.28 241.134)" fill="#211E21"/>
<path d="M422.014 234.621C423.486 236.715 426.032 237.774 428.555 237.343C428.403 237.263 428.026 237.751 427.954 237.903C426.154 241.903 426.775 246.577 429.555 249.968C424.119 252.434 418.819 257.037 416.186 262.393C414.825 265.171 413.952 268.326 414.488 271.384C415.127 274.366 416.772 277.037 419.148 278.949C424.263 283.337 431.437 285.554 437.833 287.316C445.447 289.413 454.566 289.717 460.746 295.209C463.949 298.107 466.31 300.469 470.625 301.71C475.741 303.183 482.202 303.471 486.085 299.156C491.257 293.4 489.503 283.257 486.549 276.9C484.884 273.329 482.402 269.967 482.09 266.036C481.922 263.826 482.458 261.577 482.026 259.407C481.182 255.899 479.272 252.738 476.558 250.36C470.025 245.293 463.252 245.989 455.078 244.756C452.284 244.34 448.313 241.802 445.695 240.753C442.613 239.472 440.155 237.055 437.217 235.47C432.492 233.069 426.977 232.761 422.014 234.621Z" fill="#6A3445"/>
<path d="M395.186 263.01C395.186 263.01 400.565 269.118 397.707 275.539C395.946 276.548 393.993 277.62 391.871 278.741C393.359 277.497 394.586 275.97 395.482 274.25C397.176 270.669 397.066 266.496 395.186 263.01Z" fill="#F6D3C8"/>
<path d="M389.005 112.267C393.008 119.825 393.849 127.943 389.382 136.757C384.013 135.186 380.284 130.312 380.173 124.719C380.061 119.126 383.591 114.108 388.893 112.323L389.005 112.267Z" fill="#E09C06"/>
<path d="M395.185 263.01C394.522 261.743 393.626 260.613 392.543 259.679C388.996 256.629 383.913 255.9 379.301 256.653C374.69 257.406 370.407 259.487 366.204 261.537L351.409 268.742L340.064 274.274C341.097 262.377 342.939 250.096 344.868 238.191L330.521 235.197C329.937 237.063 329.385 238.928 328.856 240.801C327.535 245.501 326.374 250.248 325.198 254.924C322.732 264.771 320.722 274.738 319.097 284.754C319.025 285.21 318.945 285.658 318.881 286.107C318.641 287.572 318.417 289.061 318.312 290.542C321.757 289.35 325.546 289.682 328.731 291.455C331.916 293.227 334.195 296.273 334.997 299.829C340.601 298.54 346.061 296.778 351.505 294.977L356.308 293.376C363.012 291.129 369.683 288.813 376.323 286.427C380.246 285.149 384.055 283.542 387.707 281.623C389.196 280.807 390.597 279.838 391.886 278.733C393.374 277.488 394.601 275.962 395.497 274.242C397.183 270.661 397.068 266.492 395.185 263.01Z" fill="#FFF1ED"/>
<path d="M340.098 274.266L339.369 281.719C339.281 282.616 340.682 282.608 340.77 281.719L341.571 273.529L340.098 274.266Z" fill="#F6D3C8"/>
<path d="M384.082 200.067C383.864 202.631 382.879 205.069 381.256 207.065C381.709 205.48 381.808 203.816 381.544 202.189L381.304 200.732C382 200.524 382.721 200.34 383.457 200.187L384.082 200.067Z" fill="#F6D3C8"/>
<path d="M381.544 202.197L381.303 200.74L381.039 199.083C380.048 192.994 374.323 188.851 368.23 189.812L343.94 193.735C340.969 194.213 338.314 195.866 336.575 198.322C336.26 199.973 336.161 201.657 336.278 203.334C336.341 204.315 336.532 205.284 336.847 206.216C336.901 206.326 336.944 206.441 336.975 206.56C337.479 208.161 338.184 210.355 339.065 212.821C343.452 208.986 354.148 199.875 357.302 199.363C359.704 198.987 367.645 201.949 373.714 204.423C377.253 205.864 380.119 207.137 380.919 207.473L381.279 207.049C381.721 205.47 381.811 203.814 381.544 202.197Z" fill="#DE370B"/>
<path d="M380.896 207.497C380.095 207.161 377.229 205.896 373.69 204.447C367.622 201.973 359.656 199.011 357.278 199.387C354.124 199.899 343.428 208.994 339.041 212.845C339.321 213.645 339.617 214.446 339.93 215.247C340.778 214.15 342.028 213.435 343.404 213.261C345.574 213.133 347.407 215.111 347.928 217.224C348.06 217.786 348.13 218.36 348.136 218.937L362.586 216.6L372.273 215.038C376.362 214.37 379.749 211.501 381.08 207.577L380.896 207.497Z" fill="#FF3D0A"/>
<path d="M332.779 228.625L345.589 233.324C345.332 234.925 345.065 236.55 344.788 238.2L330.521 235.197C331.218 232.98 331.963 230.786 332.779 228.625Z" fill="#F6D3C8"/>
<path d="M352.378 222.164C351.578 220.843 347.727 222.484 347.439 223.693C347.868 222.146 348.102 220.551 348.135 218.945C348.129 218.368 348.059 217.794 347.927 217.232C347.423 215.118 345.573 213.141 343.404 213.269C342.251 214.334 341.304 215.601 340.61 217.008C340.522 217.168 340.442 217.32 340.369 217.48C339.139 220.097 338.238 222.856 337.688 225.694L347.054 230.442L347.735 230.786C348.479 229.881 349.216 228.985 349.969 228.088C351.065 226.767 352.266 225.414 352.562 223.653C352.677 223.15 352.611 222.623 352.378 222.164Z" fill="#FFB6AD"/>
<path d="M337.687 225.694C338.237 222.856 339.138 220.097 340.369 217.48C340.441 217.32 340.521 217.168 340.609 217.008C341.304 215.601 342.251 214.334 343.403 213.269C342.027 213.443 340.777 214.157 339.929 215.255C339.588 215.645 339.27 216.054 338.976 216.479C338.904 216.575 338.832 216.672 338.768 216.776C336.908 219.456 335.336 222.325 334.076 225.334C333.62 226.423 333.196 227.52 332.779 228.624L345.589 233.324C345.685 232.723 347.078 231.418 347.694 230.786C347.598 230.57 337.687 225.694 337.687 225.694Z" fill="#FF9C90"/>
<path d="M380.576 127.39C379.057 120.98 382.648 114.464 388.878 112.323L388.99 112.267C383.274 101.499 370.969 91.8924 358.087 83.0219C358.087 83.0219 336.055 71.8937 324.326 60.013C314.127 56.0741 306.041 66.2736 306.041 66.2736C315.728 83.182 333.701 110.65 350.153 116.254C369.624 122.891 332.981 136.973 318.274 153.842C312.166 188.427 322.053 208.434 322.053 208.434L334.518 203.975L336.239 203.358C336.126 201.689 336.228 200.013 336.543 198.37C338.024 190.204 344.926 176.202 370.216 157.396C379.991 150.119 386.116 143.274 389.39 136.805C384.971 135.483 381.604 131.887 380.576 127.39Z" fill="#FFAF03"/>
<path d="M333.468 296.042C334.176 297.215 334.692 298.493 334.998 299.829C332.892 300.325 330.762 300.741 328.593 301.07C326.287 301.43 323.789 301.63 321.772 300.413C320.398 299.482 319.384 298.109 318.898 296.522C318.296 294.59 318.087 292.557 318.281 290.542C324.007 288.55 330.345 290.846 333.468 296.042Z" fill="#F6D3C8"/>
<path d="M328.857 240.801C327.536 245.501 326.375 250.248 325.199 254.924C322.733 264.771 320.723 274.738 319.098 284.753C318.698 284.545 318.297 284.329 317.905 284.105C315.808 282.925 313.801 281.727 311.885 280.51C312.565 271.816 328.857 240.801 328.857 240.801Z" fill="#F6D3C8"/>
<path d="M318.226 19.0388C323.382 19.1269 323.518 22.9537 321.973 29.1742C321.973 29.1742 320.588 21.3685 309.604 26.18C311.845 22.1931 314.727 18.9828 318.226 19.0388Z" fill="#FF3D0A"/>
<path d="M318.257 51.799C318.916 53.2133 319.721 54.5549 320.659 55.802C311.756 50.1498 303.446 61.6703 303.446 61.6703C302.702 60.3013 302.037 59.0443 301.469 57.9555C314.102 44.4817 317.793 50.8223 318.225 51.727C318.225 51.727 318.225 51.783 318.265 51.807L318.257 51.799Z" fill="#FF9C90"/>
<path d="M321.972 29.1743C320.891 33.5455 318.978 39.0936 317.409 45.3622C311.084 36.2515 300.901 56.8666 300.901 56.8666C300.236 55.5777 299.74 54.5609 299.412 53.8804C295.905 46.4109 302.918 39.5339 302.918 39.5339L303.799 41.023C304.239 40.0303 306.201 32.2165 309.595 26.1801C320.587 21.3686 321.972 29.1743 321.972 29.1743Z" fill="#2E3257"/>
<path d="M317.408 45.3622C316.957 47.5031 317.239 49.7335 318.209 51.6948C317.777 50.7901 314.086 44.4895 301.453 57.9234C301.255 57.5551 301.071 57.2028 300.9 56.8666C300.9 56.8666 311.084 36.2515 317.408 45.3622Z" fill="#FFB6AD"/>
<path d="M314.775 130.321C314.592 128.182 314.146 126.073 313.446 124.044C308.914 129.491 300.824 130.233 295.377 125.701C289.929 121.169 289.187 113.079 293.719 107.632C279.381 104.061 259.686 107.776 240.881 120.537C223.444 132.37 211.851 139.207 203.934 143.178L208.737 161.279C254.371 158.077 261.416 129.696 270.695 134.468C281.831 140.192 277.5 169.277 270.999 192.79C270.638 194.119 270.31 195.424 270.03 196.705C270.03 196.705 272.96 200.588 274.033 201.781C274.265 202.042 274.415 202.364 274.465 202.71L276.643 216.568C276.794 217.537 276.173 218.458 275.218 218.681L268.813 220.146C269.085 222.471 269.505 224.776 270.07 227.047L311.116 212.341L313.142 211.612C309.675 198.755 312.149 179.196 313.87 160.375C314.831 149.663 315.559 139.167 314.775 130.321Z" fill="#FAC942"/>
<path d="M362.618 114.781C357.718 110.922 351.77 108.376 346.606 104.829C341.584 101.357 336.846 97.4914 332.435 93.269C323.227 84.4413 315.528 74.1644 309.643 62.8467C312.957 60.3008 318.265 57.6509 324.309 59.9886C322.987 58.6592 321.757 57.2415 320.627 55.7455C311.732 50.0933 303.414 61.6138 303.414 61.6138C304.215 63.0468 305.071 64.608 306.024 66.2812C306.784 65.3769 307.62 64.5386 308.522 63.7754C318.885 83.5704 334.668 100.007 354.027 111.162C359.311 114.188 367.269 117.895 366.765 125.204C366.364 131.057 360.04 134.203 355.436 136.501C345.525 141.456 336.695 147.765 329.361 156.139C323.97 162.305 319.551 169.256 316.256 176.754C316.215 169.069 316.879 161.397 318.241 153.833C316.463 155.799 314.984 158.017 313.854 160.414C312.133 179.196 309.659 198.754 313.125 211.652L311.1 212.38L270.094 227.055C270.52 228.884 271.092 230.675 271.807 232.411L272.151 232.347C272.481 231.794 273.027 231.405 273.656 231.274C286.897 228.236 299.739 223.669 311.924 217.664C312.877 217.192 313.846 216.72 314.815 216.223C321.241 212.962 327.467 209.32 333.46 205.319C333.778 205.104 334.144 204.972 334.525 204.935C335.485 204.83 336.41 205.331 336.847 206.192C336.532 205.26 336.34 204.291 336.278 203.31L334.557 203.926L322.06 208.401C322.06 208.401 317.088 198.338 316.376 180.157C321.843 166.281 331.121 154.234 343.139 145.403C347.815 141.985 352.858 139.471 357.958 136.781C361.961 134.659 366.596 131.833 367.901 127.174C369.214 122.314 366.316 117.695 362.618 114.781Z" fill="#E09C06"/>
<path d="M313.446 124.052C308.914 129.499 300.824 130.241 295.377 125.709C289.929 121.177 289.188 113.087 293.72 107.64C303.311 110.025 310.516 115.678 313.446 124.052Z" fill="#FFAF03"/>
<path d="M276.626 216.575C276.778 217.544 276.156 218.466 275.201 218.689L268.797 220.154C267.893 212.323 268.332 204.396 270.094 196.713C270.094 196.713 273.024 200.596 274.096 201.789C274.328 202.049 274.478 202.372 274.529 202.717L276.626 216.575Z" fill="#FFAF03"/>
<path d="M281.103 223.1L282.416 222.628C273.738 196.673 294.032 170.99 292.023 144.763C291.31 135.372 286.923 122.803 276.179 121.026C270.679 120.121 265.604 122.843 261.328 126.013C256.013 129.936 251.057 134.323 245.637 138.118C234.109 146.212 220.459 152.593 206.152 151.504L203.926 143.186C202.181 144.058 200.62 144.787 199.211 145.403C199.211 145.403 199.851 157.084 202.149 161.551C204.439 161.511 206.648 161.423 208.762 161.271L206.528 152.921C217.2 153.585 227.736 150.311 237.095 145.155C242.535 142.078 247.728 138.582 252.626 134.7C257.518 130.905 262.233 126.189 267.917 123.644C274.09 120.889 280.262 122.619 284.538 127.71C288.54 132.458 290.19 138.679 290.646 144.763C291.671 158.501 286.739 171.727 283.08 184.728C279.598 197.113 276.988 210.627 281.103 223.1Z" fill="#FFAF03"/>
<path d="M202.148 161.543C200.851 161.543 199.522 161.543 198.145 161.543C194.294 153.057 196.44 146.548 196.44 146.548C197.24 146.22 198.201 145.844 199.186 145.403C199.186 145.403 199.85 157.092 202.148 161.543Z" fill="#FF9C90"/>
<path d="M198.169 161.543C194.639 161.487 190.908 161.303 186.961 160.951C179.868 150.471 186.961 147.981 186.961 147.981C187.637 148.421 188.438 148.629 189.243 148.574C191.714 148.164 194.131 147.477 196.448 146.524C196.448 146.524 194.295 153.057 198.169 161.543Z" fill="#FFB6AD"/>
<path d="M186.968 148.005C186.968 148.005 179.875 150.495 186.968 160.975C183.531 160.67 179.934 160.244 176.176 159.694L170.708 151.135L171.845 149.174C169.722 146.82 167.807 144.286 166.121 141.601C169.668 132.29 173.543 134.763 174.671 135.764L174.96 136.052C179.267 140.312 183.63 146.124 186.968 148.005Z" fill="#2E3257"/>
<path d="M174.672 135.748C173.543 134.748 169.668 132.274 166.122 141.585C163.72 137.582 162.167 133.242 165.665 131.633C168.275 130.432 171.438 132.602 174.672 135.748Z" fill="#FF3D0A"/>
<path d="M179.548 135.124C179.46 136.376 178.875 137.54 177.923 138.357C176.971 139.174 175.731 139.575 174.48 139.471" stroke="#FFAF03" stroke-width="3" stroke-linecap="round"/>
<path d="M181.229 138.479C180.34 140.931 177.985 142.542 175.377 142.481" stroke="#FFAF03" stroke-width="3" stroke-linecap="round"/>
<path d="M182.774 141.256C182.846 141.256 182.822 141.12 182.774 141.128C182.726 141.136 182.662 141.224 182.638 141.304C181.861 144.01 179.215 145.735 176.426 145.355" stroke="#FFAF03" stroke-width="3" stroke-linecap="round"/>
<path fill-rule="evenodd" clip-rule="evenodd" d="M181.284 149.534C181.1 149.967 180.739 150.407 180.275 150.335C179.811 150.263 179.515 149.702 179.475 149.206C179.254 147.642 179.792 146.065 180.924 144.963C180.675 145.547 181.412 146.348 181.556 147.012C181.727 147.861 181.632 148.742 181.284 149.534V149.534Z" stroke="#FFAF03" stroke-width="3" stroke-linecap="round"/>
<path fill-rule="evenodd" clip-rule="evenodd" d="M183.983 146.252C184.425 146.384 184.894 146.4 185.344 146.3C185.8 146.188 186.148 145.818 186.233 145.355C186.241 145.047 186.158 144.743 185.992 144.483C185.741 143.952 185.31 143.527 184.776 143.282C183.975 142.978 181.725 143.426 181.349 144.323C180.877 145.428 183.15 146.044 183.983 146.252Z" stroke="#FFAF03" stroke-width="3" stroke-linecap="round"/>
<path d="M318.738 33.2971C317.763 34.0853 316.513 34.451 315.266 34.3126C314.02 34.1743 312.88 33.5435 312.102 32.5605" stroke="#FFAF03" stroke-width="3" stroke-linecap="round"/>
<path d="M317.408 36.7957C315.006 37.8308 312.211 37.2151 310.467 35.2666" stroke="#FFAF03" stroke-width="3" stroke-linecap="round"/>
<path d="M316.457 39.8542C316.457 39.9183 316.585 39.7982 316.529 39.7502C316.473 39.7021 316.377 39.7502 316.313 39.7502C313.802 41.0329 310.729 40.2717 309.107 37.9648" stroke="#FFAF03" stroke-width="3" stroke-linecap="round"/>
<path fill-rule="evenodd" clip-rule="evenodd" d="M309.371 44.4175C308.945 44.6335 308.43 44.5668 308.074 44.2494C307.761 43.8491 308.018 43.2567 308.33 42.8644C309.326 41.6393 310.844 40.9591 312.421 41.0311C311.82 41.2472 311.748 42.336 311.356 42.8884C310.864 43.5875 310.172 44.1207 309.371 44.4175V44.4175Z" stroke="#FFAF03" stroke-width="3" stroke-linecap="round"/>
<path fill-rule="evenodd" clip-rule="evenodd" d="M313.63 44.1292C313.833 44.5435 314.139 44.8989 314.518 45.162C314.914 45.4135 315.42 45.4135 315.815 45.162C316.048 44.9477 316.213 44.6691 316.288 44.3614C316.503 43.8162 316.52 43.2126 316.336 42.6562C316.015 41.8556 314.15 40.5266 313.237 40.8548C312.109 41.3032 313.213 43.3847 313.63 44.1292Z" stroke="#FFAF03" stroke-width="3" stroke-linecap="round"/>
</g>
<defs>
<filter id="filter0_d_698_1556" x="0" y="0" width="657" height="449" filterUnits="userSpaceOnUse" color-interpolation-filters="sRGB">
<feFlood flood-opacity="0" result="BackgroundImageFix"/>
<feColorMatrix in="SourceAlpha" type="matrix" values="0 0 0 0 0 0 0 0 0 0 0 0 0 0 0 0 0 0 127 0" result="hardAlpha"/>
<feOffset dy="4"/>
<feGaussianBlur stdDeviation="2"/>
<feComposite in2="hardAlpha" operator="out"/>
<feColorMatrix type="matrix" values="0 0 0 0 0 0 0 0 0 0 0 0 0 0 0 0 0 0 0.25 0"/>
<feBlend mode="normal" in2="BackgroundImageFix" result="effect1_dropShadow_698_1556"/>
<feBlend mode="normal" in="SourceGraphic" in2="effect1_dropShadow_698_1556" result="shape"/>
</filter>
<filter id="filter1_d_698_1556" x="222" y="326" width="211" height="123" filterUnits="userSpaceOnUse" color-interpolation-filters="sRGB">
<feFlood flood-opacity="0" result="BackgroundImageFix"/>
<feColorMatrix in="SourceAlpha" type="matrix" values="0 0 0 0 0 0 0 0 0 0 0 0 0 0 0 0 0 0 127 0" result="hardAlpha"/>
<feOffset dy="4"/>
<feGaussianBlur stdDeviation="2"/>
<feComposite in2="hardAlpha" operator="out"/>
<feColorMatrix type="matrix" values="0 0 0 0 0 0 0 0 0 0 0 0 0 0 0 0 0 0 0.25 0"/>
<feBlend mode="normal" in2="BackgroundImageFix" result="effect1_dropShadow_698_1556"/>
<feBlend mode="normal" in="SourceGraphic" in2="effect1_dropShadow_698_1556" result="shape"/>
</filter>
</defs>
</svg>
