<svg width="853" height="420" viewBox="0 0 853 420" fill="none" xmlns="http://www.w3.org/2000/svg">
<path d="M737.073 418.561C737.073 418.561 825.697 302.84 752.067 177.531C686.736 66.3414 610.545 73.9576 554.676 119.058C530.876 138.264 444.72 225.568 386.32 112.445C306.619 -41.8389 48.033 -52.4267 98.3995 184.925C122.765 299.792 0.879101 303.953 51.0674 418.784L737.073 418.561Z" fill="#EBF3FA"/>
<path d="M147.457 262.792C147.457 262.792 122.585 276.314 118.063 276.09C113.541 275.831 85.7251 265.503 85.7251 265.503L86.4391 271.484C86.4391 271.484 107.918 286.902 115.416 287.793C122.794 288.647 148.081 279.508 150.52 277.576C152.959 275.607 154.537 264.76 147.457 262.792Z" fill="#ED985F"/>
<path d="M151.205 213.009C151.205 213.009 160.369 210.818 164.95 215.015C173.221 222.557 173.667 248.599 176.761 252.462C179.855 256.327 187.352 254.691 188.006 274.752C188.661 294.813 185.031 296.485 189.375 305.439C193.718 314.391 187.53 323.345 187.53 323.345C187.53 323.345 190.06 318.404 188.988 314.838C188.988 314.838 187.947 322.714 183.931 324.571C179.914 326.429 179.319 327.765 178.695 330.477C178.695 330.477 144.512 308.597 144.482 293.105C144.452 277.614 137.759 262.233 141.032 255.51C141.032 255.51 139.573 258.37 139.395 261.564C139.395 261.564 137.431 256.846 140.853 252.462C144.274 248.08 136.836 238.978 137.938 228.464C138.681 221.256 142.757 213.343 151.205 213.009Z" fill="#233862"/>
<path d="M144.451 277.577C146.623 279.472 149.361 281.032 152.811 282.035C165.693 285.75 170.631 272.152 172.506 262.828C170.75 261.564 169.084 261.306 168.132 261.156C167.211 261.007 166.228 260.933 165.395 260.859C163.938 259.485 161.796 253.801 161.32 245.034L160.724 245.22L150.58 248.675C150.58 248.675 151.056 252.724 151.265 256.513C151.442 259.485 151.472 262.345 151.027 263.052C150.223 263.274 149.747 263.422 149.747 263.422C149.568 263.683 146.623 269.739 144.451 277.577Z" fill="#FFB27D"/>
<path d="M150.55 248.673C150.55 248.673 151.026 252.686 151.234 256.512C156.976 255.807 159.653 248.933 160.695 245.182L150.55 248.673Z" fill="#ED985F"/>
<path d="M148.824 252.464C148.824 252.464 162.48 251.535 161.884 240.91C161.29 230.284 162.628 223.04 153.912 223.189C145.165 223.337 143.707 227.536 143.202 231.139C142.695 234.742 145.254 252.426 148.824 252.464Z" fill="#FFB27D"/>
<path d="M143.263 225.195C145.196 221.815 146.833 222.371 147.755 223.263C154.925 217.467 160.161 224.6 160.161 224.6C161.5 232.141 166.17 236.116 166.17 236.116C166.17 236.116 163.79 238.271 157.959 236.933C156.174 236.525 154.537 235.113 153.08 233.33C155.668 237.974 159.03 241.207 159.03 241.207C151.95 237.862 148.528 226.235 148.172 224.971C147.397 225.974 145.881 228.167 145.493 230.172C144.958 232.922 142.698 237.268 141.388 237.194C141.418 237.194 140.377 230.246 143.263 225.195Z" fill="#233862"/>
<path d="M176.373 312.238C177.593 304.362 181.639 272.895 177.593 262.792C176.135 259.151 170.483 258.816 164.265 259.151C162.331 260.711 154.953 266.617 151.919 265.874C151.889 265.874 151.83 265.838 151.741 265.838C150.313 265.391 149.777 264.128 150.967 263.052C150.967 263.052 147.873 262.68 144.065 263.571C141.893 264.091 136.092 267.843 136.092 267.843C136.092 267.843 139.037 274.456 143.351 276.759C142.607 284.97 143.708 288.61 150.551 307.594C156.322 323.644 149.777 338.095 149.777 338.095C149.777 338.095 183.751 372.197 183.93 354.812C184.049 341.734 174.796 322.306 176.373 312.238Z" fill="#B5453C"/>
<path d="M148.082 375.131C146.237 374.871 144.571 373.609 143.53 371.677C143.351 371.38 143.203 371.046 142.995 370.673C139.126 363.355 137.61 340.991 128.923 317.141C126.811 311.345 119.195 310.306 117.142 303.729C117.142 303.729 112.025 282.48 126.9 281.848C141.775 281.217 166.705 341.027 167.122 347.306C167.509 353.398 176.968 379.219 148.082 375.131Z" fill="#DD6D22"/>
<path d="M88.998 374.649H110.15C110.15 374.649 110.953 370.451 109.555 367.553C108.335 365.028 108.811 363.578 109.704 361.461C108.752 361.943 107.503 362.39 106.134 362.314C105.093 362.24 103.962 361.647 102.981 360.94C102.058 362.24 98.1604 367.739 96.9415 368.853C95.5726 370.079 89.4149 369.634 88.998 374.649Z" fill="#9E332E"/>
<path d="M174.142 271.039C174.142 271.039 176.908 302.319 159.028 308.894C141.178 315.433 136.092 280.103 150.52 277.578C164.949 275.014 174.142 271.039 174.142 271.039Z" fill="#9E332E"/>
<path d="M116.665 288.016C115.387 299.942 110.418 337.611 101.642 355.963C98.815 361.871 108.782 365.214 108.811 365.177C110.151 364.731 112.381 362.093 113.393 360.942C120.533 352.917 134.991 330.218 134.991 312.016C134.991 303.136 135.111 286.195 129.934 281.886C126.781 279.212 117.171 283.261 116.665 288.016Z" fill="#ED7D2B"/>
<path d="M160.696 374.648C160.696 374.648 159.923 373.275 158.554 370.711C156.919 367.627 155.134 361.573 152.932 353.808C150.641 345.672 147.905 335.642 144.514 325.202C143.472 321.97 142.342 318.739 141.151 315.469C139.038 309.673 133.208 310.454 131.125 303.915C131.125 303.915 123.033 281.18 137.909 280.548C152.783 279.917 181.016 341.4 182.653 347.344C184.468 353.844 193.125 380.891 160.696 374.648Z" fill="#FFB35C"/>
<path d="M104.526 374.649H125.678C125.678 374.649 126.481 370.451 125.083 367.553C123.863 365.028 124.339 363.578 125.232 361.461C124.28 361.943 123.031 362.39 121.662 362.314C120.62 362.24 119.49 361.647 118.509 360.94C117.586 362.24 113.688 367.739 112.469 368.853C111.131 370.079 104.943 369.634 104.526 374.649Z" fill="#B5453C"/>
<path d="M152.932 353.808C150.641 345.673 147.905 335.642 144.512 325.204C145.405 317.289 147.309 310.38 150.552 307.594C150.552 307.556 158.377 337.835 152.932 353.808Z" fill="#FF9722"/>
<path d="M129.04 287.161C127.76 299.085 125.976 337.573 117.199 355.961C114.373 361.869 124.339 365.212 124.369 365.176C125.708 364.729 127.939 362.092 128.95 360.94C136.09 352.915 150.549 330.217 150.549 312.014C150.549 303.134 142.219 286.9 137.042 282.591C133.859 279.917 129.546 282.442 129.04 287.161Z" fill="#FFB35C"/>
<path d="M83.2257 250.123L104.883 247.263C105.509 247.187 106.103 247.633 106.341 248.376L114.106 273.825C114.433 274.938 113.809 276.128 112.857 276.202L91.3474 277.279C90.7531 277.315 90.2166 276.871 90.0088 276.202L82.0654 252.538C81.7084 251.46 82.2737 250.235 83.2257 250.123Z" fill="#9E332E"/>
<path d="M81.3522 250.381L103.01 247.521C103.634 247.447 104.23 247.892 104.468 248.635L112.233 274.083C112.56 275.199 111.936 276.386 110.984 276.461L89.4741 277.538C88.8784 277.576 88.3432 277.129 88.1355 276.461L80.2217 252.797C79.835 251.719 80.4002 250.493 81.3522 250.381Z" fill="#B5453C"/>
<path d="M93.3411 262.233C93.0742 261.342 93.4608 260.599 94.1748 260.599C94.8888 260.599 95.6922 261.342 95.9591 262.233C96.2274 263.124 95.8408 263.867 95.1268 263.867C94.4128 263.867 93.6094 263.162 93.3411 262.233Z" fill="#9E332E"/>
<path d="M81.9787 252.76C81.8594 252.314 82.0382 251.943 82.396 251.943C82.7537 251.943 83.1414 252.314 83.2904 252.76C83.4097 253.205 83.2307 253.577 82.873 253.577C82.5152 253.577 82.1277 253.205 81.9787 252.76Z" fill="#9E332E"/>
<path d="M172.477 262.79C172.477 262.79 142.43 276.61 137.938 276.314C135.021 276.128 110.776 265.503 110.776 265.503C110.776 265.503 108.99 262.047 107.027 261.342C107.027 261.342 103.576 259.373 102.594 259.001C101.612 258.63 101.821 259.001 102.088 260.19C102.238 260.785 102.802 261.38 103.278 261.862C101.612 262.419 99.9762 263.2 99.2319 263.385C97.9539 263.683 94.2945 265.169 95.395 267.398C96.4654 269.627 101.494 270.11 103.666 269.627C105.837 269.144 108.603 270.704 108.603 270.704C108.603 270.704 132.196 289.65 138.681 289.538C151.504 289.353 173.101 279.546 175.542 277.614C177.981 275.607 179.558 264.76 172.477 262.79Z" fill="#FFB27D"/>
<path d="M83.5817 263.273C83.5817 263.273 85.7541 258.963 86.4681 258.815C88.639 258.296 88.639 261.861 88.163 264.128C87.6581 266.579 85.9921 268.92 85.545 268.734C85.069 268.548 83.0461 265.54 83.5817 263.273Z" fill="#FFB27D"/>
<path d="M83.4945 264.128C83.4945 264.128 82.8104 268.956 86.4695 271.446L83.4945 264.128Z" fill="#FFB27D"/>
<path d="M146.268 246.37C146.268 246.37 147.547 245.739 151.206 246.11C151.206 246.11 151.028 247.894 148.321 248.042C146.803 248.116 146.268 246.37 146.268 246.37Z" fill="white"/>
<path d="M157.004 269.589C157.004 269.589 159.682 280.215 168.904 282.629C168.904 282.629 184.136 276.759 176.55 263.793C176.55 263.831 169.054 256.848 157.004 269.589Z" fill="#B5453C"/>
<path d="M149.72 131.986C149.72 130.91 149.749 129.833 149.749 128.755C149.987 120.73 151.087 112.892 152.991 105.276C151.386 105.35 149.838 105.462 148.351 105.572C146.833 112.001 145.881 118.65 145.525 125.411C145.405 127.417 145.346 129.424 145.346 131.429V131.95C145.346 133.992 145.405 135.999 145.495 138.006C146.953 138.859 148.469 139.676 150.047 140.493C149.897 138.599 149.779 136.668 149.749 134.735C149.749 133.844 149.72 132.915 149.72 131.986ZM289.902 95.4306C286.123 84.2494 280.709 74.1818 273.777 65.5623C266.875 56.9428 258.813 50.1455 249.857 45.4272C240.575 40.5227 230.729 38.0713 220.583 38.0713C210.439 38.0713 200.562 40.5606 191.28 45.4272C190.18 46.0219 189.079 46.6529 188.007 47.2838C186.223 48.3612 184.468 49.5128 182.802 50.7402C177.179 54.7896 172.031 59.7665 167.391 65.5623C166.409 66.7518 165.487 67.9775 164.565 69.2773C163.404 70.8374 162.334 72.5096 161.292 74.1818C159.626 76.8555 158.079 79.6431 156.622 82.503C155.818 84.1011 155.074 85.7354 154.36 87.4058C153.229 90.0072 152.218 92.6827 151.296 95.4306C150.582 97.5113 149.958 99.592 149.392 101.709C149.035 103.009 148.707 104.272 148.41 105.61C146.893 112.037 145.941 118.688 145.584 125.449C145.465 127.454 145.405 129.46 145.405 131.467V131.986C145.405 134.03 145.465 136.035 145.554 138.042C145.643 139.676 145.763 141.348 145.912 142.983C146.715 151.788 148.53 160.332 151.325 168.543C155.104 179.724 160.519 189.792 167.45 198.411C174.352 207.029 182.415 213.792 191.37 218.546C200.652 223.451 210.499 225.902 220.673 225.902C230.817 225.902 240.665 223.413 249.947 218.546C258.901 213.792 266.934 207.029 273.866 198.411C280.589 190.016 285.915 180.245 289.664 169.396C289.753 169.1 289.871 168.803 289.961 168.505C290.378 167.279 290.793 166.016 291.151 164.79C294.304 154.314 295.881 143.281 295.881 131.95C295.821 119.319 293.828 107.022 289.902 95.4306ZM285.915 166.314C285.885 166.35 285.885 166.388 285.885 166.424C285.409 167.8 284.904 169.174 284.367 170.548C280.917 179.427 276.336 187.488 270.683 194.548C264.198 202.683 256.611 209.035 248.162 213.493C239.415 218.138 230.164 220.441 220.583 220.441C211.004 220.441 201.722 218.1 193.005 213.493C184.557 209.035 177 202.683 170.485 194.548C163.969 186.411 158.853 176.938 155.283 166.424C152.991 159.627 151.415 152.605 150.552 145.36C150.344 143.763 150.196 142.165 150.076 140.531C149.927 138.637 149.809 136.704 149.779 134.773C149.749 133.844 149.749 132.953 149.749 132.024C149.749 130.946 149.779 129.869 149.779 128.791C150.017 120.767 151.117 112.928 153.021 105.314C153.349 104.012 153.676 102.75 154.063 101.487C154.449 100.187 154.836 98.849 155.283 97.5854C155.908 95.765 156.561 93.9825 157.275 92.2361C157.93 90.564 158.644 88.9297 159.388 87.3317C161.471 82.9116 163.851 78.7139 166.528 74.7748C167.629 73.1405 168.789 71.5804 169.979 70.0582C170.157 69.8341 170.306 69.6496 170.485 69.4255C175.869 62.7023 181.998 57.1669 188.752 52.9313C190.149 52.04 191.547 51.2229 193.005 50.4799C193.392 50.2558 193.779 50.0713 194.165 49.8852C202.556 45.6495 211.451 43.5326 220.583 43.5326C230.164 43.5326 239.415 45.8736 248.162 50.4799C256.611 54.9379 264.198 61.2905 270.683 69.4255C277.198 77.5623 282.315 87.0351 285.885 97.5492C289.574 108.434 291.448 120.024 291.448 131.986C291.448 143.912 289.574 155.429 285.915 166.314Z" fill="#ADCBF9"/>
<path d="M303.882 150.933L298.052 150.749C299.925 153.795 300.342 156.58 299.182 158.922C298.021 161.335 295.224 163.304 291.06 164.828C289.543 165.384 287.818 165.867 285.914 166.314C280.826 167.465 274.459 168.134 267.022 168.208C248.22 168.505 224.896 165.31 201.334 159.256C185.478 155.169 170.811 150.154 158.524 144.618C156.649 143.801 154.835 142.91 153.11 142.055C152.068 141.572 151.057 141.014 150.075 140.495C148.498 139.678 146.981 138.861 145.522 138.005C144.482 137.449 143.5 136.854 142.518 136.259C128.982 128.012 122.794 120.061 125.561 114.378C127.792 109.808 135.943 106.687 148.378 105.574C149.867 105.462 151.413 105.35 153.02 105.276C153.348 103.976 153.675 102.712 154.062 101.45C152.424 101.486 150.878 101.598 149.361 101.673C133.653 102.824 125.264 106.279 122.198 112.521C118.659 119.801 123.508 129.572 139.008 139.045C141.15 140.347 143.441 141.646 145.85 142.946C147.367 143.727 148.915 144.506 150.52 145.323C151.265 145.696 152.009 146.03 152.752 146.401C154.597 147.256 156.47 148.111 158.374 148.964C170.453 154.203 184.495 158.922 199.579 162.785C220.671 168.172 241.646 171.366 259.585 171.887C262.232 171.997 264.791 171.997 267.26 171.961C273.686 171.849 279.428 171.403 284.337 170.511C286.18 170.215 287.936 169.806 289.543 169.398C297.189 167.429 302.246 164.307 304.24 160.221C305.668 157.398 305.519 154.277 303.882 150.933Z" fill="#ADCBF9"/>
<path d="M271.753 148.594C271.692 148.78 271.603 148.928 271.515 149.076C269.224 153.646 264.076 155.986 256.847 155.986C253.396 155.986 249.469 155.429 245.126 154.352C230.905 150.749 214.096 141.683 197.794 128.867C181.758 116.272 168.162 101.524 159.417 87.2953C159.267 87.035 159.118 86.8127 158.97 86.5523C158.137 85.1784 157.364 83.8045 156.65 82.5029C150.253 70.6528 148.349 60.6215 151.413 54.5671C153.705 49.9971 158.851 47.656 166.081 47.656C169.531 47.656 173.459 48.2146 177.802 49.292C179.438 49.7006 181.134 50.1833 182.829 50.7401C184.763 51.3711 186.756 52.114 188.78 52.9329C190.178 52.0399 191.606 51.2228 193.063 50.4798C193.451 50.2936 193.837 50.0712 194.224 49.885C192.141 48.9576 190.088 48.1025 188.065 47.3216C184.822 46.0959 181.669 45.0926 178.634 44.3134C163.284 40.4122 152.395 43.1239 147.962 51.8917C143.738 60.2508 146.058 72.8077 154.388 87.4436C154.805 88.1866 155.251 88.9296 155.727 89.7105C156.233 90.5656 156.768 91.4189 157.304 92.274C166.378 106.429 179.885 120.879 195.622 133.287C212.342 146.439 229.627 155.725 244.322 159.44C248.905 160.592 253.099 161.187 256.847 161.187C265.624 161.187 271.901 158.029 274.995 151.862C275.5 150.859 275.917 149.782 276.244 148.63H271.753V148.594Z" fill="#ADCBF9"/>
<path d="M194.044 218.1C193.151 218.1 192.289 217.915 191.485 217.543C178.574 211.711 184.554 164.009 196.721 122.142C207.968 83.3942 226.144 44.2014 239.146 44.2014C240.037 44.2014 240.9 44.3859 241.703 44.7582C249.052 48.1009 249.498 64.5227 248.576 77.7105C247.356 95.3202 243.042 117.534 236.467 140.159C225.192 178.869 207.016 218.1 194.044 218.1ZM239.116 49.1783C230.964 49.1783 213.857 77.7467 200.44 123.851C193.985 146.103 189.76 167.836 188.57 185.037C187.291 203.538 189.939 211.561 192.824 212.862C193.212 213.047 193.598 213.123 194.014 213.123C202.166 213.123 219.272 184.554 232.69 138.45C239.146 116.198 243.369 94.4651 244.559 77.264C245.839 58.7632 243.192 50.7402 240.306 49.4386C239.948 49.2542 239.561 49.1783 239.116 49.1783Z" fill="#ADCBF9"/>
<path d="M271.006 114.935C256.637 114.935 243.488 113.224 231.766 109.844C217.753 105.794 205.676 99.2936 195.918 90.5638C179.138 75.5556 175.003 59.2096 174.825 58.5028L178.633 57.0547C178.662 57.2029 182.649 72.7318 198.506 86.7368C213.231 99.7763 241.465 114.192 292.426 108.766L292.754 113.709C285.257 114.526 277.967 114.935 271.006 114.935Z" fill="#ADCBF9"/>
<path d="M256.878 212.64C229.004 186.745 201.485 175.118 183.308 169.955C163.643 164.381 150.492 164.902 150.374 164.902L150.226 159.923C150.791 159.887 164.03 159.366 184.199 165.088C202.763 170.363 230.847 182.213 259.289 208.627L256.878 212.64Z" fill="#ADCBF9"/>
<path d="M786.277 397.459C786.277 402.883 784.522 407.787 781.666 411.354C778.81 414.921 774.884 417.112 770.539 417.112H642.406V379.032H771.491C772.295 379.032 773.098 379.107 773.871 379.257C780.893 380.667 786.277 388.283 786.277 397.459Z" fill="#F99746"/>
<path d="M666.177 397.832C666.177 403.107 664.48 407.899 661.714 411.39C661.685 411.428 661.685 411.428 661.655 411.464C658.858 414.957 655.021 417.112 650.766 417.112H505.17V379.032H651.093C655.318 379.032 659.156 381.225 661.893 384.716C664.57 388.097 666.177 392.705 666.177 397.832Z" fill="#FCECDB"/>
<path d="M678.285 414.252C678.285 415.031 678.018 415.736 677.631 416.256C677.214 416.777 676.649 417.112 676.024 417.112H500.023C498.773 417.112 497.732 415.848 497.732 414.252C497.732 413.471 498 412.766 498.417 412.245C498.833 411.724 499.398 411.428 500.023 411.428H676.024C677.273 411.39 678.285 412.654 678.285 414.252Z" fill="#ED7D2B"/>
<path d="M678.285 381.856C678.285 382.637 678.018 383.342 677.631 383.863C677.214 384.383 676.649 384.718 676.024 384.718H500.023C498.773 384.718 497.732 383.454 497.732 381.856C497.732 381.077 498 380.37 498.417 379.851C498.833 379.331 499.398 379.034 500.023 379.034H676.024C677.273 378.996 678.285 380.26 678.285 381.856Z" fill="#ED7D2B"/>
<path d="M505.199 398.054L524.715 398.687L505.199 399.059V398.054Z" fill="#F4D2B8"/>
<path d="M505.199 404.034L551.639 404.667L505.199 405.039V404.034Z" fill="#F4D2B8"/>
<path d="M773.871 379.218L731.745 417.075H642.406V378.996H771.491C772.295 378.996 773.098 379.07 773.871 379.218Z" fill="#ED7D2B"/>
<path d="M269.964 417.075H181.845V372.309H270.916C279.069 372.309 285.672 380.556 285.672 390.736V397.459C285.672 408.307 278.652 417.075 269.964 417.075Z" fill="#86D1CD"/>
<path d="M184.346 417.075H82.8096V372.309H184.674C192.587 372.309 199.013 380.334 199.013 390.215V398.797C199.013 408.902 192.438 417.075 184.346 417.075Z" fill="#FCECDB"/>
<path d="M205.47 417.075H79.6862C78.4368 417.075 77.3955 415.812 77.3955 414.214V413.212C77.3955 411.65 78.4071 410.35 79.6862 410.35H205.47C206.719 410.35 207.76 411.614 207.76 413.212V414.214C207.73 415.812 206.719 417.075 205.47 417.075Z" fill="#86D1CD"/>
<path d="M205.47 378.996H79.6862C78.4368 378.996 77.3955 377.733 77.3955 376.136V375.133C77.3955 373.573 78.4071 372.271 79.6862 372.271H205.47C206.719 372.271 207.76 373.535 207.76 375.133V376.136C207.73 377.733 206.719 378.996 205.47 378.996Z" fill="#86D1CD"/>
<path d="M82.8096 394.711L96.8807 395.456L82.8096 395.902V394.711Z" fill="#F4D2B8"/>
<path d="M82.8096 401.731L116.307 402.474L82.8096 402.92V401.731Z" fill="#F4D2B8"/>
<path d="M319.619 211.04L306.529 405.298C306.529 405.298 305.16 417.075 312.181 417.112C323.724 417.15 369.568 417.112 369.568 417.112C369.568 417.112 360.882 414.66 361 409.161C361.12 402.66 376.293 209.258 376.293 209.258L319.619 211.04Z" fill="#D86713"/>
<path d="M373.316 413.545C371.054 413.545 327.233 413.731 316.017 413.545C311.108 413.471 310.275 408.12 310.215 404.629C310.185 402.957 310.364 401.731 310.364 401.731L310.691 396.678L311.554 383.825L312.327 372.456L313.309 357.856L314.143 345.523L323.425 207.51L380.098 205.691C380.098 205.691 373.702 286.64 369.18 345.559C368.674 352.136 368.198 358.415 367.752 364.283C367.604 366.141 367.484 367.998 367.335 369.782C366.919 375.354 366.532 380.48 366.205 385.013C366.027 387.392 365.877 389.62 365.729 391.625C365.163 399.576 364.807 404.629 364.807 405.594C364.807 406.151 364.837 406.672 364.925 407.154C365.848 413.359 372.453 413.545 373.316 413.545Z" fill="#EE9849"/>
<path d="M181.995 105.348L213.858 265.169L218.201 287.049L233.047 361.499H508.799L454.09 105.348H181.995Z" fill="#F1A34F"/>
<path d="M181.996 105.348L177.563 107.169L227.185 367.07L233.046 361.499L181.996 105.348Z" fill="#EE9849"/>
<path d="M227.185 367.07H501.212L508.798 361.497H233.046L227.185 367.07Z" fill="#D86713"/>
<path d="M323.417 417.153H382.738V413.622H323.417V417.153Z" fill="#F1A34F"/>
<path d="M495.443 314.317L450.699 108.73H181.55V105.348H454.09L498.686 313.835L495.443 314.317Z" fill="#F1A34F"/>
<path d="M367.664 367.07L367.367 369.744L311.555 383.825L312.328 372.457L312.686 367.07H367.664Z" fill="#D86713"/>
<path d="M373.317 413.545C371.057 413.545 327.235 413.731 316.018 413.545C311.11 413.471 310.277 408.122 310.218 404.629L365.76 391.589C365.196 399.54 364.839 404.593 364.839 405.558C364.839 406.115 364.869 406.636 364.958 407.118C365.85 413.36 372.455 413.545 373.317 413.545Z" fill="#E78B37"/>
<path d="M354.188 309.637L233.046 361.499L218.2 287.05L354.188 309.637Z" fill="#E78B37"/>
<path d="M181.995 105.348H454.09L498.238 311.235H221.623L181.995 105.348Z" fill="#699DEE"/>
<path d="M378.227 337.24C377.454 332.187 373.526 328.1 369.48 328.1C365.434 328.1 362.786 332.187 363.589 337.24C364.364 342.291 368.29 346.378 372.336 346.378C376.382 346.378 379.031 342.291 378.227 337.24Z" fill="#D86713"/>
<path d="M485.386 302.281H230.637L201.78 158.77L199.577 147.775L197.673 138.376L193.241 116.345H444.361L449.21 138.376L451.292 147.775L453.702 158.77L485.386 302.281Z" fill="#E9F3FE"/>
<path d="M449.21 138.376H197.673L193.241 116.345H444.361L449.21 138.376Z" fill="#AFCDFB"/>
<path d="M203.653 126.302C203.356 124.778 204.1 123.552 205.319 123.552C206.539 123.552 207.76 124.778 208.086 126.302C208.384 127.824 207.64 129.05 206.42 129.05C205.171 129.05 203.952 127.824 203.653 126.302Z" fill="#E9F3FE"/>
<path d="M210.974 126.302C210.675 124.778 211.419 123.552 212.64 123.552C213.858 123.552 215.079 124.778 215.406 126.302C215.703 127.824 214.959 129.05 213.74 129.05C212.491 129.05 211.271 127.824 210.974 126.302Z" fill="#E9F3FE"/>
<path d="M218.854 126.302C218.557 124.778 219.301 123.552 220.52 123.552C221.74 123.552 222.959 124.778 223.286 126.302C223.585 127.824 222.841 129.05 221.62 129.05C220.371 129.05 219.151 127.824 218.854 126.302Z" fill="#E9F3FE"/>
<path d="M236.111 280.363C236.111 274.011 240.366 268.846 245.631 268.846C250.897 268.846 255.151 274.011 255.151 280.363C255.151 286.716 250.897 291.879 245.631 291.879C240.366 291.879 236.111 286.716 236.111 280.363Z" fill="#699DEE"/>
<path d="M244.856 273.602L250.33 279.508C250.806 280.029 250.806 280.958 250.33 281.441L244.946 287.088C244.26 287.831 243.19 287.237 243.16 286.121L243.07 274.568C243.041 273.454 244.142 272.859 244.856 273.602Z" fill="#E9F3FE"/>
<path d="M460.04 281.699C460.04 282.294 459.831 282.851 459.534 283.223C459.206 283.632 458.791 283.854 458.315 283.854H264.255C263.303 283.854 262.529 282.889 262.529 281.699C262.529 281.105 262.738 280.548 263.035 280.177C263.363 279.769 263.779 279.544 264.255 279.544H458.315C459.267 279.544 460.04 280.512 460.04 281.699Z" fill="#AFCDFB"/>
<path d="M285.824 279.544V283.892H264.225C263.273 283.892 262.5 282.925 262.5 281.737C262.5 281.142 262.708 280.586 263.006 280.213C263.332 279.805 263.749 279.582 264.225 279.582H285.824V279.544Z" fill="#699DEE"/>
<path d="M436.062 261.714H267.349L248.25 175.488L246.763 168.875L245.512 163.23L242.597 150.004H408.87L412.083 163.23L413.481 168.875L415.088 175.488L436.062 261.714Z" fill="#AFCDFB"/>
<path d="M410.269 197.852H354.784L348.507 169.506L348.031 167.352L347.616 165.495L346.664 161.149H401.314L402.384 165.495L402.832 167.352L403.367 169.506L410.269 197.852Z" fill="#E9F3FE"/>
<path opacity="0.6" d="M377.634 190.829H358.386L356.214 180.986L356.037 180.243L355.887 179.61L355.561 178.088H374.511L374.898 179.61L375.046 180.243L375.225 180.986L377.634 190.829Z" fill="#AFCDFB"/>
<path opacity="0.6" d="M402.118 190.829H382.87L380.698 180.986L380.519 180.243L380.401 179.61L380.043 178.088H398.995L399.382 179.61L399.53 180.243L399.708 180.986L402.118 190.829Z" fill="#AFCDFB"/>
<path d="M388.315 166.534H353.15C352.882 166.534 352.644 166.238 352.644 165.903C352.644 165.569 352.882 165.271 353.15 165.271H388.315C388.582 165.271 388.82 165.569 388.82 165.903C388.82 166.238 388.612 166.534 388.315 166.534Z" fill="#AFCDFB"/>
<path d="M389.623 169.915H354.459C354.192 169.915 353.954 169.617 353.954 169.284C353.954 168.95 354.192 168.651 354.459 168.651H389.623C389.892 168.651 390.13 168.95 390.13 169.284C390.13 169.617 389.892 169.915 389.623 169.915Z" fill="#AFCDFB"/>
<path d="M395.691 174.819H356.122C355.825 174.819 355.558 174.485 355.558 174.113C355.558 173.742 355.825 173.407 356.122 173.407H395.691C395.988 173.407 396.256 173.742 396.256 174.113C396.256 174.485 396.018 174.819 395.691 174.819Z" fill="#AFCDFB"/>
<path d="M420.618 242.21H365.164L358.888 213.826L358.382 211.671L357.995 209.814L357.013 205.469H411.694L412.735 209.814L413.211 211.671L413.716 213.826L420.618 242.21Z" fill="#E9F3FE"/>
<path opacity="0.6" d="M387.982 235.149H368.733L366.563 225.342L366.414 224.599L366.264 223.93L365.937 222.444H384.888L385.245 223.93L385.393 224.599L385.602 225.342L387.982 235.149Z" fill="#AFCDFB"/>
<path opacity="0.6" d="M412.465 235.149H393.247L391.045 225.342L390.896 224.599L390.747 223.93L390.42 222.444H409.37L409.728 223.93L409.907 224.599L410.085 225.342L412.465 235.149Z" fill="#AFCDFB"/>
<path d="M398.692 210.854H363.527C363.259 210.854 363.021 210.556 363.021 210.223C363.021 209.889 363.259 209.59 363.527 209.59H398.692C398.959 209.59 399.197 209.889 399.197 210.223C399.197 210.594 398.959 210.854 398.692 210.854Z" fill="#AFCDFB"/>
<path d="M400.001 214.235H364.836C364.569 214.235 364.331 213.936 364.331 213.602C364.331 213.269 364.569 212.971 364.836 212.971H400.001C400.268 212.971 400.507 213.269 400.507 213.602C400.477 213.974 400.268 214.235 400.001 214.235Z" fill="#AFCDFB"/>
<path d="M400.954 217.615H365.789C365.522 217.615 365.284 217.317 365.284 216.983C365.284 216.648 365.522 216.352 365.789 216.352H400.954C401.222 216.352 401.46 216.648 401.46 216.983C401.43 217.317 401.222 217.615 400.954 217.615Z" fill="#AFCDFB"/>
<path d="M126.99 393.077C126.99 393.077 123.925 394.897 122.913 397.944C122.735 398.464 122.616 399.021 122.586 399.616C122.407 403.627 122.586 412.691 122.586 412.691L113.542 408.159L104.528 412.691V400.395C104.528 398.054 105.301 395.789 106.729 394.303C107.413 393.596 108.277 393.039 109.229 393.039H126.99V393.077Z" fill="#F99746"/>
<path d="M126.991 393.077C126.991 393.077 123.926 394.898 122.915 397.944L104.768 398.13C104.768 398.13 105.482 393.82 109.229 393.077H126.991Z" fill="#ED7D2B"/>
<path d="M568.448 379.331H676.887V321.377H567.228C556.935 321.377 548.575 331.815 548.575 344.67V354.513C548.575 368.222 557.47 379.331 568.448 379.331Z" fill="#4F49FD"/>
<path d="M674.209 379.331H799.248V321.377H673.793C663.767 321.377 655.675 331.518 655.675 344.001V356.149C655.675 368.965 663.975 379.331 674.209 379.331Z" fill="#FCECDB"/>
<path d="M647.761 379.331H803.027C804.603 379.331 805.912 377.733 805.912 375.726V374.24C805.912 372.271 804.634 370.637 803.027 370.637H647.761C646.185 370.637 644.875 372.235 644.875 374.24V375.726C644.875 377.733 646.185 379.331 647.761 379.331Z" fill="#4F49FD"/>
<path d="M647.761 330.07H803.027C804.603 330.07 805.912 328.472 805.912 326.466V324.98C805.912 323.011 804.634 321.377 803.027 321.377H647.761C646.185 321.377 644.875 322.975 644.875 324.98V326.466C644.875 328.434 646.185 330.07 647.761 330.07Z" fill="#4F49FD"/>
<path d="M799.246 350.354L781.843 351.355L799.246 351.914V350.354Z" fill="#F4D2B8"/>
<path d="M799.248 337.016L757.836 338.019L799.248 338.576V337.016Z" fill="#F4D2B8"/>
<path d="M758.251 337.797C758.251 337.797 760.989 339.617 761.882 342.663C762.03 343.184 762.148 343.741 762.179 344.336C762.327 348.349 762.179 357.413 762.179 357.413L770.24 352.881L778.304 357.413V345.116C778.304 342.775 777.618 340.509 776.339 339.06C775.714 338.355 774.972 337.797 774.109 337.797H758.251Z" fill="#4F49FD"/>
<path d="M758.251 337.797C758.251 337.797 760.989 339.617 761.882 342.663L778.066 342.85C778.066 342.85 777.441 338.54 774.079 337.797H758.251Z" fill="#2821FD"/>
<path d="M534.921 256.624C534.921 256.624 529.149 260.711 527.543 260.711C525.936 260.711 519.599 259.187 517.844 260.302C516.09 261.416 512.876 265.948 512.282 267.434C511.21 270.11 516.625 268.92 519.184 266.655C519.54 266.32 520.016 266.208 520.462 266.32C521.802 266.691 524.538 267.324 525.877 266.691C527.662 265.874 537.093 264.947 537.093 264.947L534.921 256.624Z" fill="#E49963"/>
<path d="M528.402 404.446C528.402 404.446 527.778 416.927 525.843 417.113C525.577 417.151 516.026 417.151 516.026 417.151L503.829 417.077C503.829 417.077 503.919 413.398 507.489 412.619C511.059 411.838 517.037 408.718 519.179 402.81C521.441 396.608 528.402 404.446 528.402 404.446Z" fill="#163560"/>
<path d="M578.771 200.9C578.771 200.9 572.793 253.914 562.915 258.668C558.037 261.009 536.468 266.322 530.071 266.841C530.071 266.841 528.494 265.245 528.881 258.818C528.881 258.818 551.491 248.452 554.705 242.805C559.493 234.409 551.729 208.553 557.739 200.678C563.749 192.801 573.834 189.421 578.771 200.9Z" fill="#ED7D2B"/>
<path d="M576.778 312.609C575.022 316.288 573.03 319.779 570.948 323.049C564.522 333.153 557.53 341.512 556.31 349.424C556.072 350.985 555.685 352.695 555.18 354.477C554.674 356.298 554.05 358.192 553.305 360.161C550.569 367.555 546.493 375.838 542.447 383.38C535.426 396.383 528.791 407.268 528.791 407.268L516.653 406.635C517.129 405.113 522.424 387.133 529.505 365.177C532.392 356.261 535.426 346.787 538.37 337.648C538.758 336.423 539.145 335.197 539.532 334.008C540.424 331.222 541.316 328.472 542.178 325.76C548.814 305.143 554.109 288.723 554.109 288.723C554.109 288.723 580.675 276.166 583.413 284.301C585.763 290.952 583.889 297.526 576.778 312.609Z" fill="#599DAD"/>
<path d="M556.488 368.742C556.488 368.742 564.936 375.505 564.104 377.696C563.984 377.993 559.344 388.433 559.344 388.433L553.335 401.695C553.335 401.695 550.805 399.8 551.995 395.566C553.185 391.293 553.899 383.27 550.835 378.031C547.623 372.495 556.488 368.742 556.488 368.742Z" fill="#163560"/>
<path d="M552.384 380.63C552.384 380.63 557.65 374.836 558.572 370.563C558.572 370.563 536.855 338.057 532.123 330.775C531.916 330.441 531.975 330.07 532.243 329.662C535.813 324.647 575.321 314.467 580.498 304.436C582.282 300.981 583.293 297.713 583.83 294.815C584.99 288.685 584.068 284.451 584.068 284.451L544.589 283.039C544.589 283.039 511.716 308.597 507.997 326.021C504.308 343.482 552.384 380.63 552.384 380.63Z" fill="#6BB7BF"/>
<path d="M532.273 329.662C535.843 324.647 575.351 314.467 580.527 304.436C582.313 300.981 583.324 297.713 583.859 294.815V288.574L567.081 285.268C567.081 285.268 562.321 303.545 548.219 310.418C535.04 316.844 532.511 328.25 532.273 329.662Z" fill="#5AA9AD"/>
<path d="M555.419 197.556C563.391 200.119 576.631 190.907 576.631 190.907C576.631 190.907 571.483 186.597 569.579 177.124C569.491 176.642 569.402 176.159 569.312 175.638C568.479 175.416 566.902 175.006 565.207 174.561L559.107 181.396C559.107 181.396 559.257 184.22 560 189.086C560.12 189.941 560.297 190.833 560.447 191.836C557.234 194.325 555.419 197.556 555.419 197.556Z" fill="#E49963"/>
<path d="M585.11 238.905C583.979 258.111 585.466 287.349 584.187 292.401C583.056 296.785 570.293 294.184 565.206 292.698C563.332 292.141 561.041 291.398 558.692 290.469C552.116 287.943 544.947 284.302 544.174 281.591C544.143 281.479 544.113 281.368 544.113 281.294C544.054 280.886 544.054 280.551 544.113 280.179C544.381 278.805 545.364 277.319 545.482 273.9C545.602 270.111 545.602 265.615 545.72 260.825C545.72 260.266 545.72 259.709 545.779 259.153V258.966C545.779 258.854 545.779 258.744 545.779 258.67C545.899 253.319 546.107 247.673 546.375 242.063C546.554 238.535 546.731 235.078 546.94 231.736C547.506 223.116 548.279 215.464 549.32 210.633C550.986 202.759 554.675 197.594 558.037 193.843L560.476 191.241C563.183 191.984 566.396 191.502 569.282 189.793C572.406 187.935 573.507 186.599 574.042 187.118C581.241 194.029 586.448 215.39 585.11 238.905Z" fill="#F99746"/>
<path d="M558.66 290.469C552.085 287.943 544.915 284.302 544.142 281.591C544.111 281.479 544.083 281.368 544.083 281.293C544.083 280.922 544.083 280.55 544.083 280.179C544.349 278.805 545.332 277.319 545.45 273.9C545.57 270.111 545.57 265.615 545.688 260.823C545.688 260.266 545.688 259.709 545.749 259.153V258.966C545.749 258.854 545.749 258.744 545.749 258.668L572.344 216.355C572.344 216.317 590.224 262.83 558.66 290.469Z" fill="#ED7D2B"/>
<path d="M559.137 181.36C559.137 181.36 559.286 184.182 560.03 189.049C565.98 186.635 568.687 179.91 569.579 177.086C569.491 176.604 569.401 176.121 569.312 175.6C568.478 175.378 566.902 174.969 565.207 174.523L559.137 181.36Z" fill="#D68D5D"/>
<path d="M558.332 185.668C558.332 185.668 571.333 182.956 569.846 172.889C568.359 162.821 569.042 155.688 560.712 156.987C552.352 158.289 551.312 162.487 551.164 166.015C550.985 169.508 554.911 186.114 558.332 185.668Z" fill="#E49963"/>
<path d="M497.461 234.48L496.33 234.939L506.074 272.392L507.205 271.933L497.461 234.48Z" fill="#4A75CB"/>
<path d="M539.137 269.011L506.032 269.896L506.074 272.383L539.18 271.501L539.137 269.011Z" fill="#4A75CB"/>
<path d="M538.488 273.416C538.488 273.416 527.867 276.909 523.88 276.536C519.893 276.166 516.592 273.788 516.085 272.563C515.581 271.335 514.539 269.144 517.247 269.553C519.954 269.961 523.673 270.668 523.791 270.035C523.911 269.405 521.59 269.441 521.59 269.441C521.59 269.441 520.876 268.179 521.769 268.105C522.661 268.031 525.249 267.176 526.201 267.77C527.153 268.363 528.046 270.592 528.76 270.482C529.474 270.37 537.655 265.876 537.655 265.876L538.488 273.416Z" fill="#E49963"/>
<path d="M576.153 203.055C576.153 203.055 574.903 256.587 565.473 262.681C560.832 265.689 539.858 273.937 533.55 275.348C533.55 275.348 531.856 273.974 531.677 267.548C531.677 267.548 553.216 254.136 555.922 248.08C559.94 239.09 549.944 214.422 555.209 205.767C560.475 197.111 570.203 192.355 576.153 203.055Z" fill="#F99746"/>
<path d="M569.609 177.086C569.609 177.086 569.758 173.632 568.063 171.663C568.063 171.663 568.657 168.208 567.557 167.614C566.456 167.057 566.218 169.955 565.712 169.508C565.207 169.063 562.975 166.871 561.993 163.676C561.041 160.48 552.235 164.345 551.224 164.938C550.213 165.533 546.91 163.416 546.256 161.67C546.256 161.67 548.1 159.849 548.903 158.475C549.737 157.1 555.478 147.849 563.541 150.488C571.603 153.126 572.703 157.918 572.227 162.042C571.751 166.166 572.912 175.712 569.609 177.086Z" fill="#2B478B"/>
<path d="M656.926 221.518C656.926 221.518 661.062 229.134 663.413 245.146C665.466 259.189 667.28 264.352 670.254 267.213C673.23 270.073 689.801 278.581 689.801 278.581L688.551 282.222C688.551 282.222 664.245 278.098 661.538 273.007C658.801 267.956 648.418 237.976 649.221 231.103C650.024 224.23 656.926 221.518 656.926 221.518Z" fill="#F4A269"/>
<path d="M716.398 388.841C716.19 391.813 719.492 392.518 723.3 392.741C727.108 392.965 725.977 393.967 731.213 395.156C736.449 396.346 738.532 394.561 738.918 393.67C739.246 392.891 736.835 391.663 734.217 390.289C733.89 390.103 733.564 389.955 733.236 389.769C730.32 388.173 728.684 384.902 726.394 381.856C724.252 378.996 722.199 369.782 722.199 369.782L715.088 367.887C715.088 367.887 717.081 376.172 717.766 379.701C718.182 381.782 717.557 384.085 717.052 385.869C716.754 386.835 716.487 387.8 716.398 388.841Z" fill="#FFB27D"/>
<path d="M723.3 392.777C727.108 393.001 725.978 394.004 731.214 395.192C736.45 396.382 738.532 394.597 738.92 393.706C739.246 392.927 736.837 391.7 734.219 390.326L734.189 390.364C734.189 390.364 730.5 391.924 726.245 390.474C722.795 389.286 719.433 386.723 717.053 385.868C716.755 386.833 716.487 387.8 716.399 388.84C716.19 391.812 719.492 392.518 723.3 392.777Z" fill="#C65447"/>
<path d="M645.562 283.521C645.562 283.521 692.834 279.063 701.73 286.085C710.624 293.106 724.904 374.798 724.904 374.798C724.904 374.798 724.012 375.691 722.048 375.95C720.204 376.21 716.187 374.836 716.187 374.836C716.187 374.836 695.66 338.281 694.232 329.067C692.774 319.854 693.131 311.643 689.858 311.421C686.557 311.199 645.562 317.662 639.343 303.991C633.125 290.321 638.272 276.834 638.272 276.834L645.562 283.521Z" fill="#163560"/>
<path d="M698.308 398.352C698.101 401.324 701.402 402.031 705.21 402.253C709.018 402.476 707.889 403.479 713.125 404.669C718.361 405.856 720.442 404.074 720.83 403.183C721.156 402.402 718.747 401.176 716.129 399.802C715.802 399.616 715.475 399.468 715.147 399.281C712.232 397.683 710.596 394.415 708.304 391.369C706.162 388.507 704.11 379.294 704.11 379.294L697 377.4C697 377.4 698.993 385.685 699.677 389.214C700.094 391.295 699.469 393.598 698.963 395.38C698.666 396.309 698.398 397.313 698.308 398.352Z" fill="#FFB27D"/>
<path d="M705.212 402.252C709.02 402.476 707.889 403.479 713.125 404.667C718.361 405.856 720.444 404.072 720.83 403.181C721.158 402.402 718.747 401.176 716.129 399.8L716.1 399.838C716.1 399.838 712.411 401.398 708.157 399.949C704.705 398.761 701.344 396.197 698.964 395.342C698.667 396.308 698.399 397.275 698.31 398.314C698.102 401.286 701.404 402.029 705.212 402.252Z" fill="#C65447"/>
<path d="M636.311 287.161C636.311 287.161 678.317 289.65 686.975 297.08C695.663 304.51 707.353 386.835 707.353 386.835C707.353 386.835 706.432 387.69 704.469 387.838C702.624 387.986 698.637 386.462 698.637 386.462C698.637 386.462 679.27 348.942 678.11 339.653C676.949 330.367 677.575 322.194 674.271 321.821C670.999 321.451 629.796 325.909 624.025 311.94C618.313 298.045 636.311 287.161 636.311 287.161Z" fill="#1C468A"/>
<path d="M651.274 171.773C649.4 170.251 647.109 169.879 645.472 169.879C645.919 169.36 646.752 169.248 646.752 169.248C645.741 168.987 643.45 170.027 643.45 170.027C629.795 162.114 626.225 187.674 626.194 193.693C626.165 199.711 625.838 206.584 618.549 211.376C604.239 220.775 614.86 240.167 614.86 240.167C614.949 240.241 624.41 255.844 624.41 255.844C624.321 250.978 639.671 225.195 649.4 218.322C651.898 214.348 653.088 207.029 653.178 206.472C652.464 212.268 651.512 215.5 650.679 217.282C659.038 208.923 656.213 175.861 651.274 171.773Z" fill="#B5453C"/>
<path d="M634.524 212.75C634.524 212.75 638.421 212.304 642.349 212.75C644.996 213.047 647.644 214.088 649.131 214.867C652.821 216.8 652.435 224.973 644.67 223.449C636.934 221.963 633.989 215.166 634.524 212.75Z" fill="#FFB27D"/>
<path d="M648.803 218.694C648.863 218.732 649.905 225.716 644.817 225.455C641.485 225.271 634.285 220.218 634.911 216.652C635.208 214.943 637.737 210.559 638.243 200.492L638.837 200.678L649.041 204.095C649.041 204.095 648.595 208.144 648.387 211.971C648.239 215.24 648.239 218.324 648.803 218.694Z" fill="#FFB27D"/>
<path d="M649.101 204.169C649.101 204.169 648.655 208.218 648.446 212.043C642.675 211.376 639.968 204.503 638.897 200.75L649.101 204.169Z" fill="#F4A269"/>
<path d="M637.886 199.228C637.886 199.228 635.179 192.986 634.703 187.785C634.375 184.07 636.607 170.66 647.406 173.52C647.406 173.52 650.559 174.189 653.387 176.938C655.647 179.129 658.83 183.735 654.367 195.253L653.149 199.154L637.886 199.228Z" fill="#B5453C"/>
<path d="M650.828 207.958C650.828 207.958 637.113 207.105 637.679 196.442C638.243 185.78 636.845 178.498 645.621 178.572C654.398 178.684 655.885 182.882 656.391 186.487C656.896 190.09 654.427 207.884 650.828 207.958Z" fill="#FFB27D"/>
<path d="M651.869 178.831C651.869 178.831 647.437 191.017 641.576 192.391C635.715 193.765 633.335 191.612 633.335 191.612C633.335 191.612 637.976 187.599 639.314 180.02C639.314 180.02 649.371 172.627 651.869 178.831Z" fill="#B5453C"/>
<path d="M650.886 179.76C650.886 179.76 653.534 182.77 654.069 185.556C654.606 188.342 654.606 193.951 655.944 193.877C655.944 193.877 659.216 185.592 656.301 180.541C653.207 175.154 650.886 179.76 650.886 179.76Z" fill="#B5453C"/>
<path d="M664.571 284.413C663.471 286.085 659.99 286.568 656.302 287.349C653.385 287.942 650.322 288.685 648.149 290.283C643.212 293.923 627.028 306.182 622.297 305.625C620.452 305.403 620.81 301.019 621.91 295.223C623.666 286.047 627.325 273.306 627.325 267.77C627.325 264.76 628.129 257.591 629.199 249.418C629.288 248.749 629.378 248.08 629.467 247.411C631.609 231.511 634.555 212.75 634.555 212.75C634.555 212.75 637.826 221.704 644.252 221.704C650.649 221.704 649.162 214.869 649.162 214.869C649.162 214.869 654.992 215.722 656.39 217.581C657.759 219.437 661.27 227.462 661.984 229.653C661.984 229.653 662.132 232.441 656.599 233.778C656.599 233.778 657.938 241.357 658.117 246.371C658.235 250.086 656.093 261.752 655.468 268.996C655.261 271.559 655.23 273.566 655.558 274.493C655.975 275.683 657.372 276.834 658.949 277.986C662.014 280.253 665.881 282.444 664.571 284.413Z" fill="#1C468A"/>
<path d="M658.89 277.986C662.429 285.528 649.28 287.793 647.108 289.392C642.171 293.032 627.028 306.184 622.297 305.625C620.452 305.403 620.81 301.019 621.91 295.223C623.666 286.047 627.325 273.306 627.325 267.77C627.325 264.76 628.129 257.591 629.199 249.418L634.911 242.583C634.911 242.583 641.009 262.309 646.841 265.541C649.905 267.25 653.088 268.365 655.438 269.034C655.23 271.596 655.2 273.602 655.527 274.532C655.914 275.683 657.313 276.835 658.89 277.986Z" fill="#163560"/>
<path d="M679.268 283.596H666.03V285.564H679.268V283.596Z" fill="#9E332E"/>
<path d="M676.471 285.266C676.591 284.635 688.64 261.045 688.64 261.045H715.414L701.996 284.635L676.471 285.266Z" fill="#9E332E"/>
<path d="M677.573 285.526C677.692 284.896 689.77 261.045 689.77 261.045H715.356L702.594 285.526H677.573Z" fill="#B5453C"/>
<path d="M700.153 273.342C699.886 274.307 699.052 275.088 698.279 275.088C697.506 275.088 697.119 274.307 697.357 273.342C697.624 272.377 698.458 271.596 699.231 271.596C700.004 271.596 700.421 272.413 700.153 273.342Z" fill="#9E332E"/>
<path d="M669.957 275.198C669.215 274.79 663.413 276.128 661.747 276.5C656.511 275.198 639.227 270.927 638.393 269.553C637.411 267.955 635.24 219.437 632.77 218.656C632.77 218.656 627.891 214.941 623.191 221.963C618.49 228.984 626.552 279.1 633.515 281.701C641.279 284.561 663.68 281.255 663.68 281.255C665.525 282.035 668.739 282.48 670.464 283.187C672.724 284.114 674.717 283.335 675.224 282.258C675.73 281.18 670.85 275.645 669.957 275.198Z" fill="#FFB27D"/>
<path d="M634.524 212.75C634.524 212.75 624.498 213.866 621.612 217.989C618.697 222.113 617.864 233.258 617.864 233.258C617.864 233.258 626.67 242.136 637.291 238.681L634.524 212.75Z" fill="#1C468A"/>
<path d="M851.937 419.787H1.11606C0.580628 419.787 0.164062 419.23 0.164062 418.598V418.189C0.164062 417.52 0.610344 417.001 1.11606 417.001H851.906C852.441 417.001 852.858 417.558 852.858 418.189V418.598C852.889 419.23 852.443 419.787 851.937 419.787Z" fill="#2E3552"/>
<path d="M346.924 191.129C346.924 191.129 347.847 186.523 349.424 186.263C350.97 186.002 353.321 184.777 353.826 186.337C354.332 187.897 350.107 195.922 348.412 193.953C346.746 191.984 346.924 191.129 346.924 191.129Z" fill="#FFB27D"/>
<path d="M330.268 345.71C330.268 345.71 332.022 348.199 332.677 351.059C332.825 351.691 332.528 352.21 331.993 352.21H324.347C323.604 352.21 322.86 351.357 322.86 350.428C322.829 348.682 323.038 346.044 324.228 344.448C326.102 341.92 330.268 345.71 330.268 345.71Z" fill="#163560"/>
<path d="M341.808 343.182C341.808 343.182 344.159 352.024 345.556 352.172C345.735 352.172 352.518 352.172 352.518 352.172H361.264C361.264 352.172 360.55 349.498 357.904 348.942C355.255 348.383 350.554 346.154 348.115 341.994C345.556 337.61 341.808 343.182 341.808 343.182Z" fill="#163560"/>
<path d="M326.428 288.462C327.797 293.365 328.66 297.266 328.66 299.123C328.63 307.37 341.66 344.558 341.66 344.558C345.855 346.787 350.674 344.52 350.674 344.52C349.246 339.357 341.303 293.253 337.108 265.131C335.324 253.317 334.134 245.07 334.134 245.07L311.107 241.838C311.077 241.801 321.699 271.373 326.428 288.462Z" fill="#2C3A64"/>
<path d="M311.078 241.802C311.078 241.802 321.668 271.409 326.398 288.498L337.049 265.131C335.265 253.317 334.075 245.07 334.075 245.07L311.078 241.802Z" fill="#2C3A64"/>
<path d="M323.395 248.08C323.395 248.08 329.731 330.255 331.189 346.156C331.189 346.156 327.262 347.642 322.473 345.339C322.473 345.339 313.726 307.147 312.744 295.668C311.763 284.152 301.856 248.599 303.522 245.292C305.188 242.024 323.395 248.08 323.395 248.08Z" fill="#2C3A64"/>
<path d="M307.181 178.014C307.181 178.014 309.62 185.333 309.709 187.488C309.799 189.643 304.235 190.869 301.438 189.048C298.643 187.228 299.058 185.63 299.058 185.63C299.058 185.63 297.78 178.2 297.988 177.605C298.196 177.048 307.181 178.014 307.181 178.014Z" fill="#FFB27D"/>
<path d="M346.272 190.274C346.272 190.274 336.336 205.727 335.92 207.698C330.208 199.375 321.43 188.973 321.015 188.564C319.884 187.413 317.86 186.744 315.838 186.299C313.041 185.704 310.185 185.666 309.53 185.63C309.442 185.63 309.382 185.63 309.382 185.63C309.65 186.856 308.578 189.159 306.229 189.345C303.432 189.567 299.475 187.673 299.058 185.63C299.03 185.518 292.514 186.039 293.645 201.269C293.645 201.493 293.674 201.716 293.704 201.938C294.15 207.065 295.429 213.752 298.078 222.558C299.03 225.714 302.124 249.194 303.045 249.232C303.045 249.232 303.849 249.75 305.634 250.383C306.556 250.718 307.776 251.088 309.264 251.423C312.447 252.166 316.908 252.834 322.889 252.834C333.867 252.834 336.634 248.933 336.634 248.933C337.228 248.933 330.535 230.062 327.024 213.826C330.653 216.464 334.52 218.991 334.937 219.325C336.782 220.737 338.062 221.294 338.954 221.368C338.954 221.368 338.983 221.368 339.073 221.368C339.608 221.368 339.994 221.22 340.263 220.922C341.096 220.365 342.226 219.177 343.357 216.54C344.874 213.083 346.658 206.062 348.206 201.381C349.069 198.782 349.724 195.958 350.586 193.617C350.616 193.655 348.503 190.831 346.272 190.274Z" fill="#BC3F3F"/>
<path d="M310.602 228.315C312.803 239.683 308.638 246.928 305.633 250.383C303.849 249.75 303.045 249.232 303.045 249.232C302.124 249.194 298.999 225.752 298.076 222.558C295.458 213.754 294.15 207.067 293.704 201.94C293.942 201.605 294.091 201.419 294.091 201.419C294.091 201.419 307.358 211.487 310.602 228.315Z" fill="#A02E2E"/>
<path d="M307.446 178.831C307.446 178.831 306.048 182.806 303.668 182.844C301.288 182.88 298.016 178.907 298.016 178.907L307.446 178.831Z" fill="#E8945B"/>
<path d="M307.626 178.646C307.121 179.241 305.931 180.096 304.89 180.653C304.117 181.062 303.165 181.098 302.213 180.727C300.785 180.17 298.582 179.277 298.018 178.907C296.619 178.015 296.322 176.157 295.697 173.632C294.983 170.622 294.239 168.244 294.121 166.536C294.001 164.455 294.804 163.266 297.691 162.969C302.986 162.375 305.604 164.085 306.169 166.35C306.318 166.945 306.466 167.539 306.615 168.096C308.34 175.154 308.46 177.643 307.626 178.646Z" fill="#FFB27D"/>
<path d="M306.406 167.167C306.406 167.167 305.157 165.533 303.64 166.164C302.122 166.795 302.331 168.579 299.415 168.281C296.5 167.984 295.458 166.312 295.131 167.167C294.803 168.02 295.578 172.963 295.578 172.963C295.578 172.963 286.355 156.653 297.958 156.653C297.958 156.653 309.738 155.762 307.537 172.33L306.406 167.167Z" fill="#2C3A64"/>
<path d="M332.052 159.292C332.081 159.032 332.112 158.846 332.112 158.846C332.081 158.994 332.052 159.144 332.052 159.292Z" fill="#D35C2B"/>
<path d="M350.527 209.11L348.623 208.775L353.947 170.994L350.527 209.11Z" fill="#2C3A64"/>
<path d="M347.879 189.755C347.879 189.755 349.634 191.946 349.931 190.721C350.228 189.531 352.46 188.157 352.608 187.6C352.787 187.044 350.049 186.783 349.634 186.783C349.247 186.783 347.581 188.974 347.879 189.755Z" fill="#FFB27D"/>
<path d="M303.044 188.9C303.193 188.936 305.245 188.268 308.042 188.676C308.042 188.676 308.25 191.834 307.536 192.095C306.822 192.355 305.304 192.131 304.977 192.095C304.649 192.057 303.044 188.9 303.044 188.9Z" fill="#1C468A"/>
<path d="M304.978 192.095C304.978 192.095 313.426 236.452 315.688 239.274C317.948 242.098 319.704 242.989 319.704 242.989C319.704 242.989 321.489 240.315 321.459 239.016C321.43 237.714 307.537 192.057 307.537 192.057H304.978V192.095Z" fill="#1C468A"/>
<path d="M316.819 235.411C316.819 235.411 322.561 237.75 324.316 237.826C326.042 237.9 328.094 234.221 327.41 233.144C327.203 232.848 324.703 234.259 323.989 233.777C322.888 233.034 321.52 233.591 320.627 233.739C319.735 233.887 316.403 231.51 316.403 231.51L316.819 235.411Z" fill="#FFB27D"/>
<path d="M318.843 231.472C309.5 223.225 302.925 219.065 300.873 217.839C301.438 211.745 301.2 202.05 299.058 185.63C299.058 185.63 289.984 186.892 289.032 190.831C287.634 196.551 290.936 212.414 293.643 225.119C293.643 225.119 293.674 225.157 293.763 225.195C293.971 225.64 294.239 226.048 294.626 226.457C298.493 230.32 318.931 237.75 318.931 237.75C320.419 235.113 318.843 231.472 318.843 231.472Z" fill="#BC3F3F"/>
<path d="M323.006 232.625L307.684 226.904L307.179 229.653L323.63 235.411L323.006 232.625Z" fill="#FCECDB"/>
<path d="M330.77 225.231L323.004 232.625L323.63 235.411L332.554 227.833L330.77 225.231Z" fill="#F4D2B8"/>
<path d="M323.809 236.228L306.286 229.579L306.345 229.022L323.631 235.411L323.809 236.228Z" fill="#2C3A64"/>
<path d="M323.809 236.228L333.715 227.647L333.3 227.126L323.631 235.411L323.809 236.228Z" fill="#2C3A64"/>
<path d="M303.045 188.898C303.045 188.898 299.03 183.697 298.702 184.032C298.375 184.366 297.958 185.518 298.166 185.852C298.375 186.187 303.552 189.828 303.552 189.828L303.045 188.898Z" fill="#1C468A"/>
<path d="M308.043 188.676C308.043 188.676 308.847 183.513 308.965 183.699C309.085 183.884 310.393 185.333 310.453 185.704C310.513 186.076 308.847 188.974 308.073 189.197C307.299 189.419 308.043 188.676 308.043 188.676Z" fill="#1C468A"/>
</svg>
