<svg width="141" height="114" viewBox="0 0 141 114" fill="none" xmlns="http://www.w3.org/2000/svg">
    <rect x="0.578613" y="56.7036" width="12" height="12" rx="4" transform="rotate(-16 0.578613 56.7036)" fill="#FEE8EE" />
    <rect x="134.028" y="87.2136" width="7" height="7" rx="2" transform="rotate(25 134.028 87.2136)" fill="#E2F9EF" />
    <rect x="115.686" y="3.21387" width="5" height="5" rx="1" transform="rotate(-40 115.686 3.21387)" fill="#FFF7E4" />
    <rect x="134.19" y="26.9404" width="90" height="90" rx="24" transform="rotate(107 134.19 26.9404)" fill="#E2F6FC" />
    <path fill-rule="evenodd" clip-rule="evenodd" d="M63.3516 54.7991C63.3516 46.7215 69.9224 40.1506 78 40.1506C86.0776 40.1506 92.6484 46.7215 92.6484 54.7991V54.8239C92.0665 54.3835 90.9094 54.0611 90.1667 53.9168C89.7102 47.3284 84.7022 42.6506 78 42.6506C71.2978 42.6506 66.4731 47.3284 66.0167 53.9168C65.2738 54.0612 63.9334 54.3835 63.3516 54.824V54.7991ZM70.1875 53.8225C68.572 53.8225 67.2578 55.1367 67.2578 56.7522V64.6949C67.2578 66.3104 68.572 67.6246 70.1875 67.6246C71.803 67.6246 73.1172 66.3104 73.1172 64.6949V56.7522C73.1172 55.1367 71.803 53.8225 70.1875 53.8225ZM65.9412 56.7522C65.9412 56.4705 65.9905 56.1984 66.0516 55.9297C64.491 56.3101 63.3516 57.4033 63.3516 58.7053V62.7418C63.3516 64.0438 64.491 65.137 66.0516 65.5174C65.9905 65.2487 65.9412 64.9766 65.9412 64.6949V56.7522ZM82.8828 56.7522C82.8828 55.1367 84.197 53.8225 85.8125 53.8225C87.428 53.8225 88.7422 55.1367 88.7422 56.7522V64.6949V66.648C88.7422 69.3403 86.5516 71.5308 83.8594 71.5308H80.7498C80.3453 72.6651 79.2715 73.484 78 73.484C76.3845 73.484 75.0703 72.1698 75.0703 70.5543C75.0703 68.9388 76.3845 67.6246 78 67.6246C79.2715 67.6246 80.3453 68.4435 80.7498 69.5777H83.8594C85.1813 69.5777 86.2883 68.6924 86.6518 67.4874C86.3842 67.5681 86.1061 67.6246 85.8125 67.6246C84.197 67.6246 82.8828 66.3104 82.8828 64.6949V56.7522ZM90.1167 55.9297C90.1777 56.1984 90.227 56.4705 90.227 56.7522V64.6949C90.227 64.9766 90.1777 65.2487 90.1167 65.5174C91.6772 65.137 92.8167 64.0438 92.8167 62.7418V58.7053C92.8167 57.4033 91.6772 56.3101 90.1167 55.9297Z" fill="#36C5F0" />
</svg>