<svg width="1437" height="534" viewBox="0 0 1437 534" fill="none" xmlns="http://www.w3.org/2000/svg">
    <rect width="1440" height="534" transform="translate(-3)" fill="none" fill-opacity="0"/>
    <path fill-rule="evenodd" clip-rule="evenodd" d="M283.567 242.824C285.774 241.305 287.971 239.801 290.161 238.312L289.036 236.658C286.844 238.149 284.643 239.655 282.433 241.176L283.567 242.824ZM296.781 233.84C299.008 232.345 301.226 230.866 303.436 229.403L302.332 227.735C300.119 229.201 297.897 230.682 295.666 232.179L296.781 233.84ZM310.124 225.006C312.371 223.539 314.609 222.089 316.837 220.656L315.755 218.974C313.523 220.41 311.282 221.862 309.031 223.331L310.124 225.006ZM323.572 216.358C325.835 214.925 328.088 213.509 330.331 212.111L329.274 210.414C327.026 211.814 324.769 213.232 322.502 214.668L323.572 216.358ZM337.127 207.912C339.412 206.512 341.687 205.131 343.951 203.769L342.92 202.055C340.651 203.42 338.372 204.804 336.083 206.207L337.127 207.912ZM350.835 199.665C353.143 198.302 355.439 196.958 357.725 195.635L356.723 193.904C354.432 195.23 352.131 196.577 349.818 197.942L350.835 199.665ZM364.652 191.665C366.985 190.343 369.306 189.041 371.615 187.76L370.645 186.011C368.33 187.295 366.004 188.6 363.666 189.926L364.652 191.665ZM378.637 183.91C381 182.63 383.35 181.372 385.688 180.137L384.754 178.369C382.41 179.607 380.053 180.868 377.684 182.152L378.637 183.91ZM392.763 176.447C395.149 175.219 397.521 174.015 399.881 172.834L398.986 171.046C396.62 172.23 394.24 173.437 391.848 174.668L392.763 176.447ZM407.058 169.297C409.473 168.125 411.874 166.979 414.261 165.858L413.41 164.047C411.016 165.172 408.608 166.322 406.185 167.498L407.058 169.297ZM421.528 162.503C423.976 161.393 426.409 160.31 428.826 159.255L428.026 157.422C425.6 158.481 423.159 159.567 420.702 160.681L421.528 162.503ZM436.153 156.121C438.633 155.083 441.096 154.074 443.542 153.095L442.799 151.238C440.343 152.221 437.87 153.234 435.38 154.276L436.153 156.121ZM450.982 150.189C453.494 149.232 455.988 148.308 458.465 147.415L457.787 145.534C455.299 146.43 452.793 147.359 450.27 148.32L450.982 150.189ZM466 144.78C468.548 143.917 471.076 143.088 473.585 142.295L472.982 140.388C470.46 141.185 467.918 142.018 465.358 142.886L466 144.78ZM481.22 139.97C483.802 139.215 486.363 138.498 488.903 137.819L488.387 135.887C485.832 136.57 483.256 137.291 480.658 138.051L481.22 139.97ZM496.627 135.858C499.243 135.228 501.835 134.641 504.404 134.096L503.989 132.139C501.402 132.688 498.792 133.28 496.159 133.913L496.627 135.858ZM512.244 132.549C514.89 132.067 517.511 131.631 520.106 131.242L519.809 129.264C517.194 129.657 514.552 130.096 511.885 130.581L512.244 132.549ZM528.001 130.191C530.671 129.882 533.313 129.623 535.926 129.416L535.768 127.422C533.13 127.631 530.464 127.892 527.77 128.204L528.001 130.191ZM543.892 128.938C546.576 128.831 549.228 128.78 551.849 128.785L551.852 126.785C549.204 126.779 546.523 126.831 543.812 126.94L543.892 128.938ZM559.773 128.976C562.451 129.101 565.095 129.289 567.705 129.538L567.895 127.547C565.253 127.295 562.577 127.105 559.866 126.978L559.773 128.976ZM575.599 130.5C578.202 130.89 580.808 131.356 583.42 131.895L583.825 129.936C581.178 129.39 578.535 128.918 575.895 128.522L575.599 130.5ZM591.167 133.708C593.709 134.373 596.258 135.107 598.813 135.909L599.412 134.001C596.826 133.189 594.246 132.446 591.672 131.773L591.167 133.708ZM606.336 138.46C608.801 139.357 611.274 140.317 613.758 141.339L614.519 139.49C612.01 138.457 609.511 137.487 607.02 136.58L606.336 138.46ZM621.066 144.514C623.449 145.603 625.844 146.748 628.253 147.951L629.146 146.161C626.717 144.949 624.302 143.793 621.897 142.695L621.066 144.514ZM635.334 151.627C637.638 152.869 639.957 154.163 642.292 155.507L643.29 153.774C640.939 152.42 638.604 151.118 636.283 149.867L635.334 151.627ZM649.154 159.578C651.389 160.941 653.641 162.351 655.914 163.81L656.994 162.126C654.708 160.66 652.443 159.242 650.196 157.87L649.154 159.578ZM662.609 168.202C664.783 169.659 666.98 171.161 669.204 172.709L670.346 171.068C668.113 169.513 665.907 168.005 663.722 166.541L662.609 168.202ZM675.689 177.301C677.809 178.826 679.958 180.394 682.142 182.01L683.332 180.402C681.14 178.781 678.984 177.207 676.857 175.677L675.689 177.301ZM689.748 185.207L688.541 186.801L691.046 188.707L693.593 190.66C694.021 190.989 694.451 191.321 694.884 191.655L696.106 190.072C695.24 189.403 694.381 188.742 693.53 188.09L690.999 186.156C690.58 185.838 690.164 185.522 689.748 185.207ZM701.202 196.576L703.247 198.185L706.401 200.679C706.758 200.962 707.118 201.248 707.48 201.535L708.724 199.969L705.525 197.435L702.436 195.003L701.202 196.576ZM713.726 206.52L719.962 211.531L721.217 209.973L714.977 204.959L713.726 206.52ZM726.184 216.547L732.411 221.567L733.665 220.009L727.439 214.99L726.184 216.547ZM738.661 226.588L743.408 230.378L744.916 231.577L746.16 230.01L743.889 228.204L739.911 225.027L738.661 226.588ZM751.193 236.529L753.765 238.539L756.278 240.49C756.693 240.811 757.105 241.13 757.516 241.446L758.737 239.862L757.502 238.909L754.993 236.961L752.427 234.955L751.193 236.529ZM763.901 246.319C766.084 247.967 768.221 249.562 770.324 251.109L771.509 249.498C769.414 247.956 767.283 246.366 765.106 244.723L763.901 246.319ZM776.787 255.797C779.007 257.382 781.192 258.916 783.35 260.402L784.485 258.755C782.336 257.275 780.16 255.748 777.95 254.169L776.787 255.797ZM790.013 264.899C792.286 266.4 794.532 267.848 796.755 269.246L797.82 267.553C795.609 266.163 793.376 264.723 791.115 263.23L790.013 264.899ZM803.604 273.432C805.945 274.822 808.265 276.155 810.567 277.433L811.537 275.684C809.253 274.416 806.95 273.093 804.625 271.713L803.604 273.432ZM817.643 281.212C820.065 282.455 822.469 283.634 824.859 284.75L825.705 282.939C823.339 281.833 820.956 280.664 818.555 279.433L817.643 281.212ZM832.218 288.01C834.728 289.059 837.225 290.038 839.709 290.945L840.395 289.067C837.94 288.17 835.472 287.202 832.989 286.164L832.218 288.01ZM847.352 293.523C849.949 294.325 852.534 295.048 855.111 295.69L855.594 293.749C853.054 293.116 850.504 292.403 847.942 291.612L847.352 293.523ZM862.989 297.405C865.603 297.886 868.263 298.285 870.97 298.6L871.201 296.613C868.538 296.303 865.922 295.911 863.352 295.438L862.989 297.405ZM879.024 299.286C881.668 299.432 884.354 299.503 887.082 299.5L887.079 297.5C884.389 297.503 881.74 297.433 879.133 297.289L879.024 299.286ZM895.128 299.283C897.763 299.146 900.436 298.943 903.145 298.675L902.948 296.685C900.27 296.95 897.628 297.15 895.024 297.286L895.128 299.283ZM911.124 297.713C913.735 297.343 916.379 296.916 919.055 296.431L918.699 294.463C916.048 294.943 913.429 295.367 910.844 295.733L911.124 297.713ZM926.956 294.852C929.532 294.291 932.138 293.679 934.772 293.016L934.283 291.076C931.67 291.734 929.085 292.341 926.53 292.898L926.956 294.852ZM942.547 290.934C945.086 290.215 947.651 289.45 950.241 288.64L949.644 286.731C947.071 287.536 944.523 288.296 942.002 289.01L942.547 290.934ZM957.89 286.142C960.388 285.292 962.909 284.402 965.454 283.471L964.766 281.593C962.236 282.519 959.729 283.404 957.246 284.249L957.89 286.142ZM972.916 280.649C975.375 279.69 977.854 278.695 980.354 277.663L979.591 275.814C977.103 276.841 974.636 277.832 972.189 278.786L972.916 280.649ZM987.744 274.532C990.169 273.479 992.612 272.392 995.074 271.273L994.246 269.452C991.794 270.567 989.361 271.649 986.948 272.697L987.744 274.532ZM1002.34 267.896C1004.73 266.764 1007.14 265.6 1009.56 264.407L1008.68 262.613C1006.26 263.802 1003.87 264.961 1001.48 266.089L1002.34 267.896ZM1016.74 260.809C1019.1 259.607 1021.47 258.377 1023.86 257.119L1022.92 255.35C1020.54 256.603 1018.18 257.829 1015.83 259.027L1016.74 260.809ZM1030.92 253.342C1033.25 252.08 1035.59 250.792 1037.94 249.479L1036.97 247.732C1034.62 249.042 1032.29 250.326 1029.97 251.584L1030.92 253.342ZM1044.92 245.535C1047.22 244.221 1049.53 242.882 1051.85 241.52L1050.84 239.794C1048.52 241.153 1046.22 242.488 1043.93 243.799L1044.92 245.535ZM1058.76 237.424C1061.03 236.063 1063.31 234.679 1065.61 233.273L1064.56 231.568C1062.27 232.971 1059.99 234.351 1057.73 235.709L1058.76 237.424ZM1072.42 229.057C1074.67 227.653 1076.92 226.228 1079.19 224.783L1078.12 223.096C1075.85 224.538 1073.6 225.96 1071.36 227.361L1072.42 229.057ZM1085.94 220.45C1088.16 219.009 1090.39 217.548 1092.64 216.067L1091.54 214.398C1089.3 215.875 1087.07 217.334 1084.85 218.772L1085.94 220.45ZM1099.26 211.666C1101.46 210.192 1103.67 208.698 1105.89 207.186L1104.77 205.532C1102.55 207.042 1100.34 208.533 1098.14 210.005L1099.26 211.666ZM1112.49 202.664C1114.67 201.157 1116.86 199.634 1119.06 198.092L1117.92 196.454C1115.72 197.993 1113.53 199.514 1111.35 201.018L1112.49 202.664ZM1125.61 193.476C1127.77 191.942 1129.95 190.391 1132.13 188.823L1130.96 187.199C1128.78 188.765 1126.61 190.313 1124.45 191.845L1125.61 193.476ZM1138.61 184.138C1140.75 182.578 1142.9 181.002 1145.07 179.41L1143.88 177.8C1141.72 179.389 1139.57 180.963 1137.43 182.521L1138.61 184.138Z" fill="#E8E9ED"/>
    <g clip-path="url(#clip0_43_14847)">
    <path d="M263.336 355.677V338.767H259.176L254.488 350.427H254.277L249.602 338.767H245.43V355.677H248.711V344.228H248.898L253.211 354.845H255.566L259.867 344.228H260.055V355.677H263.336ZM278.793 342.775H275.383V350.228C275.383 351.997 274.469 353.087 272.77 353.087C271.199 353.087 270.391 352.161 270.391 350.333V342.775H266.98V351.177C266.98 354.177 268.715 355.947 271.504 355.947C273.461 355.947 274.668 355.103 275.277 353.603H275.488V355.677H278.793V342.775ZM286.844 355.876C288.637 355.876 290.102 355.044 290.793 353.65H291.004V355.677H294.309V337.841H290.898V344.837H290.699C290.031 343.407 288.59 342.564 286.844 342.564C283.598 342.564 281.582 345.107 281.582 349.208C281.582 353.322 283.586 355.876 286.844 355.876ZM288.004 345.329C289.82 345.329 290.934 346.818 290.934 349.232C290.934 351.646 289.832 353.122 288.004 353.122C286.176 353.122 285.086 351.657 285.086 349.22C285.086 346.794 286.188 345.329 288.004 345.329ZM301.387 355.876C303.062 355.876 304.469 355.161 305.137 353.966H305.348V355.677H308.652V346.865C308.652 344.111 306.719 342.493 303.297 342.493C300.051 342.493 297.859 343.982 297.637 346.349H300.777C301.059 345.54 301.879 345.107 303.109 345.107C304.516 345.107 305.289 345.751 305.289 346.865V347.931L302.16 348.118C298.949 348.306 297.156 349.665 297.156 351.997C297.156 354.353 298.902 355.876 301.387 355.876ZM302.512 353.38C301.328 353.38 300.496 352.782 300.496 351.786C300.496 350.837 301.211 350.286 302.676 350.193L305.289 350.017V350.978C305.289 352.337 304.094 353.38 302.512 353.38ZM312.121 355.677H315.531V348.247C315.531 346.536 316.516 345.376 318.227 345.376C319.773 345.376 320.605 346.314 320.605 348.142V355.677H324.016V347.368C324.016 344.275 322.363 342.529 319.586 342.529C317.688 342.529 316.281 343.419 315.684 344.884H315.473V337.841H312.121V355.677Z" fill="#1B1C20"/>
    <path d="M164.9 391.677V385.573H171.141V384.011H164.9V379.167H171.697V377.585H163.143V391.677H164.9ZM174.373 391.677H176.053V385.154C176.053 383.669 177.215 382.595 178.816 382.595C179.148 382.595 179.754 382.654 179.891 382.693V381.013C179.676 380.984 179.324 380.964 179.051 380.964C177.654 380.964 176.443 381.687 176.131 382.712H175.975V381.15H174.373V391.677ZM188.67 388.952C188.23 389.88 187.312 390.378 185.955 390.378C184.168 390.378 183.006 389.06 182.918 386.98V386.902H190.486V386.257C190.486 382.986 188.758 380.964 185.916 380.964C183.025 380.964 181.17 383.113 181.17 386.423C181.17 389.753 182.996 391.863 185.916 391.863C188.221 391.863 189.861 390.749 190.35 388.952H188.67ZM185.896 382.448C187.566 382.448 188.68 383.679 188.719 385.544H182.918C183.045 383.679 184.217 382.448 185.896 382.448ZM200.096 388.952C199.656 389.88 198.738 390.378 197.381 390.378C195.594 390.378 194.432 389.06 194.344 386.98V386.902H201.912V386.257C201.912 382.986 200.184 380.964 197.342 380.964C194.451 380.964 192.596 383.113 192.596 386.423C192.596 389.753 194.422 391.863 197.342 391.863C199.646 391.863 201.287 390.749 201.775 388.952H200.096ZM197.322 382.448C198.992 382.448 200.105 383.679 200.145 385.544H194.344C194.471 383.679 195.643 382.448 197.322 382.448ZM214.09 391.863C215.545 391.863 216.795 391.169 217.459 389.997H217.615V391.677H219.217V376.97H217.537V382.81H217.391C216.795 381.657 215.555 380.964 214.09 380.964C211.414 380.964 209.666 383.113 209.666 386.413C209.666 389.724 211.395 391.863 214.09 391.863ZM214.48 382.478C216.385 382.478 217.576 384.001 217.576 386.413C217.576 388.845 216.395 390.349 214.48 390.349C212.557 390.349 211.404 388.874 211.404 386.413C211.404 383.962 212.566 382.478 214.48 382.478ZM229.451 388.952C229.012 389.88 228.094 390.378 226.736 390.378C224.949 390.378 223.787 389.06 223.699 386.98V386.902H231.268V386.257C231.268 382.986 229.539 380.964 226.697 380.964C223.807 380.964 221.951 383.113 221.951 386.423C221.951 389.753 223.777 391.863 226.697 391.863C229.002 391.863 230.643 390.749 231.131 388.952H229.451ZM226.678 382.448C228.348 382.448 229.461 383.679 229.5 385.544H223.699C223.826 383.679 224.998 382.448 226.678 382.448ZM234.002 391.677H235.682V376.97H234.002V391.677ZM239.822 379.118C240.467 379.118 240.994 378.591 240.994 377.947C240.994 377.302 240.467 376.775 239.822 376.775C239.178 376.775 238.65 377.302 238.65 377.947C238.65 378.591 239.178 379.118 239.822 379.118ZM238.982 391.677H240.662V381.15H238.982V391.677ZM252.459 381.15H250.662L247.781 389.822H247.625L244.744 381.15H242.947L246.844 391.677H248.562L252.459 381.15ZM261.287 388.952C260.848 389.88 259.93 390.378 258.572 390.378C256.785 390.378 255.623 389.06 255.535 386.98V386.902H263.104V386.257C263.104 382.986 261.375 380.964 258.533 380.964C255.643 380.964 253.787 383.113 253.787 386.423C253.787 389.753 255.613 391.863 258.533 391.863C260.838 391.863 262.479 390.749 262.967 388.952H261.287ZM258.514 382.448C260.184 382.448 261.297 383.679 261.336 385.544H255.535C255.662 383.679 256.834 382.448 258.514 382.448ZM265.74 391.677H267.42V385.154C267.42 383.669 268.582 382.595 270.184 382.595C270.516 382.595 271.121 382.654 271.258 382.693V381.013C271.043 380.984 270.691 380.964 270.418 380.964C269.021 380.964 267.811 381.687 267.498 382.712H267.342V381.15H265.74V391.677ZM274.256 395.486C276.121 395.486 276.961 394.763 277.859 392.322L281.971 381.15H280.184L277.303 389.812H277.146L274.256 381.15H272.439L276.336 391.687L276.141 392.312C275.701 393.581 275.174 394.04 274.207 394.04C273.973 394.04 273.709 394.031 273.504 393.991V395.427C273.738 395.466 274.031 395.486 274.256 395.486ZM290.564 391.677H292.244V382.556H294.656V381.15H292.244V380.027C292.244 378.874 292.752 378.288 293.963 378.288C294.266 378.288 294.549 378.298 294.754 378.337V376.97C294.402 376.902 294.031 376.872 293.621 376.872C291.619 376.872 290.564 377.878 290.564 379.978V381.15H288.816V382.556H290.564V391.677ZM300.984 391.863C303.982 391.863 305.838 389.792 305.838 386.413C305.838 383.025 303.982 380.964 300.984 380.964C297.986 380.964 296.131 383.025 296.131 386.413C296.131 389.792 297.986 391.863 300.984 391.863ZM300.984 390.349C298.992 390.349 297.869 388.904 297.869 386.413C297.869 383.913 298.992 382.478 300.984 382.478C302.977 382.478 304.1 383.913 304.1 386.413C304.1 388.904 302.977 390.349 300.984 390.349ZM308.475 391.677H310.154V385.154C310.154 383.669 311.316 382.595 312.918 382.595C313.25 382.595 313.855 382.654 313.992 382.693V381.013C313.777 380.984 313.426 380.964 313.152 380.964C311.756 380.964 310.545 381.687 310.232 382.712H310.076V381.15H308.475V391.677ZM324.666 391.863C326.072 391.863 327.225 391.247 327.908 390.124H328.064V391.677H329.666V384.47C329.666 382.282 328.23 380.964 325.662 380.964C323.416 380.964 321.756 382.077 321.531 383.767H323.23C323.465 382.937 324.344 382.458 325.604 382.458C327.176 382.458 327.986 383.171 327.986 384.47V385.427L324.949 385.613C322.498 385.759 321.111 386.843 321.111 388.728C321.111 390.652 322.625 391.863 324.666 391.863ZM324.979 390.388C323.758 390.388 322.85 389.763 322.85 388.689C322.85 387.634 323.553 387.077 325.154 386.97L327.986 386.784V387.751C327.986 389.255 326.707 390.388 324.979 390.388ZM332.869 391.677H334.549V376.97H332.869V391.677ZM337.908 391.677H339.588V376.97H337.908V391.677ZM352.82 391.863C355.818 391.863 357.674 389.792 357.674 386.413C357.674 383.025 355.818 380.964 352.82 380.964C349.822 380.964 347.967 383.025 347.967 386.413C347.967 389.792 349.822 391.863 352.82 391.863ZM352.82 390.349C350.828 390.349 349.705 388.904 349.705 386.413C349.705 383.913 350.828 382.478 352.82 382.478C354.812 382.478 355.936 383.913 355.936 386.413C355.936 388.904 354.812 390.349 352.82 390.349ZM360.311 391.677H361.99V385.154C361.99 383.669 363.152 382.595 364.754 382.595C365.086 382.595 365.691 382.654 365.828 382.693V381.013C365.613 380.984 365.262 380.964 364.988 380.964C363.592 380.964 362.381 381.687 362.068 382.712H361.912V381.15H360.311V391.677ZM371.531 391.863C372.986 391.863 374.236 391.169 374.9 389.997H375.057V391.677H376.658V376.97H374.979V382.81H374.832C374.236 381.657 372.996 380.964 371.531 380.964C368.855 380.964 367.107 383.113 367.107 386.413C367.107 389.724 368.836 391.863 371.531 391.863ZM371.922 382.478C373.826 382.478 375.018 384.001 375.018 386.413C375.018 388.845 373.836 390.349 371.922 390.349C369.998 390.349 368.846 388.874 368.846 386.413C368.846 383.962 370.008 382.478 371.922 382.478ZM386.893 388.952C386.453 389.88 385.535 390.378 384.178 390.378C382.391 390.378 381.229 389.06 381.141 386.98V386.902H388.709V386.257C388.709 382.986 386.98 380.964 384.139 380.964C381.248 380.964 379.393 383.113 379.393 386.423C379.393 389.753 381.219 391.863 384.139 391.863C386.443 391.863 388.084 390.749 388.572 388.952H386.893ZM384.119 382.448C385.789 382.448 386.902 383.679 386.941 385.544H381.141C381.268 383.679 382.439 382.448 384.119 382.448ZM391.346 391.677H393.025V385.154C393.025 383.669 394.188 382.595 395.789 382.595C396.121 382.595 396.727 382.654 396.863 382.693V381.013C396.648 380.984 396.297 380.964 396.023 380.964C394.627 380.964 393.416 381.687 393.104 382.712H392.947V381.15H391.346V391.677ZM398.523 384.031C398.523 385.554 399.422 386.404 401.395 386.882L403.201 387.322C404.324 387.595 404.871 388.083 404.871 388.806C404.871 389.773 403.855 390.447 402.439 390.447C401.092 390.447 400.252 389.88 399.969 388.991H398.24C398.426 390.74 400.037 391.863 402.381 391.863C404.773 391.863 406.6 390.564 406.6 388.679C406.6 387.165 405.643 386.306 403.66 385.827L402.039 385.437C400.799 385.134 400.213 384.685 400.213 383.962C400.213 383.025 401.189 382.39 402.439 382.39C403.709 382.39 404.529 382.947 404.754 383.786H406.414C406.189 382.058 404.656 380.964 402.449 380.964C400.213 380.964 398.523 382.282 398.523 384.031Z" fill="#797B89"/>
    </g>
    <rect x="258.105" y="189" width="90" height="90" rx="24" transform="rotate(20 258.105 189)" fill="#EDECFF"/>
    <rect x="215.579" y="207.563" width="12" height="12" rx="4" transform="rotate(-16 215.579 207.563)" fill="#FFF0E2"/>
    <rect x="344.028" y="267.073" width="7" height="7" rx="2" transform="rotate(25 344.028 267.073)" fill="#FEE8EE"/>
    <rect x="254.686" y="302.074" width="5" height="5" rx="1" transform="rotate(-40 254.686 302.074)" fill="#E0ECFF"/>
    <path fill-rule="evenodd" clip-rule="evenodd" d="M271.111 236.955H282.222C283.757 236.955 285 238.199 285 239.733V252.231C285 252.998 284.378 253.622 283.611 253.622H278.056C278.056 255.156 276.812 256.399 275.278 256.399C273.744 256.399 272.5 255.156 272.5 253.622H271.111C269.577 253.622 268.333 252.378 268.333 250.844V239.733C268.333 238.198 269.577 236.955 271.111 236.955ZM287.778 252.233V242.51C287.778 241.743 288.4 241.122 289.167 241.122H293.817C294.405 241.122 294.978 241.308 295.454 241.655L300.526 245.355C301.243 245.878 301.667 246.712 301.667 247.599V252.233C301.667 253 301.045 253.622 300.278 253.622H297.5C297.5 255.156 296.257 256.399 294.722 256.399C293.188 256.399 291.945 255.156 291.945 253.622H289.167C288.4 253.622 287.778 253 287.778 252.233Z" fill="#7571FF"/>
    <g clip-path="url(#clip1_43_14847)">
    <path d="M503.312 240.949V257.859H506.852V252.527H510.191C513.754 252.527 516.227 250.207 516.227 246.761C516.227 243.269 513.848 240.949 510.367 240.949H503.312ZM506.852 243.761H509.43C511.469 243.761 512.629 244.804 512.629 246.773C512.629 248.695 511.445 249.75 509.418 249.75H506.852V243.761ZM522.215 258.058C523.891 258.058 525.297 257.343 525.965 256.148H526.176V257.859H529.48V249.046C529.48 246.292 527.547 244.675 524.125 244.675C520.879 244.675 518.688 246.164 518.465 248.531H521.605C521.887 247.722 522.707 247.289 523.938 247.289C525.344 247.289 526.117 247.933 526.117 249.046V250.113L522.988 250.3C519.777 250.488 517.984 251.847 517.984 254.179C517.984 256.535 519.73 258.058 522.215 258.058ZM523.34 255.562C522.156 255.562 521.324 254.964 521.324 253.968C521.324 253.019 522.039 252.468 523.504 252.375L526.117 252.199V253.16C526.117 254.519 524.922 255.562 523.34 255.562ZM532.539 248.718C532.539 250.699 533.758 251.882 536.266 252.433L538.609 252.96C539.746 253.218 540.238 253.617 540.238 254.273C540.238 255.128 539.324 255.714 538 255.714C536.641 255.714 535.809 255.187 535.551 254.296H532.223C532.457 256.734 534.52 258.128 537.93 258.128C541.316 258.128 543.625 256.464 543.625 253.91C543.625 251.988 542.5 250.933 539.992 250.382L537.566 249.855C536.371 249.585 535.82 249.175 535.82 248.519C535.82 247.675 536.723 247.101 537.941 247.101C539.207 247.101 539.992 247.628 540.168 248.484H543.32C543.133 246.046 541.199 244.675 537.918 244.675C534.695 244.675 532.539 246.304 532.539 248.718ZM547.328 241.875V245.074H545.312V247.664H547.328V254.378C547.328 256.886 548.57 257.906 551.711 257.906C552.367 257.906 553 257.835 553.422 257.753V255.234C553.094 255.269 552.859 255.292 552.414 255.292C551.254 255.292 550.738 254.753 550.738 253.593V247.664H553.422V245.074H550.738V241.875H547.328ZM558.004 242.976C559.059 242.976 559.926 242.132 559.926 241.078C559.926 240.011 559.059 239.167 558.004 239.167C556.949 239.167 556.07 240.011 556.07 241.078C556.07 242.132 556.949 242.976 558.004 242.976ZM556.293 257.859H559.703V244.957H556.293V257.859ZM576.871 258.292C580.949 258.292 583.926 255.82 584.219 252.21H580.773C580.434 254.074 578.91 255.269 576.883 255.269C574.211 255.269 572.559 253.019 572.559 249.398C572.559 245.777 574.211 243.527 576.871 243.527C578.887 243.527 580.422 244.816 580.762 246.773H584.207C583.949 243.14 580.879 240.515 576.871 240.515C571.961 240.515 568.938 243.902 568.938 249.398C568.938 254.894 571.973 258.292 576.871 258.292ZM592.867 258.128C596.84 258.128 599.23 255.621 599.23 251.402C599.23 247.218 596.805 244.675 592.867 244.675C588.93 244.675 586.504 247.23 586.504 251.402C586.504 255.609 588.895 258.128 592.867 258.128ZM592.867 255.433C591.039 255.433 590.008 253.957 590.008 251.402C590.008 248.871 591.051 247.382 592.867 247.382C594.672 247.382 595.727 248.871 595.727 251.402C595.727 253.957 594.684 255.433 592.867 255.433ZM613.457 249.457C613.176 246.574 611.125 244.675 607.703 244.675C603.66 244.675 601.387 247.125 601.387 251.378C601.387 255.679 603.672 258.128 607.703 258.128C611.066 258.128 613.176 256.277 613.457 253.441H610.27C610.012 254.73 609.098 255.421 607.703 255.421C605.875 255.421 604.832 253.98 604.832 251.378C604.832 248.812 605.863 247.394 607.703 247.394C609.156 247.394 610.035 248.214 610.27 249.457H613.457ZM621.859 258.128C625.832 258.128 628.223 255.621 628.223 251.402C628.223 247.218 625.797 244.675 621.859 244.675C617.922 244.675 615.496 247.23 615.496 251.402C615.496 255.609 617.887 258.128 621.859 258.128ZM621.859 255.433C620.031 255.433 619 253.957 619 251.402C619 248.871 620.043 247.382 621.859 247.382C623.664 247.382 624.719 248.871 624.719 251.402C624.719 253.957 623.676 255.433 621.859 255.433ZM634.75 250.054H634.539V240.023H631.129V257.859H634.539V253.523L635.477 252.55L639.25 257.859H643.293L638.031 250.488L642.953 244.957H639.074L634.75 250.054Z" fill="#1B1C20"/>
    <path d="M479.834 287.365H481.582C483.564 287.365 484.785 288.38 484.785 290.011C484.785 291.593 483.467 292.658 481.611 292.658C479.795 292.658 478.525 291.71 478.369 290.226H476.67C476.797 292.619 478.77 294.191 481.631 294.191C484.434 294.191 486.592 292.423 486.592 290.06C486.592 288.097 485.381 286.857 483.555 286.564V286.408C485 285.988 486.055 284.865 486.064 283.166C486.074 281.193 484.473 279.435 481.689 279.435C478.838 279.435 477.09 281.125 476.914 283.419H478.623C478.77 281.837 479.873 280.968 481.572 280.968C483.271 280.968 484.277 282.042 484.277 283.361C484.277 284.826 483.125 285.861 481.504 285.861H479.834V287.365ZM494.15 294.191C497.314 294.191 499.131 291.515 499.131 286.837C499.131 282.169 497.285 279.435 494.15 279.435C490.996 279.435 489.15 282.16 489.15 286.808C489.15 291.496 490.977 294.191 494.15 294.191ZM494.15 292.658C492.07 292.658 490.918 290.578 490.918 286.808C490.918 283.087 492.09 280.978 494.15 280.978C496.211 280.978 497.363 283.068 497.363 286.808C497.363 290.587 496.23 292.658 494.15 292.658ZM511.562 294.044C513.018 294.044 514.268 293.351 514.932 292.179H515.088V293.859H516.689V279.152H515.01V284.992H514.863C514.268 283.839 513.027 283.146 511.562 283.146C508.887 283.146 507.139 285.294 507.139 288.595C507.139 291.906 508.867 294.044 511.562 294.044ZM511.953 284.66C513.857 284.66 515.049 286.183 515.049 288.595C515.049 291.027 513.867 292.531 511.953 292.531C510.029 292.531 508.877 291.056 508.877 288.595C508.877 286.144 510.039 284.66 511.953 284.66ZM522.881 294.044C524.287 294.044 525.439 293.429 526.123 292.306H526.279V293.859H527.881V286.652C527.881 284.464 526.445 283.146 523.877 283.146C521.631 283.146 519.971 284.259 519.746 285.949H521.445C521.68 285.119 522.559 284.64 523.818 284.64C525.391 284.64 526.201 285.353 526.201 286.652V287.609L523.164 287.794C520.713 287.941 519.326 289.025 519.326 290.91C519.326 292.833 520.84 294.044 522.881 294.044ZM523.193 292.57C521.973 292.57 521.064 291.945 521.064 290.871C521.064 289.816 521.768 289.259 523.369 289.152L526.201 288.966V289.933C526.201 291.437 524.922 292.57 523.193 292.57ZM531.494 297.667C533.359 297.667 534.199 296.945 535.098 294.503L539.209 283.332H537.422L534.541 291.994H534.385L531.494 283.332H529.678L533.574 293.869L533.379 294.494C532.939 295.763 532.412 296.222 531.445 296.222C531.211 296.222 530.947 296.212 530.742 296.173V297.609C530.977 297.648 531.27 297.667 531.494 297.667ZM540.918 286.212C540.918 287.736 541.816 288.585 543.789 289.064L545.596 289.503C546.719 289.777 547.266 290.265 547.266 290.988C547.266 291.955 546.25 292.628 544.834 292.628C543.486 292.628 542.646 292.062 542.363 291.173H540.635C540.82 292.921 542.432 294.044 544.775 294.044C547.168 294.044 548.994 292.746 548.994 290.861C548.994 289.347 548.037 288.488 546.055 288.009L544.434 287.619C543.193 287.316 542.607 286.867 542.607 286.144C542.607 285.207 543.584 284.572 544.834 284.572C546.104 284.572 546.924 285.128 547.148 285.968H548.809C548.584 284.24 547.051 283.146 544.844 283.146C542.607 283.146 540.918 284.464 540.918 286.212ZM557.275 293.859H558.955V287.335C558.955 285.851 560.02 284.66 561.396 284.66C562.725 284.66 563.594 285.46 563.594 286.71V293.859H565.273V287.091C565.273 285.753 566.25 284.66 567.715 284.66C569.199 284.66 569.932 285.421 569.932 286.974V293.859H571.611V286.583C571.611 284.376 570.41 283.146 568.262 283.146C566.807 283.146 565.605 283.878 565.039 284.992H564.883C564.395 283.898 563.398 283.146 561.973 283.146C560.566 283.146 559.512 283.82 559.033 284.992H558.877V283.332H557.275V293.859ZM579.004 294.044C582.002 294.044 583.857 291.974 583.857 288.595C583.857 285.207 582.002 283.146 579.004 283.146C576.006 283.146 574.15 285.207 574.15 288.595C574.15 291.974 576.006 294.044 579.004 294.044ZM579.004 292.531C577.012 292.531 575.889 291.085 575.889 288.595C575.889 286.095 577.012 284.66 579.004 284.66C580.996 284.66 582.119 286.095 582.119 288.595C582.119 291.085 580.996 292.531 579.004 292.531ZM586.494 293.859H588.174V287.628C588.174 285.783 589.258 284.66 590.938 284.66C592.617 284.66 593.418 285.558 593.418 287.453V293.859H595.098V287.042C595.098 284.542 593.779 283.146 591.416 283.146C589.805 283.146 588.779 283.83 588.252 284.992H588.096V283.332H586.494V293.859ZM605.146 291.134C604.707 292.062 603.789 292.56 602.432 292.56C600.645 292.56 599.482 291.242 599.395 289.162V289.083H606.963V288.439C606.963 285.167 605.234 283.146 602.393 283.146C599.502 283.146 597.646 285.294 597.646 288.605C597.646 291.935 599.473 294.044 602.393 294.044C604.697 294.044 606.338 292.931 606.826 291.134H605.146ZM602.373 284.63C604.043 284.63 605.156 285.861 605.195 287.726H599.395C599.521 285.861 600.693 284.63 602.373 284.63ZM610.303 297.667C612.168 297.667 613.008 296.945 613.906 294.503L618.018 283.332H616.23L613.35 291.994H613.193L610.303 283.332H608.486L612.383 293.869L612.188 294.494C611.748 295.763 611.221 296.222 610.254 296.222C610.02 296.222 609.756 296.212 609.551 296.173V297.609C609.785 297.648 610.078 297.667 610.303 297.667ZM631.143 294.044C633.809 294.044 635.557 291.886 635.557 288.595C635.557 285.285 633.818 283.146 631.143 283.146C629.697 283.146 628.418 283.859 627.842 284.992H627.686V279.152H626.006V293.859H627.607V292.179H627.764C628.428 293.351 629.678 294.044 631.143 294.044ZM630.752 284.66C632.676 284.66 633.818 286.134 633.818 288.595C633.818 291.056 632.676 292.531 630.752 292.531C628.838 292.531 627.646 291.027 627.646 288.595C627.646 286.164 628.838 284.66 630.752 284.66ZM641.123 294.044C642.529 294.044 643.682 293.429 644.365 292.306H644.521V293.859H646.123V286.652C646.123 284.464 644.688 283.146 642.119 283.146C639.873 283.146 638.213 284.259 637.988 285.949H639.688C639.922 285.119 640.801 284.64 642.061 284.64C643.633 284.64 644.443 285.353 644.443 286.652V287.609L641.406 287.794C638.955 287.941 637.568 289.025 637.568 290.91C637.568 292.833 639.082 294.044 641.123 294.044ZM641.436 292.57C640.215 292.57 639.307 291.945 639.307 290.871C639.307 289.816 640.01 289.259 641.611 289.152L644.443 288.966V289.933C644.443 291.437 643.164 292.57 641.436 292.57ZM657.939 286.554C657.646 284.679 656.084 283.146 653.525 283.146C650.576 283.146 648.701 285.275 648.701 288.556C648.701 291.906 650.586 294.044 653.535 294.044C656.064 294.044 657.637 292.619 657.939 290.685H656.24C655.928 291.876 654.941 292.531 653.525 292.531C651.65 292.531 650.439 290.988 650.439 288.556C650.439 286.173 651.631 284.66 653.525 284.66C655.039 284.66 655.967 285.509 656.24 286.554H657.939ZM662.354 287.931H662.197V279.152H660.518V293.859H662.197V289.865L663.203 288.927L667.148 293.859H669.287L664.453 287.843L668.984 283.332H666.924L662.354 287.931Z" fill="#797B89"/>
    </g>
    <rect x="611.579" y="189.745" width="12" height="12" rx="4" transform="rotate(-16 611.579 189.745)" fill="#E0ECFF"/>
    <rect x="621.028" y="86.2549" width="7" height="7" rx="2" transform="rotate(25 621.028 86.2549)" fill="#E2F9EF"/>
    <rect x="507.686" y="157.255" width="5" height="5" rx="1" transform="rotate(-40 507.686 157.255)" fill="#EDECFF"/>
    <rect x="590.606" y="80" width="90" height="90" rx="24" transform="rotate(62 590.606 80)" fill="#FFF0E2"/>
    <path fill-rule="evenodd" clip-rule="evenodd" d="M560.5 129.748C558.199 129.748 556.333 131.613 556.333 133.914V134.609C556.333 134.992 556.646 135.308 557.027 135.26C559.541 134.947 561.533 132.955 561.846 130.441C561.894 130.06 561.578 129.748 561.195 129.748H560.5ZM565.361 129.748C564.978 129.748 564.67 130.06 564.638 130.442C564.304 134.49 561.076 137.718 557.028 138.052C556.645 138.084 556.333 138.392 556.333 138.775V142.942C556.333 143.325 556.645 143.633 557.028 143.665C561.076 143.999 564.304 147.227 564.638 151.276C564.67 151.658 564.978 151.97 565.361 151.97H580.639C581.023 151.97 581.33 151.658 581.362 151.276C581.696 147.227 584.924 143.999 588.973 143.665C589.355 143.633 589.667 143.325 589.667 142.942V138.775C589.667 138.392 589.355 138.084 588.973 138.052C584.924 137.718 581.696 134.49 581.362 130.442C581.33 130.06 581.023 129.748 580.639 129.748H565.361ZM573 145.025C575.301 145.025 577.167 143.16 577.167 140.859C577.167 138.557 575.301 136.692 573 136.692C570.699 136.692 568.833 138.557 568.833 140.859C568.833 143.16 570.699 145.025 573 145.025ZM589.667 134.609V133.914C589.667 131.613 587.801 129.748 585.5 129.748H584.806C584.422 129.748 584.107 130.06 584.154 130.441C584.467 132.955 586.46 134.947 588.974 135.26C589.354 135.308 589.667 134.992 589.667 134.609ZM589.667 147.109C589.667 146.725 589.354 146.41 588.974 146.457C586.46 146.77 584.467 148.763 584.154 151.277C584.107 151.657 584.422 151.97 584.806 151.97H585.5C587.801 151.97 589.667 150.104 589.667 147.803V147.109ZM556.333 147.109V147.803C556.333 150.104 558.199 151.97 560.5 151.97H561.195C561.578 151.97 561.894 151.657 561.846 151.277C561.533 148.763 559.541 146.77 557.027 146.457C556.646 146.41 556.333 146.725 556.333 147.109Z" fill="#FF9637"/>
    <g clip-path="url(#clip2_43_14847)">
    <path d="M781.914 401.04H785.195C785.195 399.388 786.273 398.228 787.996 398.228C789.648 398.228 790.609 399.329 790.609 400.712C790.609 401.884 790.152 402.657 788.043 404.708L782.113 410.438V412.817H794.312V409.97H786.883V409.759L790.398 406.407C793.211 403.735 794.078 402.376 794.078 400.396C794.078 397.548 791.781 395.474 788.195 395.474C784.492 395.474 781.914 397.747 781.914 401.04ZM805.27 412.817H808.645V409.712H810.859V406.876H808.645V395.907H803.688C801.426 399.376 799.129 403.126 796.996 406.935V409.712H805.27V412.817ZM800.172 406.782C801.707 404.052 803.512 401.11 805.164 398.591H805.352V406.97H800.172V406.782ZM815.371 416.45L821.43 394.981H818.289L812.23 416.45H815.371ZM824.184 412.817H827.887L834.953 398.755V395.896H822.859V398.72H831.391V398.919L824.184 412.817ZM843.73 408.142C843.859 411.271 846.473 413.251 850.504 413.251C854.746 413.251 857.359 411.165 857.359 407.79C857.359 405.177 855.895 403.712 852.496 402.985L850.457 402.552C848.477 402.118 847.668 401.497 847.668 400.431C847.668 399.106 848.84 398.251 850.609 398.251C852.32 398.251 853.562 399.153 853.727 400.536H857.055C856.949 397.548 854.312 395.474 850.586 395.474C846.684 395.474 844.117 397.56 844.117 400.712C844.117 403.278 845.629 404.86 848.711 405.517L850.914 405.997C852.988 406.454 853.832 407.099 853.832 408.212C853.832 409.524 852.531 410.45 850.691 410.45C848.699 410.45 847.316 409.548 847.152 408.142H843.73ZM872.066 399.915H868.656V407.368C868.656 409.138 867.742 410.228 866.043 410.228C864.473 410.228 863.664 409.302 863.664 407.474V399.915H860.254V408.317C860.254 411.317 861.988 413.087 864.777 413.087C866.734 413.087 867.941 412.243 868.551 410.743H868.762V412.817H872.066V399.915ZM882.953 399.704C881.172 399.704 879.707 400.583 879.004 402.036H878.793V399.915H875.488V417.095H878.898V410.849H879.109C879.742 412.208 881.16 413.017 883.012 413.017C886.246 413.017 888.227 410.509 888.227 406.36C888.227 402.2 886.223 399.704 882.953 399.704ZM881.793 410.263C879.988 410.263 878.863 408.786 878.863 406.372C878.863 403.958 879.988 402.47 881.805 402.47C883.621 402.47 884.723 403.935 884.723 406.36C884.723 408.798 883.633 410.263 881.793 410.263ZM898.469 399.704C896.688 399.704 895.223 400.583 894.52 402.036H894.309V399.915H891.004V417.095H894.414V410.849H894.625C895.258 412.208 896.676 413.017 898.527 413.017C901.762 413.017 903.742 410.509 903.742 406.36C903.742 402.2 901.738 399.704 898.469 399.704ZM897.309 410.263C895.504 410.263 894.379 408.786 894.379 406.372C894.379 403.958 895.504 402.47 897.32 402.47C899.137 402.47 900.238 403.935 900.238 406.36C900.238 408.798 899.148 410.263 897.309 410.263ZM912.25 413.087C916.223 413.087 918.613 410.579 918.613 406.36C918.613 402.177 916.188 399.634 912.25 399.634C908.312 399.634 905.887 402.188 905.887 406.36C905.887 410.567 908.277 413.087 912.25 413.087ZM912.25 410.392C910.422 410.392 909.391 408.915 909.391 406.36C909.391 403.829 910.434 402.341 912.25 402.341C914.055 402.341 915.109 403.829 915.109 406.36C915.109 408.915 914.066 410.392 912.25 410.392ZM921.402 412.817H924.812V405.599C924.812 403.782 926.09 402.669 927.953 402.669C928.504 402.669 929.301 402.763 929.57 402.856V399.856C929.277 399.763 928.703 399.704 928.234 399.704C926.594 399.704 925.258 400.677 924.918 401.966H924.707V399.915H921.402V412.817ZM933.367 396.833V400.032H931.352V402.622H933.367V409.337C933.367 411.845 934.609 412.864 937.75 412.864C938.406 412.864 939.039 412.794 939.461 412.712V410.192C939.133 410.228 938.898 410.251 938.453 410.251C937.293 410.251 936.777 409.712 936.777 408.552V402.622H939.461V400.032H936.777V396.833H933.367Z" fill="#1B1C20"/>
    <path d="M762.502 448.817V442.714H768.742V441.151H762.502V436.308H769.299V434.726H760.744V448.817H762.502ZM771.975 448.817H773.654V442.294C773.654 440.81 774.816 439.735 776.418 439.735C776.75 439.735 777.355 439.794 777.492 439.833V438.153C777.277 438.124 776.926 438.104 776.652 438.104C775.256 438.104 774.045 438.827 773.732 439.853H773.576V438.29H771.975V448.817ZM780.471 436.259C781.115 436.259 781.643 435.731 781.643 435.087C781.643 434.442 781.115 433.915 780.471 433.915C779.826 433.915 779.299 434.442 779.299 435.087C779.299 435.731 779.826 436.259 780.471 436.259ZM779.631 448.817H781.311V438.29H779.631V448.817ZM791.486 446.093C791.047 447.021 790.129 447.519 788.771 447.519C786.984 447.519 785.822 446.2 785.734 444.12V444.042H793.303V443.397C793.303 440.126 791.574 438.104 788.732 438.104C785.842 438.104 783.986 440.253 783.986 443.563C783.986 446.894 785.812 449.003 788.732 449.003C791.037 449.003 792.678 447.89 793.166 446.093H791.486ZM788.713 439.589C790.383 439.589 791.496 440.819 791.535 442.685H785.734C785.861 440.819 787.033 439.589 788.713 439.589ZM795.939 448.817H797.619V442.587C797.619 440.741 798.703 439.618 800.383 439.618C802.062 439.618 802.863 440.517 802.863 442.411V448.817H804.543V442.001C804.543 439.501 803.225 438.104 800.861 438.104C799.25 438.104 798.225 438.788 797.697 439.95H797.541V438.29H795.939V448.817ZM811.516 449.003C812.971 449.003 814.221 448.31 814.885 447.138H815.041V448.817H816.643V434.11H814.963V439.95H814.816C814.221 438.798 812.98 438.104 811.516 438.104C808.84 438.104 807.092 440.253 807.092 443.554C807.092 446.864 808.82 449.003 811.516 449.003ZM811.906 439.618C813.811 439.618 815.002 441.142 815.002 443.554C815.002 445.985 813.82 447.489 811.906 447.489C809.982 447.489 808.83 446.015 808.83 443.554C808.83 441.103 809.992 439.618 811.906 439.618ZM820.002 448.817H821.682V434.11H820.002V448.817ZM825.842 452.626C827.707 452.626 828.547 451.903 829.445 449.462L833.557 438.29H831.77L828.889 446.952H828.732L825.842 438.29H824.025L827.922 448.827L827.727 449.452C827.287 450.722 826.76 451.181 825.793 451.181C825.559 451.181 825.295 451.171 825.09 451.132V452.567C825.324 452.606 825.617 452.626 825.842 452.626ZM841.35 438.7H843.049C843.049 437.03 844.172 435.927 845.861 435.927C847.521 435.927 848.527 437.04 848.527 438.534C848.527 439.774 848 440.507 846.203 442.45L841.438 447.606V448.817H850.559V447.235H843.879V447.079L847.082 443.769C849.621 441.142 850.324 439.97 850.324 438.349C850.324 436.063 848.439 434.394 845.979 434.394C843.283 434.394 841.35 436.19 841.35 438.7ZM859.67 448.817H861.389V445.897H863.391V444.325H861.389V434.726H858.84C856.867 437.665 854.709 441.103 852.805 444.296V445.897H859.67V448.817ZM854.602 444.218C856.135 441.63 857.98 438.72 859.562 436.356H859.68V444.335H854.602V444.218ZM866.037 451.815L871.115 434.11H869.689L864.611 451.815H866.037ZM873.352 448.817H875.197L881.467 436.356V434.726H872.141V436.298H879.68V436.435L873.352 448.817ZM889.582 441.171C889.582 442.694 890.48 443.544 892.453 444.022L894.26 444.462C895.383 444.735 895.93 445.224 895.93 445.946C895.93 446.913 894.914 447.587 893.498 447.587C892.15 447.587 891.311 447.021 891.027 446.132H889.299C889.484 447.88 891.096 449.003 893.439 449.003C895.832 449.003 897.658 447.704 897.658 445.819C897.658 444.306 896.701 443.446 894.719 442.968L893.098 442.577C891.857 442.274 891.271 441.825 891.271 441.103C891.271 440.165 892.248 439.53 893.498 439.53C894.768 439.53 895.588 440.087 895.812 440.927H897.473C897.248 439.198 895.715 438.104 893.508 438.104C891.271 438.104 889.582 439.423 889.582 441.171ZM908.811 438.29H907.131V444.521C907.131 446.366 906.115 447.47 904.26 447.47C902.58 447.47 901.877 446.591 901.877 444.696V438.29H900.197V445.106C900.197 447.597 901.428 449.003 903.791 449.003C905.402 449.003 906.525 448.339 907.053 447.167H907.209V448.817H908.811V438.29ZM917.102 438.104C915.666 438.104 914.406 438.837 913.732 440.048H913.576V438.29H911.975V452.333H913.654V447.235H913.811C914.387 448.349 915.598 449.003 917.102 449.003C919.777 449.003 921.525 446.845 921.525 443.554C921.525 440.243 919.787 438.104 917.102 438.104ZM916.701 447.489C914.807 447.489 913.605 445.966 913.605 443.554C913.605 441.132 914.807 439.618 916.711 439.618C918.635 439.618 919.787 441.093 919.787 443.554C919.787 446.015 918.635 447.489 916.701 447.489ZM929.289 438.104C927.854 438.104 926.594 438.837 925.92 440.048H925.764V438.29H924.162V452.333H925.842V447.235H925.998C926.574 448.349 927.785 449.003 929.289 449.003C931.965 449.003 933.713 446.845 933.713 443.554C933.713 440.243 931.975 438.104 929.289 438.104ZM928.889 447.489C926.994 447.489 925.793 445.966 925.793 443.554C925.793 441.132 926.994 439.618 928.898 439.618C930.822 439.618 931.975 441.093 931.975 443.554C931.975 446.015 930.822 447.489 928.889 447.489ZM940.676 449.003C943.674 449.003 945.529 446.933 945.529 443.554C945.529 440.165 943.674 438.104 940.676 438.104C937.678 438.104 935.822 440.165 935.822 443.554C935.822 446.933 937.678 449.003 940.676 449.003ZM940.676 447.489C938.684 447.489 937.561 446.044 937.561 443.554C937.561 441.054 938.684 439.618 940.676 439.618C942.668 439.618 943.791 441.054 943.791 443.554C943.791 446.044 942.668 447.489 940.676 447.489ZM948.166 448.817H949.846V442.294C949.846 440.81 951.008 439.735 952.609 439.735C952.941 439.735 953.547 439.794 953.684 439.833V438.153C953.469 438.124 953.117 438.104 952.844 438.104C951.447 438.104 950.236 438.827 949.924 439.853H949.768V438.29H948.166V448.817ZM957.072 435.565V438.29H955.373V439.696H957.072V446.083C957.072 448.095 957.941 448.896 960.109 448.896C960.441 448.896 960.764 448.856 961.096 448.798V447.382C960.783 447.411 960.617 447.421 960.314 447.421C959.221 447.421 958.752 446.894 958.752 445.653V439.696H961.096V438.29H958.752V435.565H957.072Z" fill="#797B89"/>
    </g>
    <rect x="783.579" y="295.704" width="12" height="12" rx="4" transform="rotate(-16 783.579 295.704)" fill="#FEE8EE"/>
    <rect x="917.028" y="326.214" width="7" height="7" rx="2" transform="rotate(25 917.028 326.214)" fill="#E2F9EF"/>
    <rect x="898.686" y="242.214" width="5" height="5" rx="1" transform="rotate(-40 898.686 242.214)" fill="#FFF7E4"/>
    <rect x="917.19" y="265.94" width="90" height="90" rx="24" transform="rotate(107 917.19 265.94)" fill="#E2F6FC"/>
    <path fill-rule="evenodd" clip-rule="evenodd" d="M846.352 293.799C846.352 285.721 852.922 279.151 861 279.151C869.078 279.151 875.648 285.721 875.648 293.799V293.824C875.067 293.384 873.909 293.061 873.167 292.917C872.71 286.328 867.702 281.651 861 281.651C854.298 281.651 849.473 286.328 849.017 292.917C848.274 293.061 846.933 293.384 846.352 293.824V293.799ZM853.188 292.823C851.572 292.823 850.258 294.137 850.258 295.752V303.695C850.258 305.31 851.572 306.625 853.188 306.625C854.803 306.625 856.117 305.31 856.117 303.695V295.752C856.117 294.137 854.803 292.823 853.188 292.823ZM848.941 295.752C848.941 295.47 848.991 295.198 849.052 294.93C847.491 295.31 846.352 296.403 846.352 297.705V301.742C846.352 303.044 847.491 304.137 849.052 304.517C848.991 304.249 848.941 303.977 848.941 303.695V295.752ZM865.883 295.752C865.883 294.137 867.197 292.823 868.812 292.823C870.428 292.823 871.742 294.137 871.742 295.752V303.695V305.648C871.742 308.34 869.552 310.531 866.859 310.531H863.75C863.345 311.665 862.271 312.484 861 312.484C859.385 312.484 858.07 311.17 858.07 309.554C858.07 307.939 859.385 306.625 861 306.625C862.271 306.625 863.345 307.443 863.75 308.578H866.859C868.181 308.578 869.288 307.692 869.652 306.487C869.384 306.568 869.106 306.625 868.812 306.625C867.197 306.625 865.883 305.31 865.883 303.695V295.752ZM873.117 294.93C873.178 295.198 873.227 295.47 873.227 295.752V303.695C873.227 303.977 873.178 304.249 873.117 304.517C874.677 304.137 875.817 303.044 875.817 301.742V297.705C875.817 296.403 874.677 295.31 873.117 294.93Z" fill="#36C5F0"/>
    <g clip-path="url(#clip3_43_14847)">
    <path d="M1117.05 293.102V290.958H1109.95V293.536H1113.62L1113.61 293.852C1113.54 295.962 1111.93 297.38 1109.61 297.38C1106.82 297.38 1105.06 295.141 1105.06 291.462C1105.06 287.852 1106.74 285.637 1109.47 285.637C1111.44 285.637 1112.86 286.645 1113.38 288.415H1116.9C1116.41 284.911 1113.46 282.626 1109.47 282.626C1104.55 282.626 1101.44 286.059 1101.44 291.497C1101.44 297.016 1104.52 300.403 1109.55 300.403C1114.17 300.403 1117.05 297.591 1117.05 293.102ZM1123.53 300.169C1125.21 300.169 1126.61 299.454 1127.28 298.259H1127.49V299.969H1130.8V291.157C1130.8 288.403 1128.86 286.786 1125.44 286.786C1122.2 286.786 1120 288.274 1119.78 290.641H1122.92C1123.2 289.833 1124.02 289.399 1125.25 289.399C1126.66 289.399 1127.43 290.044 1127.43 291.157V292.223L1124.3 292.411C1121.09 292.598 1119.3 293.958 1119.3 296.29C1119.3 298.645 1121.05 300.169 1123.53 300.169ZM1124.66 297.673C1123.47 297.673 1122.64 297.075 1122.64 296.079C1122.64 295.13 1123.36 294.579 1124.82 294.485L1127.43 294.309V295.27C1127.43 296.63 1126.24 297.673 1124.66 297.673ZM1135.89 285.087C1136.95 285.087 1137.82 284.243 1137.82 283.188C1137.82 282.122 1136.95 281.278 1135.89 281.278C1134.84 281.278 1133.96 282.122 1133.96 283.188C1133.96 284.243 1134.84 285.087 1135.89 285.087ZM1137.58 287.067H1134.17V300.298C1134.17 301.364 1133.73 301.809 1132.53 301.809C1132.43 301.809 1132.17 301.798 1132.1 301.786V304.329C1132.24 304.341 1132.77 304.364 1133.01 304.364C1136 304.364 1137.58 303.028 1137.58 300.391V287.067ZM1142.77 285.087C1143.83 285.087 1144.7 284.243 1144.7 283.188C1144.7 282.122 1143.83 281.278 1142.77 281.278C1141.72 281.278 1140.84 282.122 1140.84 283.188C1140.84 284.243 1141.72 285.087 1142.77 285.087ZM1141.06 299.969H1144.47V287.067H1141.06V299.969ZM1154.46 283.059V299.969H1158V294.637H1161.34C1164.9 294.637 1167.37 292.317 1167.37 288.872C1167.37 285.38 1164.99 283.059 1161.51 283.059H1154.46ZM1158 285.872H1160.57C1162.61 285.872 1163.77 286.915 1163.77 288.884C1163.77 290.805 1162.59 291.86 1160.56 291.86H1158V285.872ZM1173.36 300.169C1175.04 300.169 1176.44 299.454 1177.11 298.259H1177.32V299.969H1180.62V291.157C1180.62 288.403 1178.69 286.786 1175.27 286.786C1172.02 286.786 1169.83 288.274 1169.61 290.641H1172.75C1173.03 289.833 1173.85 289.399 1175.08 289.399C1176.49 289.399 1177.26 290.044 1177.26 291.157V292.223L1174.13 292.411C1170.92 292.598 1169.13 293.958 1169.13 296.29C1169.13 298.645 1170.88 300.169 1173.36 300.169ZM1174.48 297.673C1173.3 297.673 1172.47 297.075 1172.47 296.079C1172.47 295.13 1173.18 294.579 1174.65 294.485L1177.26 294.309V295.27C1177.26 296.63 1176.07 297.673 1174.48 297.673ZM1183.68 290.829C1183.68 292.809 1184.9 293.993 1187.41 294.544L1189.75 295.071C1190.89 295.329 1191.38 295.727 1191.38 296.384C1191.38 297.239 1190.47 297.825 1189.14 297.825C1187.79 297.825 1186.95 297.298 1186.7 296.407H1183.37C1183.6 298.844 1185.66 300.239 1189.07 300.239C1192.46 300.239 1194.77 298.575 1194.77 296.02C1194.77 294.098 1193.64 293.044 1191.14 292.493L1188.71 291.966C1187.52 291.696 1186.96 291.286 1186.96 290.63C1186.96 289.786 1187.87 289.212 1189.09 289.212C1190.35 289.212 1191.14 289.739 1191.31 290.594H1194.46C1194.28 288.157 1192.34 286.786 1189.06 286.786C1185.84 286.786 1183.68 288.415 1183.68 290.829Z" fill="#1B1C20"/>
    <path d="M1071.46 335.969H1073.3L1068.11 321.878H1066.37L1061.17 335.969H1063.02L1064.44 331.936H1070.04L1071.46 335.969ZM1067.16 324.153H1067.32L1069.52 330.442H1064.95L1067.16 324.153ZM1075.66 335.969H1077.34V321.262H1075.66V335.969ZM1080.7 335.969H1082.38V321.262H1080.7V335.969ZM1099.99 328.665C1099.7 326.79 1098.14 325.257 1095.58 325.257C1092.63 325.257 1090.75 327.385 1090.75 330.667C1090.75 334.016 1092.64 336.155 1095.59 336.155C1098.12 336.155 1099.69 334.729 1099.99 332.796H1098.29C1097.98 333.987 1096.99 334.641 1095.58 334.641C1093.7 334.641 1092.49 333.098 1092.49 330.667C1092.49 328.284 1093.68 326.77 1095.58 326.77C1097.09 326.77 1098.02 327.62 1098.29 328.665H1099.99ZM1105.4 336.155C1106.81 336.155 1107.96 335.54 1108.64 334.417H1108.8V335.969H1110.4V328.762C1110.4 326.575 1108.97 325.257 1106.4 325.257C1104.15 325.257 1102.49 326.37 1102.27 328.059H1103.97C1104.2 327.229 1105.08 326.751 1106.34 326.751C1107.91 326.751 1108.72 327.464 1108.72 328.762V329.719L1105.69 329.905C1103.23 330.052 1101.85 331.135 1101.85 333.02C1101.85 334.944 1103.36 336.155 1105.4 336.155ZM1105.71 334.68C1104.49 334.68 1103.59 334.055 1103.59 332.981C1103.59 331.927 1104.29 331.37 1105.89 331.262L1108.72 331.077V332.044C1108.72 333.548 1107.44 334.68 1105.71 334.68ZM1113.51 335.969H1115.19V329.446C1115.19 327.962 1116.35 326.887 1117.95 326.887C1118.28 326.887 1118.89 326.946 1119.03 326.985V325.305C1118.81 325.276 1118.46 325.257 1118.19 325.257C1116.79 325.257 1115.58 325.979 1115.27 327.005H1115.11V325.442H1113.51V335.969ZM1124.73 336.155C1126.18 336.155 1127.43 335.462 1128.1 334.29H1128.25V335.969H1129.86V321.262H1128.18V327.102H1128.03C1127.43 325.95 1126.19 325.257 1124.73 325.257C1122.05 325.257 1120.3 327.405 1120.3 330.706C1120.3 334.016 1122.03 336.155 1124.73 336.155ZM1125.12 326.77C1127.02 326.77 1128.21 328.294 1128.21 330.706C1128.21 333.137 1127.03 334.641 1125.12 334.641C1123.2 334.641 1122.04 333.167 1122.04 330.706C1122.04 328.255 1123.21 326.77 1125.12 326.77ZM1132.87 328.323C1132.87 329.846 1133.77 330.696 1135.74 331.175L1137.55 331.614C1138.67 331.887 1139.22 332.376 1139.22 333.098C1139.22 334.065 1138.21 334.739 1136.79 334.739C1135.44 334.739 1134.6 334.173 1134.32 333.284H1132.59C1132.78 335.032 1134.39 336.155 1136.73 336.155C1139.12 336.155 1140.95 334.856 1140.95 332.971C1140.95 331.458 1139.99 330.598 1138.01 330.12L1136.39 329.729C1135.15 329.427 1134.56 328.977 1134.56 328.255C1134.56 327.317 1135.54 326.682 1136.79 326.682C1138.06 326.682 1138.88 327.239 1139.1 328.079H1140.76C1140.54 326.35 1139.01 325.257 1136.8 325.257C1134.56 325.257 1132.87 326.575 1132.87 328.323ZM1152.16 336.155C1153.57 336.155 1154.72 335.54 1155.4 334.417H1155.56V335.969H1157.16V328.762C1157.16 326.575 1155.72 325.257 1153.16 325.257C1150.91 325.257 1149.25 326.37 1149.03 328.059H1150.72C1150.96 327.229 1151.84 326.751 1153.1 326.751C1154.67 326.751 1155.48 327.464 1155.48 328.762V329.719L1152.44 329.905C1149.99 330.052 1148.61 331.135 1148.61 333.02C1148.61 334.944 1150.12 336.155 1152.16 336.155ZM1152.47 334.68C1151.25 334.68 1150.34 334.055 1150.34 332.981C1150.34 331.927 1151.05 331.37 1152.65 331.262L1155.48 331.077V332.044C1155.48 333.548 1154.2 334.68 1152.47 334.68ZM1168.98 328.665C1168.68 326.79 1167.12 325.257 1164.56 325.257C1161.61 325.257 1159.74 327.385 1159.74 330.667C1159.74 334.016 1161.62 336.155 1164.57 336.155C1167.1 336.155 1168.67 334.729 1168.98 332.796H1167.28C1166.96 333.987 1165.98 334.641 1164.56 334.641C1162.69 334.641 1161.48 333.098 1161.48 330.667C1161.48 328.284 1162.67 326.77 1164.56 326.77C1166.08 326.77 1167 327.62 1167.28 328.665H1168.98ZM1180.17 328.665C1179.88 326.79 1178.31 325.257 1175.75 325.257C1172.8 325.257 1170.93 327.385 1170.93 330.667C1170.93 334.016 1172.81 336.155 1175.76 336.155C1178.29 336.155 1179.87 334.729 1180.17 332.796H1178.47C1178.16 333.987 1177.17 334.641 1175.75 334.641C1173.88 334.641 1172.67 333.098 1172.67 330.667C1172.67 328.284 1173.86 326.77 1175.75 326.77C1177.27 326.77 1178.2 327.62 1178.47 328.665H1180.17ZM1189.62 333.245C1189.18 334.173 1188.26 334.671 1186.91 334.671C1185.12 334.671 1183.96 333.352 1183.87 331.272V331.194H1191.44V330.55C1191.44 327.278 1189.71 325.257 1186.87 325.257C1183.98 325.257 1182.12 327.405 1182.12 330.716C1182.12 334.046 1183.95 336.155 1186.87 336.155C1189.17 336.155 1190.81 335.042 1191.3 333.245H1189.62ZM1186.85 326.741C1188.52 326.741 1189.63 327.971 1189.67 329.837H1183.87C1184 327.971 1185.17 326.741 1186.85 326.741ZM1199.2 325.257C1197.77 325.257 1196.51 325.989 1195.83 327.2H1195.68V325.442H1194.07V339.485H1195.75V334.387H1195.91C1196.49 335.501 1197.7 336.155 1199.2 336.155C1201.88 336.155 1203.62 333.997 1203.62 330.706C1203.62 327.395 1201.89 325.257 1199.2 325.257ZM1198.8 334.641C1196.91 334.641 1195.71 333.118 1195.71 330.706C1195.71 328.284 1196.91 326.77 1198.81 326.77C1200.73 326.77 1201.89 328.245 1201.89 330.706C1201.89 333.167 1200.73 334.641 1198.8 334.641ZM1206.96 322.718V325.442H1205.27V326.848H1206.96V333.235C1206.96 335.247 1207.83 336.048 1210 336.048C1210.33 336.048 1210.66 336.009 1210.99 335.95V334.534C1210.68 334.563 1210.51 334.573 1210.21 334.573C1209.11 334.573 1208.64 334.046 1208.64 332.805V326.848H1210.99V325.442H1208.64V322.718H1206.96ZM1220.34 333.245C1219.9 334.173 1218.99 334.671 1217.63 334.671C1215.84 334.671 1214.68 333.352 1214.59 331.272V331.194H1222.16V330.55C1222.16 327.278 1220.43 325.257 1217.59 325.257C1214.7 325.257 1212.84 327.405 1212.84 330.716C1212.84 334.046 1214.67 336.155 1217.59 336.155C1219.89 336.155 1221.54 335.042 1222.02 333.245H1220.34ZM1217.57 326.741C1219.24 326.741 1220.35 327.971 1220.39 329.837H1214.59C1214.72 327.971 1215.89 326.741 1217.57 326.741ZM1228.69 336.155C1230.15 336.155 1231.4 335.462 1232.06 334.29H1232.22V335.969H1233.82V321.262H1232.14V327.102H1231.99C1231.4 325.95 1230.16 325.257 1228.69 325.257C1226.02 325.257 1224.27 327.405 1224.27 330.706C1224.27 334.016 1226 336.155 1228.69 336.155ZM1229.08 326.77C1230.99 326.77 1232.18 328.294 1232.18 330.706C1232.18 333.137 1231 334.641 1229.08 334.641C1227.16 334.641 1226.01 333.167 1226.01 330.706C1226.01 328.255 1227.17 326.77 1229.08 326.77Z" fill="#797B89"/>
    </g>
    <rect x="1210.15" y="152.409" width="12" height="12" rx="4" transform="rotate(18 1210.15 152.409)" fill="#E0ECFF"/>
    <rect x="1083.03" y="193.366" width="7" height="7" rx="2" transform="rotate(25 1083.03 193.366)" fill="#FFF0E2"/>
    <rect x="1171.69" y="238.366" width="5" height="5" rx="1" transform="rotate(-40 1171.69 238.366)" fill="#E2F6FC"/>
    <rect x="1181.72" y="129" width="90" height="90" rx="24" transform="rotate(77 1181.72 129)" fill="#FEE8EE"/>
    <path fill-rule="evenodd" clip-rule="evenodd" d="M1136.89 170.469C1134.59 170.469 1132.72 172.335 1132.72 174.636V177.414H1163.28V174.636C1163.28 172.335 1161.41 170.469 1159.11 170.469H1136.89ZM1163.28 180.191H1132.72V191.303C1132.72 193.604 1134.59 195.469 1136.89 195.469H1159.11C1161.41 195.469 1163.28 193.604 1163.28 191.303V180.191ZM1142.44 187.83C1142.44 188.981 1141.51 189.914 1140.36 189.914C1139.21 189.914 1138.28 188.981 1138.28 187.83C1138.28 186.68 1139.21 185.747 1140.36 185.747C1141.51 185.747 1142.44 186.68 1142.44 187.83ZM1147.31 189.914C1148.46 189.914 1149.39 188.981 1149.39 187.83C1149.39 186.68 1148.46 185.747 1147.31 185.747C1146.15 185.747 1145.22 186.68 1145.22 187.83C1145.22 188.981 1146.15 189.914 1147.31 189.914Z" fill="#F7336F"/>
    <defs>
    <clipPath id="clip0_43_14847">
    <rect width="247" height="68" fill="white" transform="translate(161 328.677)"/>
    </clipPath>
    <clipPath id="clip1_43_14847">
    <rect width="195" height="68" fill="white" transform="translate(475 230.859)"/>
    </clipPath>
    <clipPath id="clip2_43_14847">
    <rect width="204" height="68" fill="white" transform="translate(758.5 385.817)"/>
    </clipPath>
    <clipPath id="clip3_43_14847">
    <rect width="175" height="68" fill="white" transform="translate(1060.5 272.969)"/>
    </clipPath>
    </defs>
    </svg>