<svg width="158" height="108" viewBox="0 0 158 108" fill="none" xmlns="http://www.w3.org/2000/svg">
<path fill-rule="evenodd" clip-rule="evenodd" d="M45.3744 104.86C46.4171 104.423 47.4949 104.144 48.497 103.522C58.4609 97.3434 68.4114 91.1079 78.3661 84.8877L78.3234 84.9952C78.3454 84.7099 78.2802 84.2527 78.405 84.1623C80.9017 82.3485 83.3943 80.4924 85.9421 78.8153C89.9045 76.2068 93.9242 73.7787 97.8866 71.1737C101.007 69.1224 103.774 68.053 106.451 67.8756C108.634 67.7309 110.979 67.3221 113.252 67.0305C113.199 67.2472 113.145 67.4644 113.093 67.6817C116.622 65.7578 120.151 63.8345 123.679 61.9115C123.736 61.6914 123.794 61.4713 123.852 61.2508C122.946 61.2791 122.04 61.3074 121.079 61.3369C122.193 60.1365 123.289 58.9546 124.385 57.7732L124.363 57.8542C123.931 57.7178 123.499 57.5817 123.058 57.4434C123.73 56.7537 124.298 56.1706 124.867 55.5879L124.819 55.6867C124.148 55.5654 123.477 55.4441 122.231 55.2189C124.369 53.7856 126.013 52.6838 128.116 51.2739C128.181 51.1844 128.598 50.67 128.904 50.1637C129.082 49.8691 129.233 49.4706 129.133 49.3218C128.749 48.7476 128.258 48.2551 127.77 47.6883C128.514 47.0401 129.238 46.4093 130.165 45.6021C129.827 45.1105 129.515 44.6582 129.491 44.6224C127.126 44.4812 125.371 44.376 123.615 44.2716C123.728 43.9789 123.842 43.6862 123.955 43.3935C121.038 45.2264 118.124 47.297 115.203 48.8348C111.007 51.0436 106.795 54.3788 102.543 55.1472C101.097 55.4085 99.0333 56.9068 97.0569 57.4576C100.152 55.2793 103.206 52.9043 106.353 50.9688C110.733 48.2743 115.178 45.8383 119.602 43.4525C120.698 42.8616 122.729 41.0326 122.853 42.789L122.744 42.8153C123.726 42.0618 124.709 41.3083 125.901 40.3949C125.943 41.3199 125.973 41.9868 126.03 43.2157C127.354 41.3615 128.196 40.1824 129.031 39.0115C131.736 37.5272 134.447 36.107 137.132 34.5164C137.791 34.1261 138.366 33.1818 139.224 32.2183C138.144 32.2946 137.307 32.3536 136.049 32.4423C137.353 31.3183 138.458 30.4672 139.386 29.5277C139.934 28.9729 140.204 28.2781 140.598 27.6459C140.246 27.9181 139.894 28.1901 139.542 28.4628C139.526 28.2652 139.51 28.0681 139.494 27.871C139.848 27.8307 140.202 27.7912 140.556 27.7513C140.692 26.6039 140.828 25.4568 140.975 24.207C144.906 19.2 149.088 13.8781 153.253 8.5535C153.573 8.14407 153.812 7.71164 154.024 7.30025C155.166 5.08246 156.287 2.86797 157.342 0.798012C156.448 1.10601 155.078 1.77919 154.011 1.9091C150.3 2.36275 146.401 4.13567 142.223 6.47652C132.506 11.9216 122.77 17.1372 113.047 22.5254C108.672 24.9499 104.31 27.5645 99.9422 30.0926C99.4566 30.5271 98.9711 30.9617 98.4856 31.3964C98.4372 31.3218 98.39 31.2465 98.3418 31.1722C98.8948 30.7996 99.4473 30.4274 100 30.0549C91.6077 33.5906 81.2338 39.5195 79.1763 41.9564C76.879 42.443 74.685 43.6013 68.8759 47.7305C70.7943 46.7136 72.7131 45.6962 74.6317 44.6795C70.6353 47.7628 66.6337 50.8324 62.285 52.4461C62.2187 52.4706 62.2324 52.1846 62.2077 52.044L62.1527 52.1294C57.8871 54.9738 53.624 57.8278 49.3502 60.6482C48.9435 60.9163 48.4695 60.9755 48.0265 61.1319C47.6395 61.4683 47.2522 61.8055 46.8644 62.1421C46.8265 62.078 46.7891 62.0135 46.7512 61.9495C47.1614 61.7066 47.5722 61.4632 47.9819 61.2207C47.5369 61.1317 47.0858 60.7629 46.6458 60.9957C39.9482 64.5429 33.2533 68.199 26.556 71.7602C23.8065 73.2221 21.0534 74.5182 18.1768 75.9521C17.7973 76.4696 17.3499 77.0804 16.7417 77.9107C15.9779 77.9742 15.2316 78.0367 14.0863 78.1323C13.2914 79.8187 12.5652 81.3595 11.6393 83.3241C12.8649 82.9909 14.2033 82.6278 16.3392 82.048C12.4102 84.3646 9.11266 86.5226 5.83231 88.1732C3.41416 89.3895 2.03022 90.7247 0.830535 92.7153C4.55339 93.9964 9.1271 93.7712 14.6751 92.0412C15.2108 91.6404 15.9487 91.0883 16.5692 90.6241C19.8563 86.7509 24.0783 84.6956 27.9226 82.024C28.0307 82.2011 28.1396 82.3781 28.2488 82.5543C27.0179 83.4319 25.7868 84.3093 24.2053 85.4367C26.4593 85.0192 28.479 84.645 30.0872 84.3474C32.1857 82.2343 33.8319 80.5766 35.4782 78.9188L35.4363 79.0086C33.7591 79.5644 32.0812 80.1204 29.8802 80.8497C36.5179 74.5386 42.4468 74.5477 48.471 71.0673C48.6151 71.2175 48.758 71.3683 48.9025 71.5178C46.9495 74.1271 44.9965 76.7364 42.9099 79.5247C38.0099 84.955 31.6294 87.5596 25.7739 91.1594C24.9227 93.5488 22.8476 95.7449 20.5424 97.1809C17.7676 98.9094 15.0313 100.82 12.2939 102.691C10.2899 104.061 9.4017 105.576 8.73232 107.666C11.3625 107.191 13.9456 106.725 16.9439 106.184C20.8308 103.661 25.0971 100.892 29.3631 98.1226C29.4098 98.2624 29.4567 98.4023 29.5042 98.542C27.7111 99.7802 25.9187 101.018 24.1261 102.256C24.1341 102.386 24.1426 102.515 24.151 102.644C25.7409 101.759 27.3418 100.93 28.9183 99.9729C30.669 98.9107 32.3983 97.7317 34.3797 96.81C33.5553 97.77 32.7311 98.7293 31.9069 99.6895L31.9505 99.5943C31.7048 100.421 31.4589 101.248 31.087 102.499C31.2454 102.82 31.5548 103.447 32.0005 104.351C36.2059 101.785 40.4961 99.1679 44.7874 96.5495C44.8603 96.6595 44.9333 96.7694 45.0064 96.8795C43.818 98.099 42.629 99.3189 41.4366 100.542C41.9288 101.446 42.3639 102.243 42.9091 103.243C45.5386 101.724 48.1603 100.21 50.782 98.6964C50.8701 98.8345 50.9583 98.9726 51.0462 99.1105C49.142 101.058 47.2373 103.005 45.3325 104.953L45.3744 104.86Z" fill="#FFC640"/>
</svg>
