<svg width="83" height="68" viewBox="0 0 83 68" fill="none" xmlns="http://www.w3.org/2000/svg">
<path fill-rule="evenodd" clip-rule="evenodd" d="M69.1745 19.9483C71.7313 26.2207 74.2919 32.5021 76.5267 38.8528C76.8737 39.8409 77.3074 40.9764 77.7794 42.2126L77.7796 42.2129L77.7797 42.2132C81.1746 51.1027 86.5559 65.193 75.9837 67.0436C71.8738 67.7599 67.122 66.1595 62.9306 64.7481L62.9098 64.7411C56.9725 62.7543 51.0621 60.6819 45.1863 58.3636C35.6789 54.6157 26.3879 51.5355 16.8114 48.3631C16.4914 48.2571 16.0878 48.1306 15.619 47.9834L15.6183 47.9834C10.9213 46.5104 -0.318396 42.9861 0.63553 37.5103C1.16899 34.4648 3.27373 32.0033 5.85019 29.9486C5.85358 29.7981 5.9251 29.6421 6.10921 29.5036C9.75416 26.7914 13.2592 23.905 16.7646 21.0184C22.1562 16.5786 27.548 12.1386 33.4483 8.33207C33.698 8.17128 33.9565 8.00375 34.2235 7.8308C40.2766 3.90882 50.6427 -2.80781 58.6564 3.13578C63.4692 6.70544 66.0399 12.2581 68.2031 17.5637C68.5251 18.3554 68.8479 19.1472 69.1707 19.9393L69.1708 19.9392L69.1709 19.9395L69.171 19.9398L69.1711 19.9402L69.1712 19.9405L69.1714 19.9408L69.1714 19.9407L69.1715 19.9411L69.1716 19.9414L69.1717 19.9417L69.1719 19.942L69.172 19.9423L69.1721 19.9426L69.1722 19.9429L69.1723 19.9432L69.1725 19.9435L69.1726 19.9438L69.1727 19.9441L69.1738 19.9468L69.1745 19.9483ZM11.165 42.8165C11.6011 44.0762 15.5544 44.1338 14.9537 42.4148C14.5155 41.1497 10.5649 41.0965 11.165 42.8165ZM9.06522 35.969L9.03685 36.0398L9.03691 36.04L9.03692 36.04C9.02012 36.0818 9.00304 36.1238 8.98804 36.1648C8.51214 37.2656 9.84845 37.6789 10.6509 37.7703C11.2727 37.838 11.9096 37.7338 12.4771 37.1941C12.6957 36.9797 12.6813 36.792 12.5999 36.6235C12.614 36.279 12.4395 35.9572 12.1724 35.7939C12.1285 35.7696 12.0856 35.7425 12.0423 35.7154L12.0422 35.7151L12.0418 35.7151L12.0418 35.7149C12.0012 35.6893 11.9603 35.6637 11.9187 35.64C11.4387 35.3447 9.56458 34.8147 9.06522 35.969ZM11.1119 31.5001C11.1406 31.4691 11.1705 31.4368 11.2012 31.4076C12.7184 29.8316 16.1987 32.5102 13.6755 33.3882C13.3644 33.5027 13.0705 33.5082 12.7783 33.4979C12.7699 33.506 12.7627 33.5156 12.7557 33.5254C12.7501 33.5329 12.7444 33.5406 12.738 33.5477C12.3733 33.984 11.1962 33.6276 11.2844 33.1064C11.2865 33.0736 11.2918 33.0429 11.2965 33.0142L11.3011 32.986C10.8762 32.6784 10.5811 32.0435 11.0753 31.5393L11.1119 31.5001ZM18.2561 32.2868C18.1671 32.3553 18.1146 32.459 18.0866 32.5809C18.0667 32.6391 18.0653 32.7028 18.064 32.7686C18.0635 32.7909 18.0627 32.8136 18.0616 32.8362C18.0594 32.8358 18.0577 32.8359 18.056 32.8362L18.0522 32.8371L18.0461 32.8384L18.0405 32.8385C17.7566 33.285 18.3093 33.7417 18.6124 33.8804C19.2503 34.1658 20.0048 34.3807 20.7981 34.1698C21.6777 33.9387 22.0531 33.1642 21.5858 32.5495C21.0119 31.8053 18.9326 31.4456 18.2561 32.2868ZM16.5316 37.8244C16.1034 37.6248 15.752 37.2992 16.075 36.8334C17.3009 35.0493 20.0861 35.9271 19.7511 37.538C19.4404 39.068 17.1062 38.4483 16.6524 37.9872C16.6198 37.946 16.5938 37.9101 16.567 37.8729L16.5316 37.8244ZM26.8487 47.21C27.1416 48.0304 28.2389 48.3783 29.1687 48.3007C29.9062 48.2329 30.9256 47.6932 30.6283 46.8832C30.3336 46.0628 29.24 45.7146 28.3069 45.7962C27.5671 45.8618 26.5505 46.3986 26.8487 47.21ZM36.4348 43.3414C36.4379 43.3347 36.4407 43.3284 36.4431 43.3219C36.2742 42.7573 36.5987 42.2862 37.2115 42.1875C38.1441 42.0454 39.0154 42.3251 39.591 43.0474C40.0391 43.6138 39.8028 44.3911 39.0059 44.4863C38.2763 44.5782 37.5375 44.58 36.8169 44.4815C36.6264 44.454 36.2109 44.2655 36.2427 44.0098C36.2591 43.8997 36.2945 43.7997 36.3295 43.7006C36.3566 43.623 36.3839 43.5456 36.4017 43.4646C36.4117 43.3904 36.4248 43.3627 36.4348 43.3414ZM47.2221 8.74798C47.7424 9.16123 50.4395 9.80961 50.4101 8.27452C50.4173 8.21972 50.4099 8.20023 50.3872 8.21505C51.034 7.26482 49.1553 6.82639 48.511 6.93938C48.7112 6.89215 48.7364 6.86855 48.5916 6.86097C47.2683 6.64615 46.0737 7.83547 47.2221 8.74798ZM52.9582 5.39329C52.5012 7.1691 56.5987 7.5116 56.7291 5.81524C56.8293 4.46699 53.3779 3.73328 52.9582 5.39329ZM57.1256 15.614L57.3631 15.7045C58.0123 15.9533 59.5993 16.3258 60.1209 15.2541C60.6193 14.2487 59.1489 13.6036 58.4045 13.5726C58.3743 13.5705 58.3436 13.5678 58.3129 13.5651L58.3129 13.565C58.2531 13.5597 58.1929 13.5544 58.1342 13.5535C56.9679 13.4936 56.1086 14.3222 56.3807 14.9997C55.9246 14.7628 55.3463 14.6719 54.8177 14.7211C54.0832 14.7793 53.0627 15.3222 53.3566 16.1363C53.37 16.1729 53.3851 16.2086 53.4016 16.2434C52.8073 15.9597 51.9538 15.931 51.3395 16.094L51.2915 16.1056C51.2578 16.1135 51.2229 16.1217 51.186 16.133C49.2826 16.643 50.6312 18.067 51.4277 18.3029C51.4547 18.3132 51.4843 18.3212 51.5144 18.3294C51.5409 18.3366 51.5681 18.3438 51.5944 18.353C52.2184 18.5366 53.9998 18.4126 54.0932 17.3109C54.106 17.16 54.0892 17.0234 54.0478 16.9004C54.5153 17.1645 55.1264 17.2684 55.6785 17.2177C56.4206 17.155 57.4358 16.6192 57.1373 15.8063C57.1077 15.724 57.0701 15.6464 57.0256 15.5735C57.0577 15.5874 57.091 15.6009 57.1256 15.614ZM46.3275 14.5924C46.3409 14.5864 46.3549 14.58 46.3669 14.572C46.8953 14.2636 47.6117 14.2782 48.2484 14.291L48.2487 14.291L48.2495 14.291L48.2498 14.291L48.2498 14.2911L48.2501 14.291C48.3639 14.2933 48.4752 14.2956 48.5826 14.2959C48.9452 14.3018 50.2529 14.8675 49.9096 15.4388L49.8868 15.4767C49.5455 16.0451 49.2317 16.5676 48.5189 16.6915C47.7885 16.8181 46.875 16.4256 46.3609 15.8418L46.357 15.8407L46.3545 15.838C46.3416 15.8226 46.3264 15.8103 46.3115 15.798C46.2956 15.7847 46.2798 15.7716 46.2668 15.755C46.2559 15.7431 46.2514 15.7306 46.2468 15.7175C46.2429 15.7074 46.2392 15.6968 46.2319 15.686C45.9278 15.339 45.8211 14.9608 46.1762 14.6717C46.1953 14.6558 46.2174 14.6469 46.2389 14.6382C46.2579 14.6305 46.2767 14.623 46.2927 14.6108C46.3016 14.6042 46.3141 14.5985 46.3275 14.5924ZM51.0257 10.0639C51.325 10.8793 52.4139 11.2303 53.3497 11.1511C54.0884 11.0835 55.1036 10.5477 54.8075 9.73305C54.5135 8.91747 53.4161 8.56718 52.4856 8.64622C51.7486 8.71246 50.7332 9.24911 51.0257 10.0639ZM44.9321 12.4373C45.367 13.6996 49.3242 13.7535 48.7202 12.0362C48.2832 10.7712 44.3328 10.7188 44.9321 12.4373ZM62.5917 57.2123L62.5903 57.1888C62.5893 57.1742 62.5879 57.158 62.5893 57.1425C62.5632 57.1919 62.5541 57.2337 62.5451 57.274C62.5404 57.2964 62.5355 57.3181 62.5281 57.3408C62.5253 57.3534 62.5178 57.365 62.5102 57.377C62.5036 57.3879 62.4965 57.3986 62.493 57.4104C62.5719 57.1408 62.3453 57.7586 62.3456 57.7683C62.3016 57.9969 62.4575 58.1419 62.6516 58.2287C62.6901 58.3027 62.7351 58.367 62.7807 58.4313C62.7998 58.4581 62.8185 58.4851 62.837 58.5124C63.1784 59.0147 66.0818 59.4586 66.0897 58.0016C66.0953 56.8246 65.1564 56.2086 63.8039 56.4432C63.3119 56.5296 62.821 56.7655 62.5917 57.2123ZM59.5126 49.6526C59.4407 49.5134 59.3449 49.3941 59.2248 49.2915C58.4883 48.6584 58.9798 47.5965 60.3305 47.3717C61.3704 47.2052 62.8 47.5948 62.3525 48.7966C62.3278 48.9346 62.3197 49.0662 62.3172 49.1926C62.2409 50.4706 59.8162 50.0784 59.5126 49.6526ZM68.2048 45.3254C68.0523 46.2109 70.1001 46.5537 70.7116 46.3569L70.7205 46.3542C71.0438 46.2486 71.3573 46.146 71.6095 45.8792C72.2466 45.1957 71.6854 44.4885 71.1082 44.2819C70.4876 44.0562 69.9258 44.0169 69.2115 44.0319C68.3472 44.0471 67.8858 44.8059 68.2048 45.3254ZM67.51 50.5425C66.8761 50.3929 65.717 49.7026 66.2579 48.836C66.564 48.342 67.0929 48.2472 67.6071 48.2923C67.6578 48.2875 67.7078 48.2833 67.7574 48.2792C67.8589 48.2705 67.9582 48.2624 68.0557 48.2486C68.8881 48.1252 70.6506 48.9374 69.7896 49.9701C69.7111 50.0807 69.6231 50.1702 69.5292 50.2575C68.9796 50.8011 68.0934 50.6798 67.51 50.5425ZM57.2053 52.1999C56.2421 53.1164 57.9045 53.9103 58.5514 53.9507C59.2545 53.987 59.9576 53.9317 60.6468 53.5267C61.7295 52.8917 60.4901 52.312 59.6952 52.2075C59.0374 51.7676 57.9382 51.5085 57.2053 52.1999ZM60.4749 42.6654C60.0636 42.2531 59.6265 41.8145 59.7414 41.1116C59.8515 40.4706 60.4958 40.1864 61.0834 40.1395L61.1268 40.1371L61.1271 40.137C61.1762 40.1346 61.2248 40.1319 61.2781 40.1261C62.0505 40.0727 63.6446 40.5256 63.1761 41.5812C63.0723 41.8143 62.9141 41.9764 62.7551 42.1385C62.5743 42.3231 62.3934 42.5082 62.2928 42.7994C62.0391 43.5325 60.821 43.0219 60.593 42.7848C60.554 42.7451 60.5147 42.7055 60.4749 42.6654ZM72.7636 46.1231C71.6262 46.7321 72.395 47.6443 72.9568 47.9372C73.6907 48.3152 74.6918 48.4116 75.6334 47.8711C76.8856 47.1536 75.8548 46.3461 74.9316 46.0976C74.343 45.8042 73.4428 45.7568 72.7636 46.1231ZM59.2231 30.7149L59.2232 30.7145L59.2234 30.7141C59.245 30.68 59.2658 30.6469 59.2885 30.609C59.6023 30.1158 60.1101 29.9735 60.5977 29.8755C61.8386 29.6325 63.0075 30.2347 62.8458 31.4411C62.6805 32.654 60.9936 32.4015 60.2286 32.027C59.5808 31.8793 58.7754 31.4242 59.2199 30.7196L59.2231 30.7149ZM48.8772 31.8217C49.32 33.0854 53.2675 33.1359 52.6695 31.4214C52.2237 30.1592 48.2781 30.1063 48.8772 31.8217ZM51.8015 38.5459C51.7172 38.4738 51.6329 38.4016 51.5481 38.331C49.395 36.518 55.6363 35.3169 54.6702 38.0163C54.6375 38.1114 54.6029 38.2041 54.5681 38.2965C54.5417 38.368 54.5149 38.4392 54.4891 38.5114C54.1482 39.4675 52.4052 39.0543 52.0486 38.7555C51.9661 38.6861 51.8836 38.6161 51.8015 38.5459Z" fill="#2AD9D0"/>
</svg>
