<svg width="120" height="120" viewBox="0 0 120 120" fill="none" xmlns="http://www.w3.org/2000/svg">
<path d="M21.0801 114.287C18.74 114.287 16.6789 112.747 16.0169 110.502L6.31203 77.6128C6.17643 77.1539 6.10362 76.6785 6.09605 76.2007C6.07379 74.7566 6.67407 73.241 7.85303 72.1891C7.59364 71.1549 7.36542 70.1129 7.16837 69.0648C4.6951 67.7656 2.99334 65.1178 3.00002 62.1021L3.01093 57.3208C3.01761 54.38 4.62452 51.8152 6.98334 50.4937C9.31099 36.5227 17.146 24.0509 28.8811 15.8317C28.9982 15.744 29.1183 15.6607 29.2409 15.5817C32.7803 13.1452 36.5964 11.1508 40.5875 9.65123C40.7365 9.58889 40.8881 9.53211 41.0413 9.48157C46.8789 7.34207 53.0122 6.25729 59.2715 6.25729C61.344 6.25729 63.4434 6.38197 65.5292 6.62845C66.9919 6.12169 68.5747 5.81687 70.1868 5.73716C70.51 5.72113 70.8322 5.71289 71.1549 5.71289C75.2464 5.71289 79.3357 7.00541 82.67 9.35265C82.8111 9.45218 82.9612 9.56106 83.1155 9.68018C83.3177 9.70645 83.5172 9.73941 83.7151 9.77859C85.6057 10.1564 87.3493 11.1613 88.7578 12.6843C89.8894 13.9082 90.7139 15.3666 91.1846 16.9439C93.1453 18.425 95.0033 20.0428 96.7427 21.7824C98.2889 21.2801 99.9125 21.0167 101.537 21.0167C104.069 21.0167 106.592 21.652 108.833 22.8532C116.36 26.8906 119.199 36.2985 115.163 43.8247C114.171 45.6761 112.818 47.2908 111.201 48.5849C111.27 48.9204 111.335 49.2558 111.396 49.5897C111.401 49.612 111.436 49.7799 111.447 49.8425C112.002 52.9496 112.283 56.122 112.283 59.2699C112.283 62.9362 111.903 66.596 111.151 70.173C115.786 85.1687 105.319 108.335 104.09 110.971C103.222 112.83 101.357 114.018 99.3053 114.018L21.0801 114.287Z" fill="white"/>
<path d="M109.109 59.4618C109.109 63.6489 108.589 67.7164 107.611 71.597C107.597 71.6636 107.584 71.7235 107.571 71.7834C106.066 77.6814 103.504 83.1531 100.102 87.9926C100.102 87.9926 100.109 87.9926 100.102 87.9992C91.7546 99.8684 78.3478 107.923 63.0173 109.015C61.8325 109.108 60.6342 109.148 59.4227 109.148C53.791 109.148 48.3792 108.209 43.3333 106.485C35.2852 103.729 28.1691 98.9699 22.5909 92.799C19.5886 89.4906 17.0325 85.7762 15.0088 81.7486C14.9756 81.6954 14.9489 81.6422 14.9289 81.5823C11.607 74.9189 9.73651 67.41 9.73651 59.4618C9.73651 42.5736 18.1638 27.6492 31.0447 18.6759C31.0846 18.6427 31.1311 18.6093 31.1779 18.5828C34.5262 16.2663 38.1675 14.349 42.0484 12.9046C42.1016 12.8779 42.1548 12.8581 42.2082 12.8447C47.5736 10.8609 53.3716 9.77588 59.4227 9.77588C80.1386 9.77588 97.8988 22.457 105.348 40.4835C105.374 40.5367 105.401 40.5899 105.414 40.6501C106.699 43.7719 107.671 47.0539 108.29 50.4554C108.304 50.5086 108.31 50.5618 108.323 50.615C108.836 53.4842 109.109 56.4397 109.109 59.4618Z" fill="#FFD0C4"/>
<g opacity="0.42">
<path d="M107.611 71.5973C107.598 71.6639 107.585 71.7238 107.571 71.7837C102.166 69.9998 95.9552 70.4524 91.1158 73.4013C86.5959 76.164 83.374 80.6639 80.2586 85.0108C76.7173 89.9502 73.0559 95.056 67.5042 97.5254C65.3808 98.4642 63.0442 98.9235 60.701 98.9235C56.9866 98.9235 53.252 97.7717 50.3165 95.5618C47.9067 93.7445 46.0161 91.3216 44.1923 88.9716C43.287 87.8 42.3416 86.5886 41.3499 85.4702C37.3225 80.9369 32.4299 78.0878 27.5704 77.4487C22.7641 76.8164 17.918 78.5404 15.009 81.7489C14.9758 81.6957 14.9491 81.6425 14.9291 81.5826C17.8846 78.3674 22.7574 76.6432 27.5902 77.2822C32.4895 77.9279 37.4223 80.797 41.4695 85.3568C42.4681 86.4819 43.4133 87.6934 44.3253 88.865C46.1426 91.2082 48.0198 93.6245 50.4162 95.4287C55.1626 99.0034 62.0057 99.7821 67.4377 97.3725C72.9495 94.9228 76.5975 89.8369 80.1188 84.9111C83.2474 80.551 86.4826 76.0375 91.0292 73.2617C94.6371 71.065 99.084 70.153 103.571 70.6989C104.962 70.865 106.313 71.1647 107.611 71.5973Z" fill="white"/>
<path d="M108.323 50.615C106.712 51.1741 104.982 51.447 103.224 51.447C101.22 51.447 99.1835 51.0875 97.2395 50.3687C93.5717 49.0174 90.1635 46.368 87.6406 42.8997C86.8618 41.8214 86.1562 40.6631 85.4771 39.5447C84.7182 38.2999 83.9327 37.0085 83.0408 35.8304C79.5459 31.2238 74.2538 28.1617 68.5156 27.4296C64.6146 26.9304 60.5941 27.5095 56.6999 28.0619C51.9401 28.7408 47.021 29.4399 42.3412 28.1552C37.4419 26.8039 33.2348 23.2425 31.0447 18.6758C31.0846 18.6427 31.1311 18.6093 31.1779 18.5828C33.3546 23.116 37.5285 26.6574 42.3877 27.9953C47.0274 29.2734 51.9335 28.5745 56.6798 27.8956C60.5808 27.3429 64.6146 26.7638 68.5356 27.2699C74.3137 28.002 79.6524 31.0909 83.1739 35.7306C84.0725 36.9156 84.8581 38.207 85.6169 39.4583C86.296 40.5767 86.9949 41.7283 87.7802 42.8C90.2764 46.2416 93.6581 48.8776 97.2928 50.2155C100.921 51.5537 104.875 51.6334 108.29 50.4553C108.303 50.5085 108.31 50.5618 108.323 50.615Z" fill="white"/>
<path d="M105.414 40.65C105.175 40.6701 104.928 40.6767 104.688 40.6767C104.249 40.6767 103.816 40.6433 103.384 40.5834C98.6841 39.8845 95.4954 35.5376 93.6516 32.0096C93.1124 30.9778 92.5998 29.8995 92.1073 28.8544C90.7161 25.8988 89.2715 22.85 86.9682 20.5068C84.6249 18.117 81.5031 16.5927 78.1746 16.2197C74.1407 15.7737 70.1532 17.0186 66.299 18.2301C63.5365 19.0889 60.6874 19.9875 57.7982 20.2736C53.8242 20.6664 49.9631 19.8544 46.9143 17.9836C44.8374 16.7056 43.1599 14.9281 42.0482 12.9044C42.1014 12.8777 42.1546 12.8578 42.208 12.8445C43.3064 14.8348 44.9572 16.5856 47.0009 17.8371C50.0164 19.6943 53.844 20.4998 57.7781 20.1071C60.654 19.821 63.4964 18.9288 66.2522 18.07C70.1198 16.8518 74.1271 15.6003 78.1944 16.0596C81.5561 16.4324 84.718 17.97 87.0877 20.3865C89.4109 22.7496 90.8555 25.8184 92.26 28.7807C92.7525 29.8258 93.2586 30.9041 93.7977 31.9359C95.6284 35.424 98.777 39.7309 103.41 40.4167C104.042 40.51 104.695 40.5365 105.347 40.4832C105.374 40.5367 105.401 40.5899 105.414 40.65Z" fill="white"/>
</g>
<path d="M101.095 110.955H79.6031L72.2621 108.322L45.1088 110.955C45.1088 110.955 44.4109 72.5098 48.6203 65.7777C51.6702 60.898 60.9737 55.8751 65.8701 53.4738L69.6838 54.3058L84.3357 48.3894L84.7409 48.0554C86.9666 49.303 103.392 58.8703 107.97 71.8117C112.878 85.6983 101.095 110.955 101.095 110.955Z" fill="#8F8FEF"/>
<path d="M84.7414 48.0553C83.873 69.2014 84.9502 90.5564 79.6033 110.955H58.8364C58.5176 100.893 58.3528 90.7979 59.3421 80.7855C60.2652 71.438 62.2161 62.1178 65.8706 53.4736C67.7391 52.5614 68.9644 52.0284 68.9644 52.0284L84.4889 47.9124C84.4886 47.9126 84.5766 47.962 84.7414 48.0553Z" fill="#FFF5EE"/>
<path d="M80.6156 11.9959C77.8528 10.0512 74.432 9.06038 71.0576 9.22737C68.0442 9.37655 64.8631 10.6232 63.376 13.2483C63.1992 13.5605 63.0386 13.8996 62.751 14.1138C62.4936 14.3055 62.1667 14.3721 61.8508 14.4291C60.752 14.627 59.6309 14.7711 58.5946 15.1868C56.179 16.156 54.4786 18.6609 54.4169 21.2631C54.355 23.8652 55.907 26.4256 58.2181 27.6226C59.7538 28.4181 61.5413 28.6314 63.2646 28.4874C64.988 28.3433 66.6642 27.859 68.3078 27.3213C71.6252 26.2361 74.9352 24.881 77.5687 22.5908C79.1449 21.2201 80.4455 19.4834 81.1974 17.5269C81.5779 16.5372 81.8028 15.5038 81.8624 14.4453C81.9319 13.2216 81.6511 12.7251 80.6156 11.9959Z" fill="#F05D6A"/>
<path d="M81.9971 13.3121C82.5947 13.256 83.2021 13.2175 83.7908 13.3348C84.6772 13.5118 85.4675 14.038 86.0811 14.7015C87.1082 15.8123 87.6764 17.3355 87.6272 18.8478C87.6134 19.272 87.5591 19.7244 87.7628 20.0969C87.8746 20.3011 88.0529 20.4585 88.217 20.6235C89.6576 22.0716 90.0838 24.312 89.7202 26.3221C89.3568 28.3323 88.3021 30.1503 87.1149 31.8126C86.701 32.3924 86.1677 33.0136 85.4554 33.0274C85.017 33.0361 84.6122 32.805 84.2497 32.5585C81.5587 30.7305 79.8641 27.7578 78.6733 24.7304C78.0626 23.178 77.5612 21.5865 77.029 20.0063C76.6173 18.7839 75.9449 17.48 75.8427 16.1782C75.6265 13.4259 80.113 13.4894 81.9971 13.3121Z" fill="#F05D6A"/>
<path d="M84.4887 36.9656V47.9122C84.4887 47.9122 77.0094 56.7982 72.9869 57.2654C68.9644 57.7325 68.7776 53.0558 68.7776 53.0558L68.9644 50.9566L69.4315 45.758L77.9713 40.7737C77.9769 40.7681 77.9769 40.7681 77.9822 40.7681L84.4887 36.9656Z" fill="#FF899A"/>
<path d="M81.7244 39.5925C81.2022 42.4007 80.5427 45.2691 78.9712 47.6598C77.3995 50.0502 74.7234 51.9023 71.8658 51.7429C70.8547 51.6879 69.882 51.3857 68.9642 50.9571L69.4313 45.7585L77.9711 40.7742C77.9766 40.7686 77.9766 40.7686 77.982 40.7686C79.2406 40.3562 80.5044 39.9552 81.7244 39.5925Z" fill="#401A49"/>
<path d="M81.7244 39.5925C81.2022 42.4007 80.5427 45.2691 78.9712 47.6598C77.3995 50.0502 74.7234 51.9023 71.8658 51.7429C70.8547 51.6879 69.882 51.3857 68.9642 50.9571L69.4313 45.7585L77.9711 40.7742C79.2351 40.3562 80.4989 39.9552 81.7244 39.5925Z" fill="#401A49"/>
<path d="M84.6369 38.0815H84.4445C84.439 38.2903 84.4225 38.4551 84.3951 38.5542C84.0215 39.9609 80.4659 46.1323 74.2948 47.9126C68.1234 49.6877 65.6891 47.7258 62.9798 42.3899C60.2652 37.0593 60.3585 26.6786 60.3585 26.6786C60.3585 20.0127 65.5297 14.6108 71.9097 14.6108C72.8934 14.6108 73.8494 14.7427 74.7617 14.9845C78.7842 16.0505 81.9659 19.3258 83.054 23.5022L83.087 23.4966C83.087 23.4966 83.0979 23.5955 83.12 23.7605C83.3397 24.6892 83.4606 25.6617 83.4606 26.6619C83.565 27.5741 83.6859 28.6184 83.8013 29.7007C83.8069 29.7557 83.8122 29.816 83.8178 29.871C83.8783 29.8272 83.9331 29.7831 83.9992 29.7501C84.0322 29.7227 84.0707 29.6951 84.109 29.6731C85.6478 28.7388 87.9064 29.0356 89.1537 30.305C89.4229 30.5797 89.6429 30.8601 89.8132 31.1457C91.6985 34.2896 87.9287 37.9771 84.6369 38.0815Z" fill="#FF899A"/>
<path d="M85.182 34.834C85.1584 34.834 85.1341 34.83 85.1107 34.8211C85.0041 34.7817 84.9495 34.663 84.9889 34.5564C85.251 33.8481 85.5952 33.2498 86.0121 32.7785C86.5072 32.2178 87.1102 31.828 87.7557 31.6503C87.867 31.6193 87.979 31.6846 88.0088 31.7943C88.0391 31.9039 87.9745 32.0172 87.8646 32.0475C87.2968 32.2036 86.7626 32.5507 86.3207 33.0512C85.9375 33.4845 85.6195 34.0389 85.3753 34.6989C85.3445 34.7828 85.2657 34.834 85.182 34.834Z" fill="#401A49"/>
<path d="M72.2217 31.0385C72.2916 31.7857 72.8513 32.3444 73.4719 32.2863C74.0924 32.2282 74.5389 31.5753 74.4687 30.8281C74.3988 30.0809 73.839 29.5222 73.2185 29.5803C72.598 29.6387 72.1515 30.2913 72.2217 31.0385Z" fill="#401A49"/>
<path d="M62.7741 31.923C62.844 32.6703 63.4038 33.2289 64.0243 33.1708C64.6449 33.1127 65.0913 32.4598 65.0212 31.7126C64.951 30.9654 64.3915 30.4067 63.771 30.4648C63.1504 30.5232 62.7042 31.176 62.7741 31.923Z" fill="#401A49"/>
<path d="M67.5167 37.7975C67.4842 37.7975 67.4512 37.7966 67.4185 37.7952C66.958 37.7752 66.431 37.5392 66.2914 37.0565C66.2212 36.8135 66.2691 36.5624 66.3043 36.3787C66.4078 35.837 66.5249 35.2946 66.6423 34.7515C67.0522 32.8541 67.4761 30.892 67.2784 28.9607C67.2666 28.8474 67.3492 28.746 67.4623 28.7347C67.575 28.7233 67.677 28.8055 67.6883 28.9186C67.8927 30.9152 67.4619 32.9097 67.0451 34.8386C66.9286 35.3781 66.8122 35.9174 66.7091 36.456C66.6737 36.6408 66.6476 36.8049 66.6873 36.9418C66.7694 37.2264 67.1332 37.3702 67.4363 37.3833C67.6242 37.3911 67.8106 37.3693 68.0094 37.3457C68.2047 37.3225 68.4051 37.2985 68.6137 37.3043C68.7272 37.3074 68.8172 37.4023 68.8141 37.516C68.811 37.6296 68.7217 37.7064 68.6023 37.7164C68.4267 37.7131 68.2472 37.7325 68.0579 37.7549C67.8823 37.7761 67.7017 37.7975 67.5167 37.7975Z" fill="#401A49"/>
<path d="M74.5559 26.8354C75.0687 26.706 75.1201 25.971 74.6225 25.792C74.0964 25.6027 73.513 25.5509 72.9573 25.6283C72.501 25.6918 72.0796 25.8189 71.6817 25.9995C71.1598 26.2362 71.3234 27.0102 71.8952 27.0489C72.5253 27.0914 73.1563 27.0611 73.8238 26.9792C74.0349 26.9532 74.2921 26.9019 74.5559 26.8354Z" fill="#401A49"/>
<path d="M62.5354 28.1073C61.985 28.1193 61.755 27.4099 62.2092 27.0986C62.661 26.7889 63.1987 26.5921 63.7435 26.5215C64.2002 26.4625 64.6404 26.4739 65.0719 26.5429C65.6379 26.6337 65.684 27.4233 65.1427 27.6114C64.546 27.8185 63.9294 27.9559 63.2639 28.0529C63.0575 28.0832 62.8019 28.1015 62.5354 28.1073Z" fill="#401A49"/>
<path d="M69.0132 39.7244C68.5832 39.7244 68.1528 39.577 67.8233 39.2975C67.7365 39.2241 67.726 39.094 67.7997 39.0072C67.8727 38.9204 68.003 38.9092 68.09 38.9836C68.4884 39.3216 69.0793 39.41 69.5587 39.2025C70.0385 38.9958 70.3796 38.5062 70.4077 37.9841C70.4139 37.8705 70.5014 37.7848 70.6245 37.7895C70.7381 37.7955 70.8251 37.8928 70.8191 38.0064C70.7828 38.681 70.3418 39.3138 69.7219 39.581C69.4981 39.6776 69.2559 39.7244 69.0132 39.7244Z" fill="#401A49"/>
<path d="M84.1095 29.6736C84.093 29.7009 84.0709 29.7339 84.0491 29.7615C84.0326 29.7559 84.0162 29.7559 83.9997 29.7506C84.0324 29.723 84.0709 29.6956 84.1095 29.6736Z" fill="#F05D6A"/>
<path d="M83.4608 26.6619C83.4608 25.6618 83.3399 24.6892 83.1202 23.7605C83.0981 23.5955 83.0872 23.4966 83.0872 23.4966L83.0543 23.5022C82.4311 21.1096 81.1183 19.0155 79.3564 17.4604C79.3851 17.0051 79.3782 16.5487 79.2898 16.102C78.9676 14.4751 77.5996 13.1576 76.007 12.6949C74.4143 12.2325 72.1573 13.1687 70.7144 13.9863C70.6626 15.9936 71.2412 18.0356 72.4583 19.6327C73.584 21.1102 75.2715 22.1672 77.1013 22.4566C77.1594 22.4758 77.2138 22.5027 77.2734 22.5185C77.4712 24.31 78.2077 25.7991 79.4221 27.1346C80.5814 28.4096 82.1314 29.3162 83.8019 29.701C83.6862 28.6182 83.5653 27.5742 83.4608 26.6619Z" fill="#F05D6A"/>
<path d="M9.56707 77.0004L19.6692 111.235H73.9212L64.0061 75.3167C64.0061 75.3167 9.38004 77.0004 9.56707 77.0004Z" fill="#401A49"/>
<path d="M32.9364 89.569C32.4169 90.3681 32.233 91.3357 32.1181 92.2818C31.9926 93.3149 31.9436 94.4022 32.3577 95.3569C32.9981 96.832 34.6148 97.6618 36.1992 97.9373C38.4405 98.3267 40.9246 97.7516 42.4852 96.0968C44.0458 94.4418 44.4117 91.6481 43.0147 89.8526C40.8104 87.0191 35.0579 86.3059 32.9364 89.569Z" fill="#FFF5EE"/>
<path d="M47.4658 43.9056L49.9636 69.9163C50.0217 70.5219 50.5607 70.965 51.1664 70.9049L64.0506 69.6244C64.6484 69.5649 65.0877 69.0366 65.0372 68.4379L62.8803 42.9863C62.8302 42.3942 62.3185 41.9493 61.7252 41.9816L48.5 42.703C47.8762 42.7373 47.4061 43.2837 47.4658 43.9056Z" fill="#401A49"/>
<path fill-rule="evenodd" clip-rule="evenodd" d="M57.7679 45.3988C57.8821 45.499 58.0246 45.5527 58.1744 45.5527C58.1947 45.5527 58.215 45.5516 58.2355 45.5502L61.2106 45.263C61.5457 45.2305 61.7906 44.9422 61.7681 44.6064L61.724 43.9485C61.7018 43.6096 61.4083 43.3508 61.0681 43.3729L58.1112 43.5604C57.7752 43.5817 57.5212 43.8616 57.5325 44.1983L57.5581 44.9553C57.5637 45.1276 57.6383 45.2853 57.7679 45.3988ZM57.6697 44.1936C57.661 43.9318 57.8585 43.7136 58.1197 43.6971L61.0768 43.5098C61.344 43.4905 61.5691 43.694 61.5871 43.9574L61.631 44.6153C61.6486 44.8765 61.458 45.1005 61.1972 45.1256L58.2221 45.4129C58.0905 45.4271 57.9598 45.3846 57.8587 45.2955C57.7579 45.2069 57.7 45.0844 57.6951 44.9506L57.6697 44.1936Z" fill="#FFF5EE"/>
<path d="M82.3627 64.2713C82.3627 64.2713 77.0602 60.4414 73.5932 58.6833C70.126 56.9252 56.2578 51.5258 55.782 52.97C55.3062 54.4141 65.5713 58.5577 65.5713 58.5577C65.5713 58.5577 55.1022 55.6697 54.5583 56.988C54.0143 58.3066 64.3476 62.0109 64.3476 62.0109C64.3476 62.0109 53.8785 60.6924 53.8106 62.2621C53.7427 63.8318 64.8915 65.799 64.8915 65.799C64.8915 65.799 58.0587 67.3976 58.3653 68.4359C58.6371 69.3568 67.2708 68.415 67.2708 68.415C67.2708 68.415 75.0208 69.7963 77.1962 71.1775L82.3627 64.2713Z" fill="#FF899A"/>
<path d="M82.5734 61.5667L106.145 96.6435C106.145 96.6435 100.112 110.253 90.0096 108.85C79.9075 107.447 72.8923 73.7736 72.8923 73.7736L82.4331 61.7071" fill="#8F8FEF"/>
<path d="M93.5968 108.619C92.8948 108.619 92.2121 108.534 91.5627 108.362C87.256 107.215 83.9304 103.493 81.8034 100.793C81.7328 100.704 81.7484 100.574 81.8377 100.504C81.927 100.434 82.057 100.448 82.1272 100.538C85.4494 104.755 88.4813 107.115 91.6689 107.963C93.8941 108.556 96.5486 108.059 98.9535 106.601C101.477 105.071 103.304 102.73 103.839 100.34C103.864 100.228 103.975 100.159 104.085 100.184C104.196 100.209 104.266 100.319 104.241 100.43C103.682 102.928 101.785 105.367 99.1673 106.954C97.3631 108.048 95.4171 108.619 93.5968 108.619Z" fill="#401A49"/>
<path d="M100.486 89.3663C100.418 89.3663 100.352 89.3329 100.313 89.2719L82.5404 61.6786C82.4787 61.5828 82.5063 61.4552 82.6021 61.3936C82.6976 61.3314 82.8254 61.3599 82.8871 61.4552L100.659 89.0486C100.721 89.1443 100.693 89.2719 100.598 89.3336C100.563 89.3558 100.524 89.3663 100.486 89.3663Z" fill="#401A49"/>
<path d="M112.759 40.7885C115.533 35.6156 113.588 29.1732 108.415 26.3991C103.242 23.6251 96.7998 25.5697 94.0257 30.7427C91.5173 35.4203 92.877 41.1261 96.9828 44.229L94.9934 47.9387L98.3319 49.7291L100.357 45.9533C105.094 47.37 110.331 45.3156 112.759 40.7885Z" fill="#FFA766"/>
<path fill-rule="evenodd" clip-rule="evenodd" d="M99.0617 46.6095C98.5543 47.3568 98.3673 47.976 98.4897 48.5026L98.6238 48.4716C98.5104 47.9847 98.691 47.4009 99.1757 46.6872C99.6685 45.9616 100.232 45.3304 100.85 44.8111C101.452 44.3062 102.127 43.8914 102.78 43.4906L102.799 43.4787C103.151 43.262 103.515 43.0383 103.864 42.8017C105.12 41.9516 105.929 41.0603 106.337 40.0775C106.545 39.5765 106.655 39.0301 106.655 38.4977C106.655 38.0255 106.568 37.6227 106.396 37.3009C105.965 36.4958 104.897 36.1416 103.912 36.4753C103.66 36.5611 103.411 36.6875 103.171 36.8507C103.172 36.8211 103.172 36.7911 103.173 36.7615C103.179 35.9643 102.931 35.2559 102.491 34.8177C102.221 34.5489 101.852 34.3523 101.425 34.249C100.5 34.025 99.4739 34.3078 98.8141 34.9724C98.2354 35.5553 97.8761 36.4537 97.7454 37.6427C97.6329 38.6658 97.6688 39.7965 97.8558 41.0995C97.8765 41.2431 97.8983 41.3867 97.9204 41.5303C98.0357 42.2829 98.1546 43.0615 98.0642 43.8368C97.9371 44.9236 97.4014 46.0382 96.4716 47.1495L96.5771 47.2374C97.5243 46.1054 98.0702 44.9668 98.2005 43.8528C98.293 43.06 98.1727 42.2731 98.0564 41.5122L98.056 41.5096C98.0339 41.3662 98.0119 41.2228 97.9914 41.0799C97.8035 39.7707 97.7685 38.6832 97.8814 37.6574C98.0088 36.5001 98.3555 35.6295 98.9114 35.0693C99.5375 34.4371 100.513 34.1682 101.392 34.3824C101.795 34.4799 102.141 34.664 102.394 34.915C102.808 35.3271 103.042 35.9993 103.035 36.7599C103.034 36.824 103.032 36.8879 103.029 36.9518C102.552 37.3092 102.112 37.8131 101.744 38.4316C101.386 39.0321 101.223 39.5313 101.232 40.0029C101.236 40.1748 101.28 40.2881 101.367 40.3489C101.45 40.407 101.563 40.4108 101.702 40.36C102.283 40.1463 102.569 39.4565 102.753 38.8796C102.941 38.2898 103.118 37.6612 103.162 37.024C103.418 36.8385 103.685 36.6969 103.956 36.6051C104.878 36.2928 105.875 36.6192 106.274 37.3653C106.436 37.667 106.517 38.0477 106.517 38.4971C106.517 39.0116 106.411 39.5395 106.21 40.0243C105.812 40.9815 105.019 41.8527 103.786 42.6874C103.433 42.9264 103.064 43.1532 102.707 43.3726L102.707 43.3727C102.05 43.7763 101.37 44.1938 100.761 44.7054C100.133 45.2326 99.5616 45.8732 99.0617 46.6095ZM101.862 38.5017C102.196 37.9404 102.59 37.4769 103.015 37.136C102.959 37.718 102.796 38.294 102.622 38.8377C102.448 39.385 102.18 40.0378 101.654 40.2309C101.589 40.2552 101.501 40.2747 101.446 40.2362C101.397 40.2024 101.372 40.1249 101.37 40.0002C101.361 39.5553 101.518 39.0793 101.862 38.5017Z" fill="#FFF5EE"/>
<path d="M95.7462 46.3125L99.2724 48.1238L97.8979 50.9368C97.7579 51.2232 97.4045 51.3309 97.1287 51.1711L94.4436 49.6149C94.1798 49.462 94.091 49.1235 94.2457 48.8606L95.7462 46.3125Z" fill="#8F8FEF"/>
<path d="M94.7106 49.6047L94.4924 50.1779C94.394 50.4361 94.5028 50.7271 94.7462 50.8576L96.1452 51.608C96.3636 51.7251 96.6332 51.6815 96.8038 51.5015L97.3404 50.9353L94.7106 49.6047Z" fill="#8F8FEF"/>
<path d="M110.685 36.3462C110.781 36.5992 110.927 36.8621 111.18 36.9588C111.366 37.0302 111.578 36.9955 111.765 36.9249C112.276 36.7323 112.665 36.285 112.87 35.7791C113.217 34.9239 113.262 32.4402 111.769 32.5455C110.266 32.6517 110.323 35.3939 110.685 36.3462Z" fill="#FFF5EE"/>
<path d="M109.994 38.7308C109.932 38.8967 109.895 39.0752 109.916 39.2511C109.965 39.6615 110.357 39.9897 110.77 40.0042C111.629 40.034 112.133 38.9686 111.727 38.263C111.246 37.4289 110.255 38.0334 109.994 38.7308Z" fill="#FFF5EE"/>
<path d="M78.0105 74.153C73.4086 71.1032 67.2059 72.3617 64.1561 76.9638C62.584 79.3362 62.1651 82.1321 62.7507 84.704L58.765 87.0902L63.9364 87.6421C64.678 88.8743 65.6882 89.9705 66.9667 90.8179C71.5686 93.8674 77.7713 92.6092 80.8208 88.0071C83.8708 83.4052 82.6125 77.2025 78.0105 74.153Z" fill="#F05D6A"/>
<path fill-rule="evenodd" clip-rule="evenodd" d="M72.0103 88.0244C72.0297 88.0327 72.0493 88.0373 72.0682 88.0373C72.0894 88.0373 72.1094 88.032 72.1277 88.0204C72.1288 88.02 72.13 88.0196 72.1312 88.0193C72.1324 88.019 72.1337 88.0186 72.1348 88.0182C72.1633 88.0082 72.1869 87.9846 72.2029 87.9563C72.2511 87.9154 72.3451 87.8439 72.4753 87.7449L72.493 87.7314C76.9827 84.3116 78.5442 81.5104 77.1343 79.4054C76.7765 78.8713 76.3105 78.574 75.7498 78.5221C74.3834 78.3917 72.8613 79.7683 72.3708 80.2484C71.7986 79.568 70.5319 78.2543 69.283 78.248H69.2739C68.7284 78.248 68.2474 78.4941 67.8437 78.9795C66.2785 80.8618 67.5781 83.8015 71.7064 87.7174C71.817 87.822 71.899 87.8997 71.9444 87.9463C71.9549 87.9806 71.9769 88.01 72.0103 88.0244ZM68.0495 79.1511C68.4002 78.7299 68.8118 78.5164 69.2736 78.5164H69.2812C70.4902 78.5224 71.7652 79.928 72.2572 80.5321C72.2813 80.5619 72.3169 80.5797 72.3552 80.5815C72.3946 80.583 72.43 80.5683 72.4572 80.5412C72.7644 80.2266 74.37 78.6584 75.7249 78.7895C76.2014 78.8334 76.6004 79.091 76.911 79.5548C78.2278 81.5204 76.6865 84.1996 72.3303 87.5177C72.3165 87.5282 72.3031 87.5384 72.2901 87.5482C72.2029 87.6147 72.1344 87.6668 72.084 87.7071C72.036 87.66 71.9723 87.5996 71.8954 87.5265L71.8907 87.5221C66.8997 82.788 67.0469 80.357 68.0495 79.1511Z" fill="#401A49"/>
<path d="M41.6135 29.8037C36.8435 26.9232 30.5591 28.4528 27.577 33.2201C24.595 37.9874 26.0443 44.1871 30.8142 47.0676C34.5297 49.3113 39.1574 48.8689 42.434 46.3154L46.9245 47.5957L44.4314 44.2523C44.5748 44.0555 44.7198 43.8604 44.8507 43.6511C47.8327 38.8838 46.3835 32.684 41.6135 29.8037Z" fill="#8F8FEF"/>
<path fill-rule="evenodd" clip-rule="evenodd" d="M36.7471 43.7792C36.7714 43.813 36.8099 43.8319 36.8495 43.8319C36.8682 43.8319 36.8867 43.8279 36.9041 43.8197C37.4478 43.5592 42.2303 41.2536 42.6814 40.5277C43.1898 39.7081 42.3913 38.7279 42.1289 38.4058L42.1287 38.4056C41.9923 38.238 41.9318 37.8391 41.8677 37.417L41.8675 37.4161L41.8674 37.415C41.8044 36.9996 41.7394 36.5706 41.5899 36.2325C41.3565 35.7026 40.7681 35.4143 40.3782 35.2233L40.3775 35.2229L40.3696 35.219C40.2409 35.1559 40.1203 35.0967 40.0749 35.0559C40.0294 35.015 39.964 34.7779 39.9157 34.6029L39.9149 34.5997L39.9148 34.5994C39.7856 34.1308 39.6088 33.4891 39.1661 33.3203C38.5709 33.0932 36.6031 34.7491 36.0262 35.251C35.3052 34.573 32.6505 32.1679 31.9959 32.8296C31.4107 33.4208 32.2212 34.8755 32.8132 35.9379L32.8137 35.9388L32.8175 35.9456C32.9371 36.1602 33.0452 36.3542 33.1263 36.5143C33.5487 37.3506 32.9876 38.3844 32.9818 38.3947C32.9584 38.4372 32.9613 38.4897 32.9898 38.5292L36.7471 43.7792ZM36.8905 43.5463L33.2396 38.445C33.3703 38.1778 33.7709 37.2306 33.3512 36.4012C33.2719 36.2438 33.1665 36.0543 33.0501 35.8449C33.0449 35.8355 33.0396 35.826 33.0343 35.8165L33.0333 35.8146C32.5428 34.9344 31.7234 33.4638 32.1751 33.0077C32.5543 32.6274 34.6012 34.2441 35.936 35.5133C35.9836 35.558 36.0571 35.5594 36.1063 35.5166C37.1236 34.62 38.7161 33.425 39.0763 33.5566C39.3994 33.6799 39.5568 34.2506 39.6715 34.6674C39.7568 34.978 39.81 35.1577 39.9064 35.2443C39.9787 35.309 40.1045 35.3707 40.2645 35.449L40.2667 35.45L40.2672 35.4503C40.6239 35.6251 41.1627 35.8891 41.3592 36.3344C41.4948 36.6424 41.5576 37.0549 41.6182 37.4539C41.6905 37.9315 41.7531 38.3441 41.933 38.565L41.933 38.565C42.1675 38.8527 42.8808 39.728 42.4672 40.3948C42.1256 40.9443 38.4157 42.8119 36.8905 43.5463Z" fill="#401A49"/>
<path d="M33.0922 38.4558L30.5566 40.1872L34.1902 45.4646L36.8496 43.7058L33.0922 38.4558Z" fill="#401A49"/>
<path d="M6.34455 62.423L6.35591 57.4458C6.35925 56.0023 7.44225 54.8342 8.77707 54.8342L38.4814 54.8365C39.8585 54.8365 40.9582 56.0771 40.9001 57.5651L40.6833 63.1092C40.6278 64.5289 39.535 65.6415 38.2211 65.6161L29.3407 65.4447L29.7212 74.4747L26.7232 65.3944L8.72274 65.047C7.39994 65.0216 6.34121 63.8534 6.34455 62.423Z" fill="#FFF5EE"/>
<path d="M29.8415 59.405C29.6068 59.684 29.4839 60.0697 29.5353 60.4727C29.6273 61.1938 30.2425 61.6979 30.9096 61.5984C31.5766 61.4989 32.0427 60.8338 31.9507 60.1124C31.8587 59.3912 31.2436 58.8871 30.5765 58.9867C30.2821 59.0305 30.0267 59.1846 29.8415 59.405Z" fill="#401A49"/>
<path d="M22.1884 59.1968C21.9535 59.476 21.8308 59.8614 21.8822 60.2644C21.9742 60.9856 22.5894 61.4897 23.2564 61.3904C23.9233 61.2909 24.3895 60.6256 24.2976 59.9044C24.2056 59.1832 23.5904 58.6791 22.9233 58.7786C22.629 58.8223 22.3738 58.9764 22.1884 59.1968Z" fill="#401A49"/>
<path d="M15.4479 59.0774C15.213 59.3566 15.0903 59.742 15.1417 60.145C15.2337 60.8662 15.8491 61.3703 16.516 61.2708C17.183 61.1712 17.6491 60.506 17.5571 59.7848C17.4651 59.0636 16.8497 58.5595 16.1829 58.659C15.8883 58.7029 15.6331 58.857 15.4479 59.0774Z" fill="#401A49"/>
</svg>
