<svg width="120" height="120" viewBox="0 0 120 120" fill="none" xmlns="http://www.w3.org/2000/svg">
<path d="M61.0519 115.463C60.7914 115.463 60.5313 115.433 60.2768 115.372L57.259 114.647C56.8206 114.66 56.3822 114.666 55.9437 114.666C53.5239 114.666 51.0794 114.499 48.6776 114.171C43.1932 113.417 37.896 111.816 32.9312 109.413C32.6941 109.302 32.4634 109.188 32.2386 109.072C32.1192 109.013 31.9689 108.937 31.8251 108.862C26.6639 106.224 21.9679 102.743 17.8922 98.5298C8.42005 88.8053 2.93249 75.2951 3.00063 61.7233C3.00063 52.9821 5.17708 44.3193 9.29464 36.6713C12.4713 30.7603 16.6921 25.5615 21.8395 21.2208C21.89 21.1777 21.9397 21.1369 21.988 21.0977C24.3559 19.1161 26.9082 17.3353 29.5801 15.801C29.6451 15.76 29.7101 15.7213 29.7756 15.6839C34.14 13.1959 38.8231 11.3521 43.7057 10.197C43.7057 10.197 43.8237 10.1674 43.8465 10.1618C47.7803 9.24156 51.8505 8.77466 55.9435 8.77466C58.4174 8.77466 60.8929 8.94788 63.3415 9.29122V7.8562C63.3415 6.02309 64.8277 4.53687 66.6608 4.53687H94.6278C96.4609 4.53687 97.9472 6.02309 97.9472 7.8562V29.4847C102.355 35.2314 105.58 41.8932 107.317 48.8664C108.101 52.0156 108.598 55.2721 108.793 58.5472C108.803 58.6456 108.809 58.7384 108.812 58.8335C108.813 58.8449 108.814 58.8562 108.814 58.8676L113.378 58.4499C113.479 58.4401 113.58 58.4358 113.681 58.4358C114.603 58.4358 115.489 58.8206 116.12 59.5055C116.821 60.2649 117.128 61.3072 116.95 62.325L109.773 103.501C109.664 104.126 109.383 104.69 108.98 105.142L107.703 106.881C107.19 107.58 106.423 108.051 105.566 108.192L61.59 115.419C61.4119 115.449 61.2318 115.463 61.0519 115.463Z" fill="white"/>
<path d="M105.8 61.9546C105.8 62.2146 105.8 62.4747 105.795 62.7292C105.773 64.0237 105.706 65.3015 105.585 66.5631C105.585 66.6129 105.579 66.657 105.574 66.7013C105.087 71.8741 103.803 76.8088 101.845 81.3948C101.828 81.4444 101.806 81.4887 101.784 81.5386C98.3486 89.5217 92.8884 96.4202 86.0396 101.587C82.9527 103.917 79.589 105.897 75.9987 107.457C75.2684 107.778 74.5328 108.077 73.786 108.359C68.8014 110.256 63.4352 111.368 57.8312 111.545C57.2781 111.567 56.7248 111.579 56.1715 111.579C53.859 111.579 51.5799 111.418 49.3558 111.114C44.1223 110.395 39.1545 108.862 34.5793 106.644C34.3747 106.55 34.1754 106.45 33.982 106.351C33.8493 106.284 33.7163 106.218 33.5892 106.152C28.6988 103.651 24.284 100.359 20.5055 96.4536C18.6744 94.5617 16.9925 92.5202 15.4769 90.3571C14.6139 89.1289 13.8116 87.8565 13.0649 86.5455C8.91569 79.2983 6.54797 70.9004 6.54797 61.9548C6.54797 53.4574 8.68346 45.4634 12.4452 38.4763C15.427 32.9275 19.4435 28.0039 24.2232 23.9763C24.2675 23.9376 24.3116 23.9044 24.3503 23.8712C26.5909 21.9958 28.9974 20.3194 31.5423 18.8646C31.5811 18.837 31.6198 18.8147 31.6586 18.7927C35.6859 16.4969 40.0676 14.7542 44.6979 13.6587C44.7422 13.6476 44.7863 13.6367 44.8306 13.6255C48.4708 12.7736 52.2715 12.3254 56.1715 12.3254C71.457 12.3254 85.1325 19.2351 94.2384 30.106C98.974 35.7654 102.481 42.5036 104.324 49.9002C105.059 52.8544 105.53 55.9137 105.712 59.0505C105.718 59.1003 105.723 59.1444 105.723 59.1943C105.773 60.107 105.8 61.0308 105.8 61.9546Z" fill="#FFE5D2"/>
<path d="M105.585 66.5629C105.585 66.6127 105.579 66.6568 105.574 66.7011C102.901 65.8602 100.351 63.747 97.8173 60.2949C95.8756 57.6451 94.1716 54.735 92.5286 51.9191C89.6243 46.9512 86.6258 41.8119 82.2166 38.0279C78.3994 34.7528 73.5531 32.5897 68.5687 31.9425C65.1499 31.4998 61.6092 31.7379 58.1903 31.9645C53.6152 32.2689 48.8907 32.5842 44.4485 31.262C38.8222 29.5857 33.9926 25.1544 31.8462 19.6942C31.7411 19.4177 31.6361 19.1412 31.5419 18.8644C31.5806 18.8368 31.6194 18.8145 31.6581 18.7925C31.7576 19.0802 31.8627 19.3623 31.9734 19.6444C34.1089 25.066 38.9053 29.4639 44.4873 31.1291C48.9074 32.4401 53.6208 32.1304 58.1794 31.826C61.6094 31.5991 65.1554 31.3614 68.5854 31.804C73.5976 32.4568 78.4715 34.6308 82.3052 37.9225C86.7309 41.7233 89.7403 46.8682 92.6504 51.8525C94.2934 54.6629 95.9918 57.5674 97.928 60.2172C100.434 63.631 102.951 65.7166 105.585 66.5629Z" fill="white"/>
<path d="M101.845 81.3947C101.828 81.4443 101.806 81.4886 101.784 81.5385H101.657C100.617 81.5385 99.5935 81.417 98.6142 81.1625C93.0267 79.735 89.5802 74.7286 88.0257 71.8684C86.4931 69.0469 85.3979 65.9656 84.3356 62.9894C83.8046 61.4958 83.2568 59.9521 82.6595 58.4641C80.4189 52.8546 77.8132 49.1756 74.4662 46.8798C68.5687 42.8358 60.7905 43.544 55.3027 44.8494C54.4729 45.0485 53.621 45.2698 52.8021 45.4856C49.5658 46.3319 46.2189 47.206 42.8663 46.8631C37.9593 46.3486 33.0853 43.0791 29.495 37.8955C26.6295 33.7519 24.848 28.939 24.2228 23.9764C24.2671 23.9377 24.3112 23.9045 24.3499 23.8713C24.9584 28.8448 26.7399 33.6688 29.6055 37.818C33.1737 42.9685 38.0145 46.2159 42.8828 46.7249C46.2133 47.0733 49.5435 46.1938 52.7687 45.3473C53.5874 45.1371 54.4395 44.9102 55.2693 44.7112C60.7849 43.4002 68.6075 42.6919 74.5435 46.7636C77.9125 49.0761 80.5349 52.7771 82.7919 58.4089C83.3893 59.9025 83.937 61.4461 84.4683 62.9397C85.525 65.9159 86.6203 68.9864 88.1472 71.8023C89.6907 74.6402 93.1098 79.6192 98.6474 81.03C99.6763 81.2949 100.75 81.4112 101.845 81.3947Z" fill="white"/>
<path d="M105.723 59.194C104.489 58.9175 103.278 58.3918 102.177 57.6339C99.6598 55.8858 97.7125 53.1086 96.2133 49.142C95.5883 47.4879 95.0847 45.7564 94.598 44.0856C94.1222 42.4535 93.6299 40.7718 93.0213 39.1509C91.2953 34.5259 88.6787 30.6203 85.4589 27.8651C81.8078 24.7451 77.2324 23.0355 72.8953 23.1849C70.8816 23.2569 68.8789 23.7104 66.9371 24.1475C65.1503 24.5514 63.2969 24.9717 61.4382 25.0935C61.0897 25.1156 60.7355 25.1267 60.3815 25.1267C55.2586 25.1267 50.313 22.7755 47.2702 18.8476C46.0752 17.3042 45.2122 15.5227 44.6979 13.6584C44.7422 13.6473 44.7863 13.6364 44.8306 13.6252C45.3396 15.4731 46.197 17.2323 47.3809 18.7648C50.3958 22.6595 55.3029 24.9884 60.3815 24.9884C60.7299 24.9884 61.0786 24.9773 61.4326 24.9553C63.2802 24.8335 65.1225 24.4187 66.9095 24.0148C68.8513 23.5721 70.865 23.1186 72.8898 23.0467C73.0668 23.0411 73.2385 23.0411 73.4152 23.0411C77.6252 23.0411 82.0177 24.7451 85.5473 27.76C88.7891 30.5317 91.4169 34.4539 93.154 39.1065C93.757 40.7275 94.2495 42.4148 94.7307 44.0468C95.2176 45.7176 95.7208 47.4436 96.346 49.0977C97.8287 53.0312 99.7649 55.7861 102.254 57.5177C103.328 58.2591 104.511 58.7734 105.712 59.0502C105.718 59.1001 105.723 59.1442 105.723 59.194Z" fill="white"/>
<path d="M13.0503 86.5275C8.91208 79.2825 6.54749 70.8942 6.54749 61.9546C6.54749 53.4572 8.68297 45.4632 12.4447 38.4761C13.8056 38.7637 15.1943 39.3059 16.5883 40.1357C19.0115 41.5685 21.3184 43.4607 22.4081 46.0552C23.5145 48.7106 23.1992 51.7643 22.3582 54.5139C21.5172 57.269 20.184 59.8469 19.2602 62.5742C18.4747 64.8812 17.9824 67.2932 17.8051 69.7219C17.6724 71.4755 17.7056 73.2737 18.2921 74.9278C19.1941 77.5001 13.0503 86.5275 13.0503 86.5275Z" fill="#F05D6A"/>
<path d="M22.6065 57.901C19.985 56.3966 18.2131 53.675 17.3637 50.7743C16.3145 47.1911 16.5911 43.1951 18.3275 39.8898C20.064 36.5845 23.2912 34.0482 26.9603 33.3576C27.0763 29.6341 28.8075 25.8712 31.7465 23.5821C34.6858 21.2932 38.5032 19.6547 42.142 20.4543C42.3725 20.5006 42.8252 20.1047 43.3825 19.888C44.0696 19.6209 44.1778 19.579 44.7211 19.5002C45.912 19.3274 47.1282 19.3661 48.3174 19.5342C49.963 19.7669 51.5891 20.2512 53.0116 21.1106C56.2141 23.0453 57.9517 27.1018 56.8782 30.7443C60.333 34.5933 62.7243 39.7471 62.5041 44.9142C62.2841 50.0816 59.5452 55.1916 55.091 57.82C50.3705 60.6054 44.5383 60.3995 39.0614 60.1915C33.8297 59.9929 28.4412 59.835 23.6521 57.7196L22.6065 57.901Z" fill="#401A49"/>
<path d="M67.0807 107.385C67.0807 107.385 64.8457 107.977 61.4656 108.746C60.8682 108.884 60.2262 109.028 59.5625 109.172C59.0259 109.288 58.4673 109.41 57.8917 109.531C56.4311 109.836 54.8656 110.145 53.2447 110.444C51.9722 110.682 50.6666 110.903 49.3556 111.113C44.1221 110.394 39.1542 108.862 34.5791 106.643C34.3745 106.549 34.1752 106.45 33.9817 106.35C33.849 106.284 33.7161 106.218 33.5889 106.151C28.6985 103.651 24.2837 100.359 20.5053 96.4532C18.6742 94.5613 16.9922 92.5198 15.4766 90.3567C14.6136 89.1285 13.8114 87.8561 13.0646 86.5451C12.8932 80.2217 13.0147 73.5333 13.9441 69.1132C14.879 64.6708 18.3533 60.7042 22.1042 57.5841C26.7568 53.7171 31.8186 51.1503 32.9528 50.6026C33.1022 50.5251 33.1853 50.4863 33.1853 50.4863L43.0602 52.4172C43.0602 52.4172 43.121 52.4392 43.2428 52.4947C43.9012 52.8044 46.4183 54.0933 51.8121 58.1209C52.1497 58.3754 52.4816 58.6355 52.8023 58.912C58.5668 63.8303 61.5985 72.1284 63.7228 78.7838C64.204 80.2885 64.6301 82.4516 65.0062 84.9355C65.5816 88.7251 66.0353 93.245 66.3726 97.2336C66.4557 98.2349 66.533 99.1974 66.6049 100.11C66.7155 101.593 66.8097 102.932 66.8814 104.044C67.0143 106.096 67.0807 107.385 67.0807 107.385Z" fill="#8F8FEF"/>
<path d="M55.9785 92.4248C55.9277 92.4248 55.8785 92.399 55.8504 92.3524C55.8077 92.2816 55.8304 92.1899 55.9012 92.1471C57.45 91.2136 59.1259 90.5229 60.8822 90.0945C60.9633 90.0745 61.0439 90.1248 61.0632 90.2045C61.0826 90.2846 61.0334 90.3655 60.9535 90.3853C59.2263 90.8063 57.578 91.4854 56.0555 92.4034C56.0312 92.4177 56.0047 92.4248 55.9785 92.4248Z" fill="#401A49"/>
<path d="M56.0501 92.2815C56.0463 92.2815 56.0426 92.2813 56.0383 92.2808C55.9562 92.2744 55.8947 92.2025 55.9012 92.1201C56.5553 83.7534 53.7926 75.3214 51.3548 67.8819C51.3289 67.8035 51.3721 67.7191 51.4505 67.6933C51.5262 67.667 51.6131 67.71 51.6391 67.7888C54.0854 75.2549 56.8579 83.7169 56.1993 92.1432C56.1933 92.2218 56.1274 92.2815 56.0501 92.2815Z" fill="#401A49"/>
<path d="M43.2488 52.6215C43.2009 51.4732 43.243 51.1201 43.3267 49.936C43.4045 48.8535 43.53 47.783 43.6917 46.7485C43.0876 46.5332 42.4657 45.989 42.0469 45.4985C40.2169 43.3454 38.2253 41.3362 36.0902 39.4822C35.8689 39.2907 35.6178 39.0934 35.3486 38.932C34.8583 38.6209 34.3139 38.4357 33.8176 38.6508C33.6622 42.9389 33.3391 47.2207 32.8546 51.479C32.8546 51.479 36.1866 62.1649 41.3781 60.6379C46.5699 59.111 43.2488 52.6215 43.2488 52.6215Z" fill="#FF899A"/>
<path d="M43.6915 46.7482C43.5301 47.7828 43.4045 48.8534 43.3266 49.9357C40.8745 49.7264 38.5482 48.4646 36.9693 46.5747C35.2829 44.5532 34.4636 41.856 34.619 39.2307C34.8581 39.1171 35.0975 39.0154 35.3486 38.9316C35.6178 39.0931 35.869 39.2903 36.0903 39.4818C38.2253 41.3359 40.2167 43.3451 42.047 45.4982C42.4656 45.9887 43.0874 46.5331 43.6915 46.7482Z" fill="#401A49"/>
<path d="M53.1136 33.0528C53.1136 33.0613 53.1138 33.0695 53.1138 33.078C53.1436 36.4701 52.5322 40.0186 51.1622 43.1302C50.2656 45.1657 48.7306 47.2161 46.3168 47.3284C40.0192 47.6214 35.4862 44.679 33.979 38.9198C33.2136 39.2188 31.4432 39.2128 31.1801 39.1649C29.9002 38.9496 28.746 38.2619 28.4231 36.9161C27.879 34.6136 30.2772 32.7716 32.2147 33.2742C32.2087 33.2263 32.2087 33.1844 32.2027 33.1366C32.1789 32.8734 32.1669 32.6042 32.1669 32.3412C32.1669 26.564 36.8495 21.8813 42.6267 21.8813C43.5178 21.8813 44.385 21.9949 45.2104 22.2042C50.183 23.4653 53.0606 28.0923 53.1136 33.0528Z" fill="#FF899A"/>
<path d="M33.1737 37.4139C33.1279 37.4139 33.0824 37.3925 33.0533 37.3529C32.893 37.1342 32.7026 36.9383 32.4882 36.7704C32.3276 36.6444 32.1731 36.5498 32.0162 36.4812C31.4787 36.2454 30.8432 36.2908 30.2823 36.3313C30.1888 36.3391 30.1285 36.275 30.1225 36.1931C30.1165 36.1107 30.1786 36.0392 30.2607 36.0332C30.8557 35.9898 31.5314 35.9421 32.1359 36.2075C32.3163 36.2863 32.492 36.3937 32.673 36.5353C32.9086 36.7201 33.1176 36.9356 33.2942 37.1761C33.3434 37.2429 33.3287 37.3362 33.2624 37.3852C33.2354 37.4043 33.2047 37.4139 33.1737 37.4139Z" fill="#401A49"/>
<path d="M43.936 35.4624C43.936 36.0842 43.5172 36.5886 43.0008 36.5886C42.4845 36.5886 42.0657 36.0845 42.0657 35.4624C42.0657 34.8405 42.4843 34.3362 43.0008 34.3362C43.5174 34.3362 43.936 34.8405 43.936 35.4624Z" fill="#401A49"/>
<path d="M51.7997 35.4624C51.7997 36.0842 51.3809 36.5886 50.8646 36.5886C50.348 36.5886 49.9292 36.0845 49.9292 35.4624C49.9292 34.8405 50.348 34.3362 50.8646 34.3362C51.3809 34.3362 51.7997 34.8405 51.7997 35.4624Z" fill="#401A49"/>
<path d="M48.2873 39.9456C48.0448 39.9456 47.7957 39.8529 47.585 39.681C47.4468 39.5686 47.3651 39.4501 47.3366 39.3183C47.3188 39.238 47.3695 39.1582 47.4506 39.1404C47.5332 39.1228 47.6111 39.1745 47.6282 39.2547C47.6418 39.3166 47.691 39.3818 47.7736 39.4493C47.9589 39.6007 48.1896 39.6692 48.3884 39.6385C48.544 39.6131 48.7573 39.5169 48.8308 39.4061C48.8562 39.368 48.8546 39.3435 48.8502 39.3261C48.4498 37.6883 48.2855 36.003 48.3628 34.3175C48.3661 34.2373 48.4325 34.1746 48.512 34.1746C48.5142 34.1746 48.5162 34.1748 48.5191 34.1748C48.6012 34.1786 48.6649 34.2485 48.6611 34.3309C48.5854 35.9881 48.7471 37.6451 49.141 39.2549C49.1668 39.3624 49.1459 39.4717 49.0804 39.5708C48.949 39.7692 48.6547 39.8977 48.4369 39.9333C48.3877 39.9415 48.3376 39.9456 48.2873 39.9456Z" fill="#401A49"/>
<path d="M41.8259 33.4196C41.7887 33.4196 41.7513 33.406 41.7228 33.3784C41.6629 33.3214 41.6607 33.2268 41.7179 33.1671C42.1686 32.6955 42.8265 32.4403 43.4764 32.4884C43.5586 32.4944 43.6207 32.5659 43.6147 32.6483C43.6087 32.7302 43.5521 32.7908 43.4548 32.7866C42.9011 32.7463 42.3246 32.9651 41.9341 33.3733C41.9049 33.4042 41.8655 33.4196 41.8259 33.4196Z" fill="#401A49"/>
<path d="M51.9044 33.2029C51.8596 33.2029 51.8153 33.1826 51.7855 33.1443C51.4813 32.7484 50.8973 32.6687 50.4807 32.7631C50.3997 32.7805 50.3197 32.7304 50.3019 32.6503C50.2837 32.5699 50.3344 32.4897 50.4148 32.4715C50.9372 32.3526 51.6368 32.4597 52.0231 32.9622C52.0734 33.0277 52.0609 33.1216 51.9954 33.1719C51.9681 33.1926 51.9362 33.2029 51.9044 33.2029Z" fill="#401A49"/>
<path d="M47.5018 41.582C47.331 41.582 47.1571 41.549 46.9928 41.48C46.5364 41.2885 46.1728 40.845 46.0198 40.2937C45.9982 40.214 46.0447 40.1316 46.124 40.1098C46.2062 40.0882 46.2866 40.1345 46.3081 40.2138C46.4362 40.6778 46.7354 41.0483 47.1084 41.2046C47.5152 41.3754 48.0079 41.2556 48.2326 40.9343C48.28 40.8659 48.3719 40.8495 48.441 40.8975C48.5084 40.9448 48.5247 41.038 48.4777 41.1055C48.2642 41.411 47.8903 41.582 47.5018 41.582Z" fill="#401A49"/>
<path d="M45.2285 27.5928C44.756 28.8009 44.0025 29.9311 42.914 30.6309C41.8314 31.3365 40.4082 31.5578 39.248 30.9958C39.3795 32.2995 38.9489 33.6572 38.0817 34.6438C37.2087 35.6306 36.0304 36.151 34.7147 36.1808C34.3919 35.5469 34.0628 34.907 33.6261 34.3448C33.2434 33.8485 32.5115 33.3517 31.9493 33.0768C31.9255 32.8136 31.9113 32.5765 31.9113 32.3133C31.9113 26.536 36.7081 21.5864 42.4854 21.5864C43.3764 21.5864 44.294 21.6443 45.1194 21.8536C45.9147 23.4803 45.9045 25.8763 45.2285 27.5928Z" fill="#401A49"/>
<path d="M61.2284 110.34L38.9861 104.945L65.9621 100.058L106.731 103.163L61.2284 110.34Z" fill="#401A49"/>
<path opacity="0.35" d="M61.2284 110.34L38.9861 104.945L65.9621 100.058L106.731 103.163L61.2284 110.34Z" fill="#8F8FEF"/>
<path d="M53.3394 95.3756C53.3394 95.3756 61.8902 94.4594 63.2137 94.6631C64.5369 94.8666 70.1358 101.076 69.8303 101.891C69.5248 102.705 66.1656 104.843 65.3514 104.232C64.5369 103.621 61.0759 102.094 61.0759 102.094L52.0161 102.909L53.3394 95.3756Z" fill="#FF899A"/>
<path d="M38.9861 104.945L40.5131 107.388L61.2794 112.376L105.255 105.148L106.731 103.138L61.2794 109.525L38.9861 104.945Z" fill="#401A49"/>
<path d="M67.7943 66.2112L61.2284 110.34L106.731 103.163L113.908 61.9868L67.7943 66.2112Z" fill="#401A49"/>
<ellipse cx="90.6984" cy="85.6033" rx="5.34417" ry="5.19164" fill="#FFE5D2"/>
<path d="M56.3926 103.927C56.3926 103.927 50.4235 105.166 43.1596 105.803C43.0046 105.814 42.8496 105.83 42.6949 105.847C41.7101 105.925 40.6977 105.997 39.6799 106.052C39.4421 106.063 39.1988 106.074 38.9608 106.085C37.1737 106.168 35.3593 106.196 33.589 106.151C28.6986 103.651 24.2838 100.359 20.5053 96.4533C18.6742 94.5614 16.9923 92.5199 15.4767 90.3568C13.9553 80.5537 14.4533 70.131 14.4533 70.131L18.9343 63.7192C18.9343 63.7192 23.4099 64.0234 27.0777 69.008C29.1688 71.8626 29.9987 78.8166 30.3307 84.2436C30.4137 85.6819 30.4636 87.0152 30.4967 88.1383C30.552 90.174 30.5355 91.5075 30.5355 91.5075L30.7568 91.5019L31.0556 91.4908L55.8841 90.7936L55.9228 91.8005L55.934 92.0715V92.1269L55.9395 92.232L55.9451 92.3703V92.4146L56.0502 95.1031L56.1277 97.0284L56.3103 101.808L56.3379 102.522L56.3926 103.927Z" fill="#8F8FEF"/>
<path d="M56.5418 103.922C56.5418 103.999 56.4922 104.06 56.42 104.071C56.3316 104.088 50.1908 105.156 43.6739 105.908C43.5134 105.93 43.3531 105.947 43.1872 105.963C42.0697 106.09 40.9411 106.212 39.8402 106.306C38.2249 106.455 36.6592 106.566 35.2264 106.621C35.0106 106.627 34.7949 106.632 34.5791 106.644C34.3745 106.549 34.1752 106.45 33.9818 106.35C34.3856 106.345 34.8005 106.339 35.2155 106.323C36.3882 106.278 37.6495 106.196 38.9608 106.085C39.193 106.068 39.4254 106.046 39.6632 106.024C40.5429 105.946 41.4447 105.858 42.3409 105.758C42.468 105.747 42.6009 105.731 42.7337 105.714C49.0571 105.017 55.2863 103.966 56.2432 103.8L56.221 102.533L56.2098 101.825L56.1268 97.0284L56.0936 95.0978L56.0437 92.409V92.3702H30.9445C30.9169 92.3702 30.8946 92.3647 30.8726 92.3482C30.8283 92.3262 30.7951 92.2818 30.7951 92.2266C30.7951 92.2155 30.7895 92.1327 30.784 91.9777C30.7784 91.8559 30.7673 91.7012 30.7564 91.5019C30.7176 90.7938 30.6346 89.5989 30.4963 88.1382C30.0704 83.7513 29.0911 76.93 26.9501 73.3617C23.6584 67.8793 19.2382 66.5184 19.1939 66.5073C19.1164 66.4853 19.0721 66.4022 19.0944 66.3194C19.1166 66.2419 19.1995 66.1976 19.2825 66.2199C19.3268 66.231 23.8521 67.625 27.2046 73.207C28.8088 75.8791 29.766 80.3271 30.3302 84.2438C30.7782 87.4026 30.983 90.2129 31.055 91.491C31.0717 91.7234 31.0826 91.9004 31.0826 92.022C31.0881 92.0441 31.0881 92.0552 31.0881 92.0719H56.1878C56.1934 92.0719 56.1989 92.0719 56.2043 92.0774C56.2818 92.083 56.337 92.1438 56.337 92.2157V92.2433L56.3869 95.0704L56.5031 101.775L56.5198 102.506L56.5418 103.922Z" fill="#401A49"/>
<path d="M28.6129 95.5164C28.5871 95.5164 28.5606 95.5097 28.5368 95.4953C28.4655 95.4532 28.4421 95.3617 28.4845 95.2904C29.1771 94.123 29.962 92.9935 30.8172 91.9341C30.868 91.8705 30.963 91.8598 31.0274 91.9116C31.0917 91.9635 31.1015 92.0577 31.0494 92.1221C30.2033 93.1705 29.4265 94.2876 28.7416 95.4427C28.7136 95.4901 28.6639 95.5164 28.6129 95.5164Z" fill="#401A49"/>
<path opacity="0.16" d="M104.323 49.9001C102.393 56.7989 96.0581 61.8551 88.5455 61.8551C79.4948 61.8551 72.1592 54.5196 72.1592 45.4689C72.1592 36.4237 79.4948 29.0881 88.5455 29.0881C90.5483 29.0881 92.4678 29.4477 94.2381 30.1061C98.9737 35.7653 102.481 42.5035 104.323 49.9001Z" fill="#FFA766"/>
<path d="M100.27 43.6235C100.27 37.7145 95.4793 32.9241 89.5703 32.9241C83.661 32.9241 78.8708 37.7145 78.8708 43.6235C78.8708 48.9668 82.7918 53.3823 87.9106 54.1814V58.4192H91.7243V54.1059C96.6009 53.1091 100.27 48.7947 100.27 43.6235Z" fill="#FFA766"/>
<path fill-rule="evenodd" clip-rule="evenodd" d="M90.8874 55.3038C90.793 56.2085 90.9212 56.8473 91.2801 57.2559L91.3846 57.165C91.0524 56.7867 90.935 56.1827 91.0252 55.3188C91.1176 54.439 91.3171 53.611 91.6181 52.8578C91.9103 52.1263 92.31 51.4403 92.6967 50.7767L92.7027 50.7664L92.7241 50.7294C92.9299 50.3755 93.1423 50.0103 93.3366 49.6408C94.0455 48.2895 94.3394 47.1141 94.2341 46.0476C94.1804 45.5039 94.0179 44.9669 93.7647 44.4944C93.5392 44.0749 93.2704 43.7592 92.9652 43.5561C92.1988 43.0465 91.0835 43.2397 90.3692 44.0054C90.1858 44.2014 90.0252 44.4316 89.8899 44.691C89.8879 44.6872 89.886 44.6833 89.884 44.6795C89.8724 44.6565 89.8607 44.6335 89.8487 44.6108C89.4753 43.9003 88.9178 43.3902 88.3193 43.2112C87.9519 43.1012 87.5311 43.1017 87.1033 43.2132C86.174 43.4546 85.3998 44.194 85.1311 45.0973C84.8951 45.8895 85.0035 46.8579 85.453 47.9747C85.8451 48.9497 86.3991 49.9076 87.1955 50.9892C87.2796 51.1034 87.3653 51.2173 87.4508 51.331L87.458 51.3406L87.4603 51.3436C87.92 51.9558 88.3952 52.5886 88.6833 53.3184C89.0876 54.3435 89.1422 55.5873 88.8458 57.0152L88.9812 57.0432C89.2834 55.5884 89.2259 54.3181 88.8113 53.2679C88.5172 52.5217 88.0368 51.8817 87.5722 51.2628L87.5682 51.2575C87.5501 51.2333 87.5319 51.2091 87.5137 51.1849C87.4443 51.0925 87.3749 51.0001 87.3068 50.9075C86.5178 49.8354 85.9691 48.8871 85.5811 47.9233C85.1435 46.8361 85.0367 45.8987 85.2633 45.137C85.5189 44.2791 86.2546 43.5764 87.1376 43.3473C87.542 43.242 87.9358 43.2413 88.2796 43.3437C88.8427 43.5123 89.37 43.9976 89.7262 44.6752C89.7565 44.7322 89.785 44.7901 89.8122 44.8484C89.5597 45.3924 89.4089 46.0487 89.3762 46.7728C89.3444 47.4755 89.4377 47.9959 89.6694 48.4104C89.7006 48.4657 89.7959 48.6342 89.9533 48.6531C90.0569 48.6632 90.1579 48.6148 90.2559 48.5035C90.6701 48.0375 90.5955 47.2894 90.485 46.6898C90.371 46.077 90.2283 45.4351 89.9647 44.8491C90.1038 44.5623 90.2733 44.31 90.4701 44.0996C91.1396 43.3833 92.1794 43.199 92.8879 43.6712C93.1745 43.8616 93.4281 44.1606 93.6427 44.5596C93.8876 45.0163 94.0444 45.5353 94.0965 46.061C94.1985 47.1001 93.9099 48.2499 93.2134 49.5767C93.0146 49.9561 92.7953 50.3326 92.5827 50.6967C92.1915 51.3675 91.7871 52.0618 91.4896 52.8059C91.1837 53.5711 90.9811 54.4117 90.8874 55.3038ZM89.5147 46.7788C89.5439 46.1215 89.6726 45.5233 89.8876 45.0185C90.1143 45.5611 90.2439 46.1503 90.3488 46.7149C90.4539 47.2834 90.5269 47.9901 90.1528 48.4116C90.107 48.4634 90.0366 48.5218 89.97 48.5153C89.9106 48.5082 89.8518 48.4514 89.7903 48.3421C89.5715 47.9516 89.484 47.4548 89.5147 46.7788Z" fill="#FFF5EE"/>
<path d="M87.8046 56.6182L91.7948 56.5476L91.9137 59.6973C91.9257 60.0179 91.6635 60.2818 91.3426 60.2711L88.2201 60.1678C87.9133 60.1575 87.6733 59.8995 87.6855 59.5926L87.8046 56.6182Z" fill="#8F8FEF"/>
<path d="M88.4519 60.0318L88.5309 60.6441C88.5666 60.9199 88.8015 61.1266 89.0796 61.1266H90.6778C90.9272 61.1266 91.1458 60.9596 91.2115 60.7189L91.4181 59.9612L88.4519 60.0318Z" fill="#8F8FEF"/>
<path d="M96.3165 40.669C96.5222 40.8475 96.7763 41.0116 97.0466 40.9774C97.2463 40.952 97.4175 40.8204 97.55 40.6688C97.9116 40.2548 98.0436 39.673 97.9851 39.1266C97.8858 38.2031 96.7447 35.9774 95.4697 36.7816C94.187 37.5908 95.5421 39.9963 96.3165 40.669Z" fill="#FFF5EE"/>
<path d="M96.8384 43.1132C96.8623 43.2898 96.9141 43.4661 97.0163 43.6122C97.2552 43.9528 97.7593 44.0575 98.1327 43.8736C98.9085 43.4917 98.8495 42.3063 98.1528 41.8739C97.3292 41.3629 96.7378 42.3704 96.8384 43.1132Z" fill="#FFF5EE"/>
<rect x="66.8883" y="8.08789" width="27.967" height="22.223" fill="#FFF5EE"/>
<path d="M67.6418 24.0959L59.8259 29.1809L69.0541 27.2033L67.6418 24.0959Z" fill="#FFF5EE"/>
<ellipse cx="80.5852" cy="19.2491" rx="6.82681" ry="6.82682" transform="rotate(-82.0271 80.5852 19.2491)" fill="#FFD2A7"/>
<path fill-rule="evenodd" clip-rule="evenodd" d="M74.2542 19.2464C74.2542 22.7377 77.0943 25.5781 80.5858 25.5781C84.077 25.5781 86.9177 22.7377 86.9177 19.2464C86.9177 15.7552 84.077 12.9148 80.5858 12.9148C77.0946 12.9148 74.2542 15.755 74.2542 19.2464ZM74.3597 19.2464C74.3597 15.8133 77.1527 13.0203 80.5858 13.0203C84.0189 13.0203 86.8121 15.8131 86.8121 19.2464C86.8121 22.6798 84.0189 25.4725 80.5858 25.4725C77.1527 25.4725 74.3597 22.6796 74.3597 19.2464Z" fill="#FFF5EE"/>
<path fill-rule="evenodd" clip-rule="evenodd" d="M81.058 21.8605V22.5305H80.708V21.8679C79.8891 21.8305 79.2781 21.4506 79.0472 20.8103L79.3899 20.6165C79.5614 21.138 80.0156 21.4506 80.708 21.4878V19.2762C79.9483 19.0081 79.2933 18.7324 79.2933 17.8463C79.2933 17.0717 79.9187 16.5504 80.708 16.4985V15.8281H81.058V16.4985C81.6465 16.5653 82.1453 16.8784 82.3762 17.4366L82.0411 17.6229C81.8698 17.1983 81.5345 16.9452 81.0578 16.8857V19.0007C81.8175 19.2688 82.5026 19.5665 82.5026 20.4529C82.5026 21.2346 81.907 21.7784 81.058 21.8605ZM80.7078 18.8743V16.8784C80.0973 16.9303 79.6876 17.3253 79.6876 17.8465C79.6876 18.4347 80.1195 18.6581 80.7078 18.8743ZM81.058 19.3953C81.6686 19.6115 82.1007 19.8571 82.1007 20.4529C82.1007 20.9888 81.7282 21.3987 81.058 21.4729V19.3953Z" fill="white"/>
<rect x="26.3973" y="73.1086" width="35.5943" height="12.9948" fill="#FFF5EE"/>
<path d="M61.0501 83.3257L67.1708 83.9848L60.8617 80.7832L61.0501 83.3257Z" fill="#FFF5EE"/>
<rect x="31.1998" y="76.075" width="25.5187" height="0.988586" fill="#401A49"/>
<rect x="31.1998" y="78.4292" width="25.5187" height="0.941605" fill="#401A49"/>
<rect x="31.1998" y="80.7832" width="17.8912" height="0.988815" fill="#401A49"/>
<path d="M100.692 57.9094C97.1926 57.9117 94.3578 60.7501 94.36 64.2493C94.3611 66.0532 95.1199 67.6766 96.3305 68.8298L95.0618 71.4869L97.9864 69.966C98.81 70.3567 99.7275 70.5818 100.7 70.5812C104.199 70.5789 107.034 67.7405 107.032 64.2413C107.029 60.742 104.191 57.9072 100.692 57.9094Z" fill="#F05D6A"/>
<path fill-rule="evenodd" clip-rule="evenodd" d="M100.484 67.6648C100.497 67.6775 100.514 67.6824 100.533 67.6824C100.546 67.6824 100.559 67.68 100.572 67.6757C100.589 67.67 100.604 67.6555 100.615 67.6383C100.644 67.6155 100.697 67.5777 100.77 67.5258C100.781 67.5184 100.792 67.5107 100.803 67.5027C103.722 65.4352 104.774 63.6953 103.927 62.3307C103.712 61.9842 103.423 61.7856 103.069 61.7407C102.216 61.6298 101.212 62.4663 100.89 62.7595C100.544 62.3158 99.7703 61.4561 98.9785 61.4243C98.6328 61.4102 98.3181 61.5556 98.0503 61.8562C97.0176 63.014 97.7762 64.9048 100.305 67.4762L100.311 67.4824C100.38 67.5525 100.43 67.6033 100.455 67.6321C100.462 67.645 100.472 67.6562 100.484 67.6648ZM98.1774 61.9693C98.3998 61.7197 98.6541 61.5937 98.9344 61.5937C98.9469 61.5937 98.9594 61.5939 98.9716 61.5944C99.7385 61.6251 100.514 62.5433 100.812 62.9365C100.827 62.9559 100.849 62.9682 100.873 62.9702C100.896 62.9684 100.921 62.9633 100.939 62.9468C101.141 62.7544 102.195 61.7977 103.047 61.9092C103.348 61.9475 103.595 62.1194 103.782 62.42C104.573 63.6945 103.537 65.3577 100.704 67.3636C100.696 67.3694 100.688 67.375 100.68 67.3805C100.623 67.4215 100.577 67.4537 100.544 67.4783C100.537 67.4708 100.529 67.4628 100.521 67.4542C100.495 67.427 100.463 67.3943 100.426 67.3569C97.369 64.2482 97.5159 62.7112 98.1774 61.9693Z" fill="#401A49"/>
<path d="M74.2065 53.6202C72.3763 50.4461 68.3193 49.3566 65.1449 51.1871C61.9707 53.0173 60.8813 57.0743 62.7117 60.2485C64.1374 62.7208 66.9134 63.9205 69.5715 63.4685L71.7368 65.6253L71.3481 62.8989C71.4906 62.8297 71.6337 62.762 71.7731 62.6816C74.9475 60.8514 76.037 56.7944 74.2065 53.6202Z" fill="#FFF5EE"/>
<path fill-rule="evenodd" clip-rule="evenodd" d="M67.1889 60.278C67.4055 60.2891 68.5595 60.345 69.6274 60.345C70.4855 60.345 71.2877 60.3087 71.5026 60.1838C72.0454 59.8679 71.8933 59.0481 71.8432 58.7786C71.8172 58.6379 71.9058 58.3866 72 58.1207L72.0026 58.1134C72.094 57.8547 72.1883 57.5876 72.2073 57.3465C72.2373 56.9661 71.9914 56.614 71.8284 56.3807L71.8274 56.3793C71.7722 56.3005 71.7201 56.2259 71.7065 56.1872C71.6929 56.1496 71.7272 55.9979 71.7535 55.8818L71.756 55.8708L71.7562 55.8698C71.8312 55.5402 71.9245 55.13 71.7248 54.8935C71.456 54.5738 69.8233 54.9151 69.3368 55.026C69.1351 54.405 68.3647 52.1729 67.7854 52.3517C67.2689 52.511 67.2817 53.6103 67.291 54.414L67.2911 54.4155C67.2931 54.5794 67.2946 54.7274 67.2915 54.8468C67.2738 55.4607 66.6452 55.8824 66.6281 55.8939L66.6278 55.8942C66.6013 55.9113 66.5866 55.9422 66.5908 55.9736L67.1112 60.2056C67.1158 60.2455 67.1488 60.276 67.1889 60.278ZM71.4191 60.0413C71.0548 60.2522 68.3636 60.1698 67.2666 60.1166L66.7603 56.0028C66.9172 55.889 67.4391 55.4651 67.4558 54.8515C67.4594 54.7301 67.4578 54.5798 67.4558 54.4137C67.448 53.7473 67.4351 52.6325 67.8341 52.5096C68.1639 52.4009 68.8336 53.9927 69.2026 55.1485C69.2157 55.1897 69.258 55.2117 69.3001 55.2039C70.1566 55.0035 71.4365 54.8087 71.5985 55.0002C71.7454 55.1739 71.6586 55.5548 71.5952 55.8333L71.595 55.834C71.5476 56.0409 71.5226 56.162 71.5502 56.2419C71.5716 56.3023 71.6246 56.3782 71.6918 56.4739C71.8419 56.6881 72.0681 57.0117 72.0425 57.3336C72.0249 57.5552 71.9332 57.8146 71.8441 58.0657C71.7377 58.3656 71.6462 58.6246 71.6805 58.8089C71.7255 59.0503 71.8619 59.7839 71.4191 60.0413Z" fill="#401A49"/>
<path d="M66.6726 55.9636L64.6914 56.1714L65.1327 60.38L67.1932 60.1954L66.6726 55.9636Z" fill="#401A49"/>
</svg>
