<svg width="114" height="112" viewBox="0 0 114 112" fill="none" xmlns="http://www.w3.org/2000/svg">
    <path d="M58.6624 111.335C48.1216 111.335 37.8698 108.359 29.0141 102.729C20.3969 97.2493 13.4671 89.518 8.97594 80.3693C5.22997 72.7571 3.32982 64.5616 3.32982 56.0129C3.32982 52.301 3.69854 48.6105 4.42796 44.9986C1.74763 43.3133 0 40.3237 0 37.0422V32.1593C0 26.9826 4.21221 22.7704 9.38897 22.7704H14.4201C18.2237 17.7087 22.8158 13.3747 28.0914 9.8721C37.16 3.84925 47.7319 0.665039 58.6621 0.665039C64.8894 0.665039 70.9917 1.69104 76.8004 3.71365C78.9942 4.47313 81.1863 5.39827 83.3246 6.46479L92.9225 6.0384C92.9688 6.0364 93.0151 6.03528 93.0616 6.03528C93.842 6.03528 94.596 6.32719 95.174 6.856C95.7867 7.4162 96.1514 8.19728 96.1882 9.02645L96.4805 15.6169C107.632 26.0623 114 40.7026 114 55.9973C114 62.1498 112.999 68.1864 111.024 73.9394C108.28 81.9582 103.626 89.3615 97.5677 95.3469C87.1492 105.656 73.3316 111.335 58.6624 111.335Z" fill="white"/>
    <path d="M111.048 55.9975C111.048 61.9231 110.062 67.6188 108.241 72.9239L95.5454 93.1208C86.1145 102.452 73.1475 108.206 58.8396 108.206C38.2621 108.206 20.4594 96.2974 11.9624 78.9903L6.63672 56.0131V55.9975C6.63672 37.8299 15.9215 21.8267 29.9996 12.4794C29.9996 12.4794 40.1447 13.6833 50.8064 13.6833C56.7996 13.6833 75.9483 6.6687 75.9483 6.6687C96.3799 13.7469 111.048 33.1615 111.048 55.9975Z" fill="#8F8FEF"/>
    <path d="M25.681 66.5916C25.681 73.4768 20.0996 79.0527 13.2196 79.0527C12.7969 79.0527 12.3746 79.0318 11.9624 78.9902C8.55112 72.058 6.63672 64.2599 6.63672 56.0132C8.54577 54.824 10.7993 54.1355 13.2196 54.1355C20.0996 54.1355 25.681 59.7115 25.681 66.5916Z" fill="#F05D6A"/>
    <path d="M108.241 72.924C105.602 80.6335 101.21 87.524 95.5454 93.1209C90.2667 91.6761 86.3911 86.8458 86.3911 81.1082C86.3911 74.2281 91.9724 68.6521 98.8525 68.6521C102.603 68.6519 105.967 70.3055 108.241 72.924Z" fill="#FFD2A7"/>
    <path d="M75.9487 6.66897C74.9993 18.8538 64.8072 28.4463 52.3772 28.4463C42.0023 28.4463 33.1922 21.7697 30 12.4796C38.2623 6.99227 48.1781 3.79492 58.84 3.79492C64.833 3.7947 70.5864 4.80155 75.9487 6.66897Z" fill="#FF899A"/>
    <path d="M94.8443 82.0119H21.1528V36.2046C21.1528 35.2209 21.9504 34.4233 22.9341 34.4233H93.063C94.0467 34.4233 94.8443 35.2209 94.8443 36.2046V82.0119Z" fill="#401A49"/>
    <rect x="24.1714" y="38.6404" width="66.9881" height="43.9486" fill="#FFF5EE"/>
    <path d="M18.3939 86.9088L15.1004 82.8885C14.7379 82.4461 15.2652 81.9255 16.0754 81.9255H100.322C101.174 81.9255 101.697 82.4955 101.251 82.9388L97.2599 86.9086C97.2601 86.9088 18.5796 87.0221 18.3939 86.9088Z" fill="#401A49"/>
    <path d="M98.2572 86.1235H18.0923C18.0335 86.1235 17.9858 86.0756 17.9858 86.0171C17.9858 85.9585 18.0335 85.9107 18.0923 85.9107H98.257C98.3158 85.9107 98.3634 85.9585 98.3634 86.0171C98.3634 86.0756 98.316 86.1235 98.2572 86.1235Z" fill="#FFF5EE"/>
    <rect x="26.8345" y="41.4382" width="60.8615" height="38.6202" fill="white"/>
    <rect x="26.8345" y="41.4382" width="60.8615" height="5.05964" fill="#8F8FEF"/>
    <path d="M80.9489 44.1454C80.9489 44.7094 80.4918 45.1665 79.9278 45.1665C79.3639 45.1665 78.9067 44.7094 78.9067 44.1454C78.9067 43.5814 79.3639 43.1243 79.9278 43.1243C80.4918 43.1243 80.9489 43.5814 80.9489 44.1454Z" fill="#F05D6A"/>
    <path d="M76.2878 44.1454C76.2878 44.7094 75.8307 45.1665 75.2667 45.1665C74.7027 45.1665 74.2456 44.7094 74.2456 44.1454C74.2456 43.5814 74.7027 43.1243 75.2667 43.1243C75.8307 43.1243 76.2878 43.5814 76.2878 44.1454Z" fill="#FF899A"/>
    <path d="M85.6106 44.1454C85.6106 44.7094 85.1535 45.1665 84.5895 45.1665C84.0255 45.1665 83.5684 44.7094 83.5684 44.1454C83.5684 43.5814 84.0255 43.1243 84.5895 43.1243C85.1535 43.1243 85.6106 43.5814 85.6106 44.1454Z" fill="#FFA766"/>
    <path fill-rule="evenodd" clip-rule="evenodd" d="M30.4985 54.554H83.8111V49.3628H30.4985V54.554ZM83.6806 54.4235H30.6288V49.4933H83.6806V54.4235Z" fill="#FFA766"/>
    <path fill-rule="evenodd" clip-rule="evenodd" d="M30.4097 78.0819H83.8109V56.4656H30.4097V78.0819ZM83.6804 77.9515H30.5399V56.5961H83.6804V77.9515Z" fill="#FFA766"/>
    <path fill-rule="evenodd" clip-rule="evenodd" d="M35.3115 75.752L35.4048 75.8426L42.3831 68.6876L48.3763 72.2133L48.4226 72.2407L56.6678 62.9315C58.5551 64.9494 62.826 69.4765 63.1478 69.4762C63.15 69.4762 63.1518 69.476 63.1536 69.4756C63.1801 69.4698 63.201 69.4511 63.2048 69.4355C63.4355 69.1166 73.2664 62.3581 77.0351 59.7809L76.9612 59.6733C74.729 61.2001 63.8545 68.6468 63.124 69.3395C62.7116 69.1224 59.0912 65.3321 56.7141 62.7901L56.6651 62.738L48.3961 72.0737L42.4051 68.5493L42.361 68.5235L35.3115 75.752ZM63.1073 69.3562C63.0981 69.362 63.0901 69.3714 63.0859 69.384C63.0879 69.3783 63.095 69.3691 63.1073 69.3562Z" fill="#FFA766"/>
    <path d="M36.1575 75.8415C36.1575 76.3073 35.7799 76.6849 35.3141 76.6849C34.8483 76.6849 34.4707 76.3073 34.4707 75.8415C34.4707 75.3757 34.8483 74.998 35.3141 74.998C35.7799 74.998 36.1575 75.3757 36.1575 75.8415Z" fill="#8F8FEF"/>
    <circle cx="56.6222" cy="62.8788" r="0.843422" fill="#FF899A"/>
    <path d="M77.6644 59.86C77.6644 60.3258 77.2868 60.7034 76.821 60.7034C76.3552 60.7034 75.9775 60.3258 75.9775 59.86C75.9775 59.3942 76.3552 59.0166 76.821 59.0166C77.2865 59.0166 77.6644 59.3942 77.6644 59.86Z" fill="#8F8FEF"/>
    <path fill-rule="evenodd" clip-rule="evenodd" d="M79.3369 73.6771H81.6073V71.4062H79.3369V73.6771ZM81.5343 73.6039H79.4097V71.4797H81.5343V73.6039Z" fill="#FFA766"/>
    <path fill-rule="evenodd" clip-rule="evenodd" d="M79.3369 70.7472H81.6073V68.4766H79.3369V70.7472ZM81.5343 70.674H79.4097V68.5496H81.5343V70.674Z" fill="#FFA766"/>
    <path fill-rule="evenodd" clip-rule="evenodd" d="M79.3369 76.433H81.6073V74.1621H79.3369V76.433ZM81.5343 76.3597H79.4097V74.2356H81.5343V76.3597Z" fill="#FFA766"/>
    <path d="M47.2949 7.96631L67.543 11.5885L63.8174 32.415L43.5692 28.7928L47.2949 7.96631Z" fill="#FFF5EE"/>
    <path d="M58.19 13.1734C58.19 13.8774 57.6191 14.4483 56.9151 14.4483C56.2108 14.4483 55.6401 13.8774 55.6401 13.1734C55.6401 12.4691 56.211 11.8984 56.9151 11.8984C57.6191 11.8984 58.19 12.4693 58.19 13.1734Z" fill="#401A49"/>
    <path d="M48.6777 16.7206C48.4392 16.6988 48.1881 16.681 47.8857 16.6534C47.7196 16.638 47.6555 16.4644 47.6693 16.3156C47.6876 16.1139 47.7987 16.0593 48.0518 16.0823L50.0949 16.2698C50.233 16.2824 50.3995 16.3593 50.3792 16.5826C50.3639 16.7487 50.2356 16.8765 50.092 16.8658C50.0379 16.8611 49.9887 16.8409 49.9322 16.8357L49.272 16.7752L48.999 19.6624C48.9919 19.7443 49.0026 19.8202 48.9943 19.9124C48.9805 20.0607 48.9235 20.2284 48.6546 20.2039C48.3428 20.1754 48.3769 19.9411 48.3943 19.7566L48.6777 16.7206Z" fill="#401A49"/>
    <path fill-rule="evenodd" clip-rule="evenodd" d="M53.7408 19.0357C53.8223 18.1478 53.2609 17.368 52.2982 17.2794C51.418 17.1988 50.6427 17.8559 50.5612 18.7445C50.472 19.7173 51.1399 20.4289 52.0027 20.5079C52.8626 20.5867 53.6517 20.0087 53.7408 19.0357ZM53.1521 18.9816C53.0879 19.6778 52.5959 20.0076 52.0508 19.9571C51.4365 19.9012 51.0932 19.4487 51.1528 18.7984C51.2052 18.2221 51.6133 17.7744 52.2454 17.8325C52.8802 17.8906 53.2046 18.4054 53.1521 18.9816Z" fill="#401A49"/>
    <path fill-rule="evenodd" clip-rule="evenodd" d="M58.9488 18.3466C58.7502 18.0313 58.3763 17.8367 57.9769 17.8C57.0958 17.7194 56.3749 18.3506 56.2898 19.2771C56.2076 20.1757 56.7226 20.9408 57.609 21.0218C58.0492 21.0625 58.5041 20.9154 58.8005 20.6642C58.8279 20.9272 58.9125 21.1055 59.0735 21.1202C59.1472 21.127 59.2497 21.0831 59.3568 21.0374C59.3696 21.0319 59.3825 21.0264 59.3954 21.0209C59.4756 20.9866 59.5539 20.9552 59.639 20.9241C59.7241 20.898 59.8271 20.8201 59.8403 20.6765C59.8585 20.4743 59.718 20.379 59.6014 20.381C59.5234 20.3819 59.4566 20.4088 59.3814 20.4436L59.3331 20.4676C59.334 20.3153 59.3544 20.0305 59.3849 19.6979C59.417 19.3468 59.5816 17.6145 59.6579 16.9476C59.6762 16.9156 59.6873 16.8753 59.6936 16.8143C59.7085 16.6502 59.631 16.5346 59.4878 16.5219C59.3755 16.5126 59.27 16.5059 59.1684 16.4993C59.0338 16.4907 58.9058 16.4824 58.7773 16.4694C58.7181 16.4486 58.6697 16.4441 58.6365 16.441L58.6357 16.4409C58.4977 16.4282 58.3834 16.5184 58.3672 16.6951C58.3494 16.8898 58.4792 17.0202 58.6021 17.0314C58.6454 17.0355 58.6869 17.0325 58.7272 17.0297C58.7655 17.027 58.8028 17.0243 58.8399 17.0278L59.0579 17.0476C59.0084 17.6702 58.965 18.1698 58.9488 18.3466ZM58.8145 19.7874C58.6647 20.2592 58.1532 20.5168 57.703 20.4756C57.1172 20.4217 56.8115 19.8669 56.8605 19.3294C56.919 18.6942 57.375 18.305 57.9435 18.3575C58.4275 18.4018 58.7918 18.8195 58.8544 19.3238C58.8494 19.3784 58.8461 19.419 58.8423 19.4661C58.8366 19.5361 58.8297 19.6206 58.8145 19.7874Z" fill="#401A49"/>
    <path fill-rule="evenodd" clip-rule="evenodd" d="M63.4825 19.9286C63.564 19.0407 63.0035 18.2609 62.0399 18.1728C61.1595 18.0917 60.3849 18.749 60.3034 19.6372C60.2143 20.6102 60.8816 21.3218 61.7444 21.4013C62.6043 21.4797 63.3934 20.9014 63.4825 19.9286ZM62.8942 19.8748C62.8299 20.571 62.3374 20.9005 61.7923 20.8507C61.178 20.7941 60.8351 20.3419 60.8948 19.6913C60.9473 19.1153 61.3552 18.6675 61.9869 18.7256C62.6221 18.7837 62.9468 19.2985 62.8942 19.8748Z" fill="#401A49"/>
    <path d="M72.689 10.0767L93.2374 9.1634L94.1767 30.2988L73.6283 31.2121L72.689 10.0767Z" fill="#FFF5EE"/>
    <path d="M85.0914 12.4087C85.0914 13.1128 84.5207 13.6836 83.8164 13.6836C83.1124 13.6836 82.5415 13.1128 82.5415 12.4087C82.5415 11.7047 83.1124 11.1338 83.8164 11.1338C84.5205 11.1338 85.0914 11.7045 85.0914 12.4087Z" fill="#401A49"/>
    <path fill-rule="evenodd" clip-rule="evenodd" d="M76.0083 18.1184C76.1891 19.0321 76.3456 19.9388 76.4968 20.8334C76.5146 20.9394 76.5236 21.0278 76.5321 21.1102C76.5397 21.1841 76.5467 21.2532 76.5592 21.3262C76.5917 21.5185 76.6885 21.5992 76.8942 21.564C77.0304 21.5411 77.1652 21.5337 77.298 21.5264C77.4273 21.5192 77.5547 21.5122 77.6798 21.4912C79.3219 21.2131 79.6 19.8362 79.4539 18.9718C79.2905 18.0035 78.6216 17.1783 77.126 17.4315C77.0043 17.4521 76.8861 17.482 76.7686 17.5119C76.6535 17.541 76.5391 17.5701 76.4224 17.59C76.3663 17.5995 76.313 17.598 76.2614 17.5966C76.2129 17.5952 76.166 17.5939 76.1194 17.6018C75.9268 17.6345 75.8749 17.7597 75.8999 17.9044C75.9099 17.9656 75.9584 18.0542 76.0083 18.1184ZM78.8939 19.208C78.967 19.636 78.8725 20.7139 77.6154 20.9267C77.5166 20.9434 77.2287 20.9837 77.0799 20.9699L76.5839 18.1282C76.737 18.0921 76.9984 18.0349 77.1278 18.013C78.1059 17.8474 78.704 18.0827 78.8939 19.208Z" fill="#401A49"/>
    <path fill-rule="evenodd" clip-rule="evenodd" d="M83.3275 18.9149C83.1781 18.0352 82.4364 17.4249 81.4835 17.5859C80.6113 17.7335 80.0298 18.5673 80.1792 19.4473C80.3421 20.4105 81.1698 20.927 82.0241 20.7823C82.8757 20.6383 83.4901 19.8781 83.3275 18.9149ZM82.7442 19.0131C82.8604 19.7022 82.4692 20.1469 81.9292 20.2381C81.3209 20.341 80.8736 19.9921 80.7645 19.3482C80.6679 18.7777 80.9469 18.2398 81.573 18.1338C82.2022 18.0274 82.6473 18.4426 82.7442 19.0131Z" fill="#401A49"/>
    <path d="M84.527 19.8978C84.5214 19.8045 84.5159 19.6957 84.4934 19.5616C84.4486 19.2978 84.4083 19.0731 84.3609 18.8255C84.3573 18.8026 84.3502 18.7777 84.148 17.7038C84.1062 17.7191 84.0487 17.7338 83.9672 17.7476C83.8454 17.7686 83.6887 17.7191 83.6551 17.5183C83.6239 17.336 83.7147 17.2244 83.8492 17.2015C83.9027 17.1928 83.9568 17.2041 84.0122 17.1943C84.0806 17.1832 84.1514 17.169 84.2186 17.1496C84.291 17.1322 84.3689 17.114 84.4248 17.1048C84.5613 17.0815 84.6815 17.1598 84.7096 17.3248C84.7163 17.3656 84.7238 17.4237 84.7274 17.4756C84.9235 17.2157 85.2357 16.951 85.6743 16.8771C86.5311 16.7319 87.0691 17.2311 87.2352 18.2117C87.285 18.5082 87.2628 18.8845 87.1924 19.1911C87.2643 19.1555 87.3371 19.1223 87.3846 19.1092C87.5665 19.0604 87.6805 19.1321 87.7121 19.3196C87.7283 19.4158 87.7157 19.5565 87.5551 19.6436L87.2922 19.7531C86.9729 19.9141 86.9306 19.9573 86.8155 19.9715C86.6536 19.9991 86.544 19.8431 86.5211 19.7092C86.5033 19.6028 86.5109 19.479 86.5716 19.3746C86.7235 19.1005 86.7251 18.7097 86.6571 18.3094C86.5797 17.851 86.3098 17.3328 85.7367 17.4297C85.3388 17.4969 85.0041 17.8327 84.8182 18.1515C84.8412 18.3034 84.8652 18.4581 84.891 18.6131C84.9278 18.8758 84.9694 19.1372 85.0148 19.4038C85.0275 19.4797 85.0378 19.5592 85.0607 19.6456L85.1259 19.614C85.1596 19.5977 85.1959 19.5808 85.2237 19.5763C85.406 19.5452 85.518 19.6233 85.5472 19.7927C85.59 20.049 85.3724 20.1172 85.2014 20.1666C85.154 20.1797 85.1092 20.1926 85.0807 20.2078C84.9768 20.2572 84.9075 20.2944 84.849 20.304C84.6488 20.338 84.5744 20.2521 84.5464 20.0875C84.5357 20.0261 84.5297 19.9593 84.527 19.8978Z" fill="#401A49"/>
    <path fill-rule="evenodd" clip-rule="evenodd" d="M90.504 18.464C90.4486 18.5831 90.1949 18.8399 89.665 18.9296C89.3279 18.9866 88.8989 18.8869 88.6822 18.405C88.9734 18.2836 89.2605 18.1714 89.5447 18.0604C89.928 17.9106 90.306 17.763 90.681 17.5977C90.8289 17.5333 90.929 17.4153 90.9037 17.2655C90.8879 17.1742 90.838 17.076 90.7625 17.0306C90.5425 16.4713 89.9745 16.1497 89.323 16.2597C88.4184 16.4131 87.8408 17.1755 88.0098 18.175C88.126 18.8637 88.7504 19.6445 89.755 19.4744C90.3199 19.3787 90.6973 19.0806 90.9342 18.772C91.0435 18.6335 91.064 18.523 91.0533 18.4598C91.0252 18.2928 90.9081 18.2006 90.7405 18.2291C90.6516 18.244 90.553 18.352 90.504 18.464ZM89.3976 16.8104C89.7679 16.7478 90.0934 16.9618 90.2631 17.2561C89.9567 17.3863 89.6521 17.5061 89.3524 17.6239C89.0833 17.7296 88.8181 17.8339 88.5591 17.9428C88.5123 17.3563 88.8221 16.9077 89.3976 16.8104Z" fill="#401A49"/>
    <path d="M42.7193 43.3018H5.979C4.50947 43.3018 3.30713 42.0995 3.30713 40.63V28.5718C3.30713 27.1022 4.50947 25.8999 5.979 25.8999H42.7193C44.1888 25.8999 45.3912 27.1022 45.3912 28.5718V40.63C45.3912 42.0995 44.1888 43.3018 42.7193 43.3018Z" fill="#FFA766"/>
    <path d="M40.1083 30.4947H8.76725C8.57198 30.4947 8.41211 30.3348 8.41211 30.1396C8.41211 29.9443 8.57198 29.7844 8.76725 29.7844H40.1083C40.3036 29.7844 40.4635 29.9443 40.4635 30.1396C40.4635 30.3348 40.3036 30.4947 40.1083 30.4947Z" fill="white"/>
    <path d="M40.1083 33.2469H8.76725C8.57198 33.2469 8.41211 33.087 8.41211 32.8918C8.41211 32.6965 8.57198 32.5366 8.76725 32.5366H40.1083C40.3036 32.5366 40.4635 32.6965 40.4635 32.8918C40.4635 33.087 40.3036 33.2469 40.1083 33.2469Z" fill="white"/>
    <path d="M40.1083 35.9991H8.76725C8.57198 35.9991 8.41211 35.8392 8.41211 35.644C8.41211 35.4487 8.57198 35.2888 8.76725 35.2888H40.1083C40.3036 35.2888 40.4635 35.4487 40.4635 35.644C40.4635 35.8394 40.3036 35.9991 40.1083 35.9991Z" fill="white"/>
    <path d="M30.3417 38.7518H8.54548C8.472 38.7518 8.41211 38.6917 8.41211 38.6184V38.0863C8.41211 38.013 8.47223 37.9529 8.54548 37.9529H30.3417C30.4152 37.9529 30.4751 38.013 30.4751 38.0863V38.6186C30.4751 38.6917 30.4152 38.7518 30.3417 38.7518Z" fill="white"/>
    <path d="M26.4796 59.8574H15.0293V42.0144H15.29V59.5967H26.4796V59.8574Z" fill="#FFA766"/>
    <path d="M27.6339 59.7492C27.6339 60.5951 26.9481 61.2808 26.1022 61.2808C25.2564 61.2808 24.5708 60.5951 24.5708 59.7492C24.5708 58.9033 25.2564 58.2175 26.1022 58.2175C26.9483 58.2175 27.6339 58.9033 27.6339 59.7492Z" fill="#FFA766"/>
    <rect x="39.4424" y="82.7585" width="37.6892" height="20.4543" fill="#FF899A"/>
    <path d="M65.7183 84.6673L70.0917 76.134L70.5183 84.774L65.7183 84.6673Z" fill="#FF899A"/>
    <path fill-rule="evenodd" clip-rule="evenodd" d="M53.6131 87.4656C55.133 88.6223 56.1051 90.296 56.3636 92.185C56.6159 94.0738 56.1176 95.9506 54.9666 97.4642C54.856 97.6121 54.7391 97.7534 54.616 97.8888C53.4838 99.1626 51.9456 99.9809 50.2412 100.215C49.9213 100.258 49.5951 100.282 49.2751 100.282C47.7183 100.282 46.2169 99.7778 44.9618 98.818C42.9744 97.2981 41.9161 94.8122 42.1991 92.3264C42.2053 92.2835 42.2483 92.2587 42.2853 92.2587L49.1829 93.0525L48.5553 91.0651L47.0908 86.4381C47.0786 86.3951 47.1031 86.3519 47.1401 86.3396C49.349 85.6383 51.7733 86.0627 53.6131 87.4656ZM54.5485 97.735C54.6531 97.6181 54.7516 97.4952 54.8437 97.372C55.9699 95.8891 56.456 94.0554 56.2097 92.2093C55.9577 90.3573 55.0038 88.7205 53.5209 87.5883C52.2903 86.6531 50.8012 86.1609 49.2876 86.1609C48.6107 86.1609 47.9278 86.2593 47.2632 86.4623L48.7523 91.1755L49.3675 93.12C49.3735 93.1447 49.3675 93.1692 49.349 93.1877C49.3368 93.2122 49.306 93.2184 49.2813 93.2184L42.3469 92.4186C42.0947 94.8306 43.1285 97.2242 45.0604 98.6948C46.5436 99.827 48.3709 100.313 50.2229 100.061C51.9149 99.827 53.4348 99.0088 54.5485 97.735Z" fill="#401A49"/>
    <path d="M46.682 85.9829L48.8086 92.7439L41.7397 91.9002C41.8851 90.6752 42.3552 89.4715 43.1645 88.4221C44.0937 87.2171 45.331 86.3948 46.682 85.9829Z" fill="#401A49"/>
    <rect x="58.8916" y="87.6191" width="15.8578" height="0.928253" fill="#401A49"/>
    <rect x="58.8916" y="91.2546" width="15.8578" height="0.928253" fill="#401A49"/>
    <rect x="58.8916" y="93.3435" width="15.8578" height="0.928253" fill="#401A49"/>
    <rect x="58.8916" y="95.3547" width="15.8578" height="0.928253" fill="#401A49"/>
    <rect x="58.8916" y="97.2112" width="10.559" height="0.966995" fill="#401A49"/>
    <ellipse cx="102.755" cy="53.4995" rx="7.22473" ry="7.22495" transform="rotate(-80.7524 102.755 53.4995)" fill="#FFA766"/>
    <path fill-rule="evenodd" clip-rule="evenodd" d="M96.3994 54.1999C96.3994 58.2015 99.6546 61.4567 103.656 61.4567C107.657 61.4567 110.913 58.2015 110.913 54.1999C110.913 50.1983 107.658 46.9429 103.656 46.9429C99.6546 46.9429 96.3994 50.1986 96.3994 54.1999ZM96.5297 54.1999C96.5297 50.2702 99.7266 47.0733 103.656 47.0733C107.585 47.0733 110.782 50.2702 110.782 54.1999C110.782 58.1293 107.585 61.3262 103.656 61.3262C99.7266 61.3262 96.5297 58.1293 96.5297 54.1999Z" fill="white"/>
    <path d="M110.848 54.2652H96.5091C96.4732 54.2652 96.4438 54.2358 96.4438 54.2C96.4438 54.1641 96.4732 54.1347 96.5091 54.1347H110.848C110.884 54.1347 110.913 54.1641 110.913 54.2C110.913 54.2358 110.884 54.2652 110.848 54.2652Z" fill="white"/>
    <path d="M103.756 61.4234C103.72 61.4234 103.691 61.3944 103.691 61.3584L103.624 47.0418C103.624 47.0059 103.653 46.9765 103.689 46.9763H103.689C103.725 46.9763 103.754 47.0053 103.755 47.0413L103.821 61.3579C103.821 61.3938 103.792 61.4231 103.756 61.4234H103.756Z" fill="white"/>
    <path d="M102.866 61.4178C102.857 61.4178 102.849 61.416 102.841 61.4118C101.814 60.8923 100.924 59.7626 100.398 58.3129C99.9563 57.0947 99.7464 55.6272 99.7733 53.9512C99.7982 52.3909 100.026 51.0356 100.449 49.9223C100.964 48.5692 102.125 47.4835 103.048 47.0082C103.075 46.9946 103.109 47.0048 103.124 47.0326C103.138 47.0603 103.127 47.0943 103.099 47.1086C102.03 47.6592 100.984 48.8328 100.555 49.9626C100.136 51.0634 99.9109 52.406 99.886 53.9535C99.8592 55.6154 100.067 57.0693 100.504 58.2748C101.02 59.6976 101.89 60.8044 102.892 61.3116C102.919 61.3256 102.931 61.3595 102.916 61.3873C102.906 61.4064 102.887 61.4178 102.866 61.4178Z" fill="white"/>
    <path d="M104.571 61.3179C104.554 61.3179 104.537 61.3108 104.525 61.2965C104.504 61.2711 104.508 61.2335 104.533 61.2124C107.638 58.6309 107.536 55.004 107.19 52.5003C107.015 51.2391 106.683 50.1477 106.203 49.2559C105.65 48.2286 104.878 47.45 104.03 47.0639C104 47.0503 103.986 47.0149 104 46.9848C104.014 46.9546 104.05 46.9408 104.079 46.9552C104.951 47.352 105.743 48.1489 106.308 49.1994C106.795 50.1036 107.131 51.2086 107.308 52.4838C107.658 55.0154 107.76 58.6843 104.609 61.3039C104.598 61.3137 104.585 61.3179 104.571 61.3179Z" fill="white"/>
    <path d="M96.4646 54.1984C96.4579 54.1984 96.4513 54.1973 96.4448 54.1953C96.4105 54.1842 96.3916 54.1474 96.4025 54.1134C96.9961 52.2678 98.3104 50.784 99.8319 50.2405C100.332 50.0619 100.902 49.941 101.627 49.86C103.448 49.6549 105.145 49.7992 106.671 50.2866C108.11 50.7466 109.945 51.9687 110.775 54.0201C110.789 54.0535 110.772 54.0913 110.739 54.1049C110.706 54.1183 110.667 54.1027 110.654 54.0691C109.841 52.0598 108.043 50.8617 106.631 50.4108C105.123 49.9288 103.444 49.7876 101.642 49.9893C100.928 50.0695 100.366 50.1882 99.8757 50.3632C98.3917 50.8935 97.1083 52.3455 96.5267 54.153C96.5178 54.1811 96.4922 54.1984 96.4646 54.1984Z" fill="white"/>
    <path d="M102.813 58.4144C102.226 58.4144 101.662 58.3512 101.121 58.2247C99.3785 57.8172 97.2372 56.5559 96.4528 54.2374C96.441 54.2033 96.4595 54.1663 96.4935 54.1548C96.5276 54.1421 96.5648 54.1617 96.5761 54.1955C97.3439 56.4633 99.4424 57.6981 101.15 58.0976C102.872 58.5004 104.842 58.2492 107.004 57.351C108.699 56.647 110.067 55.5114 110.757 54.2351C110.774 54.2038 110.813 54.1915 110.845 54.2089C110.877 54.226 110.888 54.2654 110.872 54.2973C110.168 55.5994 108.776 56.7563 107.054 57.4712C105.543 58.0994 104.123 58.4144 102.813 58.4144Z" fill="white"/>
    <path fill-rule="evenodd" clip-rule="evenodd" d="M95.9598 31.5063C98.2632 31.5063 100.309 32.6499 101.544 34.4056C102.338 35.5168 102.805 36.8806 102.805 38.3517C102.805 42.1262 99.7343 45.1973 95.9598 45.1973C94.4295 45.1973 93.012 44.6925 91.8685 43.8388C90.1934 42.5879 89.1089 40.5958 89.1089 38.3517C89.1089 34.5774 92.1853 31.5063 95.9598 31.5063ZM91.9115 43.7206C93.039 44.5689 94.4457 45.0737 95.9598 45.0737C99.6644 45.0737 102.682 42.0618 102.682 38.3517C102.682 36.8913 102.214 35.5435 101.431 34.443C100.207 32.7356 98.2091 31.6241 95.9596 31.6241C92.2497 31.6241 89.2322 34.6416 89.2322 38.3515C89.2322 40.5422 90.2847 42.4911 91.9115 43.7206Z" fill="white"/>
    <path d="M101.059 67.7569C100.504 67.7569 100.054 67.3067 100.054 66.7516C100.054 66.1963 100.504 65.7463 101.059 65.7463C101.614 65.7463 102.064 66.1963 102.064 66.7516C102.064 67.3069 101.614 67.7569 101.059 67.7569Z" fill="#FFF5EE"/>
    <path d="M101.059 71.047C100.504 71.047 100.054 70.597 100.054 70.0417C100.054 69.4866 100.504 69.0364 101.059 69.0364C101.614 69.0364 102.064 69.4864 102.064 70.0417C102.064 70.597 101.614 71.047 101.059 71.047Z" fill="#FFF5EE"/>
    <path d="M101.059 71.047C100.504 71.047 100.054 70.597 100.054 70.0417C100.054 69.4866 100.504 69.0364 101.059 69.0364C101.614 69.0364 102.064 69.4864 102.064 70.0417C102.064 70.597 101.614 71.047 101.059 71.047Z" fill="#FFF5EE"/>
    <path d="M101.059 74.3368C100.504 74.3368 100.054 73.8868 100.054 73.3315C100.054 72.7764 100.504 72.3262 101.059 72.3262C101.614 72.3262 102.064 72.7764 102.064 73.3315C102.064 73.8868 101.614 74.3368 101.059 74.3368Z" fill="#FFF5EE"/>
    <ellipse cx="24.206" cy="90.7128" rx="1.00529" ry="1.00529" fill="#FFF5EE"/>
    <ellipse cx="27.496" cy="90.7128" rx="1.00529" ry="1.00529" fill="#FFF5EE"/>
    <ellipse cx="27.496" cy="90.7128" rx="1.00529" ry="1.00529" fill="#FFF5EE"/>
    <path d="M31.7913 90.7128C31.7913 91.2681 31.3414 91.7181 30.7861 91.7181C30.231 91.7181 29.7808 91.2681 29.7808 90.7128C29.7808 90.1577 30.2307 89.7075 30.7861 89.7075C31.3411 89.7075 31.7913 90.1575 31.7913 90.7128Z" fill="#FFF5EE"/>
    <circle cx="31.3085" cy="19.685" r="1.00529" fill="#FFF5EE"/>
    <circle cx="34.5986" cy="19.685" r="1.00529" fill="#FFF5EE"/>
    <circle cx="34.5986" cy="19.685" r="1.00529" fill="#FFF5EE"/>
    <circle cx="37.8886" cy="19.685" r="1.00529" fill="#FFF5EE"/>
    </svg>
    