<svg width="693" height="725" viewBox="0 0 693 725" fill="none" xmlns="http://www.w3.org/2000/svg">
    <rect y="189" width="448" height="536" rx="32" fill="#EDECFF"/>
    <path d="M301.242 27.8109L301.529 28.1426C301.45 28.0187 301.354 27.907 301.242 27.8109V27.8109Z" fill="#FFB6AD"/>
    <path d="M301.243 27.8108C301.187 27.7629 301.119 27.7316 301.046 27.7204L301.243 27.8108Z" fill="#FFB6AD"/>
    <path d="M280.963 23.2574L284.401 26.5443C284.401 26.5443 288.517 21.5536 299.644 26.3935C306.942 18.7492 303.082 14.3315 299.463 11.8587C296.282 9.65739 285.32 19.3071 280.963 23.3328V23.2574Z" fill="#FFB6AD"/>
    <path d="M297.006 21.7495C295.989 20.6796 295.047 19.5411 294.186 18.342C293.628 17.2635 292.889 16.2892 292 15.4622C290.959 14.7385 289.979 16.4271 291.005 17.1509C291.475 17.6368 291.863 18.1972 292.151 18.8094C292.497 19.3371 292.874 19.8498 293.266 20.3172C294 21.2831 294.786 22.2091 295.618 23.0914C296.478 24.0564 297.865 22.6693 297.006 21.7495Z" fill="#FF9C90"/>
    <path d="M301.529 28.1425L301.243 27.8108L301.047 27.7203C299.708 27.8598 298.394 28.1793 297.141 28.6702C298.091 27.856 298.921 27.072 299.644 26.3181C288.517 21.4782 284.401 26.4689 284.401 26.4689L280.963 23.2573V23.2573L279.169 24.946L288.698 41.5314C300.7 30.2835 301.966 28.9868 301.529 28.1425Z" fill="#FF9C90"/>
    <path d="M278.943 24.5391L279.169 24.9462L287.552 39.496L288.698 41.4712C285.788 44.2757 282.35 48.1054 278.596 52.5533L261.422 35.3497C271.735 28.3688 278.943 24.5391 278.943 24.5391Z" fill="#FFE7E0"/>
    <path d="M191.281 114.854C191.025 115.502 190.799 116.15 190.588 116.769C190.467 117.115 190.347 117.477 190.241 117.824C189.7 119.532 189.277 121.275 188.975 123.041L188.839 124.006C188.7 125.187 188.645 126.376 188.673 127.564C188.657 127.835 188.657 128.107 188.673 128.378C188.689 128.782 188.73 129.185 188.794 129.585C188.823 129.883 188.868 130.18 188.929 130.474C188.929 130.791 189.065 131.122 189.14 131.454C189.216 131.786 189.261 131.967 189.336 132.208L189.427 132.464C189.517 132.766 189.608 133.052 189.713 133.339V133.339C189.804 133.595 189.924 133.867 190.03 134.123C190.084 134.219 190.13 134.32 190.166 134.424C190.256 134.636 190.362 134.847 190.467 135.043V135.148C190.618 135.45 190.784 135.736 190.95 136.038L191.462 136.882L191.794 137.365L192.141 137.862L192.261 138.013C192.427 138.254 192.608 138.48 192.789 138.722L193 138.963C193.151 139.144 193.302 139.34 193.468 139.506C193.56 139.628 193.661 139.744 193.769 139.852C193.98 140.094 194.191 140.32 194.418 140.546C194.644 140.772 195.021 141.164 195.352 141.466C195.684 141.767 195.971 142.054 196.302 142.34C197.945 143.766 199.678 145.085 201.489 146.291L202.318 146.848C202.861 147.195 203.449 147.572 204.052 147.934C204.369 148.145 204.716 148.341 205.062 148.552L207.656 150.06C210.326 143.23 210.088 135.606 206.995 128.956C203.902 122.307 198.225 117.212 191.281 114.854V114.854Z" fill="#A76C50"/>
    <path d="M190.316 117.824C190.422 117.477 190.542 117.115 190.663 116.769C190.467 117.131 190.316 117.477 190.316 117.824Z" fill="#00727F"/>
    <path d="M188.809 123.991L188.944 123.026L188.809 123.991Z" fill="#00727F"/>
    <path d="M233.801 112.562C233.801 112.562 259.855 74.868 278.596 52.5532L261.423 35.3496C244.264 46.9594 218.421 67.3292 202.469 93.3984C198.112 100.205 194.368 107.385 191.282 114.854C198.231 117.194 203.921 122.274 207.03 128.915C210.14 135.555 210.399 143.179 207.746 150.015C211.244 152.005 215.285 154.056 219.703 156.242C223.095 157.915 226.774 159.68 230.74 161.564C241.912 167.022 256.764 169.993 259.629 170.807L289.075 130.233L299.464 117.99C283.903 114.974 262.689 112.698 233.801 112.562Z" fill="#B57A60"/>
    <path d="M289.075 130.233L299.463 117.99C297.126 117.538 294.638 117.1 292.045 116.678L291.653 116.769L236.514 164.067V164.067C244.084 166.799 251.82 169.05 259.673 170.807L289.075 130.233Z" fill="#A76C50"/>
    <path d="M215.949 113.889C214.079 114.07 214.109 111.13 215.949 110.964C222.583 110.33 229.227 109.883 235.881 109.622L233.831 112.637L215.949 113.889Z" fill="#A76C50"/>
    <ellipse cx="279.772" cy="41.7273" rx="2.29179" ry="2.2918" fill="#2E3257"/>
    <path d="M340.836 259.222C304.318 289.618 255.889 308.405 255.889 308.405L230.92 281.009C297.925 290.282 338.68 260.82 340.836 259.222Z" fill="#DA9C80"/>
    <path d="M380.294 199.288C379.133 208.08 376.221 216.55 371.73 224.197L371.504 224.076L208.561 256.357C208.937 253.734 218.904 189.744 297.714 117.538C297.714 117.538 387.833 135.555 380.294 199.288Z" fill="#DA9C80"/>
    <path d="M208.545 256.448L209.917 257.955C208.409 257.639 207.083 257.307 205.741 256.915L208.56 256.357C208.552 256.387 208.547 256.417 208.545 256.448V256.448Z" fill="#DA9C80"/>
    <path d="M371.534 224.061C371.534 224.061 262.297 269.038 209.917 257.955L208.545 256.448C208.542 256.418 208.542 256.387 208.545 256.357L371.534 224.061Z" fill="#DA9C80"/>
    <path d="M371.534 224.061L371.761 224.182C364.493 236.998 353.396 248.743 340.927 259.132H340.836C338.68 260.73 297.925 290.191 230.921 280.919L209.917 257.955C262.297 269.038 371.534 224.061 371.534 224.061Z" fill="#B57A60"/>
    <path d="M234.75 192.865C248.969 206.569 266.657 216.135 285.909 220.533C288.366 221.106 289.407 217.336 286.949 216.779C268.037 212.454 250.693 202.971 236.846 189.383C236.138 190.589 235.429 191.735 234.75 192.865Z" fill="#FF3D0A"/>
    <path d="M231.267 208.049C235.617 211.35 240.272 214.228 245.169 216.643C255.045 221.603 265.599 225.071 276.093 228.464C278.491 229.248 279.516 225.448 277.134 224.694C267.888 221.922 258.824 218.578 249.994 214.683C246.082 212.881 242.294 210.821 238.656 208.516C235.361 206.658 232.277 204.449 229.458 201.927C228.825 203.058 228.222 204.174 227.634 205.274C228.885 206.284 230.152 207.189 231.267 208.049Z" fill="#FF3D0A"/>
    <path d="M307.394 211.14C309.897 211.381 309.882 207.461 307.394 207.234C283.638 204.944 261.593 193.867 245.576 176.175L243.299 179.461C260.022 197.569 282.852 208.853 307.394 211.14Z" fill="#FF3D0A"/>
    <path fill-rule="evenodd" clip-rule="evenodd" d="M116.708 629.83C87.1254 661.9 152.276 678.259 173.626 676.389C197.674 674.218 220.366 664.614 243.148 656.788C280.36 644.003 314.013 647.893 352.431 648.496C387.652 649.038 427.035 644.907 452.38 617.662C459.301 610.214 465.136 600.338 463.086 590.387C460.839 579.501 449.832 572.489 438.961 570.062C408.806 563.322 374.746 578.943 346.415 587.944C302.137 601.982 256.384 610.856 210.068 614.39C190.859 615.898 172.827 607.017 153.557 610.41C142.068 612.445 125.845 619.909 116.708 629.83Z" fill="#FF9637"/>
    <path d="M569.744 194.629C564.136 207.34 562.206 213.311 553.295 212.195H553.144V211.984C557.667 209.843 560.004 203.751 564.362 193.891C570.393 180.321 574.795 183.864 588.034 172.224C598.482 163.042 600.684 158.654 599.372 155.639C599.788 156.173 600.242 156.676 600.729 157.146C604.091 159.875 604.091 163.6 591.682 174.456C579.274 185.311 575.338 181.919 569.744 194.629Z" fill="#211E21"/>
    <path d="M242.274 639.163V639.163C238.897 645.676 225.448 652.506 206.239 653.079C173.415 654.059 168.545 643.203 162.514 632.83C156.483 622.457 145.732 623.949 136.595 610.364C131.122 602.238 131.333 596.795 134.499 592.271C135.291 595.669 136.758 598.874 138.812 601.695C148.416 615.973 159.92 614.42 166.087 625.321C172.254 636.222 177.516 647.666 212.059 646.626C224.995 646.234 235.55 643.128 242.274 639.163Z" fill="#211E21"/>
    <path d="M180.049 556.733L200.871 584.521C196.069 589.134 192.427 594.817 190.241 601.107L175.164 560.865C178.134 558.151 180.049 556.733 180.049 556.733Z" fill="#320D18"/>
    <path d="M232.669 628.141C241.987 630.086 244.732 634.534 242.289 639.163V639.163C235.549 643.128 224.995 646.234 212.119 646.596C177.576 647.636 172.374 636.207 166.147 625.291C159.92 614.375 148.476 615.943 138.872 601.665C136.807 598.846 135.33 595.642 134.529 592.241C137.187 588.948 140.402 586.146 144.028 583.964C153.904 577.299 163.282 572.369 169.449 566.202C171.56 564.091 173.46 562.312 175.043 560.91L190.12 601.152C189.044 604.362 188.534 607.734 188.613 611.118C189.231 626.407 210.204 623.452 232.669 628.141Z" fill="#6A3445"/>
    <path d="M599.402 155.624C600.714 158.534 598.513 162.966 588.064 172.209C574.826 183.849 570.408 180.23 564.392 193.876C560.035 203.782 557.773 209.873 553.174 211.969V212.18C544.203 211.124 529.819 215.301 523.276 225.131L498.036 207.295C498.036 207.295 513.716 190.528 558.919 171.108C594.668 155.714 597.94 154.237 599.402 155.624Z" fill="#6A3445"/>
    <ellipse cx="529.895" cy="200.389" rx="8.21732" ry="8.2173" fill="white"/>
    <ellipse cx="169.886" cy="587.115" rx="8.21729" ry="8.21729" fill="white"/>
    <path d="M192.714 610.229C187.542 606.806 181.662 609.038 177.32 612.686C175.812 613.893 177.953 615.958 179.385 614.752C182.763 611.933 187.21 610.093 191.236 612.762C192.804 613.802 194.282 611.269 192.714 610.229Z" fill="white"/>
    <path d="M193.211 616.365C189.589 616.499 186.166 618.053 183.682 620.693C182.386 622.065 184.451 624.13 185.748 622.758C187.696 620.641 190.411 619.392 193.287 619.29C195.081 619.2 195.096 616.275 193.211 616.365Z" fill="white"/>
    <path d="M198.881 619.531C196.046 621.264 193.753 623.755 192.262 626.724C191.417 628.397 193.95 629.89 194.795 628.231C196.033 625.706 197.962 623.583 200.358 622.11C201.957 621.069 200.494 618.536 198.881 619.531Z" fill="white"/>
    <path d="M554.366 167.957C551.043 172.029 550.451 177.684 552.858 182.356C553.687 184.045 556.22 182.552 555.376 180.848C553.609 177.318 554.05 173.083 556.507 169.993C557.607 168.56 555.557 166.48 554.366 167.957Z" fill="white"/>
    <path d="M563.291 164.173C561.256 164.776 560.653 168.379 560.351 170.204C560.004 172.315 559.808 175.481 561.301 177.23C561.68 177.598 562.223 177.741 562.733 177.607H562.884C563.438 177.477 563.859 177.024 563.948 176.462C564.037 175.9 563.778 175.339 563.291 175.044C562.718 174.094 563.095 171.531 563.291 170.671C563.414 169.985 563.59 169.309 563.819 168.651C563.912 168.312 564.028 167.979 564.166 167.656C564.339 167.4 564.486 167.127 564.603 166.842C565.201 166.412 565.4 165.613 565.076 164.952C564.751 164.292 563.997 163.962 563.291 164.173V164.173Z" fill="white"/>
    <path d="M573.363 162.695C574.69 161.338 572.609 159.273 571.297 160.614C568.071 163.916 567.935 169.495 568.87 173.732C569.092 174.318 569.653 174.705 570.28 174.705C570.906 174.705 571.467 174.318 571.689 173.732C571.689 173.521 571.795 173.295 571.84 173.069C571.958 172.586 571.815 172.077 571.463 171.727C571.026 168.696 571.237 164.881 573.363 162.695Z" fill="white"/>
    <path d="M183.607 529.096L221.829 579.893C211.44 586.09 204.716 589.693 204.716 589.693L176.913 552.557C177.078 544.289 179.385 536.206 183.607 529.096V529.096Z" fill="#349D7B"/>
    <path d="M367.795 416.21C370.986 416.205 374.152 416.771 377.143 417.884C376.374 437.696 369.107 454.07 358.492 468.303C346.291 463.784 339.077 451.176 341.365 438.367C343.652 425.559 354.784 416.227 367.795 416.21V416.21Z" fill="#349D7B"/>
    <path d="M354.919 348.919C354.301 348.828 331.714 345.903 292.362 389.342C285.699 382.482 278.454 376.211 270.71 370.6V370.6C271.585 370.208 272.459 369.786 273.319 369.334C273.696 369.153 274.058 368.957 274.42 368.746C274.781 368.535 275.385 368.233 275.927 367.962C285.155 362.715 291.714 358.629 297.292 355.296L298.514 354.558C300.926 353.14 303.173 351.844 305.404 350.652C306.324 350.155 307.243 349.672 308.178 349.22C311.113 347.751 314.134 346.462 317.225 345.36L318.16 345.013C320.195 344.305 322.366 343.611 324.764 342.918L326.181 342.526C327.493 342.164 328.88 341.802 330.357 341.425L331.549 341.139L335.966 340.113L338.002 339.676C340.248 339.178 342.646 338.681 345.239 338.168C348.809 341.427 352.051 345.028 354.919 348.919Z" fill="#349D7B"/>
    <path d="M376.45 402.097C377.114 407.331 377.346 412.611 377.143 417.884C368.134 414.552 358.031 416.28 350.642 422.416C343.252 428.553 339.697 438.165 341.316 447.633C342.935 457.102 349.483 464.987 358.492 468.318C341.213 491.628 315.054 509.571 293.658 528.629C269.534 550.099 240.042 569.006 221.783 579.892L183.607 529.096C198.172 502.997 234.132 479.34 266.926 466.087C309.369 448.989 303.625 422.618 303.112 407.963C302.931 402.354 298.167 395.584 292.316 389.342C331.669 345.918 354.255 348.828 354.873 348.919V348.919C366.669 364.409 374.118 382.767 376.45 402.097Z" fill="#48B290"/>
    <path d="M307.409 362.941C306.55 361.252 304.017 362.73 304.876 364.449C320.738 395.312 328.744 436.927 300.654 463.689C289.557 474.244 275.264 480.576 261.558 487.014C247.852 493.453 234.418 500.75 222.356 510.475C208.891 521.471 197.394 534.676 188.356 549.526C188.13 550.199 188.404 550.939 189.014 551.303C189.624 551.666 190.406 551.554 190.889 551.034C199.808 536.393 211.158 523.381 224.452 512.556C237.434 502.002 252.104 494.704 267.152 487.618C280.812 481.195 294.834 474.334 305.298 463.162C316.154 451.567 321.612 436.112 322.366 420.402C323.346 400.183 316.501 380.642 307.409 362.941Z" fill="#349D7B"/>
    <path d="M255.889 298.635L242.922 303.053C230.86 299.555 194.071 266.565 194.071 266.565C197.932 261.99 202.922 258.502 208.545 256.448L255.889 298.635Z" fill="#48B290"/>
    <path d="M194.071 281.16L180.833 322.442L173.158 325.579C171.153 310.501 175.33 295.423 183.487 281.371C184.482 279.652 185.597 277.843 186.804 276.003L194.071 281.16Z" fill="#48B290"/>
    <path d="M506.479 212.497C518.918 221.438 527.859 223.775 524.361 235.822C523.818 237.691 523.004 240.782 521.677 244.763V244.763L477.952 214.05C480.561 212.238 483.078 210.295 485.491 208.23C489.381 204.34 494.055 203.571 506.479 212.497Z" fill="#48B290"/>
    <path d="M382.526 262.373V262.72C382.513 276.426 372.187 287.925 358.562 289.407C344.937 290.888 332.38 281.877 329.422 268.495C336.433 265.6 349.913 262.072 372.74 263.022C376.016 263.136 379.294 262.919 382.526 262.373Z" fill="#48B290"/>
    <path d="M194.071 266.565C194.071 266.565 230.8 299.554 242.922 303.052L255.889 298.635C255.889 298.635 304.529 282.17 323.18 271.872C325.111 270.454 327.233 269.317 329.483 268.495C332.441 281.877 344.997 290.888 358.623 289.407C372.248 287.925 382.574 276.425 382.586 262.72V262.373C414.083 257.503 460.01 227.167 478.043 214.125L521.768 244.838V244.838C514.41 266.535 490.874 314.195 405.142 327.991C377.792 332.409 358.99 335.53 345.239 338.229C342.646 338.741 340.248 339.239 338.002 339.736L335.966 340.174L331.548 341.199L330.357 341.485C328.85 341.862 327.493 342.224 326.181 342.586L324.764 342.978C322.366 343.672 320.24 344.365 318.16 345.074L317.225 345.421C314.134 346.523 311.113 347.812 308.178 349.28C307.243 349.733 306.324 350.215 305.404 350.713C303.172 351.904 300.881 353.201 298.513 354.618L297.292 355.357C291.713 358.689 285.155 362.775 275.927 368.022C275.445 368.293 274.962 368.565 274.419 368.806C273.877 369.047 273.681 369.213 273.319 369.394C272.459 369.831 271.585 370.253 270.71 370.66V370.66C239.319 385.21 196.604 377.853 179.551 345.375C176.255 339.211 174.09 332.506 173.158 325.578L180.833 322.442L194.071 281.16L186.803 276.003C188.968 272.667 191.399 269.511 194.071 266.565Z" fill="#7AC7AE"/>
    <path d="M246.586 299.072C237.056 301.929 227.809 305.659 218.964 310.214C217.29 311.089 218.828 313.577 220.472 312.717C229.073 308.281 238.068 304.651 247.34 301.876C247.922 301.531 248.202 300.841 248.027 300.188C247.851 299.535 247.262 299.079 246.586 299.072Z" fill="#48B290"/>
    <path d="M511.59 234.887C500.568 257.845 482.587 276.744 460.206 288.895C434.016 303.053 404.675 303.716 375.771 307.093C361.643 308.737 347.682 311.33 334.368 316.487C322.267 321.448 310.571 327.346 299.388 334.128C287.145 341.244 275.083 348.738 262.297 354.859C248.848 361.282 233.469 365.745 219.371 358.644C206.425 351.835 197.723 339.023 196.167 324.478C194.448 308.481 200.765 292.634 210.852 280.436C212.059 278.928 209.993 276.908 208.787 278.371C192.503 297.971 186.276 327.358 203.027 348.768C209.978 357.679 220.2 364.117 231.584 365.172C246.526 366.544 260.85 359.232 273.605 352.356C301.65 337.279 327.523 318.492 359.457 312.446C389.974 306.641 421.969 308.737 451.084 296.494C478.688 284.779 501.089 263.423 514.108 236.41C514.922 234.615 512.404 233.183 511.59 234.887Z" fill="#48B290"/>
    <path d="M136.942 201.61L124.88 225.116C122.156 223.789 119.407 222.503 116.632 221.256C115.471 220.729 114.31 220.201 113.149 219.643L132.509 199.545C133.941 200.268 135.434 200.932 136.942 201.61Z" fill="#FF9C90"/>
    <path d="M132.449 199.545L113.089 219.643C85.5121 206.27 97.2576 199.575 101.208 192.157C105.158 184.739 116.994 190.167 116.994 190.167C116.994 190.167 122.739 177.32 126.403 179.115C130.066 180.909 126.403 196.529 126.403 196.529C128.393 197.585 130.413 198.595 132.449 199.545Z" fill="#FFB6AD"/>
    <path d="M106.741 195.413C104.847 199.799 103.334 204.339 102.218 208.983C102.082 209.46 102.323 209.964 102.781 210.156C103.238 210.349 103.767 210.169 104.012 209.737L104.389 209.119C104.54 208.847 104.54 208.517 104.389 208.245C105.402 204.183 106.727 200.205 108.355 196.348C108.898 195.172 107.239 194.177 106.741 195.413Z" fill="#FF9C90"/>
    <path d="M149.245 206.511L138.796 232.052C134.152 229.7 129.508 227.363 124.819 225.116L136.881 201.61C140.967 203.374 145.084 204.988 149.245 206.511Z" fill="#FFE7E0"/>
    <path d="M270.122 266.776L268.614 266.881L266.036 267.062H265.84C257.958 267.547 250.055 267.588 242.168 267.183V267.183C239.484 267.032 236.801 266.836 234.117 266.595L231.388 266.278L228.93 265.977L228.176 265.886C231.69 257.279 240.139 251.723 249.434 251.907C258.729 252.091 266.951 257.976 270.122 266.716V266.776Z" fill="#DA9C80"/>
    <path d="M376.555 186.669C382.888 198.384 381.078 212.496 374.339 223.609C365.594 237.993 350.411 246.768 334.941 252.377C314.066 260.038 292.263 264.88 270.107 266.776C266.936 258.037 258.714 252.151 249.419 251.967C240.124 251.783 231.675 257.34 228.161 265.947C213.692 263.87 199.537 260.006 186.019 254.442C175.239 250.145 164.579 245.17 154.13 239.847C149.004 237.264 143.888 234.666 138.781 232.052L149.23 206.511C165.981 212.542 183.622 216.854 200.494 221.302C209.617 223.738 218.904 225.512 228.282 226.609C250.37 228.931 272.634 224.354 292.015 213.507C301.786 208.113 310.852 201.529 319.004 193.906C327.357 186.126 332.076 174.802 343.626 170.807C356.758 166.269 370.388 175.3 376.555 186.669Z" fill="#E4AE95"/>
    <ellipse cx="138.796" cy="211.064" rx="2.2918" ry="2.29179" fill="#2E3257"/>
    <path d="M324.507 128.755C321.481 129.918 318.521 131.247 315.642 132.736C315.185 132.914 314.795 133.23 314.526 133.641C314.375 134.008 314.313 134.406 314.345 134.801C314.424 139.511 314.99 144.2 316.034 148.794C316.089 149.17 316.246 149.524 316.486 149.819C317.074 150.392 317.994 150.09 318.778 149.819L328.82 145.296L329.468 153.98C329.457 154.345 329.563 154.704 329.77 155.005C330.184 155.364 330.739 155.514 331.277 155.413C337.795 155.008 344.151 153.208 349.913 150.135C349.575 147.077 348.985 144.051 348.149 141.089C347.976 140.381 347.629 139.728 347.139 139.189C346.727 138.839 346.251 138.572 345.737 138.405C338.65 135.45 330.659 133.233 324.507 128.755Z" fill="#FFE7E0"/>
    <path d="M344.108 142.868C345.472 141.206 346.736 139.464 347.893 137.651L353.155 129.826L329.619 117.568C328.382 116.92 323.934 129.238 323.588 130.429C322.543 134.829 323.326 139.463 325.759 143.275C327.4 145.93 330.122 147.732 333.207 148.206C336.423 148.392 339.575 147.259 341.937 145.069C342.713 144.389 343.438 143.653 344.108 142.868Z" fill="#FFB6AD"/>
    <path d="M323.618 130.429C323.411 131.367 323.28 132.32 323.226 133.279C331.975 132.764 340.752 133.562 349.265 135.646L353.155 129.826L329.618 117.568C328.352 116.92 323.904 129.238 323.618 130.429Z" fill="#FF9C90"/>
    <path d="M381.094 83.5679C382.119 84.5931 389.13 91.1067 390.939 97.1377C392.131 101.103 381.139 102.973 381.139 102.973L381.094 83.5679Z" fill="#FF8178"/>
    <ellipse cx="354.983" cy="100.723" rx="31.9344" ry="29.6275" transform="rotate(-61.76 354.983 100.723)" fill="#FFB6AD"/>
    <ellipse cx="363.739" cy="112.637" rx="12.6953" ry="12.6953" fill="#FF8178"/>
    <ellipse cx="367.78" cy="96.6553" rx="3.42262" ry="3.42262" fill="#211E21"/>
    <path d="M380.762 72.1994C374.885 67.9147 367.953 65.3088 360.709 64.6606C353.437 64.2473 346.165 65.4577 339.419 68.2039C333.257 70.4089 327.782 74.1941 323.542 79.1804C318.914 85.0455 317.029 92.4486 316.245 99.7613C315.506 106.787 314.737 113.738 319.622 119.543C320.154 119.985 320.713 120.393 321.296 120.764C325.186 122.785 327.101 120.764 328.428 116.965C329.317 114.462 329.935 111.914 330.945 109.426V109.034C331.089 108.404 331.089 107.749 330.945 107.119C330.538 105.928 329.227 105.34 328.397 104.39C327.356 102.988 327.106 101.15 327.734 99.52C328.403 97.9354 329.353 96.4848 330.538 95.238C331.518 94.0469 332.921 92.7351 334.398 93.2176C334.67 93.3081 335.574 93.9413 335.62 94.2127C335.642 95.4829 335.39 96.7428 334.881 97.9067C334.564 98.9169 334.157 99.8819 333.886 100.922C333.608 101.581 333.459 102.288 333.448 103.003C333.415 104.445 334.407 105.709 335.816 106.018C336.897 106.037 337.9 105.457 338.424 104.511C339.856 102.264 340.64 99.0828 341.741 96.6251C342.495 94.9817 343.098 91.9812 344.545 90.9107C345.137 90.537 345.809 90.3096 346.506 90.2473C352.821 89.3428 359.072 88.0282 365.217 86.3121C368.193 85.4311 371.084 84.2857 373.856 82.8894C375.937 81.834 380.37 79.8739 381.531 77.7631C382.34 76.9968 382.729 75.8873 382.577 74.7835C382.424 73.6798 381.748 72.7175 380.762 72.1994V72.1994Z" fill="#6A3445"/>
    <path d="M136.504 147.376H119.256C118.244 147.287 117.467 146.44 117.467 145.424C117.467 144.408 118.244 143.56 119.256 143.471H136.504C137.516 143.56 138.293 144.408 138.293 145.424C138.293 146.44 137.516 147.287 136.504 147.376V147.376Z" fill="#FF3D0A"/>
    <path d="M127.88 155.985C126.803 155.986 125.928 155.117 125.92 154.04V136.807C125.92 135.724 126.797 134.847 127.88 134.847C128.963 134.847 129.84 135.724 129.84 136.807V154.04C129.832 155.117 128.957 155.986 127.88 155.985Z" fill="#FF3D0A"/>
    <path d="M111.008 167.912H99.5342C98.7956 167.977 98.0836 167.62 97.6943 166.989C97.305 166.358 97.305 165.561 97.6943 164.93C98.0836 164.299 98.7956 163.942 99.5342 164.007H111.008C112.02 164.096 112.797 164.943 112.797 165.959C112.797 166.975 112.02 167.823 111.008 167.912V167.912Z" fill="#FF3D0A"/>
    <path d="M105.264 173.657C104.187 173.648 103.319 172.773 103.319 171.696V160.222C103.408 159.21 104.255 158.434 105.271 158.434C106.287 158.434 107.135 159.21 107.224 160.222V171.696C107.224 172.779 106.346 173.657 105.264 173.657V173.657Z" fill="#FF3D0A"/>
    <path d="M162.845 162.936H152.894C152.155 163.001 151.444 162.644 151.054 162.013C150.665 161.382 150.665 160.585 151.054 159.955C151.444 159.324 152.155 158.966 152.894 159.031H162.845C163.857 159.12 164.634 159.968 164.634 160.984C164.634 162 163.857 162.847 162.845 162.936V162.936Z" fill="#FF3D0A"/>
    <path d="M157.87 167.912C156.793 167.912 155.918 167.043 155.909 165.967V156.016C155.844 155.277 156.202 154.565 156.833 154.176C157.464 153.786 158.26 153.786 158.891 154.176C159.522 154.565 159.879 155.277 159.815 156.016V165.967C159.815 167.041 158.944 167.912 157.87 167.912V167.912Z" fill="#FF3D0A"/>
    </svg>