<svg width="114" height="112" viewBox="0 0 114 112" fill="none" xmlns="http://www.w3.org/2000/svg">
<path d="M58.0519 111.463C57.7914 111.463 57.5313 111.433 57.2768 111.372L54.259 110.647C53.8206 110.66 53.3822 110.666 52.9437 110.666C50.5239 110.666 48.0794 110.499 45.6776 110.171C40.1932 109.417 34.896 107.816 29.9312 105.413C29.6941 105.302 29.4634 105.188 29.2386 105.072C29.1192 105.013 28.9689 104.937 28.8251 104.862C23.6639 102.224 18.9679 98.7431 14.8922 94.5298C5.42005 84.8053 -0.0675054 71.2951 0.000627021 57.7233C0.000627021 48.9821 2.17708 40.3193 6.29464 32.6713C9.47125 26.7603 13.6921 21.5615 18.8395 17.2208C18.89 17.1777 18.9397 17.1369 18.988 17.0977C21.3559 15.1161 23.9082 13.3353 26.5801 11.801C26.6451 11.76 26.7101 11.7213 26.7756 11.6839C31.14 9.19592 35.8231 7.35211 40.7057 6.19698C40.7057 6.19698 40.8237 6.16736 40.8465 6.1618C44.7803 5.24156 48.8505 4.77466 52.9435 4.77466C55.4174 4.77466 57.8929 4.94788 60.3415 5.29122V3.8562C60.3415 2.02309 61.8277 0.536865 63.6608 0.536865H91.6278C93.4609 0.536865 94.9472 2.02309 94.9472 3.8562V25.4847C99.3551 31.2314 102.58 37.8932 104.317 44.8664C105.101 48.0156 105.598 51.2721 105.793 54.5472C105.803 54.6456 105.809 54.7384 105.812 54.8335C105.813 54.8449 105.814 54.8562 105.814 54.8676L110.378 54.4499C110.479 54.4401 110.58 54.4358 110.681 54.4358C111.603 54.4358 112.489 54.8206 113.12 55.5055C113.821 56.2649 114.128 57.3072 113.95 58.325L106.773 99.5014C106.664 100.126 106.383 100.69 105.98 101.142L104.703 102.881C104.19 103.58 103.423 104.051 102.566 104.192L58.59 111.419C58.4119 111.449 58.2318 111.463 58.0519 111.463Z" fill="white"/>
<path d="M102.801 57.9546C102.801 58.2146 102.801 58.4747 102.795 58.7292C102.773 60.0237 102.706 61.3015 102.585 62.5631C102.585 62.6129 102.579 62.657 102.574 62.7013C102.087 67.8741 100.803 72.8088 98.8451 77.3948C98.8286 77.4444 98.8063 77.4887 98.7843 77.5386C95.3487 85.5217 89.8886 92.4202 83.0397 97.5874C79.9528 99.9166 76.5892 101.897 72.9988 103.457C72.2685 103.778 71.5329 104.077 70.7861 104.359C65.8015 106.256 60.4353 107.368 54.8313 107.545C54.2782 107.567 53.7249 107.579 53.1716 107.579C50.8592 107.579 48.5801 107.418 46.356 107.114C41.1225 106.395 36.1546 104.862 31.5795 102.644C31.3748 102.55 31.1756 102.45 30.9821 102.351C30.8494 102.284 30.7165 102.218 30.5893 102.152C25.6989 99.6509 21.2841 96.3592 17.5057 92.4536C15.6746 90.5617 13.9926 88.5202 12.477 86.3571C11.614 85.1289 10.8118 83.8565 10.065 82.5455C5.91581 75.2983 3.5481 66.9004 3.5481 57.9548C3.5481 49.4574 5.68358 41.4634 9.44533 34.4763C12.4271 28.9275 16.4436 24.0039 21.2233 19.9763C21.2676 19.9376 21.3117 19.9044 21.3505 19.8712C23.591 17.9958 25.9975 16.3194 28.5424 14.8646C28.5812 14.837 28.6199 14.8147 28.6587 14.7927C32.6861 12.4969 37.0677 10.7542 41.698 9.6587C41.7423 9.64756 41.7864 9.63665 41.8307 9.62552C45.4709 8.77364 49.2716 8.32544 53.1716 8.32544C68.4571 8.32544 82.1326 15.2351 91.2385 26.106C95.9742 31.7654 99.4814 38.5036 101.324 45.9002C102.06 48.8544 102.53 51.9137 102.712 55.0505C102.718 55.1003 102.724 55.1444 102.724 55.1943C102.773 56.107 102.801 57.0308 102.801 57.9546Z" fill="#FFE5D2"/>
<path d="M102.585 62.5629C102.585 62.6127 102.579 62.6568 102.574 62.7011C99.9016 61.8602 97.3513 59.747 94.8175 56.2949C92.8757 53.6451 91.1717 50.735 89.5287 47.9191C86.6244 42.9512 83.6259 37.8119 79.2167 34.0279C75.3995 30.7528 70.5532 28.5897 65.5688 27.9425C62.15 27.4998 58.6093 27.7379 55.1904 27.9645C50.6153 28.2689 45.8908 28.5842 41.4486 27.262C35.8224 25.5857 30.9928 21.1544 28.8464 15.6942C28.7413 15.4177 28.6362 15.1412 28.542 14.8644C28.5807 14.8368 28.6195 14.8145 28.6582 14.7925C28.7577 15.0802 28.8628 15.3623 28.9735 15.6444C31.109 21.066 35.9054 25.4639 41.4874 27.1291C45.9075 28.4401 50.6209 28.1304 55.1795 27.826C58.6095 27.5991 62.1555 27.3614 65.5855 27.804C70.5977 28.4568 75.4716 30.6308 79.3053 33.9225C83.731 37.7233 86.7404 42.8682 89.6505 47.8525C91.2935 50.6629 92.9919 53.5674 94.9281 56.2172C97.4343 59.631 99.9514 61.7166 102.585 62.5629Z" fill="white"/>
<path d="M98.8451 77.3947C98.8286 77.4443 98.8064 77.4886 98.7843 77.5385H98.6572C97.6171 77.5385 96.5936 77.417 95.6144 77.1625C90.0268 75.735 86.5804 70.7286 85.0258 67.8684C83.4933 65.0469 82.398 61.9656 81.3357 58.9894C80.8047 57.4958 80.257 55.9521 79.6596 54.4641C77.419 48.8546 74.8133 45.1756 71.4663 42.8798C65.5689 38.8358 57.7906 39.544 52.3029 40.8494C51.473 41.0485 50.6211 41.2698 49.8022 41.4856C46.5659 42.3319 43.219 43.206 39.8665 42.8631C34.9594 42.3486 30.0855 39.0791 26.4951 33.8955C23.6296 29.7519 21.8481 24.939 21.2229 19.9764C21.2672 19.9377 21.3113 19.9045 21.35 19.8713C21.9586 24.8448 23.74 29.6688 26.6056 33.818C30.1739 38.9685 35.0146 42.2159 39.8829 42.7249C43.2134 43.0733 46.5437 42.1938 49.7688 41.3473C50.5875 41.1371 51.4396 40.9102 52.2695 40.7112C57.7851 39.4002 65.6076 38.6919 71.5436 42.7636C74.9126 45.0761 77.535 48.7771 79.7921 54.4089C80.3894 55.9025 80.9372 57.4461 81.4684 58.9397C82.5251 61.9159 83.6204 64.9864 85.1474 67.8023C86.6908 70.6402 90.1099 75.6192 95.6475 77.03C96.6764 77.2949 97.7496 77.4112 98.8451 77.3947Z" fill="white"/>
<path d="M102.723 55.194C101.49 54.9175 100.278 54.3918 99.177 53.6339C96.6599 51.8858 94.7126 49.1086 93.2134 45.142C92.5885 43.4879 92.0848 41.7564 91.5981 40.0856C91.1223 38.4535 90.63 36.7718 90.0215 35.1509C88.2954 30.5259 85.6788 26.6203 82.459 23.8651C78.8079 20.7451 74.2326 19.0355 69.8955 19.1849C67.8818 19.2569 65.879 19.7104 63.9372 20.1475C62.1504 20.5514 60.297 20.9717 58.4383 21.0935C58.0899 21.1156 57.7356 21.1267 57.3816 21.1267C52.2587 21.1267 47.3131 18.7755 44.2703 14.8476C43.0753 13.3042 42.2123 11.5227 41.698 9.65842C41.7423 9.64729 41.7864 9.63638 41.8307 9.62524C42.3397 11.4731 43.1971 13.2323 44.381 14.7648C47.396 18.6595 52.3031 20.9884 57.3816 20.9884C57.73 20.9884 58.0787 20.9773 58.4327 20.9553C60.2803 20.8335 62.1226 20.4187 63.9096 20.0148C65.8514 19.5721 67.8651 19.1186 69.8899 19.0467C70.0669 19.0411 70.2386 19.0411 70.4154 19.0411C74.6253 19.0411 79.0179 20.7451 82.5474 23.76C85.7892 26.5317 88.417 30.4539 90.1542 35.1065C90.7571 36.7275 91.2496 38.4148 91.7308 40.0468C92.2177 41.7176 92.7209 43.4436 93.3461 45.0977C94.8288 49.0312 96.765 51.7861 99.2545 53.5177C100.328 54.2591 101.512 54.7734 102.712 55.0502C102.718 55.1001 102.723 55.1442 102.723 55.194Z" fill="white"/>
<path d="M10.0505 82.5275C5.9122 75.2825 3.54761 66.8942 3.54761 57.9546C3.54761 49.4572 5.68309 41.4632 9.44485 34.4761C10.8057 34.7637 12.1944 35.3059 13.5885 36.1357C16.0116 37.5685 18.3185 39.4607 19.4082 42.0552C20.5146 44.7106 20.1993 47.7643 19.3583 50.5139C18.5174 53.269 17.1841 55.8469 16.2603 58.5742C15.4748 60.8812 14.9825 63.2932 14.8053 65.7219C14.6726 67.4755 14.7057 69.2737 15.2922 70.9278C16.1942 73.5001 10.0505 82.5275 10.0505 82.5275Z" fill="#F05D6A"/>
<path d="M19.6065 53.901C16.985 52.3966 15.2131 49.675 14.3637 46.7743C13.3145 43.1911 13.5911 39.1951 15.3275 35.8898C17.064 32.5845 20.2912 30.0482 23.9603 29.3576C24.0763 25.6341 25.8075 21.8712 28.7465 19.5821C31.6858 17.2932 35.5032 15.6547 39.142 16.4543C39.3725 16.5006 39.8252 16.1047 40.3825 15.888C41.0696 15.6209 41.1778 15.579 41.7211 15.5002C42.912 15.3274 44.1282 15.3661 45.3174 15.5342C46.963 15.7669 48.5891 16.2512 50.0116 17.1106C53.2141 19.0453 54.9517 23.1018 53.8782 26.7443C57.333 30.5933 59.7243 35.7471 59.5041 40.9142C59.2841 46.0816 56.5452 51.1916 52.091 53.82C47.3705 56.6054 41.5383 56.3995 36.0614 56.1915C30.8297 55.9929 25.4412 55.835 20.6521 53.7196L19.6065 53.901Z" fill="#401A49"/>
<path d="M64.0808 103.385C64.0808 103.385 61.8458 103.977 58.4657 104.746C57.8683 104.884 57.2264 105.028 56.5626 105.172C56.026 105.288 55.4674 105.41 54.8918 105.531C53.4312 105.836 51.8657 106.145 50.2448 106.444C48.9723 106.682 47.6667 106.903 46.3557 107.113C41.1222 106.394 36.1543 104.862 31.5792 102.643C31.3746 102.549 31.1753 102.45 30.9818 102.35C30.8491 102.284 30.7162 102.218 30.589 102.151C25.6987 99.6505 21.2839 96.3588 17.5054 92.4532C15.6743 90.5613 13.9923 88.5198 12.4767 86.3567C11.6137 85.1285 10.8115 83.8561 10.0647 82.5451C9.89327 76.2217 10.0148 69.5333 10.9442 65.1132C11.8791 60.6708 15.3534 56.7042 19.1043 53.5841C23.7569 49.7171 28.8187 47.1503 29.9529 46.6026C30.1023 46.5251 30.1854 46.4863 30.1854 46.4863L40.0603 48.4172C40.0603 48.4172 40.1211 48.4392 40.2429 48.4947C40.9013 48.8044 43.4184 50.0933 48.8122 54.1209C49.1498 54.3754 49.4818 54.6355 49.8024 54.912C55.5669 59.8303 58.5986 68.1284 60.7229 74.7838C61.2041 76.2885 61.6303 78.4516 62.0063 80.9355C62.5817 84.7251 63.0354 89.245 63.3728 93.2336C63.4558 94.2349 63.5331 95.1974 63.605 96.1103C63.7157 97.593 63.8098 98.9318 63.8815 100.044C64.0145 102.096 64.0808 103.385 64.0808 103.385Z" fill="#8F8FEF"/>
<path d="M52.9785 88.4248C52.9277 88.4248 52.8785 88.399 52.8504 88.3524C52.8077 88.2816 52.8304 88.1899 52.9012 88.1471C54.45 87.2136 56.1259 86.5229 57.8822 86.0945C57.9633 86.0745 58.0439 86.1248 58.0632 86.2045C58.0826 86.2846 58.0334 86.3655 57.9535 86.3853C56.2263 86.8063 54.578 87.4854 53.0555 88.4034C53.0312 88.4177 53.0047 88.4248 52.9785 88.4248Z" fill="#401A49"/>
<path d="M53.0502 88.2815C53.0465 88.2815 53.0427 88.2813 53.0384 88.2808C52.9563 88.2744 52.8948 88.2025 52.9013 88.1201C53.5555 79.7534 50.7927 71.3214 48.3549 63.8819C48.3291 63.8035 48.3723 63.7191 48.4506 63.6933C48.5263 63.667 48.6132 63.71 48.6392 63.7888C51.0855 71.2549 53.858 79.7169 53.1994 88.1432C53.1934 88.2218 53.1275 88.2815 53.0502 88.2815Z" fill="#401A49"/>
<path d="M40.2489 48.6215C40.2011 47.4732 40.2432 47.1201 40.3269 45.936C40.4046 44.8535 40.5302 43.783 40.6918 42.7485C40.0877 42.5332 39.4659 41.989 39.047 41.4985C37.217 39.3454 35.2254 37.3362 33.0904 35.4822C32.869 35.2907 32.6179 35.0934 32.3487 34.932C31.8584 34.6209 31.314 34.4357 30.8177 34.6508C30.6623 38.9389 30.3392 43.2207 29.8547 47.479C29.8547 47.479 33.1868 58.1649 38.3782 56.6379C43.5701 55.111 40.2489 48.6215 40.2489 48.6215Z" fill="#FF899A"/>
<path d="M40.6915 42.7482C40.5301 43.7828 40.4045 44.8534 40.3266 45.9357C37.8745 45.7264 35.5482 44.4646 33.9693 42.5747C32.2829 40.5532 31.4636 37.856 31.619 35.2307C31.8581 35.1171 32.0975 35.0154 32.3486 34.9316C32.6178 35.0931 32.869 35.2903 33.0903 35.4818C35.2253 37.3359 37.2167 39.3451 39.047 41.4982C39.4656 41.9887 40.0874 42.5331 40.6915 42.7482Z" fill="#401A49"/>
<path d="M50.1136 29.0528C50.1136 29.0613 50.1138 29.0695 50.1138 29.078C50.1436 32.4701 49.5322 36.0186 48.1622 39.1302C47.2656 41.1657 45.7306 43.2161 43.3168 43.3284C37.0192 43.6214 32.4862 40.679 30.979 34.9198C30.2136 35.2188 28.4432 35.2128 28.1801 35.1649C26.9002 34.9496 25.746 34.2619 25.4231 32.9161C24.879 30.6136 27.2772 28.7716 29.2147 29.2742C29.2087 29.2263 29.2087 29.1844 29.2027 29.1366C29.1789 28.8734 29.1669 28.6042 29.1669 28.3412C29.1669 22.564 33.8495 17.8813 39.6267 17.8813C40.5178 17.8813 41.385 17.9949 42.2104 18.2042C47.183 19.4653 50.0606 24.0923 50.1136 29.0528Z" fill="#FF899A"/>
<path d="M30.1737 33.4139C30.1279 33.4139 30.0824 33.3925 30.0533 33.3529C29.893 33.1342 29.7026 32.9383 29.4882 32.7704C29.3276 32.6444 29.1731 32.5498 29.0162 32.4812C28.4787 32.2454 27.8432 32.2908 27.2823 32.3313C27.1888 32.3391 27.1285 32.275 27.1225 32.1931C27.1165 32.1107 27.1786 32.0392 27.2607 32.0332C27.8557 31.9898 28.5314 31.9421 29.1359 32.2075C29.3163 32.2863 29.492 32.3937 29.673 32.5353C29.9086 32.7201 30.1176 32.9356 30.2942 33.1761C30.3434 33.2429 30.3287 33.3362 30.2624 33.3852C30.2354 33.4043 30.2047 33.4139 30.1737 33.4139Z" fill="#401A49"/>
<path d="M40.936 31.4624C40.936 32.0842 40.5172 32.5886 40.0008 32.5886C39.4845 32.5886 39.0657 32.0845 39.0657 31.4624C39.0657 30.8405 39.4843 30.3362 40.0008 30.3362C40.5174 30.3362 40.936 30.8405 40.936 31.4624Z" fill="#401A49"/>
<path d="M48.7995 31.4624C48.7995 32.0842 48.3807 32.5886 47.8643 32.5886C47.3478 32.5886 46.929 32.0845 46.929 31.4624C46.929 30.8405 47.3478 30.3362 47.8643 30.3362C48.3807 30.3362 48.7995 30.8405 48.7995 31.4624Z" fill="#401A49"/>
<path d="M45.2873 35.9456C45.0448 35.9456 44.7957 35.8529 44.585 35.681C44.4468 35.5686 44.3651 35.4501 44.3366 35.3183C44.3188 35.238 44.3695 35.1582 44.4506 35.1404C44.5332 35.1228 44.6111 35.1745 44.6282 35.2547C44.6418 35.3166 44.691 35.3818 44.7736 35.4493C44.9589 35.6007 45.1896 35.6692 45.3884 35.6385C45.544 35.6131 45.7573 35.5169 45.8308 35.4061C45.8562 35.368 45.8546 35.3435 45.8502 35.3261C45.4498 33.6883 45.2855 32.003 45.3628 30.3175C45.3661 30.2373 45.4325 30.1746 45.512 30.1746C45.5142 30.1746 45.5162 30.1748 45.5191 30.1748C45.6012 30.1786 45.6649 30.2485 45.6611 30.3309C45.5854 31.9881 45.7471 33.6451 46.141 35.2549C46.1668 35.3624 46.1459 35.4717 46.0804 35.5708C45.949 35.7692 45.6547 35.8977 45.4369 35.9333C45.3877 35.9415 45.3376 35.9456 45.2873 35.9456Z" fill="#401A49"/>
<path d="M38.8258 29.4196C38.7886 29.4196 38.7512 29.406 38.7227 29.3784C38.6628 29.3214 38.6606 29.2268 38.7178 29.1671C39.1684 28.6955 39.8264 28.4403 40.4763 28.4884C40.5585 28.4944 40.6206 28.5659 40.6146 28.6483C40.6086 28.7302 40.552 28.7908 40.4547 28.7866C39.901 28.7463 39.3245 28.9651 38.934 29.3733C38.9048 29.4042 38.8654 29.4196 38.8258 29.4196Z" fill="#401A49"/>
<path d="M48.9043 29.2029C48.8595 29.2029 48.8152 29.1826 48.7854 29.1443C48.4812 28.7484 47.8972 28.6687 47.4806 28.7631C47.3996 28.7805 47.3196 28.7304 47.3018 28.6503C47.2836 28.5699 47.3343 28.4897 47.4147 28.4715C47.937 28.3526 48.6366 28.4597 49.0229 28.9622C49.0733 29.0277 49.0608 29.1216 48.9953 29.1719C48.9679 29.1926 48.9361 29.2029 48.9043 29.2029Z" fill="#401A49"/>
<path d="M44.5017 37.582C44.3309 37.582 44.157 37.549 43.9927 37.48C43.5362 37.2885 43.1727 36.845 43.0197 36.2937C42.9981 36.214 43.0446 36.1316 43.1239 36.1098C43.2061 36.0882 43.2864 36.1345 43.308 36.2138C43.4361 36.6778 43.7353 37.0483 44.1082 37.2046C44.515 37.3754 45.0078 37.2556 45.2324 36.9343C45.2799 36.8659 45.3718 36.8495 45.4408 36.8975C45.5083 36.9448 45.5246 37.038 45.4776 37.1055C45.2641 37.411 44.8902 37.582 44.5017 37.582Z" fill="#401A49"/>
<path d="M42.2283 23.5928C41.7559 24.8009 41.0024 25.9311 39.9138 26.6309C38.8313 27.3365 37.4081 27.5578 36.2478 26.9958C36.3794 28.2995 35.9488 29.6572 35.0816 30.6438C34.2085 31.6306 33.0302 32.151 31.7146 32.1808C31.3917 31.5469 31.0626 30.907 30.626 30.3448C30.2433 29.8485 29.5114 29.3517 28.9492 29.0768C28.9254 28.8136 28.9111 28.5765 28.9111 28.3133C28.9111 22.536 33.708 17.5864 39.4852 17.5864C40.3763 17.5864 41.2939 17.6443 42.1192 17.8536C42.9146 19.4803 42.9043 21.8763 42.2283 23.5928Z" fill="#401A49"/>
<path d="M58.2287 106.34L35.9863 100.945L62.9623 96.0583L103.731 99.1631L58.2287 106.34Z" fill="#401A49"/>
<path opacity="0.35" d="M58.2287 106.34L35.9863 100.945L62.9623 96.0583L103.731 99.1631L58.2287 106.34Z" fill="#8F8FEF"/>
<path d="M50.3396 91.3756C50.3396 91.3756 58.8904 90.4594 60.2139 90.6631C61.5371 90.8666 67.136 97.0762 66.8305 97.8907C66.5251 98.7052 63.1659 100.843 62.3516 100.232C61.5371 99.6212 58.0762 98.0942 58.0762 98.0942L49.0164 98.9087L50.3396 91.3756Z" fill="#FF899A"/>
<path d="M35.9863 100.945L37.5133 103.388L58.2797 108.376L102.255 101.148L103.731 99.1377L58.2797 105.525L35.9863 100.945Z" fill="#401A49"/>
<path d="M64.7946 62.2112L58.2288 106.34L103.731 99.1631L110.908 57.9868L64.7946 62.2112Z" fill="#401A49"/>
<ellipse cx="87.6987" cy="81.6033" rx="5.34417" ry="5.19164" fill="#FFE5D2"/>
<path d="M53.3928 99.9274C53.3928 99.9274 47.4236 101.166 40.1597 101.803C40.0047 101.814 39.8498 101.83 39.695 101.847C38.7102 101.925 37.6978 101.997 36.6801 102.052C36.4423 102.063 36.1989 102.074 35.9609 102.085C34.1738 102.168 32.3594 102.196 30.5891 102.151C25.6987 99.6506 21.2839 96.3589 17.5055 92.4533C15.6743 90.5614 13.9924 88.5199 12.4768 86.3568C10.9554 76.5537 11.4535 66.131 11.4535 66.131L15.9344 59.7192C15.9344 59.7192 20.41 60.0234 24.0778 65.008C26.169 67.8626 26.9988 74.8166 27.3308 80.2436C27.4138 81.6819 27.4637 83.0152 27.4969 84.1383C27.5521 86.174 27.5356 87.5075 27.5356 87.5075L27.7569 87.5019L28.0557 87.4908L52.8842 86.7936L52.923 87.8005L52.9341 88.0715V88.1269L52.9397 88.232L52.9452 88.3703V88.4146L53.0503 91.1031L53.1278 93.0284L53.3104 97.8082L53.338 98.5218L53.3928 99.9274Z" fill="#8F8FEF"/>
<path d="M53.5418 99.9218C53.5418 99.9993 53.4922 100.06 53.42 100.071C53.3316 100.088 47.1908 101.156 40.6739 101.908C40.5134 101.93 40.3531 101.947 40.1872 101.963C39.0697 102.09 37.9411 102.212 36.8402 102.306C35.2249 102.455 33.6592 102.566 32.2264 102.621C32.0106 102.627 31.7949 102.632 31.5791 102.644C31.3745 102.549 31.1752 102.45 30.9818 102.35C31.3856 102.345 31.8005 102.339 32.2155 102.323C33.3882 102.278 34.6495 102.196 35.9608 102.085C36.193 102.068 36.4254 102.046 36.6632 102.024C37.5429 101.946 38.4447 101.858 39.3409 101.758C39.468 101.747 39.6009 101.731 39.7337 101.714C46.0571 101.017 52.2863 99.9657 53.2432 99.7998L53.221 98.5329L53.2098 97.8248L53.1268 93.0284L53.0936 91.0978L53.0437 88.409V88.3702H27.9445C27.9169 88.3702 27.8946 88.3647 27.8726 88.3482C27.8283 88.3262 27.7951 88.2818 27.7951 88.2266C27.7951 88.2155 27.7895 88.1327 27.784 87.9777C27.7784 87.8559 27.7673 87.7012 27.7564 87.5019C27.7176 86.7938 27.6346 85.5989 27.4963 84.1382C27.0704 79.7513 26.0911 72.93 23.9501 69.3617C20.6584 63.8793 16.2382 62.5184 16.1939 62.5073C16.1164 62.4853 16.0721 62.4022 16.0944 62.3194C16.1166 62.2419 16.1995 62.1976 16.2825 62.2199C16.3268 62.231 20.8521 63.625 24.2046 69.207C25.8088 71.8791 26.766 76.3271 27.3302 80.2438C27.7782 83.4026 27.983 86.2129 28.055 87.491C28.0717 87.7234 28.0826 87.9004 28.0826 88.022C28.0881 88.0441 28.0881 88.0552 28.0881 88.0719H53.1878C53.1934 88.0719 53.1989 88.0719 53.2043 88.0774C53.2818 88.083 53.337 88.1438 53.337 88.2157V88.2433L53.3869 91.0704L53.5031 97.7754L53.5198 98.5057L53.5418 99.9218Z" fill="#401A49"/>
<path d="M25.6129 91.5164C25.5871 91.5164 25.5606 91.5097 25.5368 91.4953C25.4655 91.4532 25.4421 91.3617 25.4845 91.2904C26.1771 90.123 26.962 88.9935 27.8172 87.9341C27.868 87.8705 27.963 87.8598 28.0274 87.9116C28.0917 87.9635 28.1015 88.0577 28.0494 88.1221C27.2033 89.1705 26.4265 90.2876 25.7416 91.4427C25.7136 91.4901 25.6639 91.5164 25.6129 91.5164Z" fill="#401A49"/>
<path opacity="0.16" d="M101.323 45.9001C99.3929 52.7989 93.0583 57.8551 85.5457 57.8551C76.495 57.8551 69.1594 50.5196 69.1594 41.4689C69.1594 32.4237 76.495 25.0881 85.5457 25.0881C87.5485 25.0881 89.468 25.4477 91.2383 26.1061C95.974 31.7653 99.4812 38.5035 101.323 45.9001Z" fill="#FFA766"/>
<path d="M97.27 39.6235C97.27 33.7145 92.4796 28.9241 86.5706 28.9241C80.6613 28.9241 75.8711 33.7145 75.8711 39.6235C75.8711 44.9668 79.792 49.3823 84.9109 50.1814V54.4192H88.7245V50.1059C93.6011 49.1091 97.27 44.7947 97.27 39.6235Z" fill="#FFA766"/>
<path fill-rule="evenodd" clip-rule="evenodd" d="M87.8875 51.3038C87.7931 52.2085 87.9213 52.8473 88.2802 53.2559L88.3847 53.165C88.0525 52.7867 87.9351 52.1827 88.0253 51.3188C88.1177 50.439 88.3172 49.611 88.6182 48.8578C88.9104 48.1263 89.3101 47.4403 89.6968 46.7767L89.7028 46.7664L89.7243 46.7294C89.93 46.3755 90.1424 46.0103 90.3367 45.6408C91.0456 44.2895 91.3395 43.1141 91.2342 42.0476C91.1806 41.5039 91.018 40.9669 90.7649 40.4944C90.5393 40.0749 90.2706 39.7592 89.9653 39.5561C89.1989 39.0465 88.0836 39.2397 87.3694 40.0054C87.1859 40.2014 87.0254 40.4316 86.89 40.691C86.888 40.6872 86.8861 40.6833 86.8841 40.6795C86.8725 40.6565 86.8608 40.6335 86.8488 40.6108C86.4754 39.9003 85.9179 39.3902 85.3194 39.2112C84.952 39.1012 84.5312 39.1017 84.1035 39.2132C83.1741 39.4546 82.3999 40.194 82.1312 41.0973C81.8952 41.8895 82.0036 42.8579 82.4531 43.9747C82.8452 44.9497 83.3992 45.9076 84.1956 46.9892C84.2797 47.1034 84.3654 47.2173 84.451 47.331L84.4582 47.3406L84.4604 47.3436C84.9202 47.9558 85.3953 48.5886 85.6834 49.3184C86.0878 50.3435 86.1423 51.5873 85.846 53.0152L85.9813 53.0432C86.2835 51.5884 86.226 50.3181 85.8115 49.2679C85.5173 48.5217 85.0369 47.8817 84.5724 47.2628L84.5684 47.2575C84.5502 47.2333 84.532 47.2091 84.5138 47.1849C84.4444 47.0925 84.3751 47.0001 84.307 46.9075C83.5179 45.8354 82.9693 44.8871 82.5812 43.9233C82.1437 42.8361 82.0368 41.8987 82.2634 41.137C82.5191 40.2791 83.2547 39.5764 84.1378 39.3473C84.5421 39.242 84.936 39.2413 85.2798 39.3437C85.8428 39.5123 86.3701 39.9976 86.7263 40.6752C86.7566 40.7322 86.7851 40.7901 86.8123 40.8484C86.5598 41.3924 86.4091 42.0487 86.3763 42.7728C86.3445 43.4755 86.4378 43.9959 86.6696 44.4104C86.7007 44.4657 86.796 44.6342 86.9534 44.6531C87.057 44.6632 87.1581 44.6148 87.256 44.5035C87.6702 44.0375 87.5956 43.2894 87.4851 42.6898C87.3711 42.077 87.2284 41.4351 86.9648 40.8491C87.104 40.5623 87.2734 40.31 87.4702 40.0996C88.1398 39.3833 89.1796 39.199 89.888 39.6712C90.1746 39.8616 90.4282 40.1606 90.6428 40.5596C90.8878 41.0163 91.0445 41.5353 91.0966 42.061C91.1986 43.1001 90.91 44.2499 90.2136 45.5767C90.0147 45.9561 89.7954 46.3326 89.5828 46.6967C89.1916 47.3675 88.7872 48.0618 88.4898 48.8059C88.1838 49.5711 87.9812 50.4117 87.8875 51.3038ZM86.5148 42.7788C86.544 42.1215 86.6727 41.5233 86.8878 41.0185C87.1144 41.5611 87.244 42.1503 87.3489 42.7149C87.454 43.2834 87.527 43.9901 87.153 44.4116C87.1071 44.4634 87.0367 44.5218 86.9702 44.5153C86.9107 44.5082 86.8519 44.4514 86.7905 44.3421C86.5716 43.9516 86.4841 43.4548 86.5148 42.7788Z" fill="#FFF5EE"/>
<path d="M84.8049 52.6182L88.7951 52.5476L88.914 55.6973C88.926 56.0179 88.6637 56.2818 88.3429 56.2711L85.2203 56.1678C84.9135 56.1575 84.6735 55.8995 84.6858 55.5926L84.8049 52.6182Z" fill="#8F8FEF"/>
<path d="M85.4521 56.0318L85.5312 56.6441C85.5668 56.9199 85.8017 57.1266 86.0798 57.1266H87.678C87.9274 57.1266 88.1461 56.9596 88.2117 56.7189L88.4184 55.9612L85.4521 56.0318Z" fill="#8F8FEF"/>
<path d="M93.3169 36.669C93.5226 36.8475 93.7766 37.0116 94.0469 36.9774C94.2467 36.952 94.4179 36.8204 94.5504 36.6688C94.912 36.2548 95.044 35.673 94.9854 35.1266C94.8861 34.2031 93.745 31.9774 92.4701 32.7816C91.1874 33.5908 92.5425 35.9963 93.3169 36.669Z" fill="#FFF5EE"/>
<path d="M93.8388 39.1132C93.8626 39.2898 93.9145 39.4661 94.0167 39.6122C94.2556 39.9528 94.7597 40.0575 95.1331 39.8736C95.9088 39.4917 95.8498 38.3063 95.1531 37.8739C94.3295 37.3629 93.7382 38.3704 93.8388 39.1132Z" fill="#FFF5EE"/>
<rect x="63.8884" y="4.08789" width="27.967" height="22.223" fill="#FFF5EE"/>
<path d="M64.6418 20.0959L56.8259 25.1809L66.0541 23.2033L64.6418 20.0959Z" fill="#FFF5EE"/>
<ellipse cx="77.5852" cy="15.2491" rx="6.82681" ry="6.82682" transform="rotate(-82.0271 77.5852 15.2491)" fill="#FFD2A7"/>
<path fill-rule="evenodd" clip-rule="evenodd" d="M71.2542 15.2464C71.2542 18.7377 74.0943 21.5781 77.5858 21.5781C81.077 21.5781 83.9177 18.7377 83.9177 15.2464C83.9177 11.7552 81.077 8.91479 77.5858 8.91479C74.0946 8.91479 71.2542 11.755 71.2542 15.2464ZM71.3597 15.2464C71.3597 11.8133 74.1527 9.02033 77.5858 9.02033C81.0189 9.02033 83.8121 11.8131 83.8121 15.2464C83.8121 18.6798 81.0189 21.4725 77.5858 21.4725C74.1527 21.4725 71.3597 18.6796 71.3597 15.2464Z" fill="#FFF5EE"/>
<path fill-rule="evenodd" clip-rule="evenodd" d="M78.0582 17.8605V18.5305H77.7081V17.8679C76.8892 17.8305 76.2783 17.4506 76.0474 16.8103L76.39 16.6165C76.5615 17.138 77.0157 17.4506 77.7081 17.4878V15.2762C76.9484 15.0081 76.2934 14.7324 76.2934 13.8463C76.2934 13.0717 76.9188 12.5504 77.7081 12.4985V11.8281H78.0582V12.4985C78.6466 12.5653 79.1454 12.8784 79.3763 13.4366L79.0412 13.6229C78.87 13.1983 78.5346 12.9452 78.0579 12.8857V15.0007C78.8176 15.2688 79.5027 15.5665 79.5027 16.4529C79.5027 17.2346 78.9071 17.7784 78.0582 17.8605ZM77.7079 14.8743V12.8784C77.0974 12.9303 76.6877 13.3253 76.6877 13.8465C76.6877 14.4347 77.1197 14.6581 77.7079 14.8743ZM78.0582 15.3953C78.6687 15.6115 79.1009 15.8571 79.1009 16.4529C79.1009 16.9888 78.7284 17.3987 78.0582 17.4729V15.3953Z" fill="white"/>
<rect x="23.3975" y="69.1086" width="35.5943" height="12.9948" fill="#FFF5EE"/>
<path d="M58.0502 79.3257L64.171 79.9848L57.8618 76.7832L58.0502 79.3257Z" fill="#FFF5EE"/>
<rect x="28.2" y="72.075" width="25.5187" height="0.988586" fill="#401A49"/>
<rect x="28.2" y="74.4292" width="25.5187" height="0.941605" fill="#401A49"/>
<rect x="28.2" y="76.7832" width="17.8912" height="0.988815" fill="#401A49"/>
<path d="M97.692 53.9094C94.1927 53.9117 91.3579 56.7501 91.3601 60.2493C91.3612 62.0532 92.12 63.6766 93.3306 64.8298L92.0619 67.4869L94.9865 65.966C95.8101 66.3567 96.7277 66.5818 97.7 66.5812C101.199 66.5789 104.034 63.7405 104.032 60.2413C104.03 56.742 101.191 53.9072 97.692 53.9094Z" fill="#F05D6A"/>
<path fill-rule="evenodd" clip-rule="evenodd" d="M97.4841 63.6648C97.4973 63.6775 97.5144 63.6824 97.5327 63.6824C97.5458 63.6824 97.5594 63.68 97.5716 63.6757C97.5892 63.67 97.6044 63.6555 97.6148 63.6383C97.6437 63.6155 97.697 63.5777 97.7704 63.5258C97.7808 63.5184 97.7917 63.5107 97.803 63.5027C100.722 61.4352 101.774 59.6953 100.927 58.3307C100.712 57.9842 100.423 57.7856 100.069 57.7407C99.2164 57.6298 98.2124 58.4663 97.8905 58.7595C97.5436 58.3158 96.7703 57.4561 95.9785 57.4243C95.6328 57.4102 95.3181 57.5556 95.0503 57.8562C94.0176 59.014 94.7762 60.9048 97.3049 63.4762L97.3109 63.4824C97.3797 63.5525 97.4297 63.6033 97.4554 63.6321C97.4616 63.645 97.4717 63.6562 97.4841 63.6648ZM95.1774 57.9693C95.3998 57.7197 95.6541 57.5937 95.9344 57.5937C95.9469 57.5937 95.9594 57.5939 95.9716 57.5944C96.7385 57.6251 97.5142 58.5433 97.8121 58.9365C97.8268 58.9559 97.8491 58.9682 97.8731 58.9702C97.8965 58.9684 97.9212 58.9633 97.9388 58.9468C98.1405 58.7544 99.1948 57.7977 100.047 57.9092C100.348 57.9475 100.595 58.1194 100.782 58.42C101.573 59.6945 100.537 61.3577 97.7043 63.3636C97.6962 63.3694 97.6882 63.375 97.6805 63.3805C97.6228 63.4215 97.5775 63.4537 97.5445 63.4783C97.5372 63.4708 97.5294 63.4628 97.5211 63.4542C97.4948 63.427 97.4632 63.3943 97.4262 63.3569C94.369 60.2482 94.5159 58.7112 95.1774 57.9693Z" fill="#401A49"/>
<path d="M71.2067 49.6202C69.3765 46.4461 65.3195 45.3566 62.1451 47.1871C58.971 49.0173 57.8815 53.0743 59.712 56.2485C61.1376 58.7208 63.9137 59.9205 66.5717 59.4685L68.7371 61.6253L68.3483 58.8989C68.4908 58.8297 68.634 58.762 68.7734 58.6816C71.9477 56.8514 73.0372 52.7944 71.2067 49.6202Z" fill="#FFF5EE"/>
<path fill-rule="evenodd" clip-rule="evenodd" d="M64.1891 56.278C64.4057 56.2891 65.5598 56.345 66.6276 56.345C67.4857 56.345 68.288 56.3087 68.5028 56.1838C69.0457 55.8679 68.8936 55.0481 68.8435 54.7786C68.8174 54.6379 68.906 54.3866 69.0002 54.1207L69.0028 54.1134C69.0942 53.8547 69.1886 53.5876 69.2075 53.3465C69.2375 52.9661 68.9916 52.614 68.8286 52.3807L68.8277 52.3793C68.7725 52.3005 68.7204 52.2259 68.7068 52.1872C68.6932 52.1496 68.7275 51.9979 68.7537 51.8818L68.7562 51.8708L68.7564 51.8698C68.8314 51.5402 68.9248 51.13 68.725 50.8935C68.4563 50.5738 66.8236 50.9151 66.3371 51.026C66.1353 50.405 65.3649 48.1729 64.7856 48.3517C64.2691 48.511 64.2819 49.6103 64.2913 50.414L64.2913 50.4155C64.2933 50.5794 64.2949 50.7274 64.2917 50.8468C64.2741 51.4607 63.6455 51.8824 63.6283 51.8939L63.628 51.8942C63.6015 51.9113 63.5868 51.9422 63.5911 51.9736L64.1114 56.2056C64.1161 56.2455 64.149 56.276 64.1891 56.278ZM68.4193 56.0413C68.0551 56.2522 65.3638 56.1698 64.2668 56.1166L63.7605 52.0028C63.9175 51.889 64.4394 51.4651 64.4561 50.8515C64.4596 50.7301 64.4581 50.5798 64.4561 50.4137C64.4483 49.7473 64.4354 48.6325 64.8344 48.5096C65.1641 48.4009 65.8339 49.9927 66.2028 51.1485C66.2159 51.1897 66.2582 51.2117 66.3003 51.2039C67.1569 51.0035 68.4367 50.8087 68.5988 51.0002C68.7456 51.1739 68.6588 51.5548 68.5954 51.8333L68.5952 51.834C68.5478 52.0409 68.5229 52.162 68.5505 52.2419C68.5718 52.3023 68.6248 52.3782 68.6921 52.4739C68.8421 52.6881 69.0684 53.0117 69.0428 53.3336C69.0252 53.5552 68.9334 53.8146 68.8444 54.0657C68.7379 54.3656 68.6464 54.6246 68.6807 54.8089C68.7257 55.0503 68.8622 55.7839 68.4193 56.0413Z" fill="#401A49"/>
<path d="M63.6728 51.9636L61.6917 52.1714L62.133 56.38L64.1934 56.1954L63.6728 51.9636Z" fill="#401A49"/>
</svg>
